<?xml version="1.0" encoding="utf-8"?>
<!-- Generator: Adobe Illustrator 23.0.0, SVG Export Plug-In . SVG Version: 6.00 Build 0)  -->
<svg version="1.1" id="Layer_1" xmlns="http://www.w3.org/2000/svg" xmlns:xlink="http://www.w3.org/1999/xlink" x="0px" y="0px"
	 viewBox="0 0 400 400" style="enable-background:new 0 0 400 400;" xml:space="preserve">
<style type="text/css">
	.st0{fill:#FCFBFB;}
	.st1{fill:#0C1611;}
	.st2{fill:#D3504E;}
	.st3{fill:#CC574E;}
	.st4{fill:#1F0706;}
	.st5{fill:#FCF8F7;}
	.st6{fill:#B24F44;}
	.st7{fill:#B66A4B;}
	.st8{fill:#8F6D66;}
	.st9{fill:#1F0B09;}
	.st10{fill:#501C18;}
	.st11{fill:#ECEDEC;}
	.st12{fill:#A25643;}
	.st13{fill:#431614;}
	.st14{fill:#8D6141;}
	.st15{fill:#917B4D;}
	.st16{fill:#034A0B;}
	.st17{fill:#D2543B;}
	.st18{fill:#776B3F;}
	.st19{fill:#9A824E;}
	.st20{fill:#AC724B;}
	.st21{fill:#80914D;}
	.st22{fill:#4D7A3A;}
	.st23{fill:#AC724A;}
	.st24{fill:#053A16;}
	.st25{fill:#77573A;}
	.st26{fill:#80914C;}
	.st27{fill:#690D0D;}
	.st28{fill:#0B4F12;}
	.st29{fill:#937E4E;}
	.st30{fill:#FE1917;}
	.st31{fill:#318038;}
	.st32{fill:#056216;}
	.st33{fill:#320405;}
	.st34{fill:#5C443E;}
	.st35{fill:#BABAB9;}
	.st36{fill:#50A94C;}
	.st37{fill:#01550C;}
	.st38{fill:#017D30;}
	.st39{fill:#430707;}
	.st40{fill:#500808;}
	.st41{fill:#91874D;}
	.st42{fill:#6A9F4C;}
	.st43{fill:#0AB64C;}
	.st44{fill:#14B54E;}
	.st45{fill:#2FB14E;}
	.st46{fill:#C51210;}
	.st47{fill:#0AB54B;}
	.st48{fill:#22A94D;}
	.st49{fill:#09B649;}
	.st50{fill:#82D093;}
	.st51{fill:#09B64B;}
	.st52{fill:#02752D;}
	.st53{fill:#147124;}
	.st54{fill:#CE1310;}
	.st55{fill:#017112;}
	.st56{fill:#008A34;}
	.st57{fill:#C51310;}
	.st58{fill:#BC130F;}
	.st59{fill:#EF4F4C;}
	.st60{fill:#017A2E;}
	.st61{fill:#DB1614;}
	.st62{fill:#01550D;}
	.st63{fill:#008A35;}
	.st64{fill:#02590F;}
	.st65{fill:#072B0F;}
	.st66{fill:#027616;}
	.st67{fill:#09B047;}
	.st68{fill:#01781B;}
	.st69{fill:#57AB6B;}
	.st70{fill:#008B35;}
	.st71{fill:#057517;}
</style>
<g>
	<g>
		<path class="st0" d="M152.7,44.9h1.1c5.3,0.3,10.8,1,15,4.6c14.1,0.3,28.2,1.2,42.2,1.7c3.7-2.1,6.8-6.7,11.6-5.8
			c4.9,0.4,7.2,5.3,10.7,8c3,1.7,7.6,2.5,8.2,6.5c2.1,12.3,2.6,24.8,3.5,37.2c4.1,1.9,10.5,1.8,11,7.6c-0.3,4.8,0.3,9.9-2.5,14.1
			c-0.7-5-0.5-10.1-1.4-15.1c-1.4,8.7-2.2,17.6-2.7,26.4c2-3.3,2.6-7.2,3-11c2,2.3,1.7,5.5,1.9,8.3c-0.7,4.4-6.4,4.3-8.3,7.7
			c5.8-0.9,11.8-3.1,17.7-1.3c7.8,1.4,13.6,7.8,15.9,15.1c1.8-5.8,6.2-11,12.3-12.3c9.9-3,22,4.8,21.5,15.6
			c-1.9,3.6-6.4,4.6-9.7,6.6c9.4,5.7,19.8,15.8,16.3,28c-3.4,14.6-26.3,17.9-33.4,4.7c-4.2-5.6,2.6-12.7,8.2-13.1
			c2.9,2.1,6,7.1,9.7,3.6c-3.6-6-11.2-7.3-16.4-11.5c-5.3-3.2-8-9.1-9.2-15c-4.3,2.1-8.7,4.6-13.6,4.9c-3.8-3.5-7.9-8.6-13.6-5.1
			c5.4,7.2,15.4,7.5,21.5,13.8c8.8,8.2,10.7,22.9,3.4,32.6c-2.9,4.1-7.7,6-12.1,7.7c5.9,15.9,7.2,33,5.7,49.8
			c8.5-0.6,19.4-3.9,26,3.6c8.8,10.6,10.1,25,12.2,38.1c0.5,5.7,2.8,13.1-2.7,17.2c-6.4,4.6-13,9.4-20.7,11.4
			c-6.2-0.3-12.1-2.6-18.1-3.9c-3.9-1-9.1-2-10-6.7c0.4-6.5,1.3-12.9,1-19.4c-5.8-0.1-12,1.7-17.7-0.1c-3.9-6-0.8-13.7-1.5-20.4
			c-5,0.8-10.1,1.6-15.2,2.3c14.4,21.4,13.8,50.8,0.8,72.7c-1.7,3.1-5.6,2.4-8.5,2.6c-7.7-0.2-15.5,0.4-23.2-0.4
			c-5.1-2-7.9-7.2-11.6-10.9c-2.8-3.7-8-7.8-5.7-13c4-6.5,11.4-10.8,14-18.3c1.4-5-2.6-8.9-4.2-13.2c0.3-6.4,2.1-12.6,3.1-18.8
			c-5.2-3.6-10.3-7.4-15.9-10.4c-6.3,0.9-12.5,2.3-18.7,3.4c-1.2,8.2-0.1,16.3,2,24.3c1.2,3.7-1.9,6.6-5.1,7.6
			c-6.7,2.6-13.3,6.2-20.6,7c-5.6-1.5-10.1-5.6-15.2-8.2c-3.2-2.2-8.2-3.6-8.5-8.2c-2.7-16.7-2.3-36.5,10.5-49.2
			c9.5-9.5,23.8-10.7,36.4-8.5c4.2-6.5,8.6-13.5,8.5-21.5c-0.9-5.3-4.1-9.7-6.1-14.6c-0.2,5.1-1.2,10.5-4.6,14.6
			c-6.2,8.3-20.8,9.6-27.3,1c-4.2-4.7,0.4-11.9,5.8-12.8c4.2-1.3,7.8,1.9,11.5,3.4c0.3-3.1-0.6-7.5-4.4-7.7
			c-6.6-0.2-13.3,1.2-19.6-1.3c4.5,8.1,5.5,19.1-1,26.5c-5.6,7.2-15.8,8.2-24,5.4c-3.2-1.8-8.7-3.1-8-7.9c0.7-3.7,3.5-6.7,6.6-8.6
			c4.6-0.6,9.7,4.1,13.7,0.4c0.6-5.1-3.5-11-9-10.8c-10.2-0.3-20.6,6.5-30.5,1.6c-10.8-5.5-14-20.2-8.9-30.7
			c5.8-14,24.6-23.2,38.2-14.3c0.5-0.6,1.1-1.1,1.6-1.7c-2-6-2.7-12.2-3.7-18.4c-1.9,0.7-3.8,1.4-5.6,2.1
			c-3.9-5.4-4.6-12.2-5.9-18.6c-0.9-5.2-2.1-10.7-0.8-15.9c1.7-3,5.4-4.2,8.1-6.3c-0.4-8.6-0.9-17.3-0.4-25.9c-0.1-3.8,2.7-7,6-8.5
			c11.9-5.8,24.1-10.9,36.2-16.2c5.2-2.4,11-2.6,16.5-3.1c2.4-1.5,4.9-2.6,7-4.4L152.7,44.9 M147.9,52.8c-5.8,0.3-11.8,0.2-17.2,2.8
			c-12,5.4-24.3,10.4-36.2,16.3c-2.3,1.1-4.2,3.2-4,5.9c-1,26,2.5,52,6.8,77.7c0.3,2.9,1.7,6.2,4.9,6.7c8.7,2.2,17.6,3.4,26.5,4.6
			c3.5,0.7,7.9,0,10.2,3.4c0.1,2.4,1.9,4.3,2.9,6.3c7.1,13.5,18,25.1,22.7,39.8c1.2,9.7-4.8,18.4-9.8,26.2
			c-8.3-1.5-17.2-2.5-25.3,0.8c-10.1,3.7-17.5,13-19.8,23.3c-2.4,10.4-2,21.3,0,31.7c6.3,4.9,13.5,8.9,20.6,12.6
			c8.2-1.6,16-5.4,23.5-8.9c-1.8-9.7-5.2-19.7-1.6-29.4c6.3-2.4,13.5-1.6,19.6-4.9c6.9,3.6,13.5,8,19.6,12.9
			c-0.9,6.7-2.3,13.3-3.4,20c2.9,3.9,5.8,8.5,4.5,13.6c-2.1,8.7-12,12.8-14.7,20.9c3.5,7.1,9.6,12.9,15.4,18.2
			c8.7,0.7,17.5,0.3,26.3,0.3c2.5,0.5,3.6-2,4.5-3.8c7-14.1,10-30.4,6.5-45.9c-2.2-8.5-4.6-17.9-11.7-23.6c7-3.8,15.7-2.7,23.3-4.6
			c-0.3,6.4-0.7,12.9-0.9,19.3c0.7,2.8,3.9,2.6,6,1.9c4.5,0,9-0.3,13.4-0.6c1,7.5-0.1,14.9-0.6,22.4c0.5,0.6,1.4,1.7,1.8,2.2
			c7.6,2.4,15.4,4.5,23.3,5.6c6.9-2.1,13-6.4,18.9-10.5c4.7-3.2,2.4-9.3,2.1-13.9c-2-12.4-3-25.8-10.5-36.3
			c-6.8-8.8-19.2-4.1-28.4-3.3c1.6-10.6,1.4-21.4,0.3-32c-0.5-0.4-1.6-1.2-2.2-1.6l-0.9,0.8c1.3,11.3,1.4,22.6-0.3,33.9
			c-1.1-3-0.3-6.2-0.1-9.3c1.2-10.1-0.2-20.3-1.8-30.3l-0.3-0.1c-1.6-8.9-4.4-17.9-9-25.8l0.1-0.1c-3.9-8.4-9.8-15.6-15.3-23
			c12,13,21.2,28.9,24.9,46.4c0.7,2.1,0.8,5.1,3.1,6.1l1.1-0.4c-1.4-7.3-3.4-14.5-6.1-21.4c4.9,1.6,10.4-1.4,13.6-5.1
			c6.5-8,5.6-20.4-1.2-28c-5.4-6.8-15.1-7.4-21.3-13.2c-3.2-3.1-0.2-8.5,3.9-8.3c4.8-0.4,8.2,3.7,11.4,6.7c3.4-1.3,6.8-2.7,10.1-4.1
			c0.2-6.8-3.9-13.4-10.2-15.9c-7.3-3.2-15.8-1.7-22.8,1.6c2,1.2,4.3,1.1,6.4,0.3c6.1-2,13-1.1,18.4,2.3c-4.2-1.9-8.7-3.1-13.3-2.7
			c-4.4-0.2-7.4,3.6-11.3,4.9l-0.3,1.3c0.7-2.4,0.4-4.9-0.6-7.1c0.1-21.6-0.6-43.2-3-64.7l-2.2-1.6c0.2,3.7,0.4,7.4,0.7,11.1
			c-0.3-0.3-0.8-0.8-1-1c0.5-5.8-0.6-11.6-1.9-17.2l-0.9-0.5c-0.8-1.7-1.6-3.4-2.4-5.2c7.2,1.9,2.1,11.6,7.8,14.3
			c-0.4-4.6-0.6-9.2-1.5-13.7c-2.3-4.2-10.1-2-10-8.2c-0.4,0.8-1.1,2.3-1.5,3.1c0-0.7-0.1-2.1-0.1-2.8c-6.3-0.9-10.7,3.8-14.7,7.7
			c2.2-3.5,4.8-6.8,8.3-8.9c2.3,1.7,4.7,0.2,6.7-0.8c-1.6-0.5-5-1.6-6.6-2.1c-3.6,1.1-5.9,4.1-8.4,6.7c-14.6-1.6-29.2-1.8-43.9-2.1
			c-1.2-0.7-3.6-2.1-4.8-2.8c-0.2,1.8-0.1,3.6,1.1,5c-3.2-0.8-6.5-3.9-9.8-1.8c-3.3,1.7-6.3,4.1-9.1,6.5c3-4.8,7.8-9.4,13.9-8.6
			c1-0.9,2-1.9,3-2.8C157.3,47.5,151.7,48.6,147.9,52.8 M246.5,100.3c0,10.5-1.3,21-0.8,31.5C248.9,121.9,249.7,110.3,246.5,100.3
			 M86.5,107.1c0.1,8.5,1.3,17,2.5,25.5c0.3,2.9,1.3,5.7,3.1,8.1c0.1-8.9-2-17.6-3.1-26.3C88.5,111.8,88.8,108.8,86.5,107.1
			 M84.6,129.9l1.8,1.1c-0.2-7.1-1.9-14.1-3.4-21.1C81.2,116.6,82.8,123.6,84.6,129.9 M85.9,137.3c-0.1,0.8,1.9,4.3,2.4,2.1
			c-0.6-2.7,0.2-6.7-2.5-8.3C83.4,131.9,85.8,135.6,85.9,137.3 M284.7,144.8c-3.8,6.3-3.1,15.3,2.1,20.6c5.1,5.2,12.4,7.2,17.9,11.7
			c2.5,2,3.8,6.5,0.2,8.1c-4.5,2.9-8.4-1.3-11.2-4.4c-2.1,2-4.1,4-6.1,6c3.5,12.5,22.3,13.5,28.3,2.7c4-6.3,1.8-14.5-3.1-19.7
			c-0.5-1.1-1.2-1.8-2.3-2.2c-4.2-5-11.6-6.7-15-12.2c-0.4-5.5,6.1-3.1,7,0.6c3.1-1.3,6-2.9,8.7-4.9c-1.4-3.4-2.5-7.3-5.8-9.4
			C299.3,137,289.2,138.2,284.7,144.8 M56.8,190c0.7,8.1,7,16.2,15.6,16.4c8.4-0.2,16.4-4.2,24.9-3.4c6.2,0.9,10.6,7.5,10.1,13.5
			c-2.4,6.8-10.7,4.6-15.4,1.9c-2.5,2.2-4.4,5-5.6,8.1c7.9,5.3,20.1,7.5,27.1-0.4c9.5-10.1,3.2-28.4-9.6-32.2
			c-8.9-3.3-18.7,0.7-27.6-2.5c-5.5-2.8-3.5-10.6-0.3-14.4c2.7-3.3,6.7-0.5,9.7,0.6c4.5-2,8.1-5.4,11.4-9c-2.9-3.4-6.7-6.1-11.3-6.6
			C70.2,159.6,55.1,174.5,56.8,190 M96.8,173c-3.3,3-6.8,6.1-11.2,7.4c-2.6,0.3-4.6-1.9-6.8-2.8c-2.2,3.1-5.7,9.2-0.7,11.4
			c10.7,1.7,22.6-1.7,32.4,4.7c-3.4-9.7,1.4-20.3,10.3-25.1c-6.9-1.3-14.1-2-20.7-4.5C98.3,166.9,99.5,170.9,96.8,173 M115.5,176.8
			c-4.6,6.1-4.7,16.4,2.4,20.7c5.7,3.5,12.6,1,18.9,1.5c6.1,0,10.4,8.8,5.1,12.9c-3.7,1.4-6.4-3.2-10-3.1c-3.7-0.2-5.7,3.4-7.5,6
			c4.2,8.3,16.2,9.5,22.7,3.4h0.1c0.3-1,0.9-2.9,1.2-3.9c0.3,0.5,1,1.6,1.3,2.2c5.3-7.8,3.3-19.6-5.1-24.2
			c-5.6-3.8-13.6,1.7-18.3-3.9c0.7-4,5-3,7.9-2.9c1.7-3.6,4-7.7,2.3-11.7C130.3,169,120.1,170.4,115.5,176.8 M139.6,178.9
			c-0.7,3.2-1.9,6.3-3.9,9c3.8-0.2,7.5,0.7,11.1,1.9C144.3,186.2,141.9,182.6,139.6,178.9z"/>
		<path class="st0" d="M193.9,138.8c3.6-0.8,7.3-1,11-0.6c0.8,3-1.6,8.8,2.9,9.5c0.2-1.5,0.7-4.4,0.9-5.8c0.6,3.7,1.6,7.3,3.4,10.6
			l-1.6-1.7c-1.5-1.2-4.7-2.1-5.4,0.7c-0.8,0-2.5,0.1-3.4,0.1c1.1-1.2,2.2-2.5,3.3-3.7c-0.3-2.5-0.7-5.1-0.9-7.6
			c-1.1-0.6-2.2-1.2-3.3-1.7C198.5,139.2,196.2,140,193.9,138.8z"/>
		<path class="st0" d="M218.9,164c4.2-2,8.4-4.4,10.6-8.7C228.3,160.4,224,163.8,218.9,164z"/>
		<path class="st0" d="M149.1,268.5c0.2-0.7,0.5-2.1,0.7-2.8c0.3,1,0.9,3,1.2,3.9c-0.5,0-1.6-0.1-2.1-0.1c-3.1,0-6.1,0.1-9.1,0.4
			C142.9,269.5,146,269,149.1,268.5z"/>
	</g>
	<g>
		<path class="st1" d="M147.9,52.8c3.8-4.3,9.4-5.3,14.9-4.8c-1,0.9-2,1.9-3,2.8c-6.1-0.8-10.9,3.9-13.9,8.6
			c-2.1,3.2-3.7,6.7-5.5,10.1c1.1-4.1,2.4-8.2,4-12.2c0.2-0.3,0.7-0.9,0.9-1.2c-11-0.2-20.5,5.6-30.5,9c1,0.4,1.9,0.7,2.9,1
			c-1.6,3-3.9,5.3-7.3,3.4c0.8-0.3,2.5-0.9,3.3-1.2c-0.2-1.3-1-2.1-2.4-2.4c-1,0.6-3.1,1.7-4.1,2.2c-1.9,0.9-3.8,1.8-5.6,2.7
			c-2.7,1.5-6.1,2.6-7.9,5.3c-1.3,3.2-1.1,6.8-1.3,10.3c-0.1,2.6,0,5.1,0.1,7.7c0.2,3.3,0.6,6.6,0.9,9.9c0.5,7.6,0.9,15.1,1.9,22.6
			c0.3,2.5,0.7,5.1,1.1,7.6c0.9,5.9,1.6,11.8,2.7,17.6c0.4,4.5,3.2,8.4,8.1,8.5c10,1.7,20.2,2.6,30.1,4.7l1.1,0.2
			c0.1,1.2,0.3,3.6,0.4,4.8c-2.3-3.4-6.7-2.8-10.2-3.4c-8.9-1.3-17.8-2.4-26.5-4.6c-3.3-0.5-4.6-3.8-4.9-6.7
			c-4.3-25.6-7.7-51.6-6.8-77.7c-0.2-2.7,1.7-4.8,4-5.9c11.9-5.9,24.2-10.9,36.3-16.3C136.1,53.1,142.1,53.1,147.9,52.8z"/>
		<path class="st1" d="M212.4,54.6c2.5-2.5,4.9-5.6,8.4-6.7c1.7,0.5,5,1.6,6.6,2.1c-2,1.1-4.4,2.6-6.7,0.8c-3.6,2.1-6.2,5.4-8.3,8.9
			c-2.4,3.3-4.7,6.7-7.3,9.9c1.1-3.5,2.4-7,4.1-10.3L210,58c-13.2-1.5-26.6-2.1-39.9-2.3c0.2,0.4,0.6,1.4,0.8,1.8
			c1.9,4.1,3.6,8.2,5.1,12.5c-4.5-4.6-6.1-11.3-11.2-15.3c-1.3-1.4-1.3-3.2-1.1-5c1.2,0.7,3.6,2.1,4.8,2.8
			C183.2,52.8,197.8,53,212.4,54.6z"/>
		<path class="st1" d="M186.8,71.2c3.5,4.8,4.9,10.6,4.1,16.4c-1.2,4.3-4.7,7-8.9,8.1c-1.1,7.7-4.4,14.8-9.9,20.3
			c-3.4,1.7-6.9,3.4-10.6,4.7c-4-0.2-8.3-0.6-11.6-3.3c4.2,0.9,8.6,0.8,12.8-0.2c-2.6-1-5.2-2-7.8-3c0.2-0.5,0.7-1.4,1-1.8
			c3.8,0.8,7.9,2.2,11.7,0.9c3.8-1.1,6.3-4.4,9-7.1c-2.2-0.1-4.3-0.1-6.5-0.1C164,105.9,158,107,152,108l-0.7-1
			c-0.1-0.9-0.4-2.8-0.5-3.7c0.2-8.3-2.6-17.8,3.2-24.8c4.3-5.6,12.1-3,18-2.7c3.4,4,6.5,8.2,10,12.1c1.1,1.2,2.2,2.4,3.2,3.6
			c3.2-3.9,4.3-8.9,3.5-13.8C188.1,75.5,187.5,73.4,186.8,71.2z"/>
		<path class="st1" d="M214.1,75.5c3.9,0.1,8.5-0.5,11.4,2.7c4.9,4.7,3.6,12,3.9,18c-2.6-0.1-5.3-0.3-7.8,0.4
			c-4.2,1.2-8.1,3.2-11.7,5.7c-1.6-0.3-4.6-1-6.2-1.3c-0.4-1.7-0.8-3.3-1.2-5c-2.5-1.4-5-2.9-7.3-4.7c-0.1-4.7-0.1-9.5-0.1-14.2
			c0.2,0.9,0.5,2.8,0.7,3.7c0.5,4.8,1.3,11,7.6,10.7C207.1,86.3,210.4,80.8,214.1,75.5z"/>
		<path class="st1" d="M238.1,72.2l2.2,1.6c2.5,21.5,3.1,43.1,3,64.7c1,2.2,1.3,4.7,0.6,7.1c-1.5,5.9-1.1,12.5-4.8,17.7
			c-0.8-0.1-2.3-0.4-3-0.6c-1.7,0.3-3.3,0.7-4.9,1.3c0,0.3,0.1,1.1,0.1,1.4c9.3,8.2,17.2,17.9,23.9,28.4l0.7,1.1
			c0.2,0.6,0.8,1.8,1,2.4c1.1,2.3,2.1,4.7,3.2,7.1l0.5,1.3c2.7,6.9,4.7,14.1,6.1,21.4l-1.1,0.4c-2.3-1-2.4-3.9-3.1-6.1
			c-3.6-17.5-12.8-33.4-24.9-46.4c-2.8-3.2-5.9-6.1-9.2-8.8c0.6-1.8,1.2-3.7,1.8-5.5c2.1-0.3,4.2-0.7,6.3-1.1
			c3.8-3,3.5-8.2,3.9-12.5c0.2-5.8,0.3-11.6,0.2-17.5c0-9.7,0.2-19.4-0.5-29c-0.2-5.8-0.7-11.5-1.3-17.3
			C238.5,79.6,238.2,75.9,238.1,72.2z"/>
		<path class="st1" d="M246.5,100.3c3.2,10,2.3,21.6-0.8,31.5C245.3,121.3,246.5,110.8,246.5,100.3z"/>
		<path class="st1" d="M252.2,103.6c0.9,5,0.7,10.1,1.4,15.1c2.7-4.2,2.2-9.3,2.5-14.1c1.3,4,0.7,8.3,0.8,12.5l-1.1-0.2
			c-0.4,3.4-0.2,7-1.3,10.3c-0.2-2.8,0.1-6.1-1.9-8.3c-0.4,3.8-1.1,7.7-3,11C250,121.2,250.8,112.4,252.2,103.6z"/>
		<path class="st1" d="M86.5,107.1c2.3,1.7,2,4.7,2.5,7.2c1.1,8.8,3.2,17.5,3.1,26.3c-1.8-2.3-2.8-5.1-3.1-8.1
			C87.8,124.1,86.6,115.6,86.5,107.1z"/>
		<path class="st1" d="M84.6,129.9c-1.8-6.4-3.4-13.4-1.7-20c1.6,6.9,3.3,14,3.4,21.1L84.6,129.9z"/>
		<path class="st1" d="M175.7,117.3c12.2-3.5,25.6-3.4,37.4,1.8c2.2,2.3,4.4,4.5,6.4,6.9c1.8,3.6,3.4,7.3,4.7,11.1
			c1.8,5,3.1,10.1,3.8,15.3c-2.1,2.3-3.2,6.8-7.2,6.2c-3.9-0.1-6.2-3.9-8.7-6.3c-1.8-3.3-2.8-6.9-3.4-10.6c-0.1-1-0.3-3-0.4-3.9
			l1,1.5c2.4,4.1,4.5,8.4,7.1,12.4c1.4,1.9,3,3.6,4.7,5.3c0.2-0.5,0.8-1.6,1-2.1c5.1-6.5,1-14.6-1.8-21.2c-1.2-2.4-2.6-4.8-3.9-7.1
			c-0.4-0.7-1.2-2-1.6-2.6c-0.6-0.5-1.7-1.6-2.3-2.1c-1.5-0.7-3.1-1.4-4.7-2.1c-0.6-0.2-1.6-0.6-2.2-0.9c-0.5-0.1-1.4-0.3-1.8-0.3
			c-3-0.5-6.1-0.7-9.1-0.9c-1.1,0-3.3-0.1-4.4-0.1c-4.7-0.1-9.2,1.4-13.5,3.2l-0.6,0.4c-2.4,1.5-4.9,3-7.2,4.8c0,0.6,0,1.7,0,2.3
			c-2.8,2-5.7,3.7-8.5,5.5c2-3.4,4.1-6.8,6.5-9.9C169.8,121.8,172.7,119.5,175.7,117.3z"/>
		<path class="st1" d="M85.9,137.3c-0.1-1.8-2.5-5.5-0.1-6.3c2.7,1.7,1.9,5.6,2.5,8.3C87.8,141.6,85.8,138.2,85.9,137.3z"/>
		<path class="st1" d="M265.3,228.9c0.5,0.4,1.6,1.2,2.2,1.6c1.1,10.7,1.3,21.4-0.3,32c9.2-0.8,21.6-5.5,28.4,3.3
			c7.6,10.5,8.5,23.9,10.5,36.3c0.3,4.6,2.6,10.7-2.1,13.9c-5.9,4.1-11.9,8.4-18.9,10.5c-7.9-1.1-15.7-3.2-23.3-5.6
			c-0.5-0.6-1.4-1.7-1.8-2.2c0.5-7.5,1.6-14.9,0.6-22.4c-4.5,0.3-9,0.6-13.4,0.6c0.7-0.6,2-1.8,2.7-2.4c4.4-0.7,8.8-0.8,13.3-1.1
			c1.6,8.7,0.7,17.5,1,26.3c6.8,1.4,13.6,3.1,20.5,4.3c6.3-3.2,13.1-6,18.3-11c2.1-6.2,0.3-13-0.4-19.4c-1.4-9.2-3.5-18.5-8.4-26.5
			c-7.7-8.3-20-2.6-29.7-2.3l-0.3-1.3c1.7-11.2,1.6-22.6,0.3-33.9L265.3,228.9z"/>
	</g>
	<g>
		<path class="st2" d="M155.1,52.9c3.3-2.1,6.6,1,9.8,1.8c5.1,4,6.7,10.8,11.2,15.3c-1.5-4.3-3.2-8.4-5.1-12.5
			c12.8-0.8,25.5,0.8,38.2,1.8c-1.7,3.3-3,6.8-4.1,10.3c0.4,0.7,1.2,2.1,1.6,2.8c-2.5,2-5.6,3.1-8.4,4.4c-1.1-0.7-2.2-1.3-3.3-1.9
			c0,0.6,0.1,1.7,0.2,2.2c0,4.7,0,9.5,0.1,14.2c-1.5-1.2-2.9-2.5-4.3-3.7c0.8-5.9-0.5-11.7-4.1-16.4c0.6,2.2,1.3,4.3,1.8,6.5
			c-0.3,4.3-1.4,8.4-3.4,12.2c-0.8-0.5-2.5-1.5-3.3-2c-3.5-3.9-6.6-8.1-10-12.1c-5.8-8.1-17.7-12.5-26.4-6.3
			c-0.2,0.1-0.6,0.3-0.8,0.4c-2.4,4.9-3.9,10.2-6.4,15c-0.3,0.6-0.9,1.7-1.2,2.2c0.6-8.1-1-16.1-2.1-24.1c1.2-4.3,5.7-4.7,9.3-5.7
			c-1.6,4-2.8,8.1-4,12.2c1.8-3.4,3.4-6.9,5.5-10.1C148.8,57,151.7,54.6,155.1,52.9z"/>
		<path class="st2" d="M289.6,143.3c5.6-4.3,14.9-2.7,17.9,4c-4.6-2.2-10-6-15.2-3.1c-3.3,2.1-5.5,5.4-8.1,8.2
			C285.3,149.2,286.3,145.3,289.6,143.3z"/>
		<path class="st2" d="M259.6,166.5c3.1,0.7,6,1.9,8,4.6C264,172.2,260,170.5,259.6,166.5z"/>
		<path class="st2" d="M119.2,175.5c4.3-3.5,10.3-1.8,15.3-1c-3.9,0.4-7.9,0.1-11.6,1.5c-3.3,2-5.7,5-8.2,7.9
			C115.6,180.8,116.5,177.5,119.2,175.5z"/>
		<path class="st2" d="M290.4,187c2.1-3.3,6.3-2.1,7.7,1.1c-2.2,0.3-4.4,0.4-6.6,0.5C291.3,188.2,290.7,187.4,290.4,187z"/>
		<path class="st2" d="M129.8,193.4c4.7,0,9.7-0.8,14.2,1.2C139.2,194.4,134.4,194.5,129.8,193.4z"/>
		<path class="st2" d="M255.9,194.8c1.1,0.1,3.3,0.3,4.4,0.3c-0.8,0.5-2.5,1.5-3.4,2C256.7,196.6,256.2,195.4,255.9,194.8z"/>
		<path class="st2" d="M127.9,213.4c1.1-3,4.9-2.5,6.9-0.9C132.9,213.9,130.1,215.1,127.9,213.4z"/>
		<path class="st2" d="M89.5,225.8c-2-2.5,3.4-6.7,4.5-3.4c-1.2,1.3-2.4,2.5-3.7,3.6L89.5,225.8z"/>
		<path class="st2" d="M64.3,238c9,1.6,18.5-3.9,27,0.7c-2.9,0-5.8,0.1-8.7,0.3c-5.4,0.3-10.8,1.1-16.2,0.8
			C65.9,239.4,64.8,238.5,64.3,238z"/>
		<path class="st2" d="M73,262.3c-2.7-2.5,2.1-9.1,4.1-5.2C75.9,258.9,74.5,260.6,73,262.3z"/>
	</g>
	<g>
		<path class="st3" d="M212.4,59.8c4-3.9,8.4-8.7,14.7-7.7c0,0.7,0.1,2.1,0.1,2.8l-0.1,1c1.6,2.3,3.2,4.7,4.9,7
			c-1.1,1.7-2.1,3.3-3.2,5c-6.3-0.6-11.2,3.1-14.8,7.8c-3.7,5.2-7,10.7-10.7,16c-1.6-1.1-3.2-2.2-4.8-3.3c-1-2.4-2-4.9-2.9-7.3
			c-0.2-0.9-0.5-2.8-0.7-3.7c-0.1-0.6-0.2-1.7-0.2-2.2c1.1,0.6,2.2,1.3,3.3,1.9c2.9-1.4,5.9-2.4,8.4-4.4c-0.4-0.7-1.2-2.1-1.6-2.8
			C207.7,66.5,210,63.1,212.4,59.8z"/>
	</g>
	<g>
		<path class="st4" d="M227.3,54.8c0.4-0.8,1.2-2.3,1.5-3.1c-0.1,6.2,7.7,3.9,10,8.2c0.9,4.5,1.1,9.1,1.5,13.7
			c-5.6-2.7-0.6-12.4-7.8-14.3c0.8,1.7,1.6,3.5,2.4,5.2c-0.7-0.4-2.1-1.3-2.8-1.7c-1.7-2.3-3.3-4.7-4.9-7L227.3,54.8z"/>
		<path class="st4" d="M214.1,75.5c3.6-4.7,8.5-8.4,14.8-7.8c-0.5,0.6-1.5,1.9-1.9,2.5c4.5,1.9,6.7,6.3,9,10.2
			c0.9,7,1.5,14.4-1.2,21c-2.5,6.5-7.8,11.7-13.7,15.4c-4.5,1.6-8.5-1.7-12-4c-2.3-3.6-4.3-7.5-5.3-11.7c1.5,0.3,4.6,1,6.2,1.3
			l-1.6,1.3c-2.2,3.5,4,8.4,7.7,9c9.6,1.9,15.3-7.9,18-15.6c-1.1-0.2-3.4-0.6-4.6-0.8c-0.3-6.1,0.9-13.3-3.9-18
			C222.6,75.1,218,75.6,214.1,75.5 M224.1,72.6c3.2,4,7.3,8,7.1,13.6c0.6,3-1.1,7.5,2.9,8.7C235.2,86.5,233.1,75.9,224.1,72.6z"/>
		<path class="st4" d="M113.5,261.8l1.4-1.6c0.8,2.9,3.4,5.9,2,9c-0.8,3.1-3.6,5-5.8,7C111,271.4,111.4,266.4,113.5,261.8z"/>
		<path class="st4" d="M208.2,277.4c3.8-0.3,7.6-1.1,11.4-1.8l-1.3,0.3c-0.3,1.3-0.8,3.9-1.1,5.1c-0.7-0.6-2-1.7-2.7-2.3
			c-6.8,1.1-13.6,2.2-20.5,2.7c0-1,0.1-2.9,0.1-3.8C198.8,278.2,203.5,277.8,208.2,277.4z"/>
	</g>
	<g>
		<path class="st5" d="M170.1,55.7c13.3,0.2,26.6,0.8,39.9,2.3l-0.9,1.3c-12.7-1-25.4-2.6-38.2-1.8
			C170.8,57.1,170.3,56.2,170.1,55.7z"/>
		<path class="st5" d="M114.8,65.2c10-3.4,19.5-9.2,30.5-9c-0.2,0.3-0.6,0.9-0.9,1.2c-3.6,1-8.1,1.4-9.3,5.7l-0.4-2.8
			c-6.3-0.2-11.7,3.1-17.1,5.9C116.7,66,115.7,65.6,114.8,65.2z"/>
		<path class="st5" d="M188.7,77.7c0.9,4.9-0.3,9.9-3.5,13.8c-1.1-1.2-2.2-2.4-3.2-3.6c0.8,0.5,2.5,1.5,3.3,2
			C187.3,86.1,188.4,82,188.7,77.7z"/>
		<path class="st5" d="M195.8,80.9c0.9,2.5,1.9,4.9,2.9,7.3c1.6,1.1,3.2,2.2,4.8,3.3C197.1,91.9,196.3,85.7,195.8,80.9z"/>
		<path class="st5" d="M209.9,102.4c3.6-2.5,7.5-4.5,11.7-5.7c-4.3,2.5-8.7,4.9-13.3,7L209.9,102.4z"/>
		<path class="st5" d="M152,108c6-1,12-2.1,18.1-1.9c-5.5,1-12.3,0-16.6,4.3C153.2,109.8,152.4,108.6,152,108z"/>
		<path class="st5" d="M317.9,112.1c7.7-5.4,19.2-1.8,22.5,6.9c-2.3,2.9-4.3,6.3-7.5,8.3c-2.4-0.1-4.8-0.8-7.1-1.2
			c1.5,3.6,6.1,1.8,9,3c13.1,2,19.9,19,13.3,30c-3.9,8.6-14.6,13.4-23.4,9.4c-6.5-2.2-10.2-8.5-11.3-15c2.5-2.3,4.7-5.5,8.2-6.3
			c3.2-0.1,4.2,3.8,6.4,5.5c4.3,0.1,5.3-5.5,3.6-8.4c-5.1-1.9-11.4,0.8-16.1-2.8C305.3,134.6,307.5,117.7,317.9,112.1 M320.1,114.2
			c-8.7,4.1-11.2,17.1-4.4,23.8c4.3,4.1,10.6,1.7,15.8,3c6.8,2.4,4.2,15.4-3.3,14.3c-3.3,0-4.6-3.5-6.5-5.6c-1.8,1.5-3.5,3-5.3,4.5
			c1.4,12.8,20,17.4,27.2,6.7c8.5-9.5,3.1-27.8-10.1-29.2c-3.5-1.1-10,0.7-10.7-4.3c0.5-4.8,5.8-4.7,9.2-3c1.9-1.9,3.7-3.8,5.6-5.7
			C333.8,113.2,326,110.1,320.1,114.2z"/>
		<path class="st5" d="M240.2,147h0.1c-0.4,4.4-0.1,9.5-3.9,12.5C238.3,155.6,239.4,151.3,240.2,147z"/>
		<path class="st5" d="M320.4,153.7h1.6c0.4,0.7,1.3,2,1.7,2.6c-1.7,0.3-3.1-0.2-4.1-1.5L320.4,153.7z"/>
		<path class="st5" d="M77.2,164.9c6-1.6,12.8,0,17.2,4.5l-0.6-0.3c-4.5-2.8-9.7-5.1-15.1-3.9c-12.5,2.5-20.2,16-18.9,28.2
			C57.6,181.4,65.3,168.1,77.2,164.9z"/>
		<path class="st5" d="M231.2,163.9c1.6-0.6,3.2-1,4.9-1.3c5.8,10.1,20.3,9.5,26.2,19.5c3.2,5.4-2.5,10.1-7.1,11.6
			c-6.7-10.5-14.6-20.1-23.9-28.4C231.3,165,231.2,164.3,231.2,163.9 M243.6,173c4.3,5.7,8.8,11.3,12.6,17.3
			c2.6-1.4,5.7-4.5,3.3-7.5C255.7,177.6,249,175.8,243.6,173z"/>
		<path class="st5" d="M180.9,182.1c8.1,10.4,13.4,22.7,18,34.9c0.7,2.6,1.6,5.2,2.8,7.7c4.1,17.3,0.3,35.3-5,52
			c3.8,0.3,7.6,0.7,11.4,0.8c-4.7,0.4-9.4,0.8-14.1,0.3c-4.4-2.1-8.7-4.6-12.4-7.9c0.2,0.1,0.5,0.2,0.7,0.2c3.6,3,7.9,5,12.5,6.1
			c5.8-15,8.7-31.7,6-47.6c-0.8-3.9-1.9-7.8-3.2-11.6c-3-9.4-7.4-18.3-11.9-27C184.2,187.3,182.6,184.6,180.9,182.1z"/>
		<path class="st5" d="M47.1,217.3c5.1-11.7,24.3-10.1,29.1,0.9c2,7.3-6.7,11.2-12.2,13.4c9,3.6,18.8-1.5,28.1,1.1
			c6.5,4.5,12.1,11.8,11.1,20.2c-1.5,14.8-20.9,24.1-33.2,15.4c-6.1-3-2.4-10.7,0.2-14.9c-6.5,0-13.6-1.5-18-6.6
			C45.4,238.8,42.9,226.9,47.1,217.3 M56.7,212.5c-4.7,1.2-7.7,5.7-8.4,10.3c-1.2,7.3,0.6,15.1,5.2,21c4.7,6.1,13.5,8.1,20.6,5.6
			c4.4-1.3,9-3.4,13.7-2c3.7,0.8,5.8,6,2.2,8.4c-4.9,4-10.5-2.2-15.8-1.7c-3.3,2.2-5,6.5-4.6,10.4c8.7,7.7,23.2,4.3,28.7-5.5
			c5-8.1,0.6-20.2-8.4-23.3c-6.9-2.2-14,0.4-20.9,0.4c-5.5,0-10.3-5.5-8.4-11c4.7,7.3,18.1-3.5,10.8-9
			C67.5,212.6,61.8,211.2,56.7,212.5 M77.5,250.9c3.3,1.6,10.3,6.3,11.4,0.3C85.7,248.5,81.2,250.2,77.5,250.9z"/>
		<path class="st5" d="M264.3,264.9c9.7-0.4,21.9-6.1,29.7,2.3c-7.1-5.3-16-2.9-24-1.8c-1.7,0.2-3.5,0.4-5.2,0.7L264.3,264.9z"/>
		<path class="st5" d="M130,302.6c2,0.7,3.1,2.7,3.5,4.6c-1.4,0.8-2.7,0.7-4-0.2C129.6,305.9,129.9,303.7,130,302.6z"/>
		<path class="st5" d="M208.8,315.3c-0.3,12.2-6.9,22.8-12,33.5c6.9,0.3,14,1.2,20.9-0.2c1.1-1,2-2.2,2.8-3.4
			c1.8-3.3,3.5-6.8,5.3-10.2c-1.9,4.9-3.3,10.1-6.4,14.4c-8.5,1.3-17.2,0.3-25.8,0.1c-1.3-1.5-2.6-3-3.9-4.5
			c1.7,1.2,3.5,2.5,5.2,3.7C201.4,338.4,207.5,327.4,208.8,315.3z"/>
	</g>
	<g>
		<path class="st6" d="M117.7,66.3c5.3-2.8,10.8-6.1,17.1-5.9l0.4,2.8c1.1,8,2.7,16,2.1,24.1v0.4c-3.7-0.3-7.4-0.4-11.1-1.3
			c0.3-1.8,0.9-3.5,1.3-5.3c0.6-3.2,1.7-10.5-3.8-8.5c-1.2,3-0.4,6.2-0.4,9.3c0,1,0.2,3.1,0.2,4.1c-6.3-3.7-12.3-8.5-19.8-9.6
			c-0.6-1.6-1.3-3.2-1.9-4.9l-0.1-0.4c1.9-0.9,3.8-1.7,5.6-2.7c0.8,0.3,2.4,1,3.2,1.4C113.9,71.6,116.1,69.2,117.7,66.3z"/>
	</g>
	<g>
		<path class="st7" d="M232.1,62.7c0.7,0.4,2.1,1.3,2.8,1.7l0.9,0.5c1.3,5.6,2.4,11.4,1.9,17.2l-1.8-1.7c-2.3-4-4.5-8.3-9-10.2
			c0.5-0.6,1.5-1.9,1.9-2.5C230,66.1,231,64.4,232.1,62.7z"/>
		<path class="st7" d="M144.8,70c0.2-0.1,0.6-0.3,0.8-0.4c0.9,0.1,2.8,0.3,3.7,0.4c-8.3,6.5-9.2,17.7-6.8,27.3
			c-1.8,1.4-3.6,2.8-5.3,4.2l-0.1-2.2c-0.2-3.9-0.1-7.8,0.2-11.6v-0.4c0.3-0.6,0.9-1.7,1.2-2.2C140.9,80.1,142.4,74.9,144.8,70z"/>
	</g>
	<g>
		<path class="st8" d="M111.3,66.1c1.4,0.3,2.2,1.1,2.4,2.4c-0.8,0.3-2.5,0.9-3.3,1.2c-0.8-0.3-2.4-1-3.2-1.4
			C108.2,67.7,110.3,66.6,111.3,66.1z"/>
	</g>
	<g>
		<path class="st9" d="M145.6,69.6c8.7-6.2,20.6-1.9,26.4,6.3c-5.9-0.3-13.7-2.9-18,2.7c-5.8,7-3,16.5-3.2,24.8
			c-3.4-8-5.1-18.1,0.5-25.5c2.8-4.7,8.8-4.7,13.5-6c-4-1.2-8.8-2.9-12.5,0.1c-11.4,7.9-10.5,26-1.1,35.2l0.7,1
			c0.4,0.6,1.1,1.8,1.5,2.4v0.7c-0.1,0.4-0.4,1.2-0.5,1.6c-4.9-4-8.5-9.4-10.5-15.5c-2.3-9.5-1.5-20.8,6.8-27.3
			C148.4,69.9,146.5,69.7,145.6,69.6z"/>
	</g>
	<g>
		<path class="st10" d="M152.4,71.9c3.7-3,8.4-1.3,12.5-0.1c-4.7,1.3-10.7,1.3-13.5,6c-5.7,7.4-4,17.5-0.5,25.5
			c0.1,0.9,0.4,2.8,0.5,3.7C141.8,97.9,141,79.8,152.4,71.9z"/>
		<path class="st10" d="M123.2,81.8c0-3.1-0.8-6.3,0.4-9.3c5.5-1.9,4.5,5.3,3.8,8.5C126.3,81.2,124.2,81.6,123.2,81.8z"/>
		<path class="st10" d="M110.2,288.7c0.8,3.8,2.2,7.6,4.6,10.7C109.8,298.3,109.4,292.9,110.2,288.7z"/>
	</g>
	<g>
		<path class="st11" d="M93.7,76.3c1.8-2.8,5.1-3.8,7.9-5.3l0.1,0.4c-3.7,2.5-8,4.9-8.5,9.9c-0.3,1.8-0.6,3.6-0.8,5.3
			C92.6,83.2,92.4,79.6,93.7,76.3z"/>
		<path class="st11" d="M185,111.3c3.4-0.6,6.9-0.5,10.3-0.2l0.9,0.6v0.7C192.7,114.1,188.3,113,185,111.3z"/>
		<path class="st11" d="M318.2,118.6c3.4-2.5,7.3-4.1,11.6-4C325.8,115.5,321.9,116.8,318.2,118.6z"/>
		<path class="st11" d="M176.7,120.9c4.3-1.8,8.8-3.2,13.5-3.2c-0.3,0.4-1,1.1-1.3,1.5c-1.4,1.9-2.7,3.8-3.9,5.8
			C183,122.3,180.3,120.5,176.7,120.9z"/>
		<path class="st11" d="M194.6,117.8c3,0.2,6.1,0.4,9.1,0.9c-1.1,1.1-2.2,2.3-3.2,3.4c-0.5-0.2-1.5-0.6-1.9-0.8
			C197.2,120.1,195.9,118.9,194.6,117.8z"/>
		<path class="st11" d="M169,126c2.3-1.7,4.7-3.2,7.2-4.8c-0.2,0.6-0.6,1.8-0.7,2.4c-2.7,2.1-4.3,5.1-5.8,8.1
			c-0.2-0.9-0.5-2.6-0.7-3.4C168.9,127.8,168.9,126.6,169,126z"/>
		<path class="st11" d="M163.6,126.3c0.8-0.6,2.5-1.8,3.3-2.4c-2.4,3.1-4.5,6.5-6.5,9.9l-0.4,0.6C161,131.7,162.1,128.9,163.6,126.3
			z"/>
		<path class="st11" d="M326.6,133.7c5.3,0.2,10.6,1.3,15,4.6C336.9,135.8,331.7,134.8,326.6,133.7z"/>
		<path class="st11" d="M216.3,151.8c1.6-0.1,3.1-0.1,4.7-0.1c0.2,0.8,0.8,2.5,1,3.3c-0.3,0.5-0.8,1.6-1,2.1
			C219.3,155.5,217.7,153.7,216.3,151.8z"/>
		<path class="st11" d="M99.1,152c1.5,3.9,4,7.2,8.1,8.5C102.3,160.5,99.5,156.6,99.1,152z"/>
		<path class="st11" d="M162.1,158.3c0.9-1.9,1.7-3.9,2.6-5.9c1.2,2,2.4,4,3.6,6C166.2,158.4,164.2,158.3,162.1,158.3z"/>
		<path class="st11" d="M175.9,157.4c0.9-0.6,1.9-1.2,2.8-1.8c-0.1,0.4-0.3,1.1-0.4,1.5c-4.4,5.4-9.2,11.4-16.8,11.6
			C167.6,166.8,172.5,162.8,175.9,157.4z"/>
		<path class="st11" d="M79.1,195.2c7.7,0.2,15.5-0.5,23.2,0.5C94.6,195.4,86.8,196,79.1,195.2z"/>
		<path class="st11" d="M153.6,251.9c0-1.3,0.1-2.5,0.2-3.7c1.6,3,3.6,5.7,6.1,8.1C157.9,254.7,155.8,253.3,153.6,251.9z"/>
		<path class="st11" d="M193.9,281.4c6.9-0.5,13.7-1.6,20.5-2.7c0.7,0.6,2,1.7,2.7,2.3l-0.2,1.3c-1.3-1.1-2.6-2.1-3.9-3.1
			c-4.4,0.8-8.8,1.5-13.2,2.4c1,1.7,1.9,3.4,2.7,5.2c-2.3-1.8-4.6-3.6-6.9-5.4c-0.9,2.6-1.7,5.2-2.5,7.8
			C193.6,286.7,193.8,284.1,193.9,281.4z"/>
		<path class="st11" d="M302.4,293.6c0.6,6.4,2.5,13.2,0.4,19.4c-5.2,4.9-12,7.8-18.3,11c0.9-4.5,1.5-9.1,1.2-13.7
			c0.4,3.9,0.5,7.9,0.8,11.9c4.1-1.9,8.2-3.8,11.8-6.5C306,311,301.9,300.9,302.4,293.6z"/>
	</g>
	<g>
		<path class="st12" d="M93.2,81.2c0.5-4.9,4.8-7.3,8.5-9.9c0.6,1.6,1.3,3.2,1.9,4.9c7.5,1,13.4,5.9,19.8,9.6c-0.1-1-0.2-3-0.2-4.1
			c1.1-0.2,3.2-0.5,4.2-0.7c-0.4,1.8-1,3.5-1.3,5.3c3.6,0.9,7.4,1,11.1,1.3c-0.3,3.9-0.4,7.8-0.2,11.6c-1.1,1.1-2.1,2.1-3.2,3.2
			c-0.5-1.4-0.9-2.7-1.4-4.1c-1.2-0.3-3.7-0.8-4.9-1c-0.7-0.1-2.1-0.4-2.9-0.5c1.6-1.2,3.2-2.3,4.7-3.5c-2.2,0.2-4.5,0.5-6.7,0.4
			c-2-2.8-3.6-5.8-5.5-8.6c0.3,2.5,0.7,5,1.2,7.6c-2.8-1.8-5.8-3.4-8.8-4.8c-0.4-0.2-1.1-0.6-1.5-0.8c0,0.9-0.1,2.7-0.1,3.5
			C103.3,87.1,97.8,84.8,93.2,81.2z"/>
	</g>
	<g>
		<path class="st13" d="M224.1,72.6c9,3.3,11.1,13.9,9.9,22.4c-4-1.2-2.2-5.7-2.9-8.7C231.4,80.7,227.3,76.7,224.1,72.6z"/>
	</g>
	<g>
		<path class="st14" d="M93.2,81.2c4.6,3.5,10,5.9,14.6,9.5c0-0.9,0.1-2.7,0.1-3.5c0.4,0.2,1.1,0.6,1.5,0.8
			c3.8,3.3,7.2,7.3,7.7,12.5c-0.7,0.7-2.2,2.2-3,2.9c-7.2-3-14.6-5.7-21.7-9c-0.1-2.6-0.2-5.1-0.1-7.7C92.6,84.8,92.9,83,93.2,81.2z
			"/>
	</g>
	<g>
		<path class="st15" d="M235.9,80.5l1.8,1.7c0.3,0.3,0.8,0.8,1,1c0.6,5.7,1.1,11.5,1.3,17.3c-0.6,2-1.1,4-1.7,6
			c-8.5,4.1-11.8,13.8-19,19.6c-2-2.4-4.2-4.7-6.4-6.9c-1.4-2.1-2.7-4.2-4-6.3c3.5,2.3,7.5,5.6,12,4c5.9-3.7,11.2-8.8,13.7-15.4
			C237.5,94.8,236.9,87.4,235.9,80.5z"/>
	</g>
	<g>
		<path class="st16" d="M117.2,85.2c1.9,2.8,3.5,5.8,5.5,8.6c2.2,0.1,4.5-0.3,6.7-0.4c-1.6,1.2-3.1,2.4-4.7,3.5
			c-0.6,0.1-1.8,0.2-2.4,0.3c-1.1-0.9-2.2-1.8-3.2-2.7c0.2,2.1,0.5,4.2,0.4,6.3c-1.6,2.9-4.1,5.1-6.2,7.5c-1.2,0.7-2.4,1.3-3.6,2
			l-1.4-0.2c2-2.3,3.9-4.6,6-6.8c0.7-0.7,2.2-2.2,3-2.9c-0.5-5.2-3.9-9.2-7.7-12.5c3.1,1.4,6,3,8.8,4.8
			C117.9,90.2,117.5,87.7,117.2,85.2z"/>
		<path class="st16" d="M127.5,97.3c1.2,0.2,3.7,0.7,4.9,1c-6.3,4-11.7,9.2-16.8,14.6c-0.4-0.1-1.3-0.4-1.8-0.5c1-1.8,2-3.6,3-5.3
			C120.4,103.8,123.9,100.5,127.5,97.3z"/>
		<path class="st16" d="M190.5,136.4c2.5-0.7,5.1-1.5,7.6-2.2c3.5,0.7,6.9,1.9,10.1,3.7c0.1,1,0.3,3,0.4,3.9
			c-0.2,1.5-0.7,4.4-0.9,5.8c-4.5-0.7-2-6.5-2.9-9.5c-3.7-0.4-7.4-0.2-11,0.6c2.2,1.1,4.6,0.4,6.8-0.3c1.1,0.6,2.2,1.1,3.3,1.7
			c0.3,2.5,0.6,5.1,0.9,7.6c-1.1,1.2-2.2,2.5-3.3,3.7c0.8,0,2.5-0.1,3.4-0.1c0.7-2.8,3.9-1.8,5.4-0.7c1,5.4,4.1,10,8.4,13.3
			c5.1-0.3,9.4-3.6,10.6-8.7c0.1-1,0.2-3.1,0.3-4.1c0.1-2,0.1-3.9,0.2-5.9c0.4,0.9,1.2,2.8,1.6,3.8c0.4,3.9-0.1,7.8-1.5,11.5
			c-0.6,1.8-1.2,3.7-1.8,5.5c-11.8-2.2-23.7,0-35.5,0.8c-6.8,0.6-13.7,0.4-20.4,1.8c-10.5,3.4-21.2-1-31.8-0.1
			c0.7,1.5,1.5,2.9,2.3,4.4c-0.3,0.9-0.9,2.6-1.2,3.5c-1.1-2-2.8-3.9-2.9-6.3c-0.1-1.2-0.3-3.6-0.4-4.8c1.2,0,3.5-0.1,4.6-0.1
			c2.8-0.1,5.6-0.1,8.5-0.1c-1-4.9-1.9-9.8-1.7-14.8c0.3-1.7,0.7-3.5,1.1-5.2c0.1,2.1,0.3,4.2,0.5,6.3c0.3,7,3.6,14,10.1,17.2
			c7.6-0.2,12.5-6.2,16.8-11.6c-0.2,1-0.7,3-0.9,4s-0.7,3-0.9,4c11.8-0.3,23.6-1.3,35.4-2.6c-0.4-1.8-0.9-3.6-1.3-5.4
			c-0.2-1-0.7-3-0.9-4c-2.3,0.7-4.5,1.5-6.8,2c-1.7-1.3-3.2-2.7-4.7-4.1c0.1-1.7,0.4-5.1,0.5-6.8c-4.8,0.4-9.5,1.2-14.1,2.2
			c1.8-1.2,3.7-2.5,5.6-3.6c0.6-0.2,1.9-0.6,2.6-0.8C192,140.2,191.3,138.3,190.5,136.4z"/>
		<path class="st16" d="M153,189.7c1.8-1.2,3.5-2.5,5.4-3.6c4.8,1.7,5.8,7.1,6.7,11.5c-1.4,0.4-4.2,1.2-5.7,1.6
			C157.1,196.2,154.8,193.1,153,189.7z"/>
	</g>
	<g>
		<path class="st17" d="M190.9,87.7c1.4,1.3,2.9,2.5,4.3,3.7c2.3,1.8,4.8,3.2,7.3,4.7c0.4,1.7,0.7,3.3,1.2,5c1.1,4.2,3,8.1,5.3,11.7
			c1.3,2.1,2.6,4.3,4,6.3c-11.7-5.2-25.1-5.3-37.4-1.8c-0.9-0.3-2.7-0.9-3.6-1.2c5.5-5.5,8.8-12.7,9.9-20.3
			C186.2,94.7,189.7,92,190.9,87.7 M179.4,112.1c1.4-0.2,4.2-0.6,5.6-0.8c3.2,1.8,7.7,2.8,11.1,1.1c0-0.2,0-0.5,0-0.7l-0.9-0.6
			C190.6,107.3,184.3,109.8,179.4,112.1z"/>
	</g>
	<g>
		<path class="st18" d="M92.6,94.3c7.1,3.4,14.5,6,21.7,9c-2.1,2.2-4.1,4.5-6,6.8c-4.8-2.2-9.6-4.6-14.8-5.9
			C93.2,100.9,92.8,97.6,92.6,94.3z"/>
		<path class="st18" d="M132.4,98.3c0.5,1.4,0.9,2.7,1.4,4.1c1.1-1.1,2.1-2.1,3.2-3.2l0.1,2.2c0.3,3.8,0.6,7.6,0.8,11.4
			c0.1,2.7,0.2,5.3,0.3,8c-7.5-2.7-15-5.5-22.6-8C120.7,107.5,126.1,102.4,132.4,98.3z"/>
	</g>
	<g>
		<path class="st19" d="M119,94.5c1.1,0.9,2.2,1.8,3.2,2.7c0.6-0.1,1.8-0.2,2.4-0.3c0.7,0.1,2.1,0.4,2.9,0.5
			c-3.6,3.2-7.1,6.4-10.6,9.7c-0.9,0.3-2.8,0.9-3.7,1.2c2.1-2.5,4.7-4.7,6.2-7.5C119.5,98.7,119.1,96.6,119,94.5z"/>
		<path class="st19" d="M137.1,101.5c1.8-1.4,3.6-2.8,5.3-4.2c2,6,5.6,11.4,10.5,15.5c0.1-0.4,0.4-1.2,0.5-1.6
			c0.6,0.3,1.8,1,2.4,1.3c-0.2,0.5-0.7,1.4-1,1.8c2.6,1,5.2,1.9,7.8,3c-4.2,1.1-8.6,1.2-12.8,0.2c-0.5-1-1-2-1.5-3.1
			c-3.5-0.5-7-1.1-10.6-1.6C137.7,109.1,137.4,105.3,137.1,101.5z"/>
	</g>
	<g>
		<path class="st20" d="M221.6,96.7c2.5-0.8,5.2-0.5,7.8-0.4c1.1,0.2,3.4,0.6,4.6,0.8c-2.7,7.6-8.3,17.5-18,15.6
			c-3.7-0.6-9.8-5.4-7.7-9C212.9,101.6,217.3,99.2,221.6,96.7z"/>
	</g>
	<g>
		<path class="st21" d="M240.1,100.5c0.7,9.7,0.5,19.4,0.5,29c-0.7-2.5-1.6-4.9-2.5-7.4c-1.1-2.1-2.4-4.8-4.8-2.3
			c-0.7,3.1-0.7,6.3-1,9.4c-2.2,3.1-5.2,5.5-8.1,7.9c-1.4-3.8-2.9-7.5-4.7-11.1c7.1-5.9,10.4-15.5,19-19.6
			C239,104.5,239.6,102.5,240.1,100.5z"/>
	</g>
	<g>
		<path class="st22" d="M93.4,104.2c5.2,1.3,9.9,3.7,14.8,5.9l1.4,0.2c1.2-0.6,2.4-1.3,3.6-2c0.9-0.3,2.8-0.9,3.7-1.2
			c-1,1.8-2,3.5-3,5.3c0.4,0.1,1.3,0.4,1.8,0.5c7.6,2.5,15.1,5.3,22.6,8c0,0.8,0.1,2.3,0.1,3.1c0.1,2.8,0.1,5.6,0.1,8.5
			c-6.1-1.6-13.5-1.2-18.2-6c-0.7-4.1-0.9-8.6-4.2-11.6c-0.4,3.1-0.7,6.1-1,9.2c-0.1,0.7-0.3,2.2-0.4,2.9
			c-6.4-0.2-13.7-5.1-19.4-0.1C94.4,119.3,94,111.8,93.4,104.2z"/>
	</g>
	<g>
		<path class="st23" d="M170.1,106.1c2.2,0,4.3,0,6.5,0.1c-2.7,2.7-5.2,6-9,7.1c-3.9,1.3-7.9-0.1-11.7-0.9c-0.6-0.3-1.8-1-2.4-1.3
			v-0.7C157.8,106.1,164.6,107.1,170.1,106.1z"/>
	</g>
	<g>
		<path class="st24" d="M179.4,112.1c4.8-2.3,11.2-4.7,15.9-0.9c-3.4-0.4-6.9-0.4-10.3,0.2C183.6,111.5,180.8,111.9,179.4,112.1z"/>
		<path class="st24" d="M151.3,244.4c1.5-0.1,4.4-0.5,5.9-0.6c-0.8,1.1-2.5,3.2-3.3,4.3c-0.1,1.3-0.1,2.5-0.2,3.7
			c2.1,1.4,4.2,2.8,6.3,4.4c1.8,1.6,3.7,3.1,5.5,4.7c2.8-1.4,5.5-2.8,8.3-4.2c1.2,3.7,2.3,7.4,3.2,11.2c-2.6-1.3-5.1-2.9-7.6-4.4
			c-0.8,1.6-1.7,3.3-2.5,4.9c-5.2,1-10.5,1.7-15.8,1.2c-0.3-1-0.9-2.9-1.2-3.9C149.2,258.6,149.6,251.4,151.3,244.4z"/>
	</g>
	<g>
		<path class="st25" d="M196.2,111.7c0,0.2,0,0.5,0,0.7V111.7z"/>
	</g>
	<g>
		<path class="st26" d="M137.9,112.9c3.5,0.5,7.1,1,10.6,1.6c0.4,1,0.9,2.1,1.5,3.1c3.2,2.7,7.5,3.1,11.6,3.3
			c-0.2,0.7-0.8,2.1-1,2.8c0.8,0.7,2.4,2,3.2,2.7c-1.5,2.6-2.6,5.4-3.6,8.2c-0.3,0.8-1,2.4-1.4,3.2c-2.5-2.3-5-4.6-7.5-6.8
			c-0.7-1.2-1.5-2.4-2.2-3.6c-1-1.6-2.1-3.3-3.2-4.9c-1,1.1-3,3.2-4,4.2c-0.8-0.6-2.5-1.9-3.3-2.5c0-0.8-0.1-2.3-0.1-3.1
			C138.2,118.2,138.1,115.5,137.9,112.9z"/>
	</g>
	<g>
		<path class="st27" d="M320.1,114.2c6-4.1,13.7-1,17.5,4.6c-1.9,1.9-3.7,3.8-5.6,5.7c-3.4-1.7-8.7-1.8-9.2,3
			c0.7,4.9,7.2,3.2,10.7,4.3c13.3,1.4,18.6,19.7,10.1,29.2c-7.2,10.7-25.8,6.1-27.2-6.7c1.7-1.5,3.5-3,5.3-4.5
			c1.9,2.1,3.2,5.7,6.5,5.6c7.5,1.1,10-11.9,3.3-14.3c-5.2-1.2-11.4,1.1-15.8-3C308.8,131.3,311.4,118.3,320.1,114.2 M318.2,118.6
			c-4.7,4.2-5.4,12-1.6,17c4.5,4.6,11.5,1,16.8,3.1c4.5,2.4,4.5,7.9,4.3,12.2c-1.9,2.2-3.3,5.2-6.2,6.4c-2.6-0.1-5.2-0.7-7.8-1
			c-0.4-0.7-1.3-2-1.7-2.6h-1.6l-0.8,1.1c0.9,7.7,10,11.7,16.8,8.7c4.7-1.4,7-6,8.6-10.2c0.3-5.1,0.5-10.9-3.3-14.9
			c-4.3-3.3-9.7-4.4-15-4.6c-3.9-0.5-7.2-3.9-5.8-8c1.6-6.3,9.6-2.6,13.1-6.6c-0.9-1.9-2.3-3.4-4.2-4.5
			C325.5,114.6,321.6,116.2,318.2,118.6z"/>
		<path class="st27" d="M190.2,117.7c1.1,0,3.3,0,4.4,0.1c1.3,1.1,2.6,2.3,3.9,3.5c0.1,1.2,0.4,3.6,0.6,4.8c2.1-2.3,4.3-4.7,6.4-7.1
			c0.5,0.2,1.6,0.6,2.2,0.9c1.1,3.1,2.2,6.3,3.4,9.4c1.7-0.9,3.5-1.7,5.2-2.6c1.4,2.3,2.7,4.7,3.9,7.1c-3.4,2.3-7.2,4.2-11.1,5.7
			l-1-1.5c-3.1-1.8-6.6-3-10.1-3.7c-0.7-6.3-2.7-12.7-9.3-15C189.2,118.8,189.9,118.1,190.2,117.7z"/>
		<path class="st27" d="M244,139.3c7-3.3,15.5-4.8,22.8-1.6c6.4,2.5,10.4,9.1,10.2,15.9c-3.3,1.4-6.7,2.8-10.1,4.1
			c-3.2-3-6.5-7.1-11.4-6.7c-4.1-0.1-7.1,5.3-3.9,8.3c6.3,5.7,15.9,6.3,21.3,13.2c6.8,7.5,7.7,20,1.2,28c-3.2,3.7-8.7,6.7-13.6,5.1
			l-0.5-1.3c4.8-1.8,10.8-2.9,13.6-7.7c3.6-6,2.8-13.7-0.7-19.6c-1.8-2-3.6-4-5.5-5.9c-1.9-2.6-4.9-3.9-8-4.6
			c-3.5-1.4-7.1-2.7-9.8-5.5c-3.8-3.8-1.8-11.8,3.9-12.4c5.6-1.1,10,3.3,14.9,4.9c2.3-0.6,4.4-1.6,6.5-2.5c-1.9-3.2-3-7.2-6.4-9.1
			c-5.4-3.5-12.3-4.3-18.4-2.3C248.3,140.4,246,140.5,244,139.3z"/>
		<path class="st27" d="M284.7,144.8c4.5-6.6,14.6-7.8,20.8-3c3.3,2,4.4,6,5.8,9.4c-2.7,2-5.7,3.6-8.7,4.9c-0.9-3.7-7.4-6.1-7-0.6
			c3.5,5.5,10.9,7.1,15,12.2c-1.1-0.2-3.2-0.6-4.3-0.8c-3.9-2.5-8.1-4.8-11.4-8c-3.3-2.7-1.2-9.7,3.4-9c2.6,0.9,4.9,2.2,7.4,3.3
			c0.9-1.8,2.7-3.7,1.7-5.9c-2.9-6.7-12.3-8.4-17.9-4c-3.2,2-4.3,5.9-5.4,9.2c-0.3,13.3,14,17.2,23.3,22.7c0.7,3.2,3,6.7,1.1,9.9
			c-1.7,4.1-7,2.2-10.4,3c-1.4-3.2-5.6-4.4-7.7-1.1c0.3,0.4,0.8,1.2,1.1,1.6c5.1,10.6,23.4,6.2,24.1-5.1c0-4.7-1.5-9.2-2.7-13.6
			c4.9,5.2,7.1,13.4,3.1,19.7c-6.1,10.7-24.9,9.8-28.3-2.7c2-2,4.1-4,6.1-6c2.7,3.1,6.7,7.4,11.2,4.4c3.6-1.7,2.3-6.1-0.2-8.1
			c-5.5-4.6-12.9-6.5-17.9-11.7C281.6,160.1,280.9,151.1,284.7,144.8z"/>
		<path class="st27" d="M56.8,190c-1.7-15.5,13.4-30.4,29-28.1c4.5,0.5,8.4,3.2,11.3,6.6c-3.3,3.6-6.9,7-11.4,9
			c-3-1.1-7.1-4-9.7-0.6c-3.2,3.8-5.2,11.6,0.3,14.4c8.9,3.2,18.7-0.8,27.6,2.5c12.8,3.9,19.2,22.1,9.6,32.2
			c-7,7.9-19.2,5.7-27.1,0.4c1.2-3.1,3.1-5.9,5.6-8.1c4.7,2.7,13,4.9,15.4-1.9c0.5-5.9-3.9-12.6-10.1-13.5
			c-8.5-0.7-16.5,3.2-24.9,3.4C63.8,206.2,57.4,198.1,56.8,190 M77.2,164.9c-11.9,3.2-19.6,16.5-17.5,28.5
			c1.9,5.9,7.5,11.3,14.2,10.5c7.8-1.1,15.4-4.2,23.5-3.4c4.3,0,7.4,3.4,10.3,6c0.9,4.5,3.8,9.9,0,13.9c-3.3,4.3-9.1,2.5-13.7,2
			c-1.1-3.3-6.5,0.9-4.5,3.4l0.8,0.3c6.4,2.7,14.8,4.4,20.3-1.1c6.4-5,6.3-14.3,2.4-20.8c-2.9-3.5-6.1-7.1-10.7-8.5
			c-7.7-1.1-15.5-0.4-23.2-0.5c-5-1.5-9.8-5.9-8.6-11.7c0-7.5,8.5-13.3,15.1-8.8c2.8-1.7,5.5-3.6,8.1-5.6l0.6,0.3
			C90,164.9,83.2,163.4,77.2,164.9z"/>
		<path class="st27" d="M236.1,162.6c0.8,0.1,2.3,0.4,3,0.6c7.5,6.9,18.4,8.4,25.2,16.1c0.6,3,1.7,6.1,0.9,9.1
			c-1.3,2.5-3.2,4.6-4.9,6.8c-1.1-0.1-3.3-0.3-4.4-0.3l-0.7-1.1c4.7-1.5,10.3-6.2,7.1-11.6C256.5,172.2,242,172.8,236.1,162.6z"/>
		<path class="st27" d="M115.5,176.8c4.6-6.5,14.8-7.8,21-3c1.7,4-0.7,8.1-2.3,11.7c-2.9-0.1-7.2-1.2-7.9,2.9
			c4.6,5.6,12.7,0.1,18.3,3.9c8.4,4.6,10.4,16.4,5.1,24.2c-0.3-0.5-1-1.6-1.3-2.2c0-0.4,0-1.3,0.1-1.7c2-6.4,1.2-13.8-4.5-18
			c-4.5-2-9.4-1.2-14.2-1.2c-3-0.8-6-3.2-5.2-6.6c0.5-4.3,5.6-3.7,8.5-5.3c1.5-2,1.2-4.6,1.4-6.9c-5-0.8-10.9-2.6-15.3,1
			c-2.7,1.9-3.6,5.3-4.6,8.4c-0.9,4.4,0.7,9.7,5.1,11.6c7,2.2,14.7-0.9,21.6,1.7c5.3,2.5,5.7,9.1,6.9,14.1c-4.2,2-9.1,4.7-13.3,1.3
			c-2.1-1.6-5.8-2.1-6.9,0.9c-0.2,0.4-0.7,1.3-1,1.7c5.4,5.6,13.2,4,20,3c-6.5,6.2-18.5,4.9-22.7-3.4c1.8-2.6,3.7-6.3,7.5-6
			c3.6-0.1,6.3,4.5,10,3.1c5.3-4,1-12.9-5.1-12.9c-6.3-0.5-13.1,2-18.9-1.5C110.8,193.3,110.9,182.9,115.5,176.8z"/>
		<path class="st27" d="M56.7,212.5c5.1-1.3,10.8,0.1,14.7,3.6c7.3,5.5-6.1,16.3-10.8,9c-1.9,5.5,2.8,11,8.4,11
			c7-0.1,14.1-2.6,20.9-0.4c9,3.1,13.4,15.2,8.4,23.3c-5.5,9.8-20,13.2-28.7,5.5c-0.4-3.9,1.2-8.2,4.6-10.4
			c5.2-0.5,10.8,5.8,15.8,1.7c3.5-2.4,1.5-7.7-2.2-8.4c-4.7-1.4-9.3,0.8-13.7,2c-7.1,2.5-15.9,0.5-20.6-5.6
			c-4.6-5.8-6.3-13.7-5.2-21C49,218.2,52.1,213.7,56.7,212.5 M50.5,223.3l-0.6,0.6c-0.6,9.7,3.8,20,13.3,23.7l-0.3,0.4
			c5.6,0.4,11.3-0.2,16-3.4c4.3,0.4,9.2-0.5,12.8,2.3c4,2.9,3,10.1-1.6,11.8c-4.3,1.4-8.8-0.6-12.9-1.7c-2.1-3.8-6.9,2.7-4.1,5.2
			l-1.4,1.6c4.5,1.4,9.2,3.6,13.9,1.9C92,263.8,98,258,97.9,251c0.3-4.9-2.6-9.6-6.6-12.3c-8.5-4.7-18,0.8-27-0.7
			c-2.8-2.8-6.7-5.7-6.3-10.2c-0.1-2.5,1.9-4.2,3.1-6.2c1.6,1.3,3.2,2.7,4.9,4c1.7-1.5,3.3-3.1,5-4.6l1.2,0.8
			c-1.7-6.8-10.2-9-16.2-7C52.6,216.4,51.6,220.2,50.5,223.3z"/>
	</g>
	<g>
		<path class="st28" d="M116.1,114.9c3.3,3,3.5,7.5,4.2,11.6c-0.7,0.1-2.2,0.4-2.9,0.6c-0.6-0.7-1.7-2.2-2.3-3
			C115.4,121,115.7,117.9,116.1,114.9z"/>
	</g>
	<g>
		<path class="st29" d="M161.5,120.8c3.6-1.3,7.1-3,10.6-4.7c0.9,0.3,2.7,0.9,3.6,1.2c-2.9,2.2-5.8,4.4-8.7,6.6
			c-0.8,0.6-2.5,1.8-3.3,2.4c-0.8-0.7-2.4-2-3.2-2.7C160.7,122.9,161.3,121.5,161.5,120.8z"/>
	</g>
	<g>
		<path class="st30" d="M318.2,118.6c3.6-1.9,7.6-3.2,11.6-4c1.9,1.1,3.3,2.6,4.2,4.5c-3.6,4-11.6,0.3-13.1,6.6
			c-1.4,4.1,1.9,7.5,5.8,8c5.1,1.1,10.3,2.1,15,4.6c3.8,4,3.6,9.8,3.3,14.9c-2.4-0.7-4.9-1.5-7.3-2.3c0.2-4.4,0.2-9.9-4.3-12.2
			c-5.3-2.1-12.3,1.5-16.8-3.1C312.8,130.6,313.5,122.8,318.2,118.6z"/>
		<path class="st30" d="M244.2,144.2c3.9-1.4,6.9-5.1,11.3-4.9c4.6-0.4,9.2,0.8,13.3,2.7c3.4,1.9,4.5,6,6.4,9.1
			c-2.2,0.9-4.3,1.9-6.5,2.5c-5-1.6-9.4-6-14.9-4.9c-5.7,0.6-7.8,8.5-3.9,12.4c2.7,2.7,6.3,4.1,9.8,5.5c0.3,4,4.4,5.7,8,4.6
			c1.8,1.9,3.7,3.9,5.5,5.9c-2.9,0.8-5.8,1.5-8.7,2.3c-6.9-7.7-17.8-9.2-25.2-16.1c3.7-5.2,3.4-11.7,4.8-17.7L244.2,144.2z"/>
		<path class="st30" d="M292.3,144.3c5.2-2.9,10.6,0.9,15.2,3.1c1,2.2-0.8,4-1.7,5.9c-2.4-1.2-4.8-2.5-7.4-3.3
			c-4.6-0.7-6.6,6.3-3.4,9c3.4,3.2,7.5,5.5,11.4,8c1.7,2.1,3.2,4.3,4.9,6.5c-1.3,0.6-2.6,1.2-3.8,1.8c-9.3-5.5-23.6-9.4-23.3-22.7
			C286.8,149.7,289,146.4,292.3,144.3z"/>
		<path class="st30" d="M78.6,165.2c5.4-1.3,10.6,1.1,15.1,3.9c-2.6,2-5.3,3.9-8.1,5.6c-6.6-4.6-15.1,1.3-15.1,8.8
			c-1.3,5.7,3.6,10.1,8.6,11.7c7.7,0.7,15.5,0.2,23.2,0.5c4.5,1.4,7.8,4.9,10.7,8.5c-1.7,0.8-3.5,1.6-5.3,2.3c-3-2.6-6-6-10.3-6
			c-8-0.8-15.6,2.4-23.5,3.4c-6.6,0.8-12.2-4.6-14.2-10.5C58.5,181.2,66.1,167.7,78.6,165.2z"/>
		<path class="st30" d="M122.9,176c3.7-1.4,7.7-1.1,11.6-1.5c-0.2,2.3,0.1,4.9-1.4,6.9c-2.9,1.6-8.1,1.1-8.5,5.3
			c-0.8,3.4,2.3,5.8,5.2,6.6c4.7,1.1,9.4,1,14.2,1.2c5.7,4.2,6.5,11.6,4.5,18l-0.2-1.3c-1.2-5-1.6-11.6-6.9-14.1
			c-6.9-2.6-14.6,0.5-21.6-1.7c-4.4-1.9-6-7.2-5.1-11.6C117.1,181,119.6,178,122.9,176z"/>
		<path class="st30" d="M50.5,223.3c3.1-2.6,5.8-6.8,10.4-6.5c3.9-0.2,7,2.5,10.1,4.4c-1.6,1.5-3.3,3.1-5,4.6
			c-1.6-1.4-3.2-2.7-4.9-4c-1.2,1.9-3.2,3.7-3.1,6.2c-0.4,4.4,3.5,7.3,6.3,10.2c0.5,0.4,1.6,1.3,2.1,1.8c-0.5,1.8-1,3.6-1.6,5.3
			c-0.4,0.6-1.3,1.8-1.7,2.4c-9.5-3.7-13.9-14-13.3-23.7L50.5,223.3z"/>
	</g>
	<g>
		<path class="st31" d="M203.7,118.7c0.4,0.1,1.4,0.3,1.8,0.3c-2.1,2.4-4.3,4.7-6.4,7.1c-0.1-1.2-0.4-3.6-0.6-4.8
			c0.5,0.2,1.5,0.6,1.9,0.8C201.5,120.9,202.6,119.8,203.7,118.7z"/>
		<path class="st31" d="M95.3,126.9c5.6-5,12.9-0.1,19.4,0.1c0.1-0.7,0.3-2.2,0.4-2.9c0.6,0.7,1.8,2.2,2.3,3
			c0.7-0.1,2.2-0.4,2.9-0.6c4.7,4.8,12.1,4.4,18.2,6c0,2.2,0,4.4,0.1,6.6c-8.7-2.8-17.6-5-26.7-5.5c-1-1.9-1.7-5.8-4.7-4.8
			c-0.8,1.4-1.4,2.9-2,4.4c-2.9,0.5-5.8,0.9-8.7,1.4C96,131.9,95.7,129.4,95.3,126.9z"/>
	</g>
	<g>
		<path class="st32" d="M233.2,119.9c2.4-2.5,3.8,0.2,4.8,2.3c-0.5,3-1.1,5.9-1.7,8.8c-1-0.4-3.1-1.3-4.1-1.7
			C232.6,126.1,232.6,122.9,233.2,119.9z"/>
		<path class="st32" d="M141.7,126.5c1-1,3-3.2,4-4.2c1.1,1.6,2.1,3.3,3.2,4.9c-0.6,2.8-0.6,9.5-5,7.8
			C142.6,132.3,142.3,129.4,141.7,126.5z"/>
	</g>
	<g>
		<path class="st33" d="M176.1,121.3l0.6-0.4c3.5-0.4,6.3,1.4,8.2,4.1c1.3-2,2.6-3.9,3.9-5.8c6.6,2.3,8.5,8.8,9.3,15
			c-2.6,0.7-5.1,1.5-7.6,2.2c-4,1.1-8.3,1.9-10.9,5.5c-1.3,2.1-2.6,4.3-3.8,6.5c-0.8,1.5-1.6,3-2.3,4.5c-0.3-1.1-1-3.2-1.4-4.3
			c-5.3-2-8.6-6.5-9.6-12c-1.8,1.5-3.7,3.1-5.5,4.6c0.4-0.9,1.2-2.7,1.6-3.5c0.3-0.8,1-2.4,1.4-3.2l0.4-0.6c2.9-1.8,5.7-3.6,8.5-5.5
			c0.2,0.9,0.5,2.6,0.7,3.4c1.5-3,3.1-5.9,5.8-8.1C175.6,123.1,175.9,121.9,176.1,121.3z"/>
		<path class="st33" d="M227.8,328c1.6-5.8,1.7-11.8,1.3-17.7c2.9,8,1.5,16.7-3,23.8C226.5,332.5,227.4,329.5,227.8,328z"/>
	</g>
	<g>
		<path class="st34" d="M207.7,119.9c1.6,0.7,3.1,1.4,4.7,2.1c-4.4,1.6,1.3,6.7,2.3,2.1c0.4,0.7,1.2,2,1.6,2.6
			c-1.7,0.9-3.5,1.7-5.2,2.6C209.9,126.1,208.8,123,207.7,119.9z"/>
	</g>
	<g>
		<path class="st35" d="M214.7,124c-1,4.6-6.7-0.5-2.3-2.1C212.9,122.5,214.1,123.5,214.7,124z"/>
	</g>
	<g>
		<path class="st36" d="M238.1,122.2c1,2.4,1.8,4.9,2.5,7.4c0.1,5.8,0,11.6-0.2,17.5h-0.1c-2.9,0.7-5.7,1.4-8.6,2.1
			c-0.4-0.9-1.2-2.8-1.6-3.8c-0.1,2-0.1,3.9-0.2,5.9l-1.8,1.3c-0.8-5.2-2.1-10.3-3.8-15.3c2.9-2.4,5.9-4.8,8.1-7.9
			c1,0.4,3.1,1.3,4.1,1.7C237,128.1,237.6,125.1,238.1,122.2z"/>
		<path class="st36" d="M138.4,124c0.8,0.6,2.5,1.9,3.3,2.5c0.6,2.9,0.9,5.8,2.2,8.5c4.5,1.7,4.4-5,5-7.8c0.7,1.2,1.5,2.4,2.2,3.6
			c2.5,2.2,5,4.5,7.5,6.8c-0.4,0.9-1.2,2.7-1.6,3.5c-1.7,3.4-2.1,7.3-2.4,11.1c-0.8-0.2-2.5-0.7-3.4-0.9c-0.2-2.1-0.4-4.2-0.5-6.3
			c-0.4,1.7-0.7,3.5-1.1,5.2c-1.4-0.9-2.8-1.7-4.2-2.6c-0.4-1.2-1.3-3.7-1.8-4.9c-1.7,0.1-3.4,0.3-5.2,0.4c0-1.1,0-3.2,0-4.2
			c0-2.2,0-4.4-0.1-6.6C138.5,129.6,138.4,126.8,138.4,124z"/>
	</g>
	<g>
		<path class="st37" d="M105.1,133.1c0.5-1.5,1.2-3,2-4.4c3-0.9,3.7,2.9,4.7,4.8c-0.4,5.8,3.5,13.4-1.4,17.9
			C105.1,147,105.8,139.3,105.1,133.1z"/>
		<path class="st37" d="M200.9,228.5c-4.8-1.8-7.8-7.8-3.2-11.6C199,220.7,200.1,224.5,200.9,228.5z"/>
		<path class="st37" d="M188.3,234.9c2.4-1.7,4.9,1.5,5.5,3.6c0.9,4.8,0.6,10.4-2.8,14.2c-2.4,1.7-6.1-0.2-5.6-3.3
			C185.8,244.6,185.6,239,188.3,234.9z"/>
		<path class="st37" d="M272.1,295.1c5.8,1.1,6.5,9.8,2.8,13.3C267.9,309.2,269.8,299,272.1,295.1z"/>
	</g>
	<g>
		<path class="st38" d="M96.4,134.5c2.9-0.5,5.8-0.9,8.7-1.4c0.7,6.2,0,13.9,5.3,18.4c4.9-4.5,1-12.2,1.4-17.9
			c9.1,0.6,18,2.8,26.7,5.5c0,1.1,0,3.2,0,4.2c1.7-0.1,3.4-0.3,5.2-0.4c0.4,1.2,1.3,3.7,1.8,4.9c-2.2,0.5-4.4,0.6-6.6,0.2
			c0.1,4.1,0.1,8.3-0.3,12.4c-0.5,1.6-0.9,3.2-1.2,4.8c-10-2-20.1-2.9-30.1-4.7c-4.1-1.3-6.6-4.6-8.1-8.5
			C98,146.2,97.3,140.3,96.4,134.5z"/>
		<path class="st38" d="M122.2,252.3c7.1-9,19.1-6.9,29.1-7.9c-1.6,7-2,14.2-1.5,21.3c-0.2,0.7-0.5,2.1-0.7,2.8
			c-3.1,0.6-6.2,1-9.3,1.5c-1.2,0.1-2.5,0.3-3.7,0.5c-1.6-4.3-3.4-8.6-5.4-12.7c0.3-1.8,0.7-3.7,1-5.5c-2.9,0.6-5.8,1.2-8.7,1.8
			C122.8,253.6,122.4,252.7,122.2,252.3z"/>
	</g>
	<g>
		<path class="st39" d="M209.2,139.5c3.9-1.5,7.6-3.4,11.1-5.7c2.8,6.6,6.9,14.7,1.8,21.2c-0.2-0.8-0.8-2.5-1-3.3
			c-1.6,0-3.1,0.1-4.7,0.1C213.7,147.8,211.6,143.6,209.2,139.5z"/>
	</g>
	<g>
		<path class="st40" d="M157.1,141.2c1.8-1.6,3.7-3.1,5.5-4.6c1,5.5,4.3,9.9,9.6,12c0.3,1.1,1,3.2,1.4,4.3c-0.8,1.7-1.6,3.4-2.3,5.1
			c-0.8,0.1-2.3,0.3-3,0.4c-1.2-2-2.4-4-3.6-6c-0.8,2-1.7,3.9-2.6,5.9c2.1,0,4.1,0.1,6.2,0.1c-1.1,2.2-2.8,3.1-5.1,2.6
			c-4-1.5-6-5.5-8.4-8.7C155,148.5,155.4,144.7,157.1,141.2z"/>
	</g>
	<g>
		<path class="st41" d="M179.6,141.9c2.6-3.6,6.9-4.4,10.9-5.5c0.8,1.9,1.5,3.8,2.3,5.7c-0.7,0.2-2,0.6-2.6,0.8
			C186.7,142.7,183.2,142.3,179.6,141.9z"/>
	</g>
	<g>
		<path class="st42" d="M175.9,148.4c1.2-2.2,2.4-4.4,3.8-6.5c3.5,0.4,7,0.8,10.6,1c-1.9,1.2-3.7,2.4-5.6,3.6
			c4.7-1,9.4-1.8,14.1-2.2c-0.1,1.7-0.4,5.1-0.5,6.8C190.7,151.5,183.1,150.8,175.9,148.4z"/>
	</g>
	<g>
		<path class="st43" d="M138.5,160.4c0.4-4.1,0.4-8.3,0.3-12.4c2.2,0.4,4.5,0.3,6.6-0.2c1.4,0.9,2.8,1.7,4.2,2.6
			c-0.1,5,0.8,9.9,1.7,14.8c-2.8,0-5.7,0-8.5,0.1C141.9,163.3,140.4,161.6,138.5,160.4z"/>
		<path class="st43" d="M270,265.3c8-1.1,16.9-3.4,24,1.8c4.9,8,7.1,17.3,8.4,26.5c-0.5,7.3,3.7,17.4-4.1,22
			c-3.6,2.7-7.8,4.6-11.8,6.5c-0.2-4-0.4-7.9-0.8-11.9c-0.8-7.1-1.6-14.2-2.6-21.3c2.2-3.1,4.8-8.9,0.4-11.4
			C278.1,274.5,274.1,269.8,270,265.3 M288.7,294.1c-2.3,5.3-1,11.2,0.2,16.6c1.9-0.5,5.5,0.4,5.8-2.5c0.6-4.9,1.6-11.4-2.7-14.9
			C291.1,293.5,289.5,293.9,288.7,294.1z"/>
		<path class="st43" d="M199.8,281.6c4.4-0.8,8.8-1.6,13.2-2.4c1.3,1,2.6,2,3.9,3.1c7.7,7.3,9,18.3,12.2,27.9
			c0.4,5.9,0.2,11.9-1.3,17.7c-8.5,0.8-11,10.5-7.3,17.1c-0.9,1.2-1.7,2.4-2.8,3.4c-6.9,1.4-13.9,0.5-20.9,0.2
			c5.1-10.7,11.7-21.3,12-33.5c0.5-6.7,0.4-13.7-2.3-20c-1.1-2.9-2.5-5.6-4-8.4C201.7,285.1,200.8,283.3,199.8,281.6 M215,289.6
			c-1.8,1.9,1.1,5.9,3.4,4.2C220,291.8,217.3,287.9,215,289.6 M216.2,314.1c-2.3,2.5-2.5,6.4-1.7,9.5
			C220.6,327.8,222.3,312.3,216.2,314.1z"/>
	</g>
	<g>
		<path class="st44" d="M231.6,149.1c2.9-0.7,5.7-1.4,8.6-2.1c-0.8,4.3-1.9,8.5-3.8,12.5c-2.1,0.4-4.2,0.8-6.3,1.1
			C231.5,157,232.1,153,231.6,149.1z"/>
	</g>
	<g>
		<path class="st45" d="M173.6,152.9c0.7-1.5,1.5-3,2.3-4.5c7.2,2.4,14.8,3.1,22.4,2.7c1.5,1.4,3,2.9,4.7,4.1c2.3-0.4,4.5-1.3,6.8-2
			c0.2,1,0.6,3,0.9,4c-3.9,3.6-9.3,2.5-14,2.6c-6.4-0.2-12.8,0.4-19.2,1.3c0.2-1,0.7-3,0.9-4c0.1-0.4,0.3-1.1,0.4-1.5
			c-0.9,0.6-1.9,1.2-2.8,1.8c-1.2,0.1-3.4,0.4-4.6,0.6C172,156.3,172.8,154.6,173.6,152.9z"/>
	</g>
	<g>
		<path class="st46" d="M331.4,157.3c2.9-1.1,4.3-4.1,6.2-6.4c2.4,0.8,4.9,1.5,7.3,2.3c-1.6,4.3-3.9,8.8-8.6,10.2
			c-6.7,3-15.9-1-16.8-8.7c1,1.4,2.3,1.9,4.1,1.5C326.3,156.6,328.8,157.2,331.4,157.3z"/>
		<path class="st46" d="M306.4,166.9c1.1,0.2,3.2,0.6,4.3,0.8c1.1,0.3,1.8,1.1,2.3,2.2c1.2,4.5,2.7,9,2.7,13.6
			c-0.7,11.4-19.1,15.7-24.1,5.1c2.2-0.1,4.4-0.3,6.6-0.5c3.4-0.7,8.7,1.2,10.4-3c1.9-3.2-0.4-6.7-1.1-9.9c1.3-0.6,2.6-1.2,3.8-1.8
			C309.7,171.2,308.1,169,306.4,166.9z"/>
		<path class="st46" d="M82.6,239c2.9-0.2,5.8-0.2,8.7-0.3c3.9,2.7,6.8,7.4,6.6,12.3c0.1,7-6,12.8-12.3,14.7
			c-4.7,1.7-9.4-0.6-13.9-1.9l1.4-1.6c1.5-1.7,2.9-3.4,4.1-5.2c4.1,1.1,8.6,3.1,12.9,1.7c4.6-1.8,5.5-8.9,1.6-11.8
			c-3.6-2.9-8.5-1.9-12.8-2.3c1.5-0.8,2.9-1.6,4.3-2.3C83.1,241.4,82.8,239.8,82.6,239z"/>
	</g>
	<g>
		<path class="st47" d="M151.4,151.4c0.9,0.2,2.5,0.7,3.4,0.9c2.4,3.2,4.5,7.2,8.4,8.7c2.3,0.4,4-0.4,5.1-2.6c0.8-0.1,2.3-0.3,3-0.4
			c1.2-0.1,3.4-0.4,4.6-0.6c-3.4,5.4-8.3,9.4-14.4,11.3C155,165.5,151.6,158.4,151.4,151.4z"/>
	</g>
	<g>
		<path class="st48" d="M210.5,150.8l1.6,1.7c2.6,2.4,4.9,6.2,8.7,6.3c3.9,0.6,5-3.9,7.2-6.2l1.8-1.3c-0.1,1-0.2,3.1-0.3,4.1
			c-2.3,4.3-6.4,6.7-10.6,8.7C214.6,160.7,211.5,156.1,210.5,150.8z"/>
	</g>
	<g>
		<path class="st49" d="M210.6,157.2c0.4,1.8,0.8,3.6,1.3,5.4c-11.8,1.2-23.6,2.3-35.4,2.6c0.2-1,0.7-3,0.9-4
			c6.3-0.9,12.7-1.5,19.2-1.3C201.4,159.7,206.8,160.8,210.6,157.2z"/>
	</g>
	<g>
		<path class="st50" d="M138.5,160.4c1.9,1.2,3.4,2.9,4.5,4.9c-1.2,0-3.5,0.1-4.6,0.1l-1.1-0.2C137.7,163.6,138.1,162,138.5,160.4z"
			/>
	</g>
	<g>
		<path class="st51" d="M192.9,167c11.8-0.8,23.7-3.1,35.5-0.8c3.3,2.6,6.4,5.6,9.2,8.8c5.5,7.4,11.3,14.6,15.3,23l-0.1,0.1
			c-5.7,9-2.5,23.4,9,25.8l0.3,0.1c1.6,10,3,20.2,1.8,30.3c-0.2,3.1-1.1,6.3,0.1,9.3l0.3,1.3l0.4,1.1c-2.8,0.4-5.5,0.9-8.2,1.4
			c2.2-0.9,4.3-1.9,6.4-3c-7.4,0.1-14.2,3.3-19.9,7.9c-7.8,1.3-15.7,1.7-23.4,3.3c-3.8,0.7-7.6,1.5-11.4,1.8
			c-3.8-0.1-7.6-0.5-11.4-0.8c5.3-16.6,9.1-34.6,5-52c1.9-2.9,1.8-8.1-2.8-7.7c-4.7-12.2-9.9-24.5-18-34.9c-3.4-4-6.2-8.5-8.5-13.2
			C179.2,167.4,186.1,167.6,192.9,167 M234.4,186.9c-1.7,5,1.7,13.2,8,11.5C242.6,193.6,240.9,185.3,234.4,186.9 M242.9,218.3
			c-0.3,3.6-1.3,8.1,1.5,11.1C251.4,229,249.9,214.8,242.9,218.3 M211.5,237c-4.1,1.7-2.3,7.8-0.3,10.7
			C217.9,249.1,216.2,237.1,211.5,237z"/>
	</g>
	<g>
		<path class="st52" d="M140.7,168.7c10.7-0.9,21.4,3.6,31.8,0.1c2.3,4.8,5.1,9.2,8.5,13.2c1.7,2.6,3.3,5.2,4.8,7.9
			c-8.4,3.6-12.8,13.3-22.6,14.2c-1.2-1.7-2.4-3.3-3.7-4.9c1.4-0.4,4.2-1.2,5.7-1.6c-0.9-4.4-1.9-9.7-6.7-11.5
			c-1.9,1.1-3.6,2.3-5.4,3.6c-2.8-5.9-6.5-11.3-10.1-16.6C142.2,171.6,141.4,170.2,140.7,168.7z"/>
	</g>
	<g>
		<path class="st53" d="M141.8,176.6c0.3-0.9,0.9-2.6,1.2-3.5c3.6,5.4,7.3,10.7,10.1,16.6c1.7,3.4,4,6.5,6.4,9.5
			c1.3,1.6,2.5,3.2,3.7,4.9c3.3,6.1,7.1,13.2,4.9,20.3c-1.4,5.1-3.9,9.9-6.9,14.3c-1.3,1.7-2.6,3.4-4,5c-1.5,0.1-4.4,0.5-5.9,0.6
			c-10,1-22-1.1-29.1,7.9c-2.5,2.6-4.9,5.3-7.3,8l-1.4,1.6c-2,4.6-2.5,9.6-2.5,14.5c-0.1,4.1-0.5,8.3-0.8,12.4
			c-0.8,4.2-0.4,9.6,4.6,10.7c5,2.2,10,4.6,14.7,7.5c1.3,1,2.6,1,4,0.2c1.8-0.8,3.6-1.7,5.4-2.5c1.3-4,4.5-6.2,8.6-6.6
			c0,1.1,0.1,3.3,0.2,4.4c3.2-0.6,3.2-4.2,2-6.5c-1-3.1-1.7-6.3-2.4-9.5c0.3-5.7,1-11.3,1.7-16.9c0.5,0,1.6,0.1,2.1,0.1
			c5.3,0.5,10.6-0.3,15.8-1.2c0.8-1.6,1.7-3.3,2.5-4.9c2.5,1.6,4.9,3.1,7.6,4.4c1.6,0.6,3.2,1.2,4.8,1.8c3.6,3.3,7.9,5.8,12.4,7.9
			c0,1-0.1,2.9-0.1,3.8c-0.1,2.6-0.4,5.2-0.7,7.9c-0.6,3.6-1.6,7.2-1.2,10.9c1.1,2.7,2.9,5.1,4.4,7.6c1.5,10.9-7.4,19-14.5,25.9
			c-0.5,0.4-1.6,1.1-2.2,1.5c0.6,0.3,1.7,1,2.3,1.3c2.5,2.7,5,5.5,7.5,8.3c1.3,1.5,2.6,3,3.9,4.5c8.6,0.2,17.3,1.2,25.8-0.1
			c3.1-4.3,4.5-9.6,6.4-14.4l0.4-0.8c4.5-7.1,5.9-15.8,3-23.8c-3.2-9.6-4.4-20.6-12.2-27.9l0.2-1.3c0.3-1.3,0.8-3.9,1.1-5.1l1.3-0.3
			c7.7-1.6,15.6-2.1,23.4-3.3c-0.3,7.7-1.4,15.8,1.5,23.2c-0.8-0.1-2.5-0.3-3.4-0.5c0.2-6.4,0.6-12.9,0.9-19.3
			c-7.7,1.9-16.3,0.8-23.3,4.6c7.1,5.7,9.6,15.1,11.7,23.6c3.5,15.5,0.5,31.8-6.5,45.9c-0.9,1.8-2,4.3-4.5,3.8
			c-8.8,0-17.6,0.4-26.3-0.3c-5.8-5.3-11.8-11.1-15.4-18.2c2.7-8.1,12.6-12.2,14.7-20.9c1.3-5.1-1.6-9.7-4.5-13.6
			c1.1-6.6,2.5-13.3,3.4-20c-6.1-4.9-12.7-9.3-19.6-12.9c-6.1,3.3-13.4,2.5-19.6,4.9c-3.5,9.7-0.2,19.8,1.6,29.4
			c-7.5,3.6-15.3,7.3-23.5,8.9c-7.1-3.7-14.3-7.7-20.6-12.6c-2-10.4-2.4-21.3,0-31.7c2.4-10.4,9.7-19.6,19.8-23.3
			c8.1-3.3,16.9-2.3,25.3-0.8c5-7.8,11-16.5,9.8-26.2C159.7,201.7,148.8,190.1,141.8,176.6z"/>
	</g>
	<g>
		<path class="st54" d="M264.4,179.3c2.9-0.8,5.8-1.5,8.7-2.3c3.5,5.9,4.3,13.6,0.7,19.6c-2.9,4.8-8.8,5.9-13.6,7.7
			c-1-2.4-2.1-4.7-3.2-7.1c0.8-0.5,2.5-1.5,3.4-2c1.7-2.2,3.6-4.3,4.9-6.8C266.1,185.4,265,182.2,264.4,179.3z"/>
	</g>
	<g>
		<path class="st55" d="M234.4,186.9c6.6-1.6,8.3,6.7,8,11.5C236.1,200.1,232.7,191.9,234.4,186.9z"/>
		<path class="st55" d="M261.8,223.8c-11.5-2.3-14.6-16.7-9-25.8C257.4,206,260.2,214.9,261.8,223.8z"/>
		<path class="st55" d="M199,217c4.6-0.4,4.7,4.8,2.8,7.7C200.6,222.2,199.7,219.6,199,217z"/>
		<path class="st55" d="M242.9,218.3c7.1-3.5,8.5,10.6,1.5,11.1C241.6,226.5,242.5,222,242.9,218.3z"/>
		<path class="st55" d="M211.5,237c4.7,0.1,6.4,12.2-0.3,10.7C209.2,244.7,207.4,238.6,211.5,237z"/>
		<path class="st55" d="M137,286.4c0.9,0,2.6,0,3.4-0.1c0.6,3,1.1,6.1,1.4,9.2c-1,1.5-2.1,2.9-3.3,4.2
			C135.4,295.7,135.4,291,137,286.4z"/>
		<path class="st55" d="M288.7,294.1c0.8-0.2,2.5-0.6,3.3-0.8c4.3,3.6,3.3,10,2.7,14.9c-0.2,2.9-3.8,2-5.8,2.5
			C287.7,305.3,286.3,299.4,288.7,294.1z"/>
		<path class="st55" d="M216.2,314.1c6.1-1.7,4.3,13.7-1.7,9.5C213.7,320.4,213.9,316.6,216.2,314.1z"/>
	</g>
	<g>
		<path class="st56" d="M185.8,189.9c4.6,8.7,8.9,17.6,11.9,27c-4.6,3.8-1.5,9.7,3.2,11.6c2.7,16-0.2,32.6-6,47.6
			c-4.6-1.1-8.9-3.1-12.5-6.1c-0.2,0-0.5-0.2-0.7-0.2c-1.6-0.6-3.2-1.2-4.8-1.8c-0.9-3.8-2-7.5-3.2-11.2c0.1-0.5,0.4-1.6,0.5-2.1
			c-1.2-0.8-2.3-1.6-3.4-2.3c0.6-0.7,1.2-1.4,1.7-2.1c2.5-2.6,5.3-7.3,1-9.7c-1.9,1.4-3.8,2.8-5.6,4.4c-2.8-1.4-5.2-3.4-6.8-6.1
			c3-4.4,5.5-9.2,6.9-14.3c2.3-7.1-1.6-14.2-4.9-20.3C173,203.2,177.4,193.6,185.8,189.9 M188.3,234.9c-2.7,4.2-2.4,9.7-3,14.5
			c-0.5,3,3.2,5,5.6,3.3c3.4-3.8,3.7-9.4,2.8-14.2C193.2,236.4,190.6,233.2,188.3,234.9z"/>
		<path class="st56" d="M264.7,266c1.7-0.2,3.5-0.4,5.2-0.7c4.1,4.5,8.1,9.2,13.6,12.2c-0.8,0-2.5,0.2-3.4,0.2c0.9,3.8,2,7.5,3,11.2
			c0.9,7.1,1.7,14.2,2.6,21.3c0.2,4.6-0.3,9.2-1.2,13.7c-6.9-1.2-13.6-2.9-20.5-4.3c-0.2-8.8,0.6-17.6-1-26.3l-0.2-1.1
			c-0.2-3.9,0.1-7.8-0.8-11.6c-2.1-4.7-5.6-8.5-8.5-12.6c0.7-0.2,2.2-0.6,2.9-0.8C259.2,266.8,262,266.4,264.7,266 M272.1,295.1
			c-2.3,3.9-4.2,14.2,2.8,13.3C278.6,304.9,278,296.1,272.1,295.1z"/>
	</g>
	<g>
		<path class="st57" d="M107.7,206.6c1.7-0.8,3.5-1.6,5.3-2.3c3.9,6.5,4.1,15.8-2.4,20.8c-5.5,5.4-13.9,3.8-20.3,1.1
			c1.3-1.1,2.6-2.3,3.7-3.6c4.5,0.5,10.3,2.2,13.7-2C111.5,216.5,108.6,211.1,107.7,206.6z"/>
	</g>
	<g>
		<path class="st58" d="M134.9,212.5c4.2,3.4,9.2,0.7,13.3-1.3l0.2,1.3c0,0.4,0,1.3-0.1,1.7c-0.3,1-0.9,2.9-1.2,3.9H147
			c-6.8,0.9-14.6,2.5-20-3c0.2-0.4,0.7-1.3,1-1.7C130.1,215.1,132.9,213.9,134.9,212.5z"/>
	</g>
	<g>
		<path class="st59" d="M50.5,223.3c1.1-3.2,2.1-7,5.5-8.4c6-2,14.5,0.2,16.2,7l-1.2-0.8c-3.2-1.8-6.3-4.6-10.1-4.4
			C56.3,216.5,53.5,220.7,50.5,223.3z"/>
	</g>
	<g>
		<path class="st60" d="M157.1,243.8c1.3-1.7,2.7-3.3,4-5c1.6,2.7,4,4.7,6.8,6.1c1.5,1.8,3,3.6,4.6,5.3c-0.6,0.7-1.2,1.4-1.7,2.1
			c1.2,0.8,2.3,1.6,3.4,2.3c-0.1,0.5-0.4,1.6-0.5,2.1c-2.8,1.4-5.5,2.8-8.3,4.2c-1.8-1.6-3.7-3.2-5.5-4.7c-2.5-2.4-4.5-5.1-6.1-8.1
			C154.6,247,156.3,244.9,157.1,243.8z"/>
		<path class="st60" d="M246,272.9c1.9-2.4,4.9-3.6,7.6-4.8c2.9,4.1,6.5,7.9,8.5,12.6c0.8,3.8,0.5,7.7,0.8,11.6
			c-1.9-1.6-3.8-3.3-5.9-4.6c-4.4-3.5-7.8,2.9-11,5.1C246,286.2,245.2,279.5,246,272.9z"/>
		<path class="st60" d="M193.2,289.3c0.7-2.7,1.6-5.2,2.5-7.8c2.3,1.7,4.7,3.5,6.9,5.4c1.4,2.8,2.9,5.5,4,8.4
			c-0.2,2.6-0.5,5.2-0.9,7.9c-2.4,1.6-4.8,3.2-7.2,4.9c-0.5-0.5-1.6-1.6-2.1-2.1v1.9c-1.5-2.5-3.3-4.9-4.4-7.6
			C191.6,296.5,192.6,292.9,193.2,289.3z"/>
	</g>
	<g>
		<path class="st61" d="M66.4,239.8c5.4,0.3,10.8-0.5,16.2-0.8c0.1,0.8,0.4,2.4,0.6,3.2c-1.4,0.8-2.9,1.6-4.3,2.3
			c-4.8,3.2-10.4,3.8-16,3.4l0.3-0.4c0.4-0.6,1.2-1.8,1.7-2.4C65.4,243.4,65.9,241.6,66.4,239.8z"/>
	</g>
	<g>
		<path class="st62" d="M167.9,244.8c1.8-1.5,3.7-3,5.6-4.4c4.3,2.4,1.5,7.1-1,9.7C170.9,248.4,169.4,246.6,167.9,244.8z"/>
	</g>
	<g>
		<path class="st63" d="M114.8,260.3c2.4-2.7,4.9-5.3,7.3-8c0.2,0.4,0.6,1.4,0.8,1.8c0.4,0.9,1.2,2.6,1.6,3.4c2,0.1,4.1,0.2,6.1,0.2
			c2,4.1,3.8,8.4,5.4,12.7c1.2-0.2,2.4-0.3,3.7-0.5c3-0.3,6.1-0.5,9.1-0.4c-0.7,5.6-1.4,11.2-1.7,16.9c-2.4,2.6-4,5.8-5.5,9.1
			c-0.2-3.1-0.8-6.2-1.4-9.2c-0.9,0-2.6,0.1-3.4,0.1c-1.1-2-3-3.2-4.8-4.4c-1.5,6.8-1.8,13.7-2.2,20.6c-0.1,1.1-0.3,3.3-0.5,4.4
			c-4.7-2.9-9.6-5.3-14.7-7.5c-2.4-3.2-3.8-6.9-4.6-10.7c0.3-4.1,0.7-8.3,0.8-12.4c2.2-2,5-3.9,5.8-7
			C118.3,266.1,115.7,263.2,114.8,260.3z"/>
	</g>
	<g>
		<path class="st64" d="M123,254.1c2.9-0.6,5.8-1.2,8.7-1.8c-0.3,1.8-0.7,3.6-1,5.5c-2,0-4.1-0.1-6.1-0.2
			C124.2,256.7,123.4,254.9,123,254.1z"/>
	</g>
	<g>
		<path class="st65" d="M243,272.3c5.7-4.6,12.5-7.8,19.9-7.9c-2.1,1.1-4.2,2.1-6.4,3c-0.7,0.2-2.2,0.6-2.9,0.8
			c-2.7,1.2-5.7,2.3-7.6,4.8c-0.8,6.6,0,13.3,0,20c3.2-2.2,6.6-8.6,11-5.1c2.1,1.3,4,3,5.9,4.6l0.2,1.1c-4.4,0.2-8.9,0.4-13.3,1.1
			c-0.7,0.6-2,1.8-2.7,2.4c-2.1,0.6-5.3,0.9-6-1.9c0.8,0.1,2.5,0.3,3.4,0.5C241.6,288,242.7,280,243,272.3z"/>
	</g>
	<g>
		<path class="st66" d="M280.2,277.7c0.8-0.1,2.5-0.2,3.4-0.2c4.4,2.5,1.8,8.3-0.4,11.4C282.1,285.2,281,281.5,280.2,277.7z"/>
	</g>
	<g>
		<path class="st67" d="M132.2,281.9c1.7,1.3,3.7,2.5,4.8,4.4c-1.6,4.6-1.6,9.3,1.5,13.3c1.2-1.3,2.3-2.7,3.3-4.2
			c1.5-3.2,3.1-6.4,5.5-9.1c0.7,3.2,1.5,6.4,2.4,9.5c-0.5,0.5-1.6,1.6-2.2,2.2c-4.1,0.4-7.3,2.6-8.6,6.6c-1.8,0.9-3.6,1.7-5.4,2.5
			c-0.4-1.9-1.5-3.9-3.5-4.6C130.4,295.7,130.7,288.7,132.2,281.9z"/>
	</g>
	<g>
		<path class="st68" d="M215,289.6c2.3-1.7,5,2.2,3.4,4.2C216.1,295.5,213.1,291.5,215,289.6z"/>
	</g>
	<g>
		<path class="st69" d="M147.5,298.1c0.5-0.5,1.6-1.6,2.2-2.2c1.2,2.3,1.2,6-2,6.5C147.6,301.4,147.5,299.2,147.5,298.1z"/>
	</g>
	<g>
		<path class="st70" d="M206.5,295.2c2.7,6.3,2.8,13.3,2.3,20c-1.4,12.2-7.5,23.2-14,33.4c-1.8-1.2-3.5-2.4-5.2-3.7
			c-2.5-2.8-5-5.6-7.5-8.3c0-0.7-0.1-2.1-0.1-2.9c7-6.9,15.9-15,14.5-25.9v-1.9c0.5,0.5,1.6,1.6,2.1,2.1c2.4-1.6,4.8-3.2,7.2-4.9
			C206,300.5,206.3,297.8,206.5,295.2z"/>
	</g>
	<g>
		<path class="st71" d="M220.5,345.1c-3.7-6.6-1.2-16.4,7.3-17.1c-0.4,1.5-1.3,4.6-1.7,6.1l-0.4,0.8
			C224,338.3,222.3,341.7,220.5,345.1z"/>
	</g>
</g>
</svg>
