<?xml version="1.0" encoding="utf-8"?>
<!-- Generator: Adobe Illustrator 23.0.0, SVG Export Plug-In . SVG Version: 6.00 Build 0)  -->
<svg version="1.1" id="Layer_1" xmlns="http://www.w3.org/2000/svg" xmlns:xlink="http://www.w3.org/1999/xlink" x="0px" y="0px"
	 viewBox="0 0 400 400" style="enable-background:new 0 0 400 400;" xml:space="preserve">
<style type="text/css">
	.st0{fill:#FEFCFD;}
	.st1{fill:#FEFFFF;}
	.st2{fill:#E5EEEF;}
	.st3{fill:#556977;}
	.st4{fill:#B0C5CE;}
	.st5{fill:#F86205;}
	.st6{fill:#E6ECEE;}
	.st7{fill:#FFED0A;}
	.st8{fill:#B1C4CE;}
	.st9{fill:#FD9803;}
	.st10{fill:#FDFFFF;}
	.st11{fill:#000101;}
	.st12{fill:#546977;}
	.st13{fill:#E56206;}
	.st14{fill:#B5C5D0;}
	.st15{fill:#1F2128;}
	.st16{fill:#56697C;}
	.st17{fill:#EA6206;}
	.st18{fill:#FE9D08;}
	.st19{fill:#3A3C40;}
	.st20{fill:#FEE018;}
	.st21{fill:#FFF10A;}
	.st22{opacity:8.000000e-02;enable-background:new    ;}
	.st23{fill:#FFBE04;}
	.st24{fill:#EF6205;}
	.st25{fill:#9E0507;}
	.st26{fill:#FE8403;}
	.st27{fill:#FF807E;}
	.st28{fill:#FA3536;}
	.st29{fill:#FFED1C;}
	.st30{fill:#FEA505;}
	.st31{fill:#414649;}
	.st32{fill:#FEC903;}
	.st33{fill:#FE8D04;}
	.st34{fill:#FFD6AF;}
	.st35{fill:#56697D;}
	.st36{fill:#FEBE06;}
	.st37{fill:#B2C5D0;}
	.st38{fill:#55697C;}
	.st39{fill:#B11313;}
	.st40{fill:#AEC2CC;}
	.st41{fill:#FAFEFF;}
	.st42{fill:#E3EFF2;}
	.st43{fill:#FDFCFF;}
	.st44{fill:#77B2C1;}
	.st45{fill:#4F6576;}
	.st46{fill:#5893A4;}
	.st47{fill:#FE8603;}
	.st48{fill:#EB4803;}
	.st49{fill:#E56B18;}
	.st50{fill:#FFF11C;}
	.st51{fill:#B2C4CF;}
	.st52{fill:#FEFCFA;}
	.st53{fill:#1E1F22;}
	.st54{fill:#FFD518;}
	.st55{fill:#F38600;}
	.st56{opacity:0.89;fill:#DFDFDF;enable-background:new    ;}
	.st57{fill:#B2C5D1;}
	.st58{fill:#B1C4CC;}
	.st59{fill:#E7ECEE;}
	.st60{fill:#4D8C9D;}
	.st61{fill:#506977;}
	.st62{fill:#F9D4B2;}
	.st63{fill:#50697C;}
	.st64{fill:#FEE006;}
	.st65{opacity:5.000000e-02;enable-background:new    ;}
	.st66{fill:#8FC6D4;}
	.st67{fill:#9BB7C1;}
	.st68{fill:#B0C4CC;}
	.st69{fill:#E16318;}
	.st70{fill:#B2C5CF;}
	.st71{fill:#70ADBD;}
	.st72{fill:#69ABBB;}
	.st73{fill:#FDA505;}
	.st74{fill:#6EADBD;}
	.st75{fill:#000104;}
	.st76{fill:#FFE006;}
	.st77{fill:#85BFCE;}
	.st78{fill:#FFCE1D;}
	.st79{fill:#FECB18;}
	.st80{fill:#FDA50A;}
	.st81{fill:#FEB206;}
	.st82{fill:#C2E7F2;}
	.st83{fill:#BFE5F1;}
	.st84{fill:#9ACCD9;}
	.st85{fill:#E0F6FD;}
	.st86{fill:#C4D3DD;}
	.st87{fill:#90C0CD;}
	.st88{fill:#C5D5DD;}
	.st89{fill:#81A6B1;}
	.st90{fill:#548191;}
	.st91{fill:#EDFBFF;}
	.st92{fill:#91B0BC;}
	.st93{fill:#E3ECEF;}
	.st94{fill:#54636E;}
	.st95{fill:#D1DDE2;}
	.st96{fill:#97A3A8;}
	.st97{fill:#AFC4CF;}
	.st98{fill:#D5E1E6;}
	.st99{fill:#B0C5D0;}
	.st100{fill:#84A6B1;}
	.st101{fill:#D1DFE6;}
	.st102{fill:#4B6171;}
	.st103{fill:#B0C5CF;}
	.st104{fill:#E5EDF1;}
	.st105{fill:#B0C4CF;}
	.st106{fill:#84A6B3;}
	.st107{fill:#81A4AF;}
</style>
<g>
	<g>
		<path class="st0" d="M161.4,42.8c3.4-4.3,9.1-6.8,14.6-6.1c5.1,0.6,10.1,1.5,15.2,1.6c5.4,0.7,11,1.1,16.4,1.5
			c10.8,1.4,21.7,1.8,32.5,3.4c7.8,0.7,15.6,2,23.4,2.6c6.2,1,12.6,1.6,18.9,2.3c3.7,0.7,7.4,1.2,11.2,1.5
			c6.2,1.1,12.5,1.6,18.7,2.6c5.1,0.4,10.2,1.6,15.3,1.9c2.1,0.9,4.4,0.3,6.5,1.1c5.5,0.4,10.5,3.8,13.5,8.3
			c2.1,3.9,4.2,7.9,6.4,11.7c2,3.8,3.9,7.6,6,11.3c2.3,4.2,4.4,8.6,6.8,12.8c2.5,5.2,5.8,10.2,7.6,15.7c0.7,2.9,1.2,6.1,0.5,9.1
			c-3.4,14.2-6.5,28.5-10,42.7c-5.6,23.1-11.7,46-17.8,69c-1.8,6.6-4.7,13.1-9.6,18.1c1,0.9,2,1.7,3,2.5c8.8,6.5,19.2,11,30,12.9
			c4.6,0.4,9.4,2.8,10.7,7.6c0,0.3,0.1,1,0.1,1.3c0.1,6.3,0.2,12.7-0.3,19c-0.2,3.9-2.3,8-6.1,9.5c-5.3,2-11,2.5-16.4,3.9
			c-3.2,0.6-6.5,2-9.7,0.6c1.8,2.5,3,5.6,2.4,8.7c-0.8,4.3-2,8.6-3,12.9c-1,4.7-4.9,8.4-9.3,10.1c-5.4,2.2-10.9,4.3-16.5,6.1
			c-2,0.7-4,1.7-6.2,1.6c-1.5-0.1-3-0.8-4.5-0.8c-5.6,2.8-11.6,7-18.2,5.3c-1.8,2.5-4,4.9-7,5.7c-8.2,2.2-16.6,3.4-25,4.4
			c-2.6,0.4-5.4,0.8-7.9-0.1c-6.6-1.7-8.5-8.8-11.1-14.2c-0.6-1.2-1.1-2.5-1.5-3.7c-0.4-0.9-0.7-1.8-1.1-2.8
			c-2.6,0.1-5.1,0.2-7.7,0.8c-3,5.1-5.6,11.4-11.6,13.5c-6,1.7-12.3,0.6-18.4,0.7c-4.3-1.1-9.2,0.1-13-2.7c-4.4-3.2-4.8-9-7-13.6
			c-5.5-1.7-12.3-1.6-16.1-6.6c-2.7-4.3-3.4-9.4-5-14.1c-1.5,0.8-3.1,1.5-4.7,2.3c-0.4,0.2-1.2,0.6-1.6,0.8
			c-2.8,0.4-5.8,0.5-8.5-0.8c-1.2-0.6-2.5-1.1-3.8-1.5c-2-0.9-4-1.6-5.9-2.6c-4-1.9-7.8-4.2-11.6-6.5c-3.1-1.8-5.3-4.9-6-8.4
			c-0.1-1.6-0.1-3.1,0-4.7c0.6-2,0.6-4.1,0.8-6.1c1.6-9.1,2.8-18.2,5.3-27.2c0.9-3.1,2.1-6.1,2.8-9.3c-0.5-0.1-1.6-0.2-2.1-0.3
			c-1-0.3-2-0.6-3-0.8c-0.9-0.4-1.9-0.7-2.8-1c-4.3-1.4-8-4-11.7-6.4c-4.8-3.8-10.7-7.1-17.1-5.9c-10,1.6-17.8,8.8-25.3,15.1
			c-3.1,3.4-7.3,7.1-12.3,5.6c-6.5-2.2-12.7-5.4-19.1-8.2c-3.3-1.1-5.8-4.2-6.2-7.7c-0.2-5.8-1.4-11.5-1.9-17.3
			c-0.3-2.7,0.2-5.7,1.8-7.9c2.8-3.4,6.4-6.1,9.8-9c8.4-6.7,19-10.5,29.6-11.2c3.8,0,7.7-0.1,11.5,0.1c1.5,0.5,3,0.6,4.5,0.7
			c2.4,0.6,4.8,1.2,7.1,2.3c0.1-1.3,0-2.5-0.5-3.6c-1.9-4.8-5.7-8.8-10.6-10.6c-0.8-0.2-1.5-0.5-2.3-0.8c-9.6-2.7-20-0.8-29.4-4.5
			c-4-1.6-7.2-4.7-8.9-8.7c-1.3-0.6-2.7-0.8-4-1c-6.2-2.3-9.8-8.9-9.8-15.3c0.4-2.8,1.4-5.5,2.3-8.2c-2.5-1.2-4.2-3.5-5.3-5.9
			c-1.1-2.9-0.9-6.4,1.7-8.5c2-2.6,6.5-2.9,8.7-0.3c2.5,1.9,1.1,5.4,1.9,8c1.9-3.2,4.8-5.6,7.7-7.9c-1.4-0.1-2.8-0.2-4.2-0.2
			c-0.4-0.3-1.1-1-1.4-1.3c-0.3-1.4-0.3-2.9,0-4.3c2.9-2.6,6.7-4,10.4-5.1c-2.7-1.3-5.7-2.7-7.5-5.3c-3.8-4.9-5.5-11.3-5.2-17.5
			c0.3-0.7,0.6-1.4,0.8-2.1c0.3-0.3,1-0.9,1.3-1.3c1.8-0.2,4.1-0.3,5.1,1.7c1.6,3,4.7,5.1,8.1,5.3c-2.2-2.2-4.3-4.4-5.6-7.3
			c-0.9-4.5,0.3-9,2.2-13.1c1.3-2.1,3.8-4.1,6.3-2.6c3.2,1,1.7,5.2,4,7c3.8,3.6,8.2,8.2,6.6,13.9c-0.7,1.6-1.7,3.1-2.3,4.7
			c4.3,2.3,7.1,6.6,9,11c0.3,1.4,0.7,2.7,1.3,4c1.3-1.2-0.2-2.9-0.4-4.2c-0.7-1.4-0.1-2.8,0.4-4.2c1.4-1.5,3.8-1.7,5.5-0.7
			c1.5,0.8,3.1,1.6,4.8,1c-0.4-1.3-0.8-2.6-1.3-3.9c-0.4-3.7,0.9-7.7,4-10c1.9-1.4,1.5-4.2,3.5-5.6c1.4-0.2,2.8-0.2,4.3,0.1
			c1.7,1.4,2.8,3.5,3.8,5.5c0.2,1.3,0.5,2.6,0.7,3.9c-0.7,2.2-0.9,4.7-2.5,6.5c1.5-1.4,4.1-1.2,5.7-0.1c1,1.2,0.7,2.8,0.6,4.3
			c-1.8,1.8,0.4,3.6,1.4,5c-0.2-3,2.3-4.8,5-5.3c6.9-0.8,12.8,4.6,15.4,10.5c0.9,5.2-1,10.9-4.7,14.7c-0.4,0.1-1.1,0.4-1.5,0.5
			c0.4,3.6,0.5,7.2,0,10.8c-1,4-2,8.1-4.2,11.6c-3.3,5.5-8.3,9.7-12.3,14.6c3.1,3.8,4.3,9,3.7,13.9c-0.9,5.1-2.9,9.8-5.8,13.9
			c6.6,3.7,13.7,7.7,21.6,7.6c3-0.1,6.2,0.4,9.1-0.8c3.2-1.3,6.1-3.9,7.2-7.2c-2.8-3.2-5.9-6.2-8.1-9.9c-1.3-2.3-1.6-4.9-2.4-7.4
			c-0.5-6.7,2.1-13.2,3.1-19.7c1-4.8,2.1-9.5,3-14.3c2.3-10.1,4.4-20.2,6.7-30.3c6-24.2,12.1-48.4,18.9-72.3
			C158.4,50.9,159.2,46.5,161.4,42.8 M163.1,47.5c-5,15.4-8.8,31.1-13,46.7c-8.1,30.2-14.7,60.8-21,91.4c-0.5,2.9-0.5,5.8,0.3,8.6
			c1.7,6,7,9.8,10.5,14.6c-2,4.2-4.8,8.3-9.2,10.3c-3.8,1.9-8.1,1.7-12.2,1.6c-7.5-0.4-14.6-3.6-21-7.3c-7.5-4.4-16.2-6.9-25-6.4
			c-12.8-0.5-25.7,4.2-35,13c-3,2.8-7.5,5.4-7.4,10.1c0.6,6.3,1.8,12.5,2.1,18.8c0.1,2,1.7,3.5,3.4,4.3c6.1,2.6,12,5.5,18.2,8
			c2.3,0.9,5,0.3,6.8-1.5c3.9-3.7,7.8-7.3,12.2-10.5c5.6-4.1,11.7-7.9,18.7-8.7c5.5-1,11,1.1,15.5,4.1c6.1,4.3,12.4,8.7,19.8,10.1
			c2,0.5,4.1,0.3,5.9,1.4c-5.6,15.1-8.3,31.1-10,47.1c-0.3,3.1,1.6,6,4.2,7.6c5.6,3.4,11.3,6.6,17.3,9c3.1,1.2,6.4,3.3,9.8,1.9
			c3.2-1.5,6.4-3,9.7-4.3c1.2,4.2,2,8.5,3.5,12.7c0.7,2.7,2.2,5.4,4.9,6.6c4.2,1.5,8.8,2.1,13,3.4c1.3,3.7,2.5,7.4,4,11
			c0.8,1.8,2.5,3.3,4.5,3.6c7.9,0.9,15.8,1.3,23.7,0.9c5.8-0.5,8.2-6.3,10.9-10.6c1-1.3,1.3-4.1,3.5-3.7c3.5-0.1,7-1,10.4-0.9
			c2.2,5.7,4.6,11.4,7.3,16.9c1.4,2.9,4.6,5,7.9,4.6c7.6-0.6,15.1-1.6,22.5-3.2c3-0.9,6.4-0.8,8.7-3.1c1.8-1.5,2.3-3.8,3.2-5.9
			c1.5,1.4,3.5,2.6,5.6,2.2c5.3-0.8,10-3.7,14.5-6.6c1.8,1.4,4.3,2.2,6.6,1.3c6.9-2.4,13.9-4.8,20.7-7.7c3.4-1.5,5.6-4.8,6.2-8.4
			c0.8-4,2.2-8,2.6-12.1c0.2-3.7-3-5.9-5.2-8.4c-5.4-5.9-11-11.8-15.4-18.5c-0.2-1.5-0.1-3.1-0.2-4.6c4.7,6,10.5,10.7,16.1,15.8
			c1.9,1.6,3.7,3.4,5.7,4.8c1.9,1.4,4.4,0.8,6.5,0.3c5.8-1.4,11.7-2.2,17.4-3.8c2.7-0.8,4.6-3.5,4.7-6.3c0.4-6.1,0.7-12.3,0.5-18.5
			c-0.1-2.8-2.3-5.4-5.1-5.8c-15.2-2.4-30-9-41-19.8c8.6-5,11.3-15.5,13.6-24.5c4.9-18.7,10-37.4,14.5-56.3
			c4.1-16,7.5-32.3,11.4-48.3c0.7-3.8,0.4-8-1.4-11.5c-8.3-16-16.8-31.9-25.4-47.8c-1.9-3.1-5.1-5.4-8.7-6.2
			c-33.2-4.6-66.4-8.9-99.7-12.7c-17.9-1.8-35.7-3.4-53.6-5c-1.5-0.2-3-0.2-4.4-0.7c-2.6-0.2-5.2-0.4-7.8-0.1
			C167.4,41.9,164,43.9,163.1,47.5 M48.5,101.8c1.5,3.9,6.8,4.8,7.6,9.1c2.7-1,4.6-3.9,4.3-6.8c0-3.6-3.4-5.6-5.5-8.1
			c-2-1.7-2.6-4.4-3.1-6.9l-1,0.4C47.9,92.7,47,97.8,48.5,101.8 M89.8,101.9c0.3,2.5-1.4,4.1-3.2,5.6c-4.4,3.7-2.5,12.3,3.7,12.8
			c-2.5-3.7,1.7-6.3,2.5-9.6C94.2,107.6,92.5,103.7,89.8,101.9 M38.3,105.5c-0.8,7.8,2.7,17.4,10.9,19.8c5.5,1.3,12.1-0.9,16.7,3.5
			c0.5,0,1.5,0,2,0c0.2-4.5-2.5-8.5-5.2-11.8c-5.1-5.5-13.8-2.5-19.5-6.8C41.3,108.9,40.1,106.9,38.3,105.5 M93.1,123
			c-3.3-1.5-7.1-1.9-10.7-0.9c-2.8,1.1-5.6-0.8-8-2.2c0.3,2.7,1.3,5.2,2.6,7.6c-3.7,1-6,4.4-7.4,7.8c-0.2,0-0.5,0.1-0.7,0.1
			c-2.6-1.6-5.3-3.1-8.3-3.6c-1.3-2-4-1.6-6.1-1.7c-1.6,0.2-3.9-0.6-4.8,1.2c-2.9,0.5-5.6,1.7-8.2,3c-0.5,0.2-1.9,1-0.9,1.6
			c4.1,0.3,9.2-0.8,12.4,2.3c-7.3,2.1-14.5,7.1-17,14.6c-0.4,0-1.1-0.1-1.5-0.1c0,1.8,0,3.7,0,5.5c-2.1,0.3-1.3-2.2-1.7-3.4
			c-0.6,0.1-1.2,0.2-1.8,0.3l0.2,0.3c-2.7,4.5-2.9,10.3,0.1,14.6c2.5,3.3,6.5,5.2,10.6,4.5c0.7,3.1,2.3,6,4.9,7.9
			c4.2,2.6,9.4,3.5,14.3,3.5c8.3,0.7,17.2,0.9,24.5,5.3c4.9,3.6,9,9.2,9.2,15.5c6.1-6.7,7.6-18.5,0.6-25.2c0.9-1.5,1.8-2.9,3-4.1
			c4.6-4.5,9.3-9.2,12.1-15.1c2.7-6.4,3.6-14,1-20.6c-1.9-6.2-7.1-10.5-11.6-14.8c-2.5-2.3-4.7-5.9-3.1-9.3C95,119,94,121,93.1,123
			 M105.9,123.7c1.6,2.4,4,4.1,5.3,6.7c0.7,1.9,0,4.1,0.8,6c0.8,2,2.1,3.7,3.6,5.2c2.9-3.5,5.5-9.3,2.3-13.4
			c-2.1-3.3-5.8-6.2-9.9-5.7C107.3,122.7,105.6,122.5,105.9,123.7 M25.4,143.2c-0.4,4.2,2.8,9,7.5,7.9c-0.8-1.8-1.7-3.6-1.6-5.6
			c-0.1-1.6,0.2-3.9-1.7-4.7C27.7,140.1,26.6,142.2,25.4,143.2z"/>
	</g>
	<g>
		<path d="M163.1,47.5c0.9-3.6,4.3-5.6,7.5-7c2.6-0.3,5.2-0.1,7.8,0.1c1.4,0.5,2.9,0.5,4.4,0.7c17.9,1.6,35.7,3.3,53.6,5
			c33.3,3.8,66.5,8.1,99.7,12.7c3.6,0.8,6.7,3.1,8.7,6.2C353.4,81,361.9,97,370.2,113c1.8,3.5,2.1,7.7,1.4,11.5
			c-3.9,16.1-7.3,32.3-11.4,48.3c-4.5,18.8-9.7,37.5-14.5,56.3c-2.3,9-4.9,19.5-13.6,24.5c11.1,10.8,25.9,17.3,41,19.8
			c2.8,0.4,5,3,5.1,5.8c0.1,6.2-0.1,12.3-0.5,18.5c-0.1,2.8-2,5.5-4.7,6.3c-5.7,1.6-11.6,2.4-17.4,3.8c-2.1,0.5-4.6,1.1-6.5-0.3
			c-2.1-1.4-3.8-3.2-5.7-4.8c-5.6-5.1-11.4-9.8-16.1-15.8c0.1,1.5,0,3.1,0.2,4.6c4.4,6.7,10,12.6,15.4,18.5c2.2,2.4,5.4,4.7,5.2,8.4
			c-0.4,4.1-1.8,8.1-2.6,12.1c-0.6,3.6-2.8,6.9-6.2,8.4c-6.7,2.9-13.7,5.3-20.7,7.7c-2.2,0.9-4.7,0-6.6-1.3
			c-4.4,2.9-9.1,5.8-14.5,6.6c-2.2,0.4-4.1-0.7-5.6-2.2c-0.9,2-1.4,4.4-3.2,5.9c-2.3,2.2-5.8,2.2-8.7,3.1c-7.4,1.6-15,2.6-22.5,3.2
			c-3.3,0.4-6.4-1.7-7.9-4.6c-2.7-5.5-5.1-11.2-7.3-16.9c-3.4-0.1-6.9,0.9-10.4,0.9c-2.2-0.3-2.5,2.4-3.5,3.7
			c-2.7,4.3-5.1,10.1-10.9,10.6c-7.9,0.4-15.9,0-23.7-0.9c-2-0.3-3.7-1.7-4.5-3.6c-1.5-3.6-2.7-7.4-4-11c-4.2-1.3-8.8-2-13-3.4
			c-2.7-1.2-4.2-3.8-4.9-6.6c-1.5-4.1-2.3-8.4-3.5-12.7c-3.3,1.3-6.5,2.8-9.7,4.3c-3.4,1.3-6.7-0.8-9.8-1.9
			c-6.1-2.4-11.8-5.6-17.3-9c-2.6-1.5-4.5-4.5-4.2-7.6c1.7-16,4.4-32,10-47.1c-1.8-1.1-3.9-0.9-5.9-1.4c-7.4-1.4-13.8-5.9-19.8-10.1
			c-4.5-3-10-5.1-15.5-4.1c-7,0.8-13.1,4.6-18.7,8.7c-4.3,3.2-8.3,6.8-12.2,10.5c-1.8,1.7-4.5,2.4-6.8,1.5c-6.1-2.5-12.1-5.4-18.2-8
			c-1.7-0.8-3.3-2.3-3.4-4.3c-0.3-6.3-1.5-12.5-2.1-18.8c-0.1-4.7,4.4-7.3,7.4-10.1c9.3-8.8,22.2-13.5,35-13
			c8.8-0.5,17.5,1.9,25,6.4c6.4,3.8,13.4,6.9,21,7.3c4.1,0.1,8.4,0.3,12.2-1.6c4.4-1.9,7.3-6,9.2-10.3c-3.6-4.8-8.9-8.6-10.5-14.6
			c-0.8-2.8-0.8-5.8-0.3-8.6c6.3-30.6,12.9-61.2,21-91.4C154.2,78.5,158.1,62.8,163.1,47.5 M166.5,51.7c-6,20.3-12.2,40.6-16.8,61.3
			c-5.4,23.9-10.9,47.8-16.2,71.7c-1.2,5.1,0.4,10.6,4,14.4c1.6,1.6,2.7,3.7,4.7,4.7c4.7,0.1,9.3,0.8,14,1c2.4,0.5,5.1,0.1,7.2,1.7
			c1.6,1.2,2.3,3.1,3.3,4.7c0.9,0.8,1.2,0.6,1-0.7l0.5-0.2c1.3-3.6,5.5-3.1,8.6-2.9c5.9,0.6,11.9,1,17.8,1.9
			c4.2,0.9,5.6,5.4,7.9,8.5c1.7-2.6,3.1-6.4,6.7-6.6c4.3,0.1,8.6,0.9,12.8,1.4c3.5,0.7,7.4,0.5,10.6,2.4c2.3,1.3,3.4,3.8,5,5.8
			c1.1-0.5,1-2.1,2-2.8c1.8-2.1,4.7-2.1,7.2-2c5.3,1,10.7,1.7,16,2.5c3.6,0.4,6.3,3.5,7.3,6.8c0.5-1.8,1.4-3.7,3.2-4.5
			c2.5-0.6,5,0.3,7.5,0.6c7.3,1,14.7,2.3,22,3.2c2.7,0.4,4.5,2.6,6.1,4.5c6.7,7,13.6,13.8,20.1,21c4.9-2.2,8.4-6.7,9.7-11.9
			c5-18,9.8-36.2,13.9-54.4c4.5-19.3,9.3-38.6,14-57.9c1.2-4.1,1-8.7-0.8-12.6c-7.6-14.5-15.5-28.8-23.3-43.2
			c-2.4-3.8-6.6-6.5-11.1-7c-23.1-3.7-46.2-7.3-69.4-9.8c-26.7-2.6-53.3-5.2-80-8.1c-2.5-0.2-5-0.7-7.5-0.5
			C170.9,45.5,167.6,48.2,166.5,51.7 M143.9,209.8c-2.6,7.4-9.2,13.5-17,14.7c-4.5,1-9-0.4-13.4-1c-5.5-1.5-10.7-3.7-15.8-6.3
			c-7.1-4.8-15.7-6.7-24.2-6.5c-12-0.4-24.3,3.6-33.3,11.7c-2.4,2.2-6.3,4-6.2,7.8c0.4,4.6,1.4,9,1.7,13.6c0.3,2.3,0.1,5.3,2.5,6.5
			c4.9,2.2,10,4,14.9,6.1c2,1,4.7,1.3,6.4-0.3c6.5-6,13.3-11.9,21-16.2c6.8-2.6,14.6-4.9,21.6-1.9c5.5,1.7,9.6,5.7,14.6,8.4
			c6.1,4,13.8,5.9,21.1,4.6c-0.3,1.4-0.4,2.9-0.3,4.4h-0.1c-4.9,15.9-8.6,32.2-10.1,48.7c0,1.7,1.2,3.3,2.7,4
			c5.5,2.8,11.1,5.4,16.8,8c2.2,1,4.7,2,7.1,1c3-1.3,6.1-2.3,9.2-3.4l-0.1-0.2c1.3-0.2,2.5-0.7,3.6-1.3c1.4,6.2,3.3,12.4,5.7,18.3
			c1.8,3.6,6.4,3.6,9.8,4.6c1,0.6,2.1,0.3,3.2,0.5c1.3,0.3,2.5,0.9,3.9,0.4c1,3.7,2,7.5,3.3,11.1c0.7,2,2.3,4.2,4.7,4.3
			c5.8,0.4,11.6,1.1,17.3,0.3v-0.1c3.9,0.6,7.3-2.5,9.2-5.7c0.1-0.4,0.4-1.2,0.5-1.7c2.1-2.7,3.9-5.6,5.6-8.6c0,0.4-0.1,1.3-0.1,1.7
			c0.7-0.1,2.1-0.3,2.7-0.4c2.9-0.4,5.7-0.9,8.6-1c1.3-0.1,2.6-0.1,3.9-0.2c2,6.2,4.3,12.3,7.1,18.2c1.2,2.7,4.2,4.7,7.2,4.2
			c7.5-0.6,14.9-1.7,22.2-3.6c1.9-0.4,4.1-0.8,5.3-2.6l0.2,0.1c2-3,2.7-6.7,3.9-10.1c0.3,0.5,0.8,1.5,1,2l0.6-0.2
			c0.6,0.8,0.8,2.1,1.7,2.6c0.8,0.6,1.5,2,2.8,1.8c4.8-0.2,8.6-3.5,13-5.1l-0.1-0.2c1.3-0.6,2.4-1.5,3.6-2.3
			c2.1,1.6,5.1,2.3,7.6,1.2c3.4-1.5,6.9-2.5,10.2-4.1c2.1-0.3,4-1.3,5.9-2.1c2-1.4,3.8-3.4,4.2-5.9c0.1-0.3,0.3-1,0.5-1.3
			c0.8-2.4,1.6-4.8,2.4-7.2c0.8-2,0.2-4.4-1.5-5.8c-5.8-5.7-11-12-16-18.4c-0.8-1.7-2.1-3.1-3-4.7c0.7-2.1,0.7-4.4,0.3-6.5
			c-0.1-0.7-0.2-2.1-0.2-2.8c0.2-1.4-0.6-3.3,0.2-4.4c1.1,0.4,2,1.7,3.2,2.3c0.1,0.2,0.3,0.7,0.4,1h0.4c4.5,5.5,9.6,10.5,14.7,15.4
			c2.6,2.2,5.1,4.7,8.2,6.2c2,1,4.2,0.4,6.3-0.1c4-1.1,8.2-1.6,12.1-2.9c2.4-0.3,4.4-2.4,4.5-4.9c0.6-5.2,0.6-10.4,0.2-15.6
			c-0.7-3.2-4.6-2.6-7-3.4c-12.4-2.2-23.5-8.7-33.2-16.5c-3.1-2.5-5.7-5.5-8.7-8.1v-0.4c-0.8-1-1.8-1.9-2.9-2.5
			c-3-3.4-6.3-6.5-9.4-9.7c-0.3-0.2-1-0.6-1.4-0.9v-0.2c-1.4-1.3-2.7-2.7-4.1-4c-1.1-2.1-3-3.7-4.9-5c-1.4-0.5-2.9-0.9-4.4-0.9
			c-2.4-0.7-4.9-1-7.4-1.4c-4.7-0.9-9.5-1.4-14.2-2.6c-2.4-0.1-3.7,2.4-3.6,4.6c-0.2,6.3-0.3,12.6,0.1,18.9
			c-1.5-4.1-0.2-8.6-0.7-12.8c-0.9-1.8-2.2-3.4-3.3-5.1c-1.4-2.2-2.2-4.8-4.4-6.4c-1.1-0.8-2.4-1.3-3.8-1.4
			c-3.7-0.6-7.4-1.4-11.1-1.5c-2.3-0.2-5.9-1.9-7.4,0.8c-1,2.8-1.4,5.9-2.1,8.8c-1.4-2.3-3.4-4.3-5.2-6.3c-1-1.6-2.1-3.2-3.4-4.6
			c-1.2-0.7-2.5-1.3-3.8-1.5c-4.2-0.7-8.5-1.3-12.8-1.7c-2.3-0.3-4.8-1.1-7.1-0.4c-2.5,1.7-3.3,4.8-5,7.1c-0.8-0.8-1.6-1.6-2.4-2.3
			c-1.4-1.5-2.8-3.1-4-4.8c-1-1.6-2.9-2.3-4.7-2.7c-4.1-0.3-8.2-1.2-12.3-1.4c-2.6-0.3-5.3-0.9-7.8-0.4c-1.1,2.1-2,4.3-3,6.5
			c-1.1-0.7-2.2-1.6-3.1-2.6c-1.2-1.2-2.3-2.5-3.3-4c-1.2-1.8-3.4-2.3-5.4-2.4c-1.9-0.3-3.8-0.6-5.7-0.8
			C148.9,208.2,144.8,206.4,143.9,209.8z"/>
	</g>
	<g>
		<path class="st1" d="M166.5,51.7c1.2-3.5,4.5-6.2,8.1-6.7c2.5-0.2,5,0.3,7.5,0.5c26.6,2.8,53.3,5.5,80,8.1
			c23.2,2.5,46.3,6.1,69.4,9.8c4.5,0.5,8.7,3.1,11.1,7c7.8,14.4,15.8,28.7,23.3,43.2c1.8,3.9,1.9,8.5,0.8,12.6
			c-4.7,19.3-9.5,38.5-14,57.9c-4.2,18.3-8.9,36.4-13.9,54.4c-1.3,5.1-4.8,9.7-9.7,11.9c0.5-1.2,2-2.4,1.1-3.7
			c-2-3.6-5.3-6.3-7.8-9.6c-3.6-4.4-7.6-8.5-11.8-12.4c-0.9-0.9-2-1.6-3.3-1.9c-4.7-1.5-9.6-1.6-14.4-2.7
			c-5.8-0.9-11.6-1.9-17.4-2.9l-1.1-0.2c0.3-0.4,0.8-1.1,1-1.5h0.6c7.1,2.1,14.5,2.6,21.8,3.9c3.5,0.4,7.3,0,10.4-1.6
			c2.3-2,2.7-5.3,3.4-8.1c1.4-7.2,3.8-14.2,5.1-21.4c0.3-1.8,1.1-3.5,2-5.2c-0.8,9.7-3.9,19.1-5,28.8c-0.3,3.9-2.2,8.2,0.1,11.8
			c3.9,6.7,9.7,11.9,14.7,17.8c1.4,1.8,4,3.1,6.1,1.8c2.2-2.3,2.8-5.6,3.6-8.5c7-28.7,14.1-57.3,21.1-86c1.5-7.3,3.8-14.3,4.9-21.7
			c1.2-4.8,1.8-10.3-0.9-14.8c-3.3-5.4-5.6-11.2-9.1-16.4c-2.7-4.9-5.7-9.6-8.2-14.6c-1.3-2.6-2.4-5.5-4.7-7.5
			c-1.9,2.9-2.2,6.5-3.3,9.8c-0.8,4.3-2,8.4-3,12.7c-1.4-3.4,0.7-6.8,0.9-10.2c0.5-4.7,0.7-9.6-0.1-14.3c-0.3-2.5-2.8-3.6-5-4.2
			c-8.1-1.8-16.3-3.1-24.4-4.8c-11.1-1.6-22.1-3.2-33.2-4.6c-8.3-0.8-16.5-2.8-24.9-3.2c-5.8-0.2-11.5-1.4-17.4-1.7
			c-6.8-1-13.7-1.4-20.5-2.5c-7.8-0.5-15.5-1.8-23.3-1.9c-4.4,0-8.8-0.9-13.1-0.2c-3.2,0.7-5.5,3.3-6.7,6.2
			c-2.6,5.8-4,12.1-5.3,18.3c-3.1,11.7-5.3,23.5-8.4,35.2c-1.4,7.5-3.9,14.6-5.1,22.1c-4.2,17.7-8.6,35.3-12.5,53.1
			c-1,3.9-0.6,8.1,1.6,11.6c2.3,2.3,5.9,2.3,8.9,2.5c2.7,0.6,5.5,1,8.3,1.2c0.8,0,1.4,0.5,2,1c-0.7,0-2.2,0.1-2.9,0.1
			c-3.8-0.6-7.6-0.7-11.3-1.1c-1.2-0.3-2.2,0.4-3.1,1c0.9,1.3,1.8,2.7,2.6,4c-2.1-1-3.2-3.1-4.7-4.7c-3.6-3.8-5.2-9.3-4-14.4
			c5.3-23.9,10.8-47.8,16.2-71.7C154.3,92.3,160.5,72,166.5,51.7z"/>
		<path class="st1" d="M177.2,95.5c4.5-2.5,10.1-3.8,15.1-2c-3.9,1-8.2,1.8-11.1,4.9c1.8,1,5.6,0.6,5.7,3.2
			c-5.9-2.8-13-2.4-18.8,0.4C170.7,99.3,173.9,97.3,177.2,95.5z"/>
		<path class="st1" d="M196.1,187.1c3.2-1.8,6.7-3.4,10.4-3.7c0,0.3,0.1,0.8,0.1,1.1c-2.7,0.4-5,1.7-6.8,3.8
			C198.6,187.9,197.3,187.5,196.1,187.1z"/>
		<path class="st1" d="M40,222.4c9-8.1,21.3-12.1,33.3-11.7c8.5-0.2,17.1,1.7,24.2,6.5c-1.5-0.3-3-0.6-4.4-0.9
			c-5.5-3.4-12-4-18.3-4.4c-7-0.3-14,0.9-20.4,3.7c-6.1,1.9-11.1,5.8-15.8,9.9c-0.9,0.6-0.5,2.2,0.5,2.5c5,2.4,10.5,4,16,4.7
			c4.5,0.4,6.7-5.2,11-5.3c-2.4,2.1-5.1,4.1-7,6.7c-1.5,2.1-1.2,4.8-1.2,7.2c0.2,4.3,0,8.8,1,13c6.1-4.5,11.5-10.1,18.3-13.7
			c1-0.5,2.1-0.6,3.2-0.8c-7.8,4.3-14.6,10.2-21,16.2c-1.8,1.6-4.4,1.3-6.4,0.3c-4.9-2.1-10-4-14.9-6.1c-2.4-1.3-2.2-4.2-2.5-6.5
			c-0.3-4.6-1.4-9-1.7-13.6C33.7,226.3,37.6,224.6,40,222.4 M36.6,230.5c-1.6,0.6-1,2.8-1.2,4.1c-0.3,3.1,0.7,6,0.4,9.1
			c0.2,2.7,1.7,5.6,4.4,6.6c4.7,2,9.3,4.1,14.2,5.5c2.1,0.4,2.5-2.3,2.3-3.8c-0.3-5.4-0.3-10.8-1.4-16c-2.6-2.2-6.3-2.3-9.3-3.6
			C43,231.7,39.9,229.7,36.6,230.5z"/>
	</g>
	<g>
		<path class="st2" d="M174.2,48.7c4.3-0.7,8.7,0.2,13.1,0.2c7.8,0,15.5,1.4,23.3,1.9c6.8,1.1,13.7,1.5,20.5,2.5
			c5.8,0.3,11.5,1.6,17.4,1.7c8.4,0.4,16.5,2.5,24.9,3.2c11.1,1.4,22.1,3,33.2,4.6c8.1,1.7,16.3,3,24.4,4.8c2.1,0.6,4.6,1.7,5,4.2
			c0.8,4.7,0.6,9.5,0.1,14.3c-0.2,3.4-2.3,6.8-0.9,10.2c-0.2,6.6-3,12.7-3.7,19.2c-3.8,19.4-7.4,38.8-11.1,58.1
			c-0.7,3.1-1.2,6.2-1.5,9.4c-0.9,1.6-1.7,3.3-2,5.2c-1.3,7.2-3.7,14.2-5.1,21.4c-0.7,2.8-1.1,6-3.4,8.1c-3.2,1.6-6.9,2-10.4,1.6
			c-7.3-1.3-14.7-1.8-21.8-3.9c4.4-0.4,8.7,1.1,13.1,1.4c5.5,0.5,11.6,2.1,16.7-0.7c4.2-3.4,4.7-9.6,4.4-14.6
			c-1.7,2.3-3.1,5.3-6,6.3c-4.1,2-8.7,0.6-13,0.3c-4.6-0.4-9.2-1.3-13.8-1.9c1.4-9.7,3.5-19.3,5.1-29c0.6-3.6,1.1-7.3,2-10.8
			c3,0.8,6.5,1.1,9.3-0.6c1.9-1.4,1.8-4.5-0.2-5.8c-2.5-1.8-5.6-2.5-8.4-3.4c0.9-1.6,1.4-3.3,0.9-5.1c4.9,1.9,9.3,4.6,13.8,7.1
			c1.9-0.8,1.6-3,0.5-4.2c-0.9-5.2-3.7-9.7-6.7-13.8c-1.6-2.2-3.7-4-6.1-5.3c-3.3-2.1-7.4-1.7-11-2.8c-5.4-1.5-11.2-1.1-16.6,0.2
			c-8.7,2.2-14.4,9.6-19.4,16.5c-1.3,1.6-2.2,3.4-3.1,5.3c-0.3,0.4-0.8,1.3-1.1,1.7c0.6,0,1.7,0,2.3,0c0.4,0.7,0.8,1.3,1.1,2
			c5.8,1.8,11.9,1.4,17.8,2.4c-0.1,0.8-0.3,1.6-0.5,2.4c-1,3.6-1.6,7.2-2.5,10.8c-0.5,1.9-0.9,3.9-1.2,5.8c0.4,0,1.1,0,1.5,0
			c-0.2,1.6-0.5,3.2-0.7,4.8c-0.5-0.5-1-0.9-1.5-1.4c-0.3,1.7-0.6,3.3-1,5c-0.4,2-0.9,4-1.1,6c-0.5,2.8-1,5.5-1.5,8.3
			c-1.8,0.1-3.7,0.2-5.5-0.1c-6.2-1.1-12.4-2.4-18.7-3c-6.5-0.7-13-2-19.5-2.7c0.2-0.2,0.6-0.7,0.8-0.9c0-0.3,0.1-0.9,0.1-1.2
			c0.5,0.1,1.4,0.3,1.8,0.4c-1.4-3.4-5.3-4.6-8.4-6c1.7-2.1,4.1-3.4,6.8-3.8c0-0.3-0.1-0.8-0.1-1.1c3.2-2.4-1.7-4.9-2.8-7.1
			c-0.9-3.6-2.1-7.5,0.1-10.9c1.8,1.2,2.9,4.1,5.3,3.8c1.4,1.4,2.6,3.1,4.4,3.9c-0.7-3.2-2.7-5.8-4.5-8.4c-1.8-2.3-4.1-5.1-7.4-4.9
			c-3.7,0.3-5.2,4.4-5.4,7.6c0.2,4.5,1.7,9,3.9,12.9c-4,1.3-8.5,3.4-10,7.5c-0.5,2,1.6,2.6,3,2.9c0.6,1.2,1.2,2.3,1.8,3.5
			c-3.3-0.2-6.6-0.5-9.9-0.8c-0.1-0.9-0.2-1.8-0.2-2.8c1.3-6.2,2.3-12.5,3.5-18.8c0.8-4,1.1-8.1,2.4-11.9c5.2-0.2,9.4-3.8,12.2-7.9
			c1-1.4,1.3-3,1.6-4.6l0.3-0.5c0.2-0.4,0.7-1.1,0.9-1.5c0.3,0.1,1,0.2,1.4,0.3c0.3-0.4,0.8-1.2,1-1.6c1.1-2.3,1.5-4.9,1.7-7.4
			c0.3-5.3,1-10.7,0-16c-0.2-4.7,0-9.5-1.7-14c-2.2-5.4-4.6-11.1-9.7-14.3c-4.6-3.5-10.9-3.6-16.2-1.8c-6.4,2.2-12.2,6.3-16,11.9
			c-3.4,3.9-5.9,8.4-7.8,13.2c-1.8,4.7-0.1,9.8-1.3,14.6c-1,0.6-2,1.3-2.5,2.3c0.6,0.1,1.7,0.2,2.3,0.2c0.2,2.5,0.5,5.1,0.9,7.6
			c-1.2,5.8,1.8,12,6.5,15.4c-0.7,6.2-2.1,12.2-2.9,18.4c-0.3,3.4-1.1,6.7-1.6,10c-0.5,2-1,4-1.4,6c-4.8-1.5-10.1-1.2-14.8-3.1
			c-2.9-1.4-3.4-4.9-4.1-7.7c-1.3,3.5-2.3,7.5-1,11.2c1.3,3.6,5,5.5,8.3,7.1c-3.1-0.2-6.6-0.2-8.9-2.5c-2.1-3.4-2.6-7.7-1.6-11.6
			c3.9-17.8,8.3-35.4,12.5-53.1c1.2-7.5,3.7-14.7,5.1-22.1c3.1-11.7,5.4-23.5,8.4-35.2c1.3-6.2,2.7-12.5,5.3-18.3
			C168.7,52,171,49.3,174.2,48.7 M179.1,79.4c6.1-5.3,13.1-11.6,21.8-10.9c4.4,0.7,6.2,5.1,8.1,8.5c1-3.8-0.1-8.5-3.5-10.8
			c-2.6-2-6.1-1.7-9.1-1C188.9,67.2,183.2,73.1,179.1,79.4 M258.1,102.6l0.7-0.3l-0.1,1c-2,4.5-0.2,10.3,3.9,13
			c1.4,0.6,2.9,0.4,4.4,0.6c3.9,5.9,10.5,9.2,17.2,11c3.3,1.4,7.3,1.3,10.5-0.5c1.4-0.4,2.9-0.9,3.8-2.2c-7.7-0.9-15.3-3.6-21.6-8.1
			l1.1-0.1c-1.8-2.7-4.6-4.5-6.7-7.1c-1.6-2.2-2.8-4.7-3.5-7.3c-0.1-0.9-0.8-1.6-1.8-1.3c-0.8,1.2-1.5,2.4-2.3,3.6
			c-0.2-1.8-0.3-3.5-0.3-5.3C261.1,99.2,258.5,100,258.1,102.6z"/>
		<path class="st2" d="M54.4,215.6c6.4-2.8,13.4-4,20.4-3.7c6.3,0.4,12.8,1,18.3,4.4c-9.8,1.2-19.1,5.2-27,11
			c-4.4,0.1-6.5,5.7-11,5.3c-5.5-0.7-11-2.3-16-4.7c-1-0.3-1.4-1.9-0.5-2.5C43.3,221.5,48.4,217.5,54.4,215.6z"/>
		<path class="st2" d="M164.2,238c1.9-7.7,4.2-15.3,7.7-22.4c0.1,1.2,0.3,2.4,0.4,3.6c0.6,0.1,1.3,0.1,1.9,0.2c0.1,1,0.3,2,0.4,3
			c0.4-0.3,0.7-0.7,1.1-1c0.1,0.4,0.3,1.1,0.4,1.5c1.3,0.3,2.6,0.4,4,0.6c1.4,0.5,1,2.4,1.4,3.6c0.3-0.7,0.6-1.4,0.9-2
			c0.2,1,0.4,1.9,0.6,2.9c0.2-0.6,0.5-1.2,0.8-1.8c0.9,0.5,1.8,0.9,2.7,1.4c3.6-3,2.9-8.3,6.1-11.4c-1.3,4.9-3,9.9-2.6,15.1
			c-0.1,3.3,0.1,6.5,0.7,9.7c-3.5,9.7-6.5,19.7-8.4,29.9c-3.4,21-3.6,42.8,1.5,63.6c-3.4-1.2-7.4-2-9.6-5.1
			c-3.8-9-6.2-18.5-8.2-28.1c-1.5-6.2-1.9-12.6-2.7-18.9c-0.6-4.2-0.2-8.5-0.6-12.7c-0.5-5.4,0.2-10.7,0.3-16.1
			C163,248.3,163.6,243.1,164.2,238z"/>
		<path class="st2" d="M193.3,251.1c3-9.2,5.9-18.6,11-26.9c1.1,0.1,2.2,0.2,3.2,0.3c1.8,3.7,5,6.6,8.6,8.6c1.2,0,2.3,0.4,3.5,0.3
			c1.9-1.6,1.9-5,4.6-5.7c-0.8,1.8-1.6,3.6-2.3,5.5c-4.2,10.3-7.2,21.1-9.8,31.9c-2.2,13.1-3.2,26.4-1.8,39.6
			c-0.1,7.6,2.3,14.9,2.8,22.5c-0.1,6.8,2.1,13.2,3.1,19.8c0.5,1.8-0.7,3.3-1.8,4.6v0.1c-2.8-1.4-6-0.7-9-0.9
			c-2.6-0.2-5.2-0.3-7.7-1.3c-1.7-1.7-2.7-4.1-3.7-6.2c-2.2-6.9-4.7-13.9-5.9-21.1c-0.9-7.3-2.2-14.5-2.2-21.9
			C186.1,283.7,187.6,266.8,193.3,251.1z"/>
	</g>
	<g>
		<path class="st3" d="M179.1,79.4c4.1-6.3,9.8-12.2,17.3-14.2c3-0.7,6.5-1,9.1,1c3.4,2.3,4.5,7,3.5,10.8c-2-3.4-3.8-7.8-8.1-8.5
			C192.2,67.8,185.2,74,179.1,79.4z"/>
		<path class="st3" d="M182.1,90.5c5.3-1.8,11.6-1.8,16.2,1.8c5.1,3.2,7.5,9,9.7,14.3c1.8,4.5,1.6,9.3,1.7,14
			c-0.3,0.2-0.8,0.6-1.1,0.8c-1.3-7-3.6-13.9-7.3-20c-1.8-3-4.3-5.6-7.4-7.1c-0.5-0.3-1.1-0.5-1.6-0.7c-5-1.8-10.5-0.5-15.1,2
			c-3.3,1.8-6.5,3.8-9,6.6c-0.7,0.1-1.4,0.3-2,0.4C169.9,96.8,175.7,92.7,182.1,90.5z"/>
		<path class="st3" d="M165.7,215.4c0.9,1,1.9,1.9,3.1,2.6c-2.4,6.7-5.2,13.3-6,20.5c-0.6,5.3-1.2,10.5-1.5,15.8
			c-1.7,19.4,0.6,39,5.3,57.8c-1.1,0.6-2.4,1.1-3.6,1.3c-0.1-0.4-0.3-1.2-0.4-1.5c-2.4-9.4-3.7-19-5-28.5c-0.9-12.7-1.5-25.4,0.4-38
			c-5.8,5-12.9,8.7-20.6,10c-0.1-1.5,0-2.9,0.3-4.4c7.9-1.6,14.7-6.3,21.1-11.1c0.4-1.8,0.8-3.6,1.2-5.4
			C161.2,227.9,163.4,221.6,165.7,215.4z"/>
		<path class="st3" d="M227.8,218.2c1.4,0.2,2.6,0.8,3.8,1.5c-4.8,3.2-6.3,9.2-9.8,13.5c0.7-1.9,1.5-3.7,2.3-5.5
			C225.7,224.7,227.6,221.7,227.8,218.2z"/>
		<path class="st3" d="M235,224.3c1.8,2,3.8,3.9,5.2,6.3c-8.1,34.7-5.7,71.3,4.6,105.3c-1.3,0.1-2.6,0.1-3.9,0.2
			c-4.5-14.6-7.3-29.7-8.7-44.9c-1.5-15.6-0.9-31.3,2-46.7c0.5-4.3,1.3-8.6,1.8-13c-1.8,3.4-2.5,7.3-3.8,11
			c-4.9,14.2-5.6,29.4-5.3,44.3c0.6,14,3.5,27.9,7,41.4c1,3.1-0.1,6.2-1.6,8.9c-0.7,0.1-2.1,0.3-2.7,0.4c0-0.4,0.1-1.3,0.1-1.7
			c1.6-3.8,0.5-7.8-0.7-11.5c-2.5-8.9-4.3-18-5.3-27.1c-0.4-6.2-0.9-12.5-0.7-18.7C223.4,259.8,226.7,241,235,224.3z"/>
		<path class="st3" d="M307.4,234.5c1.4,1.3,2.7,2.7,4.1,4v0.2c0,3.4-0.2,6.9,0.4,10.3c1.4,8.8,2.7,17.9,6.3,26.1
			c1.7,3.7,3.2,7.6,5.9,10.8c0.4,2.1,0.4,4.4-0.3,6.5c-3.5-5.3-6.9-10.7-9.3-16.6C309.1,262.7,306.9,248.5,307.4,234.5z"/>
	</g>
	<g>
		<path class="st4" d="M341.3,73.7c2.3,2,3.4,4.9,4.7,7.5c2.4,5,5.5,9.7,8.2,14.6c3.6,5.2,5.9,11.1,9.1,16.4
			c2.7,4.5,2.1,10,0.9,14.8c-1.1,7.3-3.4,14.4-4.9,21.7c-7,28.7-14.1,57.3-21.1,86c-0.8,3-1.4,6.2-3.6,8.5c-2.2,1.3-4.7,0-6.1-1.8
			c-5-5.9-10.8-11.1-14.7-17.8c-2.2-3.6-0.4-7.9-0.1-11.8c1.1-9.7,4.2-19.1,5-28.8c0.3-3.2,0.8-6.3,1.5-9.4
			c3.7-19.4,7.3-38.8,11.1-58.1c0.8-6.5,3.5-12.6,3.7-19.2c0.9-4.2,2.1-8.4,3-12.7C339.1,80.2,339.4,76.6,341.3,73.7z"/>
	</g>
	<g>
		<path class="st5" d="M48.5,101.8c-1.4-4-0.6-9.1,2.3-12.4l1-0.4c0.5,2.5,1,5.2,3.1,6.9c2.1,2.4,5.5,4.5,5.5,8.1
			c0.3,2.9-1.6,5.8-4.3,6.8C55.3,106.7,50,105.8,48.5,101.8 M50.3,94.5c-1.5,3-0.2,6.5,2.3,8.5l-0.3,0.3c1.7,1.5,3.4,2.9,4.9,4.5
			c1.5-1.3,1-3.4,0.5-5.1c-1.5-2.5-4-4.3-5.7-6.6C51.5,95.5,51.2,94.4,50.3,94.5z"/>
	</g>
	<g>
		<path class="st6" d="M192.2,93.5c0.6,0.2,1.1,0.5,1.6,0.7c1,3.4,2.9,6.5,3.8,9.9c0.9,3.1,1.2,6.3,1.5,9.4
			c-3.2-4.8-7.2-9.1-12.3-11.9c-0.2-2.6-4-2.2-5.7-3.2C184.1,95.4,188.3,94.6,192.2,93.5z"/>
	</g>
	<g>
		<path class="st7" d="M50.3,94.5c0.9-0.1,1.2,1.1,1.7,1.6c1.8,2.3,4.2,4.1,5.7,6.6c-0.1,1-0.2,1.9-0.3,2.9c-1-2.7-2.8-5-5.3-6.5
			c0.4,1,0.8,2,1.2,3c-0.2,0.2-0.6,0.7-0.7,0.9C50.1,100.9,48.8,97.5,50.3,94.5z"/>
	</g>
	<g>
		<path class="st8" d="M193.9,94.3c3.1,1.6,5.6,4.2,7.4,7.1c3.7,6.1,6,13,7.3,20c0.3-0.2,0.8-0.6,1.1-0.8c1.1,5.3,0.3,10.7,0,16
			c-0.2,2.5-0.6,5.1-1.7,7.4c0.9-10.7-2.8-21.5-8.8-30.4c-0.3-3.2-0.6-6.4-1.5-9.4C196.8,100.7,194.8,97.7,193.9,94.3z"/>
	</g>
	<g>
		<path class="st9" d="M52.2,99c2.5,1.5,4.2,3.8,5.3,6.5c0.1-1,0.2-1.9,0.3-2.9c0.5,1.7,1,3.7-0.5,5.1c-1.6-1.6-3.2-3-4.9-4.5
			l0.3-0.3c0.2-0.2,0.6-0.7,0.7-0.9C53,101,52.6,100,52.2,99z"/>
	</g>
	<g>
		<path class="st10" d="M258.1,102.6c0.4-2.6,2.9-3.4,5.2-3c0.1,1.8,0.2,3.5,0.3,5.3c0.9-1.1,1.5-2.4,2.3-3.6
			c0.9-0.2,1.6,0.4,1.8,1.3c0.7,2.6,1.9,5.1,3.5,7.3c2,2.5,4.8,4.4,6.7,7.1l-1.1,0.1c-4.8-3.3-9.3-7.8-10.6-13.7
			c-0.5,0.7-0.9,1.5-1.4,2.2c-1.1,2.3,0.1,4.8,0,7.2c-2.7-3.6-3.2-8.3-3.4-12.7c-0.9,0.7-1.7,1.4-2.6,2.1L258.1,102.6z"/>
		<path class="st10" d="M239.6,155.7c5.1-3.3,10.6-5.8,16.4-7.6l0.5,0.3c0,0.3-0.1,0.8-0.2,1c-3.6,2.3-8.1,3.4-10.8,6.9
			C243.5,156.2,241.6,155.8,239.6,155.7z"/>
		<path class="st10" d="M200.4,166.6c0.1-1.4,1.2-2.8,2.8-2.6c2.5,1,4.2,3.3,5.9,5.2c-2.5,0.2-3.5-2.6-5.3-3.8
			c-2.2,3.4-1,7.3-0.1,10.9C201.4,173.6,199.8,170.2,200.4,166.6z"/>
		<path class="st10" d="M143.9,209.8c0.9-3.3,5-1.5,7.4-1.5c-1.1,0.3-2.3,0.8-3.4,1.2c-0.5,0.2-1.4,0.7-1.8,0.9
			c-3.5,4.1-5.7,9.7-10.7,12.4c-4.5,3.3-10.4,2.8-15.6,4.1c-2.1-1.3-4.5-2.3-6.9-2.6c0.1-0.2,0.4-0.6,0.5-0.8
			c4.4,0.6,8.9,1.9,13.4,1C134.6,223.2,141.2,217.1,143.9,209.8z"/>
		<path class="st10" d="M171.7,211.5c2.5-0.5,5.3,0.1,7.8,0.4c-2.6,0.9-6.3,0.8-7.6,3.6c-3.5,7.1-5.8,14.7-7.7,22.4
			c-0.6,5.1-1.2,10.3-1.2,15.5c-0.2,5.4-0.8,10.7-0.3,16.1c0.4,4.2,0,8.5,0.6,12.7c0.8,6.3,1.2,12.7,2.7,18.9
			c2,9.6,4.3,19.1,8.2,28.1c2.2,3.2,6.2,4,9.6,5.1l0.4,1.1c-0.5-0.1-1.6-0.3-2.1-0.4c-3.4-1-8-1-9.8-4.6c-2.4-5.9-4.3-12.1-5.7-18.3
			c-4.6-18.8-7-38.4-5.3-57.8c0.4-5.3,0.9-10.6,1.5-15.8c0.8-7.1,3.7-13.8,6-20.5C169.7,215.8,170.6,213.6,171.7,211.5z"/>
		<path class="st10" d="M208,216.1c2.3-0.7,4.8,0,7.1,0.4c-2.5,0.8-5.6,0.8-7.3,3c-1.3,1.4-2.4,3-3.5,4.6c-5,8.3-7.9,17.7-11,26.9
			c-5.6,15.7-7.1,32.6-7.3,49.2c0.1,7.3,1.3,14.6,2.2,21.9c1.2,7.2,3.6,14.1,5.9,21.1c1,2.2,1.9,4.5,3.7,6.2
			c2.4,0.9,5.1,1.1,7.7,1.3c3,0.2,6.2-0.5,9,0.9c-5.8,0.8-11.6,0.1-17.3-0.3c-2.4-0.1-3.9-2.2-4.7-4.3c-1.3-3.7-2.3-7.4-3.3-11.1
			c-6.3-25-6.5-51.7,0.3-76.7c3.2-12.5,7.6-24.6,13.6-36C204.6,220.9,205.5,217.8,208,216.1z"/>
		<path class="st10" d="M242.3,221.8c1.5-2.7,5-1,7.4-0.8c-1.6,0.4-3.2,0.8-4.9,1.1c-1.1,2.6-2,5.2-2.7,7.9
			c-2.8,11.1-4.1,22.6-4.5,34.1c-0.8,8.8-0.2,17.7,0.6,26.4c0.4,10.1,2,20.1,4.3,30c1.6,9.2,4.1,18.5,8.8,26.6
			c1.5,2.7,2.8,5.6,5.5,7.4c2.2,1.4,4.8,2.5,7.4,2c4.2-0.6,8.4-0.8,12.4-2.2c2-0.6,2.7-2.8,3.7-4.4c0.5,1.6,0.7,3.3,0.9,5
			c-7.3,1.8-14.7,3-22.2,3.6c-3,0.4-6-1.5-7.2-4.2c-2.8-5.9-5.1-12-7.1-18.2c-10.3-33.9-12.7-70.6-4.6-105.3
			C240.9,227.6,241.3,224.6,242.3,221.8z"/>
		<path class="st10" d="M272.9,229.3c-0.1-2.1,1.2-4.6,3.6-4.6c-2.7,5.9-2.4,12.5-2,18.9c0.1,16.9,6,33.1,12,48.7
			c2.5,5.4,4.4,10.9,7.3,16.1c3.3,5.9,6.9,11.7,11,17c4.2,4.9,6.5,11.6,12.3,15c3.2,0.1,6.5-0.6,9.2-2.2c1.5-0.8,3.2-0.4,4.8-0.4
			c-3.3,1.6-6.8,2.7-10.2,4.1c-2.5,1.2-5.5,0.4-7.6-1.2c-8.9-10-16.7-21.1-22.6-33.1c-3.9-7.4-6.4-15.3-9.2-23.1
			c-3-8.9-6-17.8-7.3-27.1c-0.5-3.1-0.7-6.2-1.3-9.2C272.6,241.9,272.8,235.6,272.9,229.3z"/>
	</g>
	<g>
		<path class="st11" d="M168.1,102.1c5.8-2.8,12.9-3.2,18.8-0.4c5.1,2.8,9.1,7.1,12.3,11.9c5.9,8.9,9.6,19.7,8.8,30.4
			c-0.2,0.4-0.8,1.2-1,1.6c-2.2-1.7-1.8-4.8-2.7-7.1c-1.8-5.7-3.3-11.6-6.6-16.6c-0.7-1-1.4-2.1-1.9-3.2c-1.1-3.9-3.9-6.9-6.8-9.6
			c-4.1-3.9-10.2-6.1-15.8-4.8c-4.2,1.2-7.5,4.3-9.6,8c-1,1.5-1.9,2.9-2.8,4.4c-2.2,3.5-3.3,8-1.5,11.9c0,0.1,0.1,0.4,0.2,0.6
			c1-0.1,2-0.1,3-0.2c6.8-0.2,13.8,1.9,18.9,6.5c1.4,1.3,2.9,2.6,4.4,3.8c1,1,2.1,2,3.1,3c0.8,0.8,1.5,1.7,2.3,2.5
			c1.6,1.5,3,3.2,4.5,4.9c3.1-0.7,5.8-2.4,9-2.9l-0.3,0.5c-2.4,3.3-6.1,5.2-9.7,6.8c-1.6-0.1-2.4-1.6-3.3-2.6c-1-1.3-2-2.6-3.1-3.8
			c-1.3-1.4-2.6-2.7-3.9-4.1c-1.7-1.7-3.5-3.1-5.5-4.4c-4.9-3.4-10.7-5.3-16.6-6.1l-0.6-0.1c-1.6-0.2-3.2-0.2-4.8-0.3
			c-0.6-0.1-1.8-0.2-2.3-0.2c0.6-1,1.5-1.7,2.5-2.3c1.2-4.8-0.5-9.9,1.3-14.6c1.9-4.8,4.4-9.3,7.8-13.2
			C166.8,102.3,167.5,102.2,168.1,102.1z"/>
		<path class="st11" d="M237.7,154.1c7.5-7.6,17-13.7,27.8-15.1c11-1.6,23.9,0.6,30.9,10.1c1.1,1.9,2.6,3.5,4.2,5
			c1.2,1.3,1.4,3.5-0.5,4.2c-4.5-2.5-8.9-5.3-13.8-7.1c-3.3-1.3-6.5-2.8-10-3.2c-6.1-1.4-12.6-1.5-18.7-0.1
			c-0.5,0.1-1.1,0.2-1.6,0.3c-5.8,1.7-11.4,4.3-16.4,7.6h-0.7c-0.6,0-1.7,0-2.3,0C236.9,155.3,237.4,154.5,237.7,154.1 M268.8,141.8
			v0.7c3,0.5,6,0.7,9,1.2c2.1,0.5,4.2,1.2,6.5,1.3C279.8,142,274,141.7,268.8,141.8z"/>
	</g>
	<g>
		<path class="st12" d="M258.8,102.2c0.8-0.7,1.7-1.5,2.6-2.1c0.2,4.4,0.6,9,3.4,12.7c0.9,1.2,1.9,2.3,2.8,3.4
			c-1.6,0.3-3.4,0.4-4.7-0.9c-3.2-3.1-3.8-7.8-4.1-12.1L258.8,102.2z"/>
	</g>
	<g>
		<path class="st13" d="M89.8,101.9c2.7,1.8,4.4,5.7,3,8.8c-0.9,3.3-5,5.9-2.5,9.6c-6.1-0.5-8.1-9.1-3.7-12.8
			C88.4,106.1,90.1,104.5,89.8,101.9 M90.4,106.3l0.1,0.6c-2.3,1.8-5.3,4.2-4.3,7.6c0.1,1.1,0.8,2.1,1.2,3.1
			c1.3-2.4,2.3-4.9,3.6-7.3C91.4,109.1,91.8,107.1,90.4,106.3z"/>
	</g>
	<g>
		<path class="st14" d="M262.6,116.2c-4.1-2.7-5.9-8.5-3.9-13c0.3,4.3,0.9,9,4.1,12.1c1.2,1.3,3,1.2,4.7,0.9
			c-0.9-1.1-1.9-2.2-2.8-3.4c0.1-2.4-1.1-4.9,0-7.2c0.2,3.4,2.2,6.2,4.1,8.9c6.1,7.8,15.7,12.9,25.7,12.9c-3.2,1.8-7.1,1.9-10.5,0.5
			c-6.6-1.8-13.3-5.1-17.2-11C265.6,116.7,264,116.8,262.6,116.2z"/>
	</g>
	<g>
		<path class="st15" d="M173.2,104.3c5.6-1.3,11.7,0.9,15.8,4.8c2.9,2.7,5.7,5.7,6.8,9.6c-2.7-0.7-6.1-1.5-8.4,0.5
			c-2.3,3-3.1,6.7-3.8,10.3c-0.4,2.1-1.1,4.1-0.9,6.2c0.8,1,1.7,1.9,2.5,2.9c0.2,0.2,0.5,0.6,0.6,0.9c-1.5-1.2-3-2.5-4.4-3.8
			c-5.1-4.6-12.1-6.7-18.9-6.5c-0.1-1.6-0.2-3.2-0.3-4.8c-2.5,0-2.6,2.6-2.9,4.4c-1.8-3.9-0.8-8.4,1.5-11.9c-0.4,1.9-0.6,3.9,0,5.8
			c3.2-3.3,5.1-7.6,8.8-10.5c2.9-3,7.2-3.2,10.6-5.1c-6.1-2.6-11.8,2.2-16.6,5.4C165.7,108.6,169,105.5,173.2,104.3z"/>
		<path class="st15" d="M197.7,121.9c3.3,5,4.8,10.9,6.6,16.6c0.9,2.4,0.6,5.4,2.7,7.1c-0.3-0.1-1-0.2-1.4-0.3
			c-0.2,0.4-0.7,1.1-0.9,1.5c-3.1,0.5-5.9,2.2-9,2.9c-1.5-1.6-2.9-3.4-4.5-4.9c0.4-0.1,1.2-0.4,1.6-0.5
			C194.1,136.8,196.8,129.5,197.7,121.9z"/>
	</g>
	<g>
		<path class="st16" d="M264.8,105.6c0.4-0.7,0.9-1.5,1.4-2.2c1.3,5.9,5.8,10.4,10.6,13.7c6.3,4.5,13.9,7.2,21.6,8.1
			c-0.9,1.2-2.4,1.8-3.8,2.2c-10,0-19.6-5.1-25.7-12.9C267,111.8,265,109,264.8,105.6z"/>
	</g>
	<g>
		<path class="st17" d="M38.3,105.5c1.8,1.4,3,3.4,4.9,4.7c5.8,4.3,14.4,1.3,19.5,6.8c2.7,3.3,5.4,7.3,5.2,11.8c-0.5,0-1.5,0-2,0
			c-4.5-4.5-11.1-2.3-16.7-3.5C41,122.9,37.5,113.3,38.3,105.5 M40.6,111.1c0,2.5,1.1,4.8,2.3,7c0.8,1.2,1.8,2.2,3.2,2.7
			c5.2,4.4,12.6,1,18.1,4.8c1.8-1-0.3-3.2-0.8-4.5c-2.2-2.7-5.3-4.8-8.8-5.2C49.6,115.2,44.9,113.6,40.6,111.1z"/>
	</g>
	<g>
		<path class="st18" d="M90.4,106.3c1.3,0.8,0.9,2.8,0.5,4.1c-1.3,2.4-2.3,4.9-3.6,7.3c-0.4-1-1.1-2-1.2-3.1c1-1.7,2.3-3.1,3.8-4.4
			c1.1-0.8,0.4-2.2,0.4-3.2L90.4,106.3z"/>
	</g>
	<g>
		<path class="st19" d="M163.6,112.3c4.9-3.1,10.5-8,16.6-5.4c-3.5,1.9-7.8,2.1-10.6,5.1c-3.7,2.9-5.6,7.2-8.8,10.5
			c-0.6-1.9-0.4-3.9,0-5.8C161.7,115.3,162.7,113.8,163.6,112.3z"/>
	</g>
	<g>
		<path class="st20" d="M90.5,106.9c0,1.1,0.6,2.5-0.4,3.2c-1.5,1.2-2.9,2.7-3.8,4.4C85.2,111.1,88.2,108.7,90.5,106.9z"/>
	</g>
	<g>
		<path class="st21" d="M40.6,111.1c4.3,2.5,9,4.1,13.8,4.8c3.5,0.4,6.6,2.4,8.8,5.2c-1.2-0.1-2.3-0.8-3.4-1.4
			c-4.3-2.2-9.2-3.5-14-3.5c2.1,1.4,4.8,1.6,6.6,3.4c-3.3-0.1-6.3-1.5-9.6-1.5C41.8,115.9,40.6,113.7,40.6,111.1z"/>
		<path class="st21" d="M94.9,124.3c5,6.7,12.8,11.3,15.2,19.7c1.3,4.9,1.1,10.3-0.7,15c-0.8-5.8,1-11.8-1.6-17.3
			c-1.6-4.6-5.8-7.5-9.7-10.1c1.8,2.8,4.1,5.3,6.1,8c-3.4-2-5.9-5.2-8.9-7.8C93.6,129.5,94,126.7,94.9,124.3z"/>
		<path class="st21" d="M71.5,137.4c1.6-5.3,7-9.7,12.8-8.5c-3.4,1.3-8.5,1.3-9.8,5.5c2.3-1.3,4.6-2.7,7.3-3.2
			c-0.3,1.9-2.4,2.3-3.7,3.3c-2.5,1.6-3.5,4.6-2.9,7.4C74.1,140.4,72.5,139.1,71.5,137.4z"/>
		<path class="st21" d="M49.7,133.9c6-0.7,12.4,0.1,17.5,3.6c4.3,2.8,7.1,7.2,9.4,11.7l0.8,0.2c0.2,0.1,0.7,0.2,1,0.3
			c2.3,3,2.1,7.1,0.2,10.2c-1.6-3.1-2.4-6.7-5.1-9.1c-2.5-2.9-6.5-3.6-10.1-3.9c4-0.7,7.9,0.7,11.5,2.4c-0.6-1.1-1.1-2.2-1.9-3.1
			c-2-2.5-4.2-5-6.9-6.8c-2.7-1.6-5.7-2.5-8.7-2.9c1.2,1.6,3.3,2.5,3.9,4.4c-2,0.9-4.3,0.5-6.3,1.4c-2.2,1-4,2.6-5.6,4.3
			c0.3,0.3,0.9,1,1.2,1.3c-1.8,2.4-2.8,5.1-3.7,7.9c-0.4-3.1-0.5-6.4,1.2-9.1c2.2-3.5,6.1-5.3,9.3-7.7
			C55.7,136,52.5,135.1,49.7,133.9z"/>
		<path class="st21" d="M27.8,143c0.3-0.1,1-0.2,1.3-0.2c-0.1,1.9,0,3.8,0.1,5.6C27.7,147,26.8,145,27.8,143z"/>
		<path class="st21" d="M64.4,149.5c0.6-0.1,1.8-0.4,2.3-0.5c4.4,1.3,7.4,5.2,8.7,9.5c-2.3-2.1-4.8-4.6-8.1-4.9
			c-4-0.3-8.3,0.7-11.1,3.6c-0.1-1.6,0.9-3,2.2-3.9c2.7-2.2,6.4-1.7,9.7-2C66.9,150.7,65.6,150.1,64.4,149.5z"/>
		<path class="st21" d="M85.3,180.6c0.6,0,1.8,0,2.4,0c3.6,1.8,6.9,4.6,8.5,8.4c1.4,3.6,0.8,7.5,0,11.1c-1-2.9-2.2-5.8-3.8-8.4
			c-0.8-1.5-1.4-3.1-2-4.7c1.6,1,2.8,2.5,4,3.9C93.5,185.9,88.6,183.7,85.3,180.6z"/>
	</g>
	<g>
		<path class="st22" d="M374.6,115.1c1.9,1,2,3.3,2.5,5.1c0.9,3.8-0.2,7.6-1,11.3c-6.6,30-13.9,59.9-22,89.6
			c-1.9,7.6-3.7,15.1-6.3,22.5c-1.7,4.6-4.6,8.6-7.2,12.8c-1.1-0.8-2.1-1.6-3-2.5c4.9-4.9,7.9-11.4,9.6-18.1
			c6.1-23,12.2-45.9,17.8-69c3.5-14.2,6.5-28.5,10-42.7C375.8,121.2,375.4,118,374.6,115.1z"/>
		<path class="st22" d="M66.2,259.1c7.4-6.4,15.3-13.5,25.3-15.1c6.3-1.2,12.3,2.1,17.1,5.9c-2.7,0.8-4.8-1.8-7.4-2.3
			c-5.1-1.9-10.5,0-15.2,1.9c-7.5,3.7-13.7,9.3-20.1,14.7c-1.6,1.2-3.2,2.6-5.3,2.9c-7.6,1.2-14.1-3.5-20.7-6.5
			c-1.8-1.1-4.6-1.5-5-3.9c6.3,2.7,12.5,5.9,19.1,8.2C58.8,266.2,63.1,262.5,66.2,259.1z"/>
		<path class="st22" d="M381.5,278.2c1.6,0.5,1.6,2.6,1.9,4c0.2,4.3-0.1,8.5,0.1,12.8c0.3,3.8-0.5,7.7-2.6,11
			c-1.6,2.6-4.7,3.6-7.3,4.7c-6.3,2-13,2.7-19.5,4.1c-2.1,0.1-1.6,2.7-1.3,4.1c1.2,4.3-0.3,8.7-1.3,13c-1.1,4.5-3,9.1-6.9,11.9
			c-6.5,3.9-13.8,6.1-20.9,8.5c-3.8,1.6-8.1,0.1-11.9,1.7c-2.5,1-4.7,2.5-7.3,3.3c-2.9,0.7-6,0.7-8.9,1.7c-2.3,1.4-4.1,3.6-6.7,4.5
			c-7.7,2.6-15.9,3.5-23.9,4.6c-3.4,0.5-6.9,0.6-10.1-1c-0.9-0.3-1.3-1-1.2-2c2.6,0.8,5.3,0.5,7.9,0.1c8.4-0.9,16.8-2.2,25-4.4
			c3-0.8,5.3-3.2,7-5.7c6.5,1.7,12.6-2.5,18.2-5.3c1.5,0,3,0.7,4.5,0.8c2.2,0.1,4.2-0.9,6.2-1.6c5.6-1.8,11.1-3.9,16.5-6.1
			c4.4-1.7,8.3-5.3,9.3-10.1c1-4.3,2.2-8.6,3-12.9c0.6-3.1-0.7-6.2-2.4-8.7c3.2,1.4,6.5,0,9.7-0.6c5.5-1.3,11.1-1.9,16.4-3.9
			c3.8-1.5,5.9-5.5,6.1-9.5C381.7,290.9,381.6,284.6,381.5,278.2z"/>
	</g>
	<g>
		<path class="st23" d="M45.9,116.2c4.8,0,9.8,1.3,14,3.5c-1.3-0.2-2.6-0.2-4-0.3c1.1,0.7,2.1,1.3,3.2,2c-4.4,0.6-8.8,0.1-13.1-0.6
			c-1.3-0.5-2.4-1.5-3.2-2.7c3.3,0,6.3,1.4,9.6,1.5C50.7,117.8,48,117.6,45.9,116.2z"/>
	</g>
	<g>
		<path class="st24" d="M93.1,123c0.9-2,2-4,3.9-5.3c-1.5,3.5,0.6,7,3.1,9.3c4.6,4.3,9.8,8.5,11.6,14.8c-0.6,0.7-1.2,1.4-1.7,2.1
			c-2.4-8.4-10.2-13.1-15.2-19.7c-0.8,2.5-1.2,5.2,0.3,7.6c1.7,4.2,5.1,7.5,6.9,11.7c0.8,1.7,0.2,3.6,0.1,5.4
			c-1-0.9-1.2-2.1-1.6-3.3c-0.7-4.6-4.9-7.4-6.9-11.4c-1.3-2.1-1.7-4.6-1.8-7c0.1-0.3,0.3-1,0.3-1.3c-4.2-3.6-9.6-0.8-14.5-1.3
			c1.5,2.2,4.2,2.3,6.6,1.7c0.6,0.8,1.3,1.5,1.9,2.3c-0.5,0.1-1.5,0.3-2,0.3c-5.8-1.2-11.1,3.2-12.8,8.5c1,1.7,2.6,3,3.7,4.6
			c1.2,2.3,2.2,4.8,2.2,7.4l-0.8-0.2c-2.3-4.5-5.1-8.9-9.4-11.7c-5-3.5-11.5-4.3-17.5-3.6c2.9,1.2,6.1,2.1,7.6,5.1
			c-3.2,2.4-7.1,4.2-9.3,7.7c-1.7,2.7-1.7,6.1-1.2,9.1c-0.3,0-0.8,0.1-1.1,0.2c-0.3-1-0.7-2-1-3c-0.9-3.9,1.4-7.2,3.4-10.3
			c-4.2,2.3-8.2,5.7-9.8,10.3c-0.2,1.2-0.4,2.4-0.4,3.7c-0.4,3.4,2,6.1,2.6,9.4c-1.4,0-2.8,0.1-4.3,0.1c-2.2-1.5-3.7-3.6-5.2-5.7
			c0-1.2,0.4-2.4,1-3.4c1,2,2,4.1,4,5.3c-0.6-3.2-0.9-6.4,0-9.5c2.5-7.5,9.7-12.5,17-14.6c-3.2-3.1-8.3-2-12.4-2.3
			c-1-0.5,0.4-1.3,0.9-1.6c2.6-1.3,5.3-2.5,8.2-3c3.6-0.6,7.3,0.1,10.9,0.5c3,0.6,5.7,2.1,8.3,3.6c0.2,0,0.5-0.1,0.7-0.1
			c1.4-3.4,3.6-6.9,7.4-7.8c-1.3-2.4-2.3-4.9-2.6-7.6c2.4,1.4,5.2,3.2,8,2.2C85.9,121.1,89.7,121.5,93.1,123z"/>
		<path class="st24" d="M105.9,123.7c-0.3-1.3,1.4-1.1,2.1-1.2c4.1-0.5,7.8,2.4,9.9,5.7c3.2,4.1,0.6,9.9-2.3,13.4
			c-1.5-1.5-2.8-3.2-3.6-5.2c-0.8-1.9-0.1-4.1-0.8-6C109.9,127.8,107.5,126.1,105.9,123.7 M109.2,124.4c1.4,2,3.9,3.4,4.2,6.1
			c0.7,2.1,0.2,4.9,2.3,6.2C119,131.8,115,124.4,109.2,124.4z"/>
	</g>
	<g>
		<path class="st25" d="M187.4,119.2c2.3-2,5.7-1.2,8.4-0.5c0.4,1.2,1.1,2.2,1.9,3.2c-0.9,7.6-3.6,14.9-4.8,22.5
			c-0.4,0.1-1.2,0.4-1.6,0.5c-0.8-0.8-1.5-1.6-2.3-2.5c1.4-2.5,2.3-5.4,1.5-8.2c0.3-0.3,1-0.8,1.3-1c1-3.8,2.2-7.6,2.1-11.6
			c-0.3-0.1-0.9-0.4-1.2-0.5c-2.4-0.4-3.5,1.8-4.2,3.7c-0.8,2.6-1.3,5.3-1.7,8c-0.3,2-0.7,3.9-1.5,5.7c-0.8-1-1.7-1.9-2.5-2.9
			c-0.2-2.1,0.5-4.1,0.9-6.2C184.2,125.9,185.1,122.2,187.4,119.2z"/>
	</g>
	<g>
		<path class="st26" d="M56,119.4c1.3,0.1,2.6,0.2,4,0.3c1,0.6,2.1,1.2,3.4,1.4c0.5,1.3,2.6,3.5,0.8,4.5c-5.4-3.8-12.8-0.4-18.1-4.8
			c4.3,0.7,8.7,1.2,13.1,0.6C58.1,120.7,57,120,56,119.4z"/>
		<path class="st26" d="M102.4,140.6c5,2.6,6.7,8.8,6,14.1c-0.5,2.9-2.4,5.9-1.1,8.8c-3.1,6.5-9.5,10.6-13.1,16.7
			c-0.7-0.4-1.5-0.7-2.2-1.1c0.8-3.5,2.4-6.8,4.4-9.7c0.3-0.5,0.9-1.5,1.2-2.1l0.2,1.1c0.8-1.5,1.6-3,2.3-4.6
			c2.4-3.7-0.4-7.9-0.5-11.8c1.1,1.1,2.2,2.4,3.3,3.6C106.4,151,103.5,145.5,102.4,140.6z"/>
		<path class="st26" d="M37.9,156.7c1.2,2.2,2.1,5,4.6,6.1c1.9-0.5,3.5-1.6,5.3-2.3c-0.5,1.1-0.9,2.1-1.4,3.2
			c-0.7,1.4-1.1,3-1.4,4.6c-0.1-0.5-0.2-1.4-0.3-1.9c-1.1,1.7-1.8,3.6-2.6,5.5c-0.2,0-0.6,0-0.8-0.1c-1.5-2-3-4.1-5-5.6
			c1.4,0,2.8-0.1,4.3-0.1C39.9,162.8,37.5,160.1,37.9,156.7z"/>
		<path class="st26" d="M48.9,164.3c1-2.8,3.4-4.8,6.3-5.4c-0.3,4.2-4.1,6.6-5.9,10.2C49.2,167.5,49,165.9,48.9,164.3z"/>
		<path class="st26" d="M56.4,172c-0.5-2,0.8-3.6,1.8-5.2c0.2,1.4,0,3,1.3,4c3,2.8,7.1,3.2,10.9,4.1c5.9,1.4,12,2.8,17.4,5.7
			c-0.6,0-1.8,0-2.4,0c3.3,3.1,8.2,5.3,9.1,10.2c-1.2-1.4-2.4-2.9-4-3.9c0.6,1.6,1.2,3.2,2,4.7c-2.9-1.7-5.4-4-8.5-5.3
			c-4-1.8-8.5-2.2-12.8-2.8c-4.9-0.5-9.8-1.3-14.8-1.6c-3.2-3-8.5-4.8-9-9.8c0.7,0.3,1.5,0.5,2.2,0.8c1.3,1.8,2.6,4,5.1,4.2
			c2,0.2,4,0.4,6,0.5C58.9,176.1,56.9,174.5,56.4,172z"/>
	</g>
	<g>
		<path class="st27" d="M188.4,124.8c0.7-1.9,1.8-4.1,4.2-3.7c-0.1,1.1-0.1,2.1-0.2,3.2C191.2,124.9,189.8,125.4,188.4,124.8z"/>
	</g>
	<g>
		<path class="st28" d="M192.7,121.1c0.3,0.1,0.9,0.4,1.2,0.5c0,4-1.1,7.8-2.1,11.6c-0.3,0.3-1,0.8-1.3,1c-1.3-0.4-2.5-0.9-3.7-1.4
			c0.4-2.7,0.9-5.4,1.7-8c1.4,0.6,2.8,0.1,4.1-0.5C192.6,123.3,192.6,122.2,192.7,121.1z"/>
	</g>
	<g>
		<path class="st29" d="M77.8,124.6c4.8,0.4,10.3-2.4,14.5,1.3c-0.1,0.3-0.3,1-0.3,1.3c-0.1,0.3-0.3,0.9-0.4,1.2
			c-1-3.1-4.5-3.1-7.1-2.1C82,126.9,79.3,126.8,77.8,124.6z"/>
		<path class="st29" d="M90,171.4c0.8,2.3,1.6,4.7,1.1,7.2c-0.8-0.8-2.5-1.4-2.3-2.8C88.8,174.2,89.4,172.8,90,171.4z"/>
	</g>
	<g>
		<path class="st30" d="M109.2,124.4c5.9,0,9.8,7.4,6.4,12.2c-2.1-1.3-1.6-4.1-2.3-6.2C113,127.8,110.6,126.4,109.2,124.4z"/>
	</g>
	<g>
		<path class="st31" d="M159.4,128.7c0.3-1.9,0.4-4.4,2.9-4.4c0.1,1.6,0.2,3.2,0.3,4.8c-1,0-2,0.1-3,0.2
			C159.5,129.2,159.4,128.9,159.4,128.7z"/>
	</g>
	<g>
		<path class="st32" d="M84.4,126.3c2.6-1,6.1-1,7.1,2.1c-0.5,1.8-1.2,3.7-0.8,5.6c0.4,1.4,0.7,2.9,1,4.3c-3.3-1.9-6.9,0-10.4-0.7
			c0.2,0.6,0.5,1.1,0.7,1.7c0.1,0.2,0.2,0.7,0.3,1c-0.8,2.3-0.1,4.6,0,6.9c-1.2-1.7-2.3-3.4-3.8-4.9c0.6,2.8,1.7,5.5,2.4,8.4
			c-0.9-0.4-1.8-0.8-2.7-1.1c-0.2-0.1-0.7-0.2-1-0.3c0.1-2.7-1-5.1-2.2-7.4c-0.6-2.8,0.4-5.9,2.9-7.4c1.3-1,3.4-1.4,3.7-3.3
			c-2.6,0.5-4.9,1.9-7.3,3.2c1.3-4.2,6.3-4.2,9.8-5.5c0.5-0.1,1.5-0.3,2-0.3C85.7,127.8,85,127.1,84.4,126.3z"/>
		<path class="st32" d="M57.3,136.4c3,0.4,6.1,1.4,8.7,2.9c2.7,1.8,4.9,4.3,6.9,6.8c-5.2-2.7-11.5-2.1-16.5,0.6
			c-1.1,0.6-2,1.6-2.7,2.6c-0.4,0.7-0.8,1.5-1.1,2.2c4.2-2.5,9.3-3.9,14.1-2.6c-0.6,0.1-1.8,0.4-2.3,0.5c1.3,0.6,2.5,1.2,3.8,1.8
			c-3.2,0.3-7-0.2-9.7,2c-1.3,0.9-2.3,2.2-2.2,3.9c-0.4,0.5-0.7,1.1-1,1.6c-2.9,0.6-5.3,2.6-6.3,5.4c-0.7,2.6-0.7,5.7-3.1,7.4
			c-0.1-2.8,0.7-5.4,1.6-8c-0.3,0-0.8,0-1.1,0c0.5-1,1-2.1,1.4-3.2c-1.8,0.7-3.4,1.8-5.3,2.3c-2.4-1.1-3.4-3.9-4.6-6.1
			c0-1.2,0.1-2.5,0.4-3.7c0.1,0.4,0.4,1.3,0.5,1.7c1.2-2.2,2.5-4.3,4.1-6.1c0.3,2.1,0.8,4.1,1.5,6.1c0.1-0.4,0.3-1.3,0.4-1.7
			c0.3,1,0.6,2,1,3c0.3,0,0.8-0.1,1.1-0.2c0.9-2.8,1.9-5.5,3.7-7.9c-0.3-0.3-0.9-1-1.2-1.3c1.7-1.7,3.4-3.3,5.6-4.3
			c2-1,4.3-0.5,6.3-1.4C60.6,138.9,58.5,138,57.3,136.4z"/>
	</g>
	<g>
		<path class="st33" d="M91.5,128.4c0.1-0.3,0.3-0.9,0.4-1.2c0.1,2.4,0.5,4.9,1.8,7c2,4,6.2,6.8,6.9,11.4c-2.4-4.6-7.3-7.1-9.7-11.5
			C90.3,132.2,91,130.2,91.5,128.4z"/>
	</g>
	<g>
		<path class="st34" d="M49.8,131.4c0.9-1.8,3.2-1,4.8-1.2c2.1,0.1,4.8-0.3,6.1,1.7C57,131.4,53.4,130.7,49.8,131.4z"/>
	</g>
	<g>
		<path class="st35" d="M260.1,132.3c5.4-1.2,11.2-1.7,16.6-0.2c-2.6,0.9-5.4,0.5-8.1,1c-1.4,0.2-2.7,0.7-4.1,1.1
			c-9,2.8-16.7,8.5-23.8,14.6C245.7,141.9,251.5,134.5,260.1,132.3z"/>
		<path class="st35" d="M325.1,315.6c2.2,1.2,3.4,3.6,5,5.4c3,3.4,5.8,7.1,9.7,9.6c0.4-0.2,1.1-0.6,1.4-0.8
			c-0.4,2.5-2.2,4.5-4.2,5.9c-0.2-1.7-0.4-3.5-1.3-5C332.6,325.4,328.6,320.7,325.1,315.6z"/>
	</g>
	<g>
		<path class="st36" d="M95.1,131.8c3,2.5,5.5,5.7,8.9,7.8c-2-2.7-4.3-5.1-6.1-8c3.9,2.6,8.1,5.5,9.7,10.1
			c2.5,5.5,0.8,11.6,1.6,17.3c-0.5,1.6-1.3,3-2.1,4.5c-1.3-3,0.6-5.9,1.1-8.8c0.8-5.2-0.9-11.5-6-14.1c1.1,4.9,4,10.4,0.4,15
			c-1.1-1.2-2.2-2.4-3.3-3.6c0.2,3.9,3,8.1,0.5,11.8c0.1-2.7-0.6-5.3-1.7-7.8s-0.2-5.4-1-8c-0.6-1.6-1.3-3.1-2-4.7
			c-0.4-2.2-1.9-3.8-3.6-5.1c-0.3-1.4-0.6-2.9-1-4.3c2.5,4.5,7.3,7,9.7,11.5c0.4,1.2,0.6,2.4,1.6,3.3c0.2-1.8,0.7-3.7-0.1-5.4
			C100.2,139.3,96.8,136.1,95.1,131.8z"/>
	</g>
	<g>
		<path class="st37" d="M276.8,132.1c3.6,1.1,7.7,0.7,11,2.8c-1.3-0.1-2.6-0.1-3.8-0.1c5,3.8,10.7,7.9,12.5,14.2
			c-7-9.5-19.9-11.6-30.9-10.1l0.7-0.8c1.4-1.7,2.9-3.3,4.4-4.9c-0.5-0.1-1.4-0.2-1.9-0.2C271.3,132.6,274.1,133,276.8,132.1z"/>
	</g>
	<g>
		<path class="st38" d="M156.8,132.9c1.6,0.1,3.2,0.1,4.8,0.3c-0.5,0.1-1.6,0.2-2.1,0.3c0.9,2.8,1.8,5.6,3.2,8.2
			c2.4,4.2,5.9,7.7,10,10.1c0.6,0.5,1.2,0.9,1.8,1.4c-3.2-0.1-6.3-1.2-9-2.8c-3.6-2.4-5.9-6.1-7.7-9.9
			C157.3,137.9,157,135.4,156.8,132.9z"/>
		<path class="st38" d="M190.6,240.9c3.1-6.7,5.7-13.8,9.9-19.9c0.8,0.8,1.6,1.5,2.4,2.3c-6,11.4-10.4,23.6-13.6,36
			c-6.8,24.9-6.7,51.6-0.3,76.7c-1.3,0.5-2.6-0.1-3.9-0.4c-1.1-0.2-2.2,0.1-3.2-0.5c0.5,0.1,1.6,0.3,2.1,0.4l-0.4-1.1
			c-5-20.8-4.9-42.6-1.5-63.6C184.2,260.6,187.2,250.6,190.6,240.9z"/>
		<path class="st38" d="M269,230.2c1.1,1.7,2.4,3.3,3.3,5.1c0.5,4.2-0.7,8.7,0.7,12.8c0.6,3,0.7,6.1,1.3,9.2
			c1.3,9.3,4.4,18.2,7.3,27.1c2.8,7.8,5.3,15.7,9.2,23.1c5.9,12,13.7,23.1,22.6,33.1c-1.2,0.8-2.4,1.7-3.6,2.3
			c-0.2-0.3-0.5-1-0.7-1.4c-8.6-9-15.2-19.6-20.9-30.5c-5.1-9.9-8.2-20.7-11.7-31.3c-2.5-7.3-4-15-5.7-22.5
			c0.4,23.5,6.6,46.9,18.1,67.4c2,4.6,6.3,8.6,5.9,14c-0.2,1.9-0.2,4.6-2.4,5.2l-0.6,0.2c-0.3-0.5-0.8-1.5-1-2
			c0.3-2.8,0.2-5.8-1.4-8.2c-7.5-13.1-13-27.3-16.9-41.9c-1.8-7-3.5-14.1-4.1-21.3C267.1,257.4,267.7,243.7,269,230.2z"/>
	</g>
	<g>
		<path class="st39" d="M186.7,132.8c1.2,0.5,2.5,1,3.7,1.4c0.8,2.8-0.2,5.7-1.5,8.2c-1-1-2-2-3.1-3c-0.2-0.2-0.5-0.6-0.6-0.9
			C186,136.7,186.5,134.8,186.7,132.8z"/>
	</g>
	<g>
		<path class="st40" d="M159.6,133.4c0.5-0.1,1.5-0.2,2.1-0.3l0.6,0.1c0.4,0.6,0.9,1.2,1.3,1.8c0,0.3,0,0.8,0,1.1
			c-0.1,1.8-0.4,3.7-0.8,5.5C161.3,139,160.5,136.2,159.6,133.4z"/>
	</g>
	<g>
		<path class="st41" d="M162.2,133.2c5.9,0.8,11.7,2.7,16.6,6.1c-5.2-1-9.8-4.3-15.3-4.3C163.1,134.4,162.7,133.8,162.2,133.2z"/>
		<path class="st41" d="M183.5,147.1c0.2-1.1,0.5-2.2,0.8-3.4c1.3,1.3,2.7,2.7,3.9,4.1l0.1,0.7C186.8,147.9,185.2,147.3,183.5,147.1
			z"/>
		<path class="st41" d="M257.6,147.8c6.2-1.4,12.6-1.3,18.7,0.1c-2.6,1.3-5.5,0.2-8.3,0.4c-3.1-0.2-6.2,0.8-9.3,0.7
			C258.4,148.7,257.9,148.1,257.6,147.8z"/>
		<path class="st41" d="M143.2,247.2c6.2-3.2,12.7-6.7,16.6-12.7c-0.4,1.8-0.8,3.6-1.2,5.4c-6.3,4.8-13.2,9.5-21.1,11.1
			c-7.3,1.2-14.9-0.6-21.1-4.6c1.6-0.5,2.9,0.6,4.3,1.2C127.8,250.9,136.3,250.5,143.2,247.2z"/>
		<path class="st41" d="M137.2,255.4c0.4,0.1,1.3,0.2,1.7,0.3c-3.9,10.7-5.4,22-7.2,33.1c-0.4,4.7-2.4,9.3-1.3,14
			c1.7,5,7.1,6.9,11.6,8.7c2.9,0.9,5.5,3.1,8.6,2.8c0.7-5,1-10.2,2.5-15.1c-0.1,3.6-0.4,7.2-0.5,10.9c0,1.6-0.1,3.6,1.5,4.5
			c3.1,0.4,5.7-1.6,8.4-2.7c0.1,0.4,0.3,1.2,0.4,1.5l0.1,0.2c-3.1,1.1-6.2,2.1-9.2,3.4c-2.3,1-4.9,0-7.1-1c-5.6-2.6-11.2-5.2-16.8-8
			c-1.6-0.7-2.7-2.3-2.7-4C128.5,287.5,132.3,271.2,137.2,255.4z"/>
		<path class="st41" d="M327.9,282c0.2,0,0.7,0,1,0c3.5,4.1,7.6,7.8,11.3,11.7c2.8,2.8,6.1,5.1,9.3,7.4c1.3,1,2.9,1.7,4.6,1.5
			c4.9-0.3,9.7-1.6,14.3-3.2c0.2,0.3,0.7,1,1,1.3c-4,1.2-8.1,1.8-12.1,2.9c-2,0.5-4.3,1.2-6.3,0.1c-3.1-1.5-5.6-4-8.2-6.2
			C337.5,292.5,332.5,287.4,327.9,282z"/>
		<path class="st41" d="M273.6,300c-0.7-2.6-1.9-5.2-1.2-7.8c3.9,14.6,9.4,28.7,16.9,41.9c1.5,2.4,1.7,5.4,1.4,8.2
			c-1.2,3.4-1.9,7-3.9,10.1l-0.2-0.1c-0.4-0.1-1.1-0.2-1.4-0.3c1-0.8,2.1-1.7,2.5-3c1.6-4.8,3.3-10.4,0.3-15
			C281.6,323.3,277.5,311.6,273.6,300z"/>
		<path class="st41" d="M223.6,297.1c1.1,9.2,2.9,18.2,5.3,27.1c1.2,3.7,2.3,7.7,0.7,11.5c-1.7,3-3.5,5.9-5.6,8.6
			c0.8-4.3,4.5-7.7,4.5-12.3c0.6-4.8-1.7-9.1-2.5-13.7c-1.4-5.3-1.9-10.8-2.7-16.2C223.1,300.4,223.3,298.7,223.6,297.1z"/>
		<path class="st41" d="M326.6,297.1c5,6.4,10.1,12.7,16,18.4c1.7,1.4,2.3,3.8,1.5,5.8c-0.9,2.4-1.6,4.8-2.4,7.2
			c-0.4-3.7,2.7-7.5,0.3-10.9c-2.5-3.5-5.7-6.3-8.2-9.8C331.2,304.3,328,301.2,326.6,297.1z"/>
		<path class="st41" d="M294.1,346.5c5.6,1.6,10.5-2,14.9-4.9c0.2,0.3,0.5,1,0.7,1.4l0.1,0.2c-4.3,1.7-8.1,5-13,5.1
			C295.6,348.5,294.9,347.1,294.1,346.5z"/>
	</g>
	<g>
		<path class="st42" d="M264.6,134.2c1.3-0.4,2.7-0.9,4.1-1.1c0.5,0.1,1.4,0.2,1.9,0.2c-1.5,1.6-3,3.2-4.4,4.9c-2.5-1-5.1,0-7.5,0.7
			C260.4,137,263.1,136.3,264.6,134.2z"/>
	</g>
	<g>
		<path class="st43" d="M240.8,148.8c7.1-6.1,14.8-11.9,23.8-14.6c-1.5,2.1-4.2,2.8-5.9,4.7c2.5-0.7,5-1.7,7.5-0.7l-0.7,0.8
			c-10.8,1.4-20.3,7.5-27.8,15.1C238.6,152.2,239.5,150.4,240.8,148.8z"/>
	</g>
	<g>
		<path class="st44" d="M163.6,135c5.4,0,10.1,3.3,15.3,4.3c1.9,1.3,3.8,2.7,5.5,4.4c-0.3,1.1-0.5,2.2-0.8,3.4
			c-0.3,1.5-0.4,3-0.3,4.5c-0.3-1.5-0.4-3-0.6-4.6c-4.5-0.5-9.1-1.7-12.7-4.5c-2.5-1.8-4.4-4.3-6.5-6.5
			C163.5,135.8,163.5,135.3,163.6,135z"/>
		<path class="st44" d="M256,148.1c0.5-0.1,1-0.2,1.6-0.3c0.3,0.3,0.8,0.9,1.1,1.2c3.1,0.1,6.2-0.9,9.3-0.7c2.8-0.1,5.7,0.9,8.3-0.4
			c3.5,0.4,6.8,1.9,10,3.2c0.4,1.8-0.1,3.5-0.9,5.1c0,0.1-0.1,0.2-0.2,0.2c-3.3-1.6-7.1-2-10.7-1.9c-5.9-1.3-12-1.9-18-0.6
			c-0.1-1.5-0.3-3-0.2-4.5c0-0.3,0.1-0.8,0.2-1L256,148.1z"/>
	</g>
	<g>
		<path class="st45" d="M283.9,134.8c1.3,0,2.6,0,3.8,0.1c2.4,1.2,4.5,3.1,6.1,5.3c3,4.2,5.9,8.7,6.7,13.8c-1.7-1.4-3.2-3.1-4.2-5
			C294.6,142.7,288.9,138.7,283.9,134.8z"/>
		<path class="st45" d="M191.9,213.4c1.8,0.5,3.6,1.1,4.7,2.7c-1.5,1.4-3.2,2.9-4,4.9c-1.3,3.2-1.5,6.8-2.6,10.1
			c-0.4-5.2,1.2-10.1,2.6-15.1c0.2-0.3,0.5-1,0.6-1.3C192.9,214.4,192.2,213.7,191.9,213.4z"/>
	</g>
	<g>
		<path class="st46" d="M163.5,136.1c2.1,2.2,4,4.7,6.5,6.5c3.7,2.8,8.2,4,12.7,4.5c0.2,1.5,0.3,3.1,0.6,4.6
			c0.2,0.4,0.6,1.2,0.8,1.6c-1.6,0.2-3.3,0.1-4.9,0c-1.4-2.1-4.2-2.1-6.4-1.5c-4.1-2.5-7.6-5.9-10-10.1
			C163.1,139.8,163.4,137.9,163.5,136.1z"/>
		<path class="st46" d="M274.5,154.6c3.6-0.2,7.4,0.2,10.7,1.9c-0.7,0.8-1.5,1.7-2.2,2.5C280.3,157.3,277.3,156.2,274.5,154.6z"/>
	</g>
	<g>
		<path class="st47" d="M81.4,137.7c3.5,0.7,7.1-1.2,10.4,0.7c1.7,1.3,3.1,2.9,3.6,5.1c-2-1.8-4.1-4-6.9-4.1c-1.5,0.3-2.8,1.3-4,2.2
			c-0.8-0.7-1.5-1.4-2.3-2.1C81.8,138.8,81.6,138.2,81.4,137.7z"/>
	</g>
	<g>
		<path class="st48" d="M82.1,139.4c0.7,0.7,1.5,1.4,2.3,2.1c1.3-0.9,2.5-1.9,4-2.2c2.8,0.1,5,2.3,6.9,4.1c0.6,1.6,1.4,3.1,2,4.7
			c0.9,2.6,0,5.4,1,8c1,2.5,1.7,5.1,1.7,7.8c-0.8,1.5-1.5,3.1-2.3,4.6l-0.2-1.1c1.2-4.8-0.1-10.1-3.6-13.6c0.5,1.7,1,3.4,1.2,5.2
			c-0.4,4.6-2.6,8.7-5.1,12.4c-0.6,1.4-1.2,2.8-1.2,4.4c-0.2,1.5,1.5,2,2.3,2.8c0.2,0.1,0.6,0.4,0.8,0.5c0.7,0.4,1.5,0.8,2.2,1.1
			c3.6-6.1,10-10.2,13.1-16.7c0.8-1.4,1.5-2.9,2.1-4.5c1.8-4.8,2.1-10.1,0.7-15c0.5-0.7,1.1-1.4,1.7-2.1c2.6,6.6,1.7,14.2-1,20.6
			c-2.8,5.9-7.5,10.6-12.1,15.1c-1.2,1.2-2.2,2.6-3,4.1c7,6.7,5.5,18.5-0.6,25.2c-0.2-6.3-4.3-11.8-9.2-15.5
			c-7.4-4.4-16.2-4.6-24.5-5.3c-4.9-0.1-10-0.9-14.3-3.5c-2.6-1.8-4.3-4.8-4.9-7.9c-4.1,0.7-8.1-1.3-10.6-4.5c0.3-0.6,1-1.7,1.3-2.3
			c2.1,2.6,5.3,4,8.6,4.1c0.2,0,0.6,0,0.8,0.1c0.7-1.9,1.5-3.8,2.6-5.5c0.1,0.5,0.2,1.4,0.3,1.9c-0.8,3.7-0.6,8.3,2.8,10.7
			c2.5,1.9,5.5,3,8.6,3c5,0.2,9.9,1,14.8,1.6c4.3,0.5,8.7,1,12.8,2.8c3.1,1.3,5.6,3.6,8.5,5.3c1.6,2.7,2.8,5.5,3.8,8.4
			c0.8-3.6,1.4-7.5,0-11.1c-1.5-3.8-4.9-6.5-8.5-8.4c-5.4-2.9-11.5-4.2-17.4-5.7c-3.8-0.9-7.9-1.4-10.9-4.1c-1.3-0.9-1.1-2.6-1.3-4
			c0.2-0.4,0.8-1.2,1-1.6c0.3-0.4,0.8-1.4,1.1-1.8c-3.4,0.3-6.7,2.2-8.3,5.3c-1.3,2.7,0.2,5.6,1.9,7.7c0.2,0.2,0.5,0.7,0.6,0.9
			c-2.4-0.3-3.8-2.5-5.1-4.2c-0.1-1.3-0.1-2.6-0.2-4c1.8-3.6,5.6-5.9,5.9-10.2c0.3-0.6,0.7-1.1,1-1.6c2.9-2.9,7.2-3.9,11.1-3.6
			c3.3,0.3,5.8,2.8,8.1,4.9c-1.4-4.2-4.3-8.2-8.7-9.5c-4.9-1.3-9.9,0.1-14.1,2.6c0.4-0.7,0.8-1.5,1.1-2.2c3.2-1,6.3-2.2,9.7-2.5
			c3.6,0.3,7.6,1,10.1,3.9c2.7,2.4,3.4,6,5.1,9.1c1.9-3.1,2.1-7.2-0.2-10.2c0.9,0.2,1.8,0.7,2.7,1.1c0.2,1,0.8,1.9,1.6,2.5
			c1.3-4.2,1.4-8.8-0.3-12.9C82.3,140.1,82.2,139.6,82.1,139.4 M86.6,142.1c-0.6,1.1-1.2,2.2-1,3.5c0.5,4.1-0.4,8.4-3,11.7
			c-1.5,1.8-2.1,4.2-3.9,5.8c-1.4,1.2-2,3.3-3.9,3.8c-0.7-1.9,0.1-4.1-1.2-5.8c-3-6.7-13.8-6.6-16.8,0.1c3.9-0.4,8.4,0,11.4,2.8
			c-3,0.6-7.7,1.1-7.4,5.2c4.1,1.9,8.6,2.2,12.9,3.3c4,0.8,8,1.9,11.9,3.1c1.1-5.7,5.9-10,6.9-15.7c0.6-3.6-1.5-6.8-2.9-10
			c2.6-0.5,4.9,0.9,6.8,2.4c-0.6-2.2-1.1-4.5-2.5-6.4C92.2,143.7,89.8,141.1,86.6,142.1z"/>
	</g>
	<g>
		<path class="st49" d="M25.4,143.2c1.2-1,2.3-3,4.2-2.3c1.9,0.8,1.6,3,1.7,4.7c-0.1,2,0.8,3.8,1.6,5.6
			C28.2,152.2,25.1,147.3,25.4,143.2 M27.8,143c-1.1,2-0.1,4,1.4,5.4c-0.1-1.9-0.2-3.8-0.1-5.6C28.8,142.9,28.2,143,27.8,143z"/>
	</g>
	<g>
		<path class="st50" d="M82.4,147.3c-0.1-2.3-0.8-4.7,0-6.9c1.7,4.1,1.6,8.7,0.3,12.9c-0.8-0.6-1.4-1.5-1.6-2.5
			c-0.7-2.8-1.8-5.5-2.4-8.4C80.1,143.9,81.2,145.6,82.4,147.3z"/>
	</g>
	<g>
		<path class="st51" d="M157.7,140.4c1.8,3.8,4.1,7.5,7.7,9.9c-0.3,1.4-0.6,2.8-0.9,4.2c-0.1,0.3-0.2,1-0.3,1.3
			C159.5,152.4,156.5,146.2,157.7,140.4z"/>
	</g>
	<g>
		<path class="st52" d="M86.6,142.1c3.2-0.9,5.6,1.7,7.4,3.9c1.4,1.8,1.9,4.2,2.5,6.4c-1.9-1.5-4.2-2.9-6.8-2.4
			c1.3,3.2,3.5,6.3,2.9,10c-1,5.8-5.8,10-6.9,15.7c-3.9-1.3-7.9-2.3-11.9-3.1c-4.3-1.1-8.8-1.4-12.9-3.3c-0.4-4.1,4.4-4.7,7.4-5.2
			c-3-2.8-7.5-3.3-11.4-2.8c3-6.7,13.8-6.8,16.8-0.1c1.3,1.7,0.5,3.9,1.2,5.8c2-0.4,2.5-2.6,3.9-3.8c1.8-1.6,2.3-4,3.9-5.8
			c2.6-3.2,3.4-7.6,3-11.7C85.4,144.3,86,143.1,86.6,142.1 M88.8,145.7c-0.3,1,0.1,1.5,1.1,1.2C90.2,145.8,89.8,145.4,88.8,145.7
			 M88,154.7c-1,3.2-3.5,5.4-4.8,8.5c-1.9,2.3-3.6,4.9-5.9,6.7c1,0.2,1.9,0.4,2.9,0.6c1,0.4,2.1,0.6,3.2,0.8
			c1.6-3.4,3.8-6.6,5.3-10.1C89.2,159,89.4,156.5,88,154.7 M68.2,167.7c1.2,0.2,2.3,0.5,3.4,1.1c-0.1-0.9-0.3-1.7-0.4-2.6
			C70.2,166.7,69.2,167.2,68.2,167.7z"/>
	</g>
	<g>
		<path class="st53" d="M268.8,141.8c5.2-0.1,11,0.2,15.5,3.1c-2.2-0.1-4.3-0.8-6.5-1.3c-3-0.5-6-0.7-9-1.2V141.8z"/>
	</g>
	<g>
		<path class="st54" d="M38.3,153c1.6-4.7,5.7-8,9.8-10.3c-2,3.1-4.3,6.4-3.4,10.3c-0.1,0.4-0.3,1.3-0.4,1.7c-0.7-2-1.1-4-1.5-6.1
			c-1.6,1.9-3,4-4.1,6.1C38.6,154.3,38.4,153.5,38.3,153z"/>
	</g>
	<g>
		<path class="st55" d="M56.4,146.8c5.1-2.7,11.3-3.3,16.5-0.6c0.8,0.9,1.3,2,1.9,3.1c-3.6-1.7-7.5-3.1-11.5-2.4
			c-3.3,0.4-6.5,1.6-9.7,2.5C54.5,148.4,55.3,147.4,56.4,146.8z"/>
	</g>
	<g>
		<path class="st56" d="M88.8,145.7c1-0.2,1.4,0.2,1.1,1.2C88.8,147.1,88.5,146.7,88.8,145.7z"/>
	</g>
	<g>
		<path class="st57" d="M183.5,147.1c1.7,0.2,3.2,0.7,4.7,1.4l-0.1-0.7c1.1,1.2,2.1,2.5,3.1,3.8c-2.4,0.7-4.9,1.3-7.3,1.6
			c-0.2-0.4-0.6-1.2-0.8-1.6C183.1,150.1,183.3,148.6,183.5,147.1z"/>
	</g>
	<g>
		<path class="st58" d="M194.6,154.2c3.6-1.6,7.3-3.5,9.7-6.8c-0.3,1.6-0.6,3.2-1.6,4.6c-2.7,4.1-7,7.7-12.2,7.9
			c-0.2-1.5-0.4-3.1-0.6-4.6C191.6,155,193.1,154.7,194.6,154.2z"/>
	</g>
	<g>
		<path class="st59" d="M245.5,156.4c2.7-3.4,7.2-4.6,10.8-6.9c-0.1,1.5,0,3,0.2,4.5c-2.7,0.6-5.3,1.5-8,2.3
			C247.5,156.4,246.5,156.4,245.5,156.4z"/>
	</g>
	<g>
		<path class="st60" d="M165.5,150.3c2.8,1.6,5.8,2.7,9,2.8c-0.6-0.5-1.2-1-1.8-1.4c2.2-0.6,5-0.6,6.4,1.5c2.1,3.2,6.6,1.1,9.3,3.5
			c-1.2,12.3-4.1,24.4-5.7,36.7c-0.7,3.2-1,6.6-2.1,9.7c-3.1-0.5-6.3-0.1-9.4-0.1c-2.4-0.6-4.7-1.5-7-2.5c3.6-0.6,7.2,0,10.8,0.9
			c1.9,0.6,3.7-1.3,3.9-3.1c1.4-7.3,2.9-14.5,3.9-21.8c0.4-3.4,0.9-6.9,1.7-10.2c0.4-1.7,0.8-3.4,1.1-5c-5.4,0.7-10.6-0.4-15.8-1.6
			l-0.3-0.9c-1.5-0.4-3-0.8-4.4-1.1c-0.3-1-0.5-2.1-0.6-3.2C164.8,153.1,165.2,151.7,165.5,150.3z"/>
		<path class="st60" d="M258.1,156.4c0.3,0.2,0.7,0.3,1,0.5c3.4-1.2,6.9,0.4,10.3,0.9c4.8,0.8,9.2,2.9,13.8,4.4
			c-2.4,13.6-4.6,27.1-7.1,40.7c-0.9,4.5-1.4,9.1-2.2,13.6c-0.5-0.4-1.1-0.7-1.7-1.1c-1.1,1.2-2.5,0.5-3.7-0.1
			c1.6-1.4,3.3-2.9,3.5-5.1c2.5-15.4,5.4-30.7,7.8-46.2c-6.6-2.6-13.7-3.3-20.7-3.9c-1.4-0.1-0.9-1.8-1.1-2.7L258.1,156.4z"/>
	</g>
	<g>
		<path class="st61" d="M184,153.2c2.5-0.3,4.9-0.9,7.3-1.6c0.9,1,1.7,2.5,3.3,2.6c-1.5,0.5-3,0.8-4.6,1.1c-0.4,0.1-1.2,0.3-1.6,0.4
			c0,0.2-0.1,0.7-0.1,1c-2.7-2.4-7.2-0.2-9.3-3.5C180.7,153.4,182.4,153.4,184,153.2z"/>
		<path class="st61" d="M298.1,228.6c1.5,0,3,0.4,4.4,0.9c-0.7,0.9-1.7,1.7-1.8,2.9c-0.9,4.2-0.8,8.5-0.6,12.7
			c-0.3-0.6-0.6-1.1-0.8-1.7c-0.2-2.7-0.5-5.4-0.5-8.1C298.8,233.1,299.2,230.7,298.1,228.6z"/>
		<path class="st61" d="M322.2,249.3c1.1,0.6,2,1.6,2.9,2.5v0.4c-0.1,3.9,1.5,7.7,3.3,11.1c0.6,1.3,1.7,2.7,1.3,4.3
			c-1.2-1.9-2.3-3.9-3.6-5.7c0.5,6.4,0.8,12.8,1.2,19.1c-1.1-0.6-2-2-3.2-2.3c-0.8,1.2,0,3-0.2,4.4c-0.9-5.5,0-11.1-0.8-16.6
			C322.7,260.7,321.6,255,322.2,249.3z"/>
		<path class="st61" d="M353,289.2c5.6,1.9,10.5,5.8,16.4,7c1.5,0.3,2.9-0.2,4.4-0.5c0,2.5-2.1,4.5-4.5,4.9c-0.2-0.3-0.7-1-1-1.3
			c-1.6-1.7-3.7-2.8-5.7-4C359.4,293.5,356.2,291.3,353,289.2z"/>
	</g>
	<g>
		<path class="st62" d="M34.5,152.7c0.4,0,1.1,0.1,1.5,0.1c-0.8,3.1-0.5,6.4,0,9.5c-2-1.2-3.1-3.3-4-5.3c-0.2-0.4-0.6-1.2-0.8-1.6
			l-0.2-0.3c0.6-0.1,1.2-0.2,1.8-0.3c0.3,1.2-0.5,3.7,1.7,3.4C34.6,156.4,34.6,154.5,34.5,152.7z"/>
	</g>
	<g>
		<path class="st63" d="M256.5,154c5.9-1.2,12.1-0.6,18,0.6c2.8,1.5,5.8,2.7,8.5,4.3c1.8,1.3,3.8,2.6,4.8,4.6
			c-1.6-0.4-3.1-0.9-4.6-1.4c-4.6-1.5-9-3.5-13.8-4.4c-3.4-0.5-6.9-2.1-10.3-0.9c-0.3-0.2-0.7-0.4-1-0.5c-3.2,0.2-6.3,0.8-9.4,1.1
			l-0.2-1.1C251.2,155.5,253.8,154.6,256.5,154z"/>
	</g>
	<g>
		<path class="st64" d="M93.9,153.8c3.5,3.5,4.8,8.8,3.6,13.6c-0.3,0.5-0.9,1.5-1.2,2.1c-1.8-3.2-0.3-7-1.2-10.5
			C94.9,157.2,94.3,155.5,93.9,153.8z"/>
	</g>
	<g>
		<path class="st65" d="M88,154.7c1.4,1.8,1.2,4.3,0.8,6.4c-1.5,3.5-3.7,6.6-5.3,10.1c-1.1-0.2-2.2-0.4-3.2-0.8
			c-1-0.2-1.9-0.4-2.9-0.6c2.3-1.8,4-4.4,5.9-6.7C84.4,160.1,87,157.8,88,154.7z"/>
		<path class="st65" d="M68.2,167.7c1-0.5,2-1,3-1.5c0.1,0.9,0.3,1.7,0.4,2.6C70.5,168.2,69.4,167.8,68.2,167.7z"/>
	</g>
	<g>
		<path class="st66" d="M164.2,155.8c0.1-0.3,0.2-1,0.3-1.3c0.1,1.1,0.3,2.2,0.6,3.2c0.5,1.6,1.3,3,2.1,4.4c0.6-1.2,1.1-2.5,2.3-3.3
			l0.3,0.9c-0.3,1.5-0.5,3.1-0.6,4.7c0.7-0.4,1.4-0.7,2.1-1.1c0.1,0.7,0.2,1.4,0.4,2.1c2.2,1.2,4.6,2.7,7.3,2.4
			c1.8-0.4,3.6-1.2,5.5-1.5c-0.9,3.4-1.3,6.8-1.7,10.2c-2.9-1.5-6.4-4.1-9.7-2.1c-3.4,1-3.3,5-5.1,7.5c0-2.1,0.2-4.1,0.3-6.2
			c-0.6,1-1.2,1.9-1.7,2.9c-0.4-1.2-0.7-2.4-1.3-3.5c-1.2-0.7-2.6-0.6-4-0.9C162.1,168,163.5,162,164.2,155.8 M168.4,171.1
			c1.4-0.9,1.5-4.5-0.8-4C165.4,167.9,167.8,169.9,168.4,171.1 M170.1,167.5c-0.9,0.7-0.2,3,1.1,2.1
			C172.1,168.9,171.3,166.6,170.1,167.5z"/>
	</g>
	<g>
		<path class="st67" d="M188.5,155.7c0.4-0.1,1.2-0.3,1.6-0.4c0.2,1.5,0.3,3.1,0.6,4.6c-1.3,3.9-1.6,8-2.4,11.9
			c-1.2,6.3-2.2,12.6-3.5,18.8c-0.2,0.7-0.4,1.5-0.6,2.2c-0.4,0.1-1.1,0.4-1.5,0.5c1.6-12.3,4.4-24.4,5.7-36.7
			C188.4,156.4,188.4,155.9,188.5,155.7z"/>
	</g>
	<g>
		<path class="st68" d="M238.9,155.7h0.7c2,0.1,3.9,0.5,5.9,0.6c1,0.1,2,0,3-0.1l0.2,1.1c3.2-0.2,6.3-0.9,9.4-1.1v1
			c-0.1,0.9-0.2,1.8-0.3,2.7c-5.9-1-12-0.6-17.8-2.4C239.7,157.1,239.3,156.4,238.9,155.7z"/>
	</g>
	<g>
		<path class="st69" d="M31.3,155.5c0.2,0.4,0.6,1.2,0.8,1.6c-0.7,1-1,2.2-1,3.4c0.2,2.5,0.5,5,1.6,7.3c-0.3,0.6-1,1.7-1.3,2.3
			C28.4,165.7,28.6,159.9,31.3,155.5z"/>
	</g>
	<g>
		<path class="st70" d="M285.4,156.3c2.9,1,5.9,1.7,8.4,3.4c2,1.3,2,4.4,0.2,5.8c-2.8,1.7-6.2,1.5-9.3,0.6c-0.9,3.6-1.4,7.2-2,10.8
			c-1.6,9.7-3.7,19.3-5.1,29c-0.1,0.8-0.3,1.6-0.4,2.3c-0.5-1.8-0.9-3.6-1.1-5.5c2.5-13.5,4.7-27.1,7.1-40.7c1.5,0.5,3.1,1,4.6,1.4
			c-1.1-2-3-3.3-4.8-4.6c0.7-0.8,1.5-1.6,2.2-2.5C285.3,156.4,285.4,156.3,285.4,156.3z"/>
	</g>
	<g>
		<path class="st71" d="M165.1,157.7c1.5,0.3,3,0.7,4.4,1.1c-1.2,0.7-1.7,2.1-2.3,3.3C166.4,160.7,165.6,159.2,165.1,157.7z"/>
	</g>
	<g>
		<path class="st72" d="M257.8,160.1c0.1-0.9,0.2-1.8,0.3-2.7c0.2,0.9-0.3,2.6,1.1,2.7c7,0.7,14.1,1.4,20.7,3.9
			c-2.5,15.4-5.3,30.7-7.8,46.2c-0.2,2.2-1.9,3.7-3.5,5.1c-3-1.4-6.4-1.5-9.6-1.5c-3.1,0.1-6.1-1-9.1-1.8c0.4-4,1.1-8,1.7-12
			c0.4-2.8,0.6-5.7,2-8.2c0.2,1.5,0.4,2.9,0.6,4.4c0.3-0.4,0.5-0.9,0.7-1.4c0.4-1.4,0.8-2.7,1.1-4.1c0.3,0.8,0.6,1.6,0.9,2.4
			c0.4-0.5,0.8-1,1.3-1.6c0.4-0.5,0.8-1,1.3-1.5c0.3,0.7,0.5,1.4,0.8,2.1c1.4-2.3,1.9-6.3,5.2-6.3c3,0.1,5.6,2,8.1,3.4
			c1.8-2.6,1.8-5.9,2-8.9c-2.4,0.1-4.9,0-7.3-0.2c0-0.6,0-1.2,0-1.8c-0.3-0.2-0.9-0.5-1.2-0.7c-0.7-2.4-2.7-4.2-4.4-5.9
			c-1.3-1.5-3.5-1.5-5.3-1.9c0.3-2.5,0.8-5-0.1-7.5C257.5,161.7,257.7,160.9,257.8,160.1z"/>
		<path class="st72" d="M173.1,174.4c3.3-2,6.8,0.6,9.7,2.1c-1,7.3-2.5,14.6-3.9,21.8c-0.2,1.8-1.9,3.7-3.9,3.1
			c-3.5-0.9-7.1-1.4-10.8-0.9c-2.1-0.4-4.2-1-6.2-1.9c0.9-4.2,2-8.3,2.4-12.5c-0.2-0.5-0.6-1.5-0.8-2c0.5-3.4,1.3-6.7,1.6-10
			c1.3,0.3,2.8,0.2,4,0.9c0.6,1.1,0.9,2.3,1.3,3.5c0.6-1,1.1-1.9,1.7-2.9c-0.1,2.1-0.2,4.1-0.3,6.2
			C169.8,179.4,169.7,175.4,173.1,174.4z"/>
	</g>
	<g>
		<path class="st73" d="M90,171.4c2.5-3.8,4.6-7.8,5.1-12.4c0.9,3.4-0.6,7.3,1.2,10.5c-2.1,2.9-3.6,6.2-4.4,9.7
			c-0.2-0.1-0.6-0.4-0.8-0.5C91.6,176.1,90.8,173.7,90,171.4z"/>
	</g>
	<g>
		<path class="st74" d="M169.8,159.7c5.2,1.2,10.5,2.3,15.8,1.6c-0.4,1.7-0.7,3.4-1.1,5c-1.9,0.2-3.6,1-5.5,1.5
			c-2.7,0.3-5-1.2-7.3-2.4c-0.1-0.7-0.2-1.4-0.4-2.1c-0.7,0.4-1.4,0.7-2.1,1.1C169.3,162.8,169.6,161.2,169.8,159.7z"/>
	</g>
	<g>
		<path class="st75" d="M196.1,167.4c0.3-3.2,1.8-7.2,5.4-7.6c3.3-0.1,5.5,2.6,7.4,4.9c1.8,2.6,3.9,5.3,4.5,8.4
			c-1.8-0.8-3-2.5-4.4-3.9c-1.8-1.9-3.4-4.3-5.9-5.2c-1.5-0.3-2.7,1.2-2.8,2.6c-0.6,3.6,1.1,7,3.3,9.7c1.1,2.2,6,4.7,2.8,7.1
			c-3.7,0.4-7.2,1.9-10.4,3.7c1.2,0.4,2.5,0.7,3.7,1.1c3.1,1.4,7,2.5,8.4,6c-0.5-0.1-1.4-0.3-1.8-0.4c-4.4-1.4-8.9-2.1-13.3-3.1
			c-1.4-0.3-3.6-0.9-3-2.9c1.5-4.2,6-6.3,10-7.5C197.8,176.4,196.3,171.9,196.1,167.4z"/>
	</g>
	<g>
		<path class="st76" d="M31.1,160.5c1.5,2.1,3,4.3,5.2,5.7c2,1.5,3.5,3.6,5,5.6c-3.3,0-6.5-1.4-8.6-4.1
			C31.6,165.5,31.2,163,31.1,160.5z"/>
	</g>
	<g>
		<path class="st77" d="M254.9,173.4c0.9-3.6,1.5-7.3,2.5-10.8c0.8,2.4,0.4,5,0.1,7.5c1.8,0.4,3.9,0.4,5.3,1.9
			c1.7,1.8,3.6,3.5,4.4,5.9c0.3,0.2,0.9,0.5,1.2,0.7c0,0.6,0,1.2,0,1.8c2.4,0.2,4.9,0.3,7.3,0.2c-0.2,3-0.2,6.3-2,8.9
			c-2.6-1.4-5.1-3.3-8.1-3.4c-3.3,0-3.9,4.1-5.2,6.3c-0.3-0.7-0.5-1.4-0.8-2.1c-0.4,0.5-0.9,1-1.3,1.5c0.3-2.4,1.8-4.2,3.4-5.8
			c1.9-1.9,1.5-4.7,1.5-7.2c-0.9-0.2-1.8-0.3-2.6-0.5c-0.6-1.5-1.1-3.1-2.7-3.8c-0.5,0.6-0.9,1.2-1.4,1.8
			C255.9,175.3,255.4,174.3,254.9,173.4z"/>
		<path class="st77" d="M253.1,189c0.5-0.9,1.1-1.8,2-2.4c-0.2,2.8-0.6,5.6-0.2,8.3c-0.2,0.5-0.5,0.9-0.7,1.4
			c-0.2-1.5-0.4-2.9-0.6-4.4c-1.5,2.5-1.6,5.4-2,8.2c-0.6,4-1.3,8-1.7,12c-0.4,0.2-1.1,0.5-1.5,0.7c-0.1-6.6,3.1-12.7,2.5-19.3
			c0.2-2,0.7-4,1.1-6C252.2,187.9,252.8,188.6,253.1,189z"/>
	</g>
	<g>
		<path class="st78" d="M46.3,163.7c0.3,0,0.8,0,1.1,0c-1,2.6-1.8,5.2-1.6,8c0,2.7,1.7,5,2.9,7.3l-1-0.1c-3.4-2.4-3.7-7-2.8-10.7
			C45.2,166.7,45.6,165.1,46.3,163.7z"/>
	</g>
	<g>
		<path class="st79" d="M52,168.7c1.6-3,4.9-5,8.3-5.3c-0.3,0.4-0.8,1.4-1.1,1.8c-2.5,0.6-5,2.1-6,4.5c-0.5,2.2,0.7,4.4,0.7,6.6
			C52.3,174.3,50.7,171.4,52,168.7z"/>
	</g>
	<g>
		<path class="st80" d="M45.7,171.7c2.4-1.8,2.4-4.8,3.1-7.4c0.1,1.6,0.3,3.2,0.4,4.8c0.1,1.3,0.2,2.6,0.2,4
			c-0.7-0.3-1.5-0.5-2.2-0.8c0.5,5,5.8,6.8,9,9.8c-3.1-0.1-6.2-1.2-8.6-3l1,0.1C47.4,176.7,45.7,174.4,45.7,171.7z"/>
	</g>
	<g>
		<path class="st81" d="M53.2,169.8c1-2.5,3.5-3.9,6-4.5c-0.2,0.4-0.8,1.2-1,1.6c-1,1.6-2.3,3.2-1.8,5.2c0.4,2.5,2.5,4.1,4.2,5.8
			c-2-0.1-4-0.2-6-0.5c-0.2-0.2-0.5-0.7-0.6-0.9C53.9,174.1,52.8,172,53.2,169.8z"/>
	</g>
	<g>
		<path class="st82" d="M168.4,171.1c-0.5-1.2-3-3.2-0.8-4C169.9,166.6,169.8,170.2,168.4,171.1z"/>
	</g>
	<g>
		<path class="st83" d="M170.1,167.5c1.2-0.9,1.9,1.4,1.1,2.1C170,170.5,169.2,168.2,170.1,167.5z"/>
	</g>
	<g>
		<path class="st84" d="M253.7,179.2c0.3-2,0.7-3.9,1.2-5.8c0.5,1,1,2,1.6,3c0.5-0.6,0.9-1.2,1.4-1.8c1.6,0.6,2.1,2.3,2.7,3.8
			c0.9,0.2,1.8,0.3,2.6,0.5c0.1,2.4,0.4,5.3-1.5,7.2c-1.6,1.7-3.1,3.4-3.4,5.8c-0.4,0.5-0.8,1-1.3,1.6c-0.3-0.8-0.6-1.6-0.9-2.4
			c-0.3,1.4-0.7,2.7-1.1,4.1c-0.3-2.8,0-5.6,0.2-8.3c-0.9,0.6-1.5,1.5-2,2.4c-0.3-0.4-0.9-1.2-1.2-1.5c0.3-1.6,0.6-3.3,1-5
			c0.5,0.5,1,0.9,1.5,1.4c0.3-1.6,0.5-3.2,0.7-4.8C254.8,179.2,254,179.2,253.7,179.2 M257.2,187.9c1.4-3,0.2-6.1-0.1-9.1
			C255.3,181.4,254.8,185.4,257.2,187.9z"/>
	</g>
	<g>
		<path class="st85" d="M257.2,187.9c-2.3-2.5-1.9-6.4-0.1-9.1C257.3,181.8,258.5,184.9,257.2,187.9z"/>
	</g>
	<g>
		<path class="st86" d="M138.4,190.6c-1.3-3.7-0.3-7.7,1-11.2c0.7,2.8,1.1,6.3,4.1,7.7c4.7,1.9,10,1.6,14.8,3.1
			c-0.6,3.2-1.1,6.4-1.4,9.7c-0.6-0.5-1.2-1.1-2-1c-2.8-0.2-5.6-0.6-8.3-1.2C143.4,196.1,139.8,194.2,138.4,190.6z"/>
	</g>
	<g>
		<path class="st87" d="M159.7,184.2c0.2,0.5,0.6,1.5,0.8,2c-0.4,4.2-1.6,8.3-2.4,12.5c-0.2,0.6-0.7,1.9-1,2.5c-1-0.4-2-0.9-3-1.2
			c0.7,0,2.2-0.1,2.9-0.1c0.2-3.3,0.7-6.5,1.4-9.7C158.7,188.2,159.2,186.2,159.7,184.2z"/>
	</g>
	<g>
		<path class="st88" d="M184.2,192.9c0.2-0.7,0.4-1.5,0.6-2.2c0.1,0.9,0.1,1.8,0.2,2.8c3.3,0.3,6.6,0.6,9.9,0.8
			c-0.6-1.2-1.2-2.3-1.8-3.5c4.5,1,9,1.7,13.3,3.1c0,0.3-0.1,0.9-0.1,1.2c-0.2,0.2-0.6,0.7-0.8,0.9c6.5,0.7,13,2,19.5,2.7
			c6.3,0.6,12.5,2,18.7,3c1.8,0.3,3.7,0.2,5.5,0.1c-0.5,3.1-1.3,6.1-2.1,9.2c-13.9-1.3-27.8-3.1-41.6-5.1
			c-7.6-0.7-15.1-1.8-22.7-2.8C183.3,199.6,183.9,196.3,184.2,192.9z"/>
		<path class="st88" d="M304.4,207.6c2.9-1,4.2-4,6-6.3c0.3,5-0.2,11.2-4.4,14.6c-5.1,2.9-11.2,1.2-16.7,0.7
			c-4.4-0.3-8.7-1.7-13.1-1.4h-0.6c0.8-2.3,1.4-4.6,1.8-7c0.1-0.8,0.3-1.6,0.4-2.3c4.6,0.6,9.1,1.5,13.8,1.9
			C295.7,208.2,300.3,209.6,304.4,207.6z"/>
	</g>
	<g>
		<path class="st89" d="M182.7,193.4c0.4-0.1,1.1-0.4,1.5-0.5c-0.3,3.4-1,6.7-1.4,10c0.1,0.3,0.2,0.8,0.2,1.1
			c21.3,2.7,42.6,6,63.9,8.7c0.4,1.1,0.9,2.2,1.4,3.3c-0.4,0-1.3,0.1-1.7,0.1c-2.5-0.2-5.4-0.1-7.2,2c-0.9,0.7-0.9,2.3-2,2.8
			c-1.6-2-2.7-4.5-5-5.8c-3.2-1.8-7-1.7-10.6-2.4c-4.3-0.5-8.5-1.4-12.8-1.4c-3.6,0.2-5,4-6.7,6.6c-2.3-3.1-3.7-7.6-7.9-8.5
			c-5.9-0.9-11.9-1.3-17.8-1.9c1.8-0.1,3.6-0.2,5.5-0.3c-0.5-1.3-1.1-2.7-1.5-4C181.7,200,182,196.6,182.7,193.4z"/>
		<path class="st89" d="M139.5,199.8c1-0.5,1.9-1.3,3.1-1c3.8,0.4,7.6,0.5,11.3,1.1c1,0.4,2,0.8,3,1.2c0.5,1.1,1.1,2.3,1.7,3.4
			c-0.9,0.1-1.7,0.2-2.6,0.2c-4.7-0.2-9.3-0.9-14-1C141.4,202.5,140.5,201.1,139.5,199.8z"/>
		<path class="st89" d="M36.6,230.5c3.3-0.8,6.4,1.2,9.5,1.9c3.1,1.2,6.7,1.4,9.3,3.6c1.1,5.3,1.1,10.7,1.4,16
			c0.1,1.5-0.3,4.1-2.3,3.8c-4.9-1.4-9.5-3.5-14.2-5.5c-2.7-0.9-4.2-3.9-4.4-6.6c0.3-3.1-0.7-6-0.4-9.1
			C35.6,233.3,35.1,231.1,36.6,230.5z"/>
		<path class="st89" d="M311.8,249c-0.6-3.4-0.4-6.8-0.4-10.3c0.3,0.2,1,0.6,1.4,0.9c3.1,3.3,6.4,6.3,9.4,9.7
			c-0.5,5.7,0.6,11.4,0.8,17.2c0.8,5.5-0.1,11.1,0.8,16.6c0.1,0.7,0.2,2.1,0.2,2.8c-2.6-3.2-4.2-7.1-5.9-10.8
			C314.5,266.8,313.2,257.8,311.8,249z"/>
		<path class="st89" d="M328.3,263.3c-1.8-3.4-3.4-7.2-3.3-11.1c3,2.6,5.6,5.6,8.7,8.1c9.7,7.7,20.8,14.3,33.2,16.5
			c2.4,0.8,6.3,0.2,7,3.4c0.4,5.2,0.4,10.4-0.2,15.6c-1.4,0.2-2.9,0.8-4.4,0.5c-5.9-1.2-10.8-5.1-16.4-7
			c-8.7-6.2-16.3-13.8-23.5-21.6C330,266,328.9,264.7,328.3,263.3z"/>
	</g>
	<g>
		<path class="st90" d="M250.8,193.5c0.6,6.6-2.6,12.7-2.5,19.3c0.4-0.2,1.1-0.5,1.5-0.7c3,0.8,6,1.9,9.1,1.8c3.3,0,6.6,0.1,9.6,1.5
			c1.2,0.5,2.6,1.2,3.7,0.1c0.5,0.4,1.1,0.7,1.7,1.1c0.1,0.1,0.4,0.2,0.5,0.3l1.1,0.2c0.2,1,0.4,1.9,0.7,2.9c-1,0.3-1.9,0.7-2.9,1
			c-1.8,0.8-2.7,2.7-3.2,4.5c-1-3.3-3.7-6.4-7.3-6.8c-5.3-0.8-10.7-1.5-16-2.5c0.4,0,1.3-0.1,1.7-0.1c-0.5-1.1-1-2.2-1.4-3.3
			c0.1-0.5,0.2-1.4,0.2-1.8c0.9-3,1.6-6.1,2.1-9.2C249.8,199,250.4,196.2,250.8,193.5z"/>
		<path class="st90" d="M158,198.7c2,0.8,4.1,1.4,6.2,1.9c2.3,1,4.6,1.8,7,2.5c3.1,0,6.3-0.4,9.4,0.1c0.5,1.4,1,2.7,1.5,4
			c-1.8,0-3.7,0.2-5.5,0.3c-3.1-0.2-7.3-0.7-8.6,2.9l-0.5,0.2c-0.2,0.2-0.7,0.5-1,0.7c-1-1.6-1.8-3.5-3.3-4.7
			c-2-1.6-4.8-1.2-7.2-1.7c0.9-0.1,1.7-0.2,2.6-0.2c-0.6-1.1-1.2-2.2-1.7-3.4C157.3,200.6,157.8,199.4,158,198.7z"/>
	</g>
	<g>
		<path class="st91" d="M182.9,202.9c7.6,1,15.1,2.1,22.7,2.8c13.8,2,27.7,3.8,41.6,5.1c-0.1,0.5-0.2,1.4-0.2,1.8
			c-21.3-2.7-42.6-5.9-63.9-8.7C183,203.7,182.9,203.2,182.9,202.9z"/>
	</g>
	<g>
		<path class="st92" d="M273.9,216.5c0.7-4.5,1.2-9.1,2.2-13.6c0.2,1.8,0.7,3.7,1.1,5.5c-0.4,2.4-1,4.7-1.8,7
			c-0.3,0.4-0.8,1.1-1,1.5C274.3,216.7,274,216.5,273.9,216.5z"/>
	</g>
	<g>
		<path class="st93" d="M151.3,208.2c1.9,0.1,3.8,0.5,5.7,0.8c0.9,0.3,2.9,0.8,1.9,2.2c-2.3,5-5.3,9.7-8.8,14
			c-4.2,5.6-11.8,7.4-18.4,6c-4.1-1-8.4-1.9-11.9-4.3c5.2-1.3,11-0.8,15.6-4.1c5-2.8,7.2-8.3,10.7-12.4c1,1.9,1.8,3.9,3.3,5.4
			c1.9,0.1,4,0.2,5.9-0.2c1.1-1.5,1.7-3.3,2.4-5c-3.2-0.8-6.5-1.1-9.8-1.1C149,209,150.2,208.6,151.3,208.2z"/>
	</g>
	<g>
		<path class="st94" d="M157,209c2,0.1,4.2,0.6,5.4,2.4c-5.2,3.6-6.9,10.5-12.3,13.8c3.5-4.3,6.5-9,8.8-14
			C159.9,209.8,157.9,209.4,157,209z"/>
		<path class="st94" d="M272.7,328.9c1.9,4.5,4.1,8.9,6,13.4c1.7,3.4,3.2,7.3,6.4,9.6c0.4,0.1,1.1,0.2,1.4,0.3
			c-1.2,1.8-3.4,2.2-5.3,2.6c-0.2-1.7-0.4-3.4-0.9-5c-2.3-6.4-4.7-12.8-7.6-19C272.7,330.3,272.7,329.4,272.7,328.9z"/>
	</g>
	<g>
		<path class="st95" d="M146.1,210.4c0.5-0.2,1.4-0.7,1.8-0.9c3.3,0,6.6,0.3,9.8,1.1c-0.7,1.7-1.3,3.5-2.4,5
			c-1.9,0.5-3.9,0.3-5.9,0.2C147.9,214.3,147.1,212.2,146.1,210.4z"/>
	</g>
	<g>
		<path class="st96" d="M166.6,211.2c0.2-0.2,0.7-0.5,1-0.7C167.9,211.8,167.5,212,166.6,211.2z"/>
	</g>
	<g>
		<path class="st97" d="M150.1,225.2c5.4-3.3,7.1-10.2,12.3-13.8c1,1.4,2.1,2.7,3.3,4c-2.3,6.2-4.5,12.5-5.9,19.1
			c-4,6-10.4,9.5-16.6,12.7c-6.9,3.4-15.4,3.7-22.4,0.3c-1.4-0.5-2.7-1.6-4.3-1.2c-4.9-2.7-9.1-6.7-14.6-8.4c-7-3-14.9-0.7-21.6,1.9
			c-1.1,0.2-2.2,0.4-3.2,0.8c-6.8,3.6-12.2,9.1-18.3,13.7c-1-4.3-0.8-8.7-1-13c0.1-2.4-0.2-5.1,1.2-7.2c1.9-2.6,4.6-4.6,7-6.7
			c7.9-5.9,17.2-9.9,27-11c1.5,0.3,3,0.6,4.4,0.9c5.1,2.6,10.3,4.8,15.8,6.3c-0.1,0.2-0.4,0.6-0.5,0.8c2.5,0.3,4.8,1.3,6.9,2.6
			c3.6,2.4,7.8,3.3,11.9,4.3C138.3,232.7,145.9,230.8,150.1,225.2z"/>
		<path class="st97" d="M221.9,233.2c3.5-4.3,5-10.3,9.8-13.5c1.3,1.4,2.3,3,3.4,4.6c-8.3,16.7-11.6,35.5-12.2,54.1
			c-0.2,6.2,0.3,12.5,0.7,18.7c-0.2,1.7-0.5,3.3-0.2,5c0.8,5.4,1.3,10.9,2.7,16.2c0.8,4.6,3.1,8.9,2.5,13.7c-0.1,4.6-3.7,8-4.5,12.3
			c-0.1,0.4-0.4,1.2-0.5,1.7c-0.3-0.2-0.9-0.6-1.2-0.8c-0.9,1.2-2,2.3-3.3,3c-3.1-6.6-4.3-13.9-6-20.9c-0.5-7.6-2.9-14.9-2.8-22.5
			c-1.4-13.2-0.4-26.5,1.8-39.6C214.7,254.3,217.7,243.5,221.9,233.2z"/>
	</g>
	<g>
		<path class="st98" d="M179.6,212c4.1,0.3,8.2,1.1,12.3,1.4c0.3,0.4,1,1,1.3,1.4c-0.2,0.3-0.5,1-0.6,1.3c-3.2,3.1-2.5,8.4-6.1,11.4
			c-0.9-0.5-1.8-1-2.7-1.4c-0.3,0.6-0.5,1.2-0.8,1.8c-0.2-1-0.4-1.9-0.6-2.9c-0.3,0.7-0.6,1.4-0.9,2c-0.4-1.2,0.1-3.1-1.4-3.6
			c-1.3-0.2-2.7-0.3-4-0.6c-0.1-0.4-0.3-1.1-0.4-1.5c-0.4,0.3-0.7,0.7-1.1,1c-0.1-1-0.3-2-0.4-3c-0.6-0.1-1.3-0.1-1.9-0.2
			c-0.2-1.2-0.3-2.4-0.4-3.6C173.3,212.7,176.9,212.8,179.6,212z"/>
		<path class="st98" d="M215,216.5c4.3,0.4,8.5,0.9,12.8,1.7c-0.2,3.5-2.2,6.5-3.7,9.5c-2.7,0.8-2.8,4.1-4.6,5.7
			c-1.2,0.1-2.3-0.3-3.5-0.3c-3.6-2-6.7-4.9-8.6-8.6c-1.1-0.1-2.2-0.2-3.2-0.3c1.1-1.6,2.2-3.2,3.5-4.6
			C209.5,217.3,212.6,217.3,215,216.5z"/>
		<path class="st98" d="M276.5,224.7c4.7,1.1,9.5,1.6,14.2,2.6c-0.4,0.3-1.1,0.8-1.5,1c2.6,0.5,5.3,1,7.9,1.5
			c0.1,3.4,1.4,7.8-1.6,10.4c-1.6-0.1-3.6-0.1-4.1,1.7c-0.7,0-1.4,0-2.1-0.1c-0.6,0.6-1.2,1.2-1.8,1.8c-4.3-0.7-8.7-0.2-13.1-0.1
			C274.1,237.2,273.8,230.6,276.5,224.7z"/>
	</g>
	<g>
		<path class="st99" d="M192.6,221c0.8-2,2.4-3.4,4-4.9c1.2,1.7,2.6,3.3,4,4.8c-4.3,6.1-6.8,13.2-9.9,19.9c-0.6-3.2-0.8-6.5-0.7-9.7
			C191.1,227.8,191.3,224.3,192.6,221z"/>
	</g>
	<g>
		<path class="st100" d="M275.5,217c5.8,1,11.6,2,17.4,2.9c4.8,1.1,9.7,1.2,14.4,2.7c1.2,0.3,2.3,1.1,3.3,1.9
			c4.1,3.9,8.2,8,11.8,12.4c2.6,3.2,5.8,5.9,7.8,9.6c0.8,1.4-0.7,2.5-1.1,3.7c-6.5-7.2-13.4-13.9-20.1-21c-1.6-2-3.4-4.2-6.1-4.5
			c-7.4-0.9-14.7-2.2-22-3.2c-2.5-0.3-4.9-1.2-7.5-0.6c1-0.4,1.9-0.7,2.9-1C275.9,218.9,275.7,218,275.5,217z"/>
		<path class="st100" d="M288.9,324.7c-11.5-20.5-17.7-43.9-18.1-67.4c1.7,7.6,3.2,15.2,5.7,22.5c3.5,10.6,6.5,21.4,11.7,31.3
			c5.7,10.9,12.3,21.6,20.9,30.5c-4.4,2.9-9.4,6.5-14.9,4.9c-0.9-0.5-1.2-1.8-1.7-2.6c2.2-0.6,2.3-3.3,2.4-5.2
			C295.2,333.3,290.9,329.3,288.9,324.7z"/>
	</g>
	<g>
		<path class="st101" d="M249.7,221c3.7,0.2,7.4,0.9,11.1,1.5c0.5,4.2-0.7,8.2-1.3,12.4c-0.3-0.2-0.8-0.5-1-0.7
			c-0.6,2.7-1.4,5.3-2.7,7.8c-1.3-1.1-2.7-2.1-4-3.2c-0.2,0.2-0.7,0.7-0.9,0.9c-0.2-0.4-0.5-1.2-0.6-1.6c-1.4-0.2-2.9-0.3-4.3-0.8
			c-0.2-0.7-0.3-1.5-0.4-2.2c-1-0.5-2.1-0.9-3.1-1.4c-0.2-1.2-0.3-2.4-0.4-3.7c0.7-2.7,1.6-5.3,2.7-7.9
			C246.4,221.8,248.1,221.4,249.7,221z"/>
	</g>
	<g>
		<path class="st102" d="M260.8,222.5c1.4,0.1,2.6,0.6,3.8,1.4c-3.6,5.7-4.5,12.6-5.3,19.1c-0.1-1.4-0.2-2.8-0.3-4.2
			c0.2-1.3,0.3-2.6,0.5-3.9C260.1,230.7,261.3,226.6,260.8,222.5z"/>
		<path class="st102" d="M213.1,327.2c1.7,7,2.9,14.3,6,20.9c1.3-0.7,2.4-1.8,3.3-3c0.3,0.2,0.9,0.6,1.2,0.8
			c-1.8,3.2-5.2,6.3-9.2,5.7c1-1.3,2.3-2.8,1.8-4.6C215.2,340.4,213,334,213.1,327.2z"/>
	</g>
	<g>
		<path class="st103" d="M264.6,223.9c2.2,1.6,3,4.2,4.4,6.4c-1.3,13.5-1.9,27.1-0.7,40.6c0.7,7.2,2.3,14.3,4.1,21.3
			c-0.7,2.7,0.5,5.3,1.2,7.8c3.9,11.6,8,23.3,14.3,33.9c3,4.6,1.3,10.2-0.3,15c-0.4,1.3-1.4,2.2-2.5,3c-3.2-2.3-4.7-6.1-6.4-9.6
			c-1.9-4.5-4.1-8.9-6-13.4c0,0.5,0,1.4,0,1.8c-3.3-7.1-5.9-14.5-7.7-22.1c-4.3-15.7-7.6-31.9-7.1-48.3c-0.3-5.6,0.9-11.1,0.3-16.7
			c-0.2-1.7,0.2-3.3,0.8-4.9c0.1,1.4,0.2,2.8,0.3,4.2C260.1,236.4,261,229.6,264.6,223.9z"/>
	</g>
	<g>
		<path class="st104" d="M289.2,228.3c0.4-0.3,1.1-0.8,1.5-1c2.5,0.3,5,0.7,7.4,1.4c1,2.1,0.7,4.4,0.7,6.7c0,2.7,0.3,5.4,0.5,8.1
			c0,1.4,0.1,2.8,0.4,4.1c1.2,4.4,1.2,9.1,2.1,13.6c1,7.8,3.4,15.3,6.1,22.6c3.2,9,7.3,17.8,13,25.5c1.5,2.1,2.6,4.4,4.2,6.4
			c3.5,5,7.5,9.8,10.6,15.1c1,1.5,1.1,3.2,1.3,5c-1.9,0.8-3.8,1.7-5.9,2.1c-1.6,0-3.4-0.5-4.8,0.4c-2.7,1.7-6,2.3-9.2,2.2
			c-5.8-3.4-8.1-10.1-12.3-15c-4.1-5.4-7.7-11.1-11-17c-2.9-5.1-4.9-10.7-7.3-16.1c-6-15.6-11.9-31.8-12-48.7
			c4.4-0.1,8.8-0.5,13.1,0.1c0.6-0.6,1.2-1.2,1.8-1.8c0.7,0,1.4,0,2.1,0.1c0.6-1.9,2.5-1.8,4.1-1.7c3-2.6,1.6-7,1.6-10.4
			C294.5,229.3,291.9,228.7,289.2,228.3z"/>
		<path class="st104" d="M237.7,264c0.4-11.5,1.6-23,4.5-34.1c0.1,1.2,0.3,2.4,0.4,3.7c1,0.4,2,0.9,3.1,1.4c0.1,0.7,0.2,1.5,0.4,2.2
			c1.4,0.5,2.9,0.6,4.3,0.8c0.2,0.4,0.5,1.2,0.6,1.6c0.2-0.2,0.7-0.7,0.9-0.9c1.3,1.1,2.7,2.1,4,3.2c1.3-2.5,2.1-5.1,2.7-7.8
			c0.3,0.2,0.8,0.5,1,0.7c-0.1,1.3-0.3,2.6-0.5,3.9c-0.6,1.5-1,3.2-0.8,4.9c0.6,5.6-0.6,11.1-0.3,16.7c-0.4,16.4,2.8,32.6,7.1,48.3
			c1.8,7.6,4.4,15,7.7,22.1c2.9,6.2,5.3,12.6,7.6,19c-1,1.6-1.7,3.8-3.7,4.4c-4,1.4-8.3,1.6-12.4,2.2c-2.6,0.5-5.2-0.6-7.4-2
			c-2.6-1.7-4-4.7-5.5-7.4c-4.7-8.1-7.2-17.4-8.8-26.6c-2.3-9.8-3.9-19.9-4.3-30C237.4,281.7,236.9,272.8,237.7,264z"/>
	</g>
	<g>
		<path class="st105" d="M300.7,232.4c0.2-1.2,1.1-2,1.8-2.9c1.9,1.3,3.8,3,4.9,5c-0.4,14,1.7,28.2,7,41.2
			c2.4,5.9,5.7,11.4,9.3,16.6c0.9,1.6,2.2,3,3,4.7c1.4,4.1,4.6,7.3,7.1,10.7c2.5,3.4,5.8,6.3,8.2,9.8c2.4,3.4-0.6,7.2-0.3,10.9
			c-0.1,0.3-0.3,1-0.5,1.3c-0.4,0.2-1.1,0.6-1.4,0.8c-3.8-2.5-6.6-6.2-9.7-9.6c-1.7-1.8-2.8-4.2-5-5.4c-1.6-2-2.7-4.3-4.2-6.4
			c-5.8-7.7-9.8-16.5-13-25.5c-2.7-7.3-5.1-14.9-6.1-22.6c-0.8-4.5-0.8-9.1-2.1-13.6c-0.4-1.3-0.4-2.7-0.4-4.1
			c0.3,0.6,0.5,1.1,0.8,1.7C299.9,240.9,299.7,236.6,300.7,232.4z"/>
		<path class="st105" d="M137.3,255.3c7.7-1.3,14.7-5,20.6-10c-1.9,12.6-1.3,25.4-0.4,38c-3.3,4.6-3.1,10.6-4.3,15.9
			c-1.5,4.9-1.9,10-2.5,15.1c-3.1,0.3-5.7-1.8-8.6-2.8c-4.5-1.8-9.9-3.7-11.6-8.7c-1.1-4.7,0.9-9.4,1.3-14
			c1.8-11.1,3.3-22.4,7.2-33.1C138.4,255.6,137.6,255.4,137.3,255.3L137.3,255.3z"/>
		<path class="st105" d="M325.9,261.9c1.3,1.9,2.4,3.9,3.6,5.7c7.2,7.8,14.8,15.4,23.5,21.6c3.2,2.1,6.3,4.3,9.7,6.2
			c2,1.2,4.1,2.2,5.7,4c-4.6,1.7-9.4,2.9-14.3,3.2c-1.7,0.2-3.3-0.6-4.6-1.5c-3.2-2.3-6.5-4.6-9.3-7.4c-3.8-3.9-7.8-7.5-11.3-11.7
			c-0.2,0-0.7,0-1,0h-0.4c-0.1-0.2-0.3-0.7-0.4-1C326.8,274.6,326.5,268.2,325.9,261.9z"/>
	</g>
	<g>
		<path class="st106" d="M232.2,242.5c1.3-3.6,2-7.5,3.8-11c-0.5,4.3-1.3,8.6-1.8,13c-2.9,15.4-3.5,31.1-2,46.7
			c1.5,15.2,4.2,30.3,8.7,44.9c-2.9,0.1-5.8,0.6-8.6,1c1.5-2.7,2.5-5.8,1.6-8.9c-3.5-13.6-6.4-27.4-7-41.4
			C226.6,271.8,227.3,256.6,232.2,242.5z"/>
	</g>
	<g>
		<path class="st107" d="M153.1,299.2c1.1-5.3,1-11.3,4.3-15.9c1.4,9.6,2.6,19.2,5,28.5c-2.7,1.1-5.3,3.1-8.4,2.7
			c-1.6-0.9-1.5-3-1.5-4.5C152.8,306.5,153.1,302.9,153.1,299.2z"/>
	</g>
</g>
</svg>
