<?xml version="1.0" encoding="utf-8"?>
<!-- Generator: Adobe Illustrator 23.0.0, SVG Export Plug-In . SVG Version: 6.00 Build 0)  -->
<svg version="1.1" id="Layer_1" xmlns="http://www.w3.org/2000/svg" xmlns:xlink="http://www.w3.org/1999/xlink" x="0px" y="0px"
	 viewBox="0 0 400 400" style="enable-background:new 0 0 400 400;" xml:space="preserve">
<style type="text/css">
	.st0{fill:#FDFCFC;}
	.st1{fill:#020101;}
	.st2{fill:#6E3818;}
	.st3{fill:#8B573C;}
	.st4{fill:#401A05;}
	.st5{fill:#C76A58;}
	.st6{fill:#F68B6E;}
	.st7{fill:#2D1004;}
	.st8{fill:#FEB9AB;}
	.st9{fill:#814D31;}
	.st10{fill:#260B04;}
	.st11{fill:#B7513A;}
	.st12{fill:#703818;}
	.st13{fill:#C66C57;}
	.st14{fill:#E28A72;}
	.st15{fill:#050C0D;}
	.st16{fill:#FEB9A8;}
	.st17{fill:#3372A0;}
	.st18{fill:#673518;}
	.st19{fill:#FDE7DF;}
	.st20{fill:#F98B6F;}
	.st21{fill:#63B3E4;}
	.st22{fill:#8BD2F3;}
	.st23{fill:#479ACE;}
	.st24{fill:#E3A999;}
	.st25{fill:#C25A44;}
	.st26{fill:#050804;}
	.st27{fill:#220503;}
	.st28{fill:#9C6245;}
	.st29{fill:#897D75;}
	.st30{fill:#256290;}
	.st31{fill:#60B3E8;}
	.st32{fill:#3285BA;}
	.st33{fill:#CB6A55;}
	.st34{fill:#E8947D;}
	.st35{fill:#550A03;}
	.st36{fill:#9B130B;}
	.st37{fill:#00D9C5;}
	.st38{fill:#01A793;}
	.st39{fill:#0C887B;}
	.st40{fill:#00D9C4;}
	.st41{fill:#B8543D;}
	.st42{fill:#146559;}
	.st43{fill:#1D675C;}
	.st44{fill:#F88B6F;}
	.st45{fill:#0E6B5F;}
	.st46{fill:#C66957;}
	.st47{fill:#C76957;}
</style>
<g>
	<g>
		<path class="st0" d="M129.2,21.5c15-6.3,33.6-0.3,42.7,13c2,2,2.5,5.5,5,6.9c14.1-4.9,28.4-13.5,43.9-9.1
			c14,5.7,24.3,17.5,36.3,26.3c6.5,6.4,16.1,10.7,18.9,20c7,22.4,13.1,44.9,19.9,67.4c2.8,10.5,6.9,20.8,8.2,31.7
			c0.3,2.6-1.6,4.8-3.2,6.6c0.8,5.6,2.6,11.3,1.7,17c-0.1,4.2-3.9,7-4.5,11c3.4,3,3.4,7.6,4.3,11.7c2.3,16.5,3.5,33.4,1.1,50.1
			c-4.3,25-15.4,48.9-32.5,67.6c-7.1,8.4-15.7,15.4-24,22.6c-2.3,2.1-5.5,1.8-8.3,2.7c-13.8,0.1-27.6,0-41.3,0.1
			c-1.8-0.4-3.5-0.9-5.3-1.4c-6.9-7.7-7.9-18.9-12.3-28.1c-11,6.3-24.4,11-36.9,6.5c-12.6-3.5-26-9.7-32-22.1
			c-7.1-13.6-5-29.4-5.3-44.1c-0.4-8.1,0.8-16.2,0.3-24.3c-6.6-0.9-11.6-6.3-12.9-12.6c-6.6-24.5-14.1-48.7-21.1-73
			c-3.8-0.5-8.9,0-10-4.8c-4.9-17-10.9-33.6-14.6-50.7C44.5,101.7,51.2,90,61.5,86c12.9-5.8,26.4-10.2,39.5-15.6
			c-1.4-3.7-3.4-7.9-1.6-11.9c2.2-6.9,9.1-10.9,15.8-12.4C113.1,35.8,120.7,26.3,129.2,21.5 M130.6,24.8c-8.3,4.2-16.1,15-10.4,24.1
			c-7.4,0.1-16,3.9-17.8,11.7c-1,4.4,2.3,7.8,4.1,11.4c-14,5.3-28.1,10.5-42,16.1c-8.8,3-15.3,12.3-14,21.7
			c3.9,17.6,9.8,34.7,14.8,52c1.2,3.8,6.1,1.9,8.9,1.6c6.6,22.7,13.3,45.3,20,68c1.7,4.9,2.4,10.3,5.4,14.7
			c2.7,3.3,7.1,4.2,10.9,5.4c-1.9,14.8-0.8,29.8-1.2,44.7c-0.4,14.2,4.5,30.1,17.5,37.6c11.4,6.1,24.9,11.2,37.8,7.1
			c6.5-1.2,11.7-6.6,18.1-7.2c2.8,8.8,6.3,17.3,9.4,26c1,2.3,3.3,4.3,6,3.9c13.6,0.1,27.2,0,40.8,0c6.5-0.1,10.5-5.9,15.3-9.4
			c27-22.5,44.5-56,47.5-91.1c1-11.6-0.6-23.1-1.9-34.6c-1.1-5.7-0.7-13.2-6.8-16.1c0.2-2.6,3.6-3.7,4.4-6.2
			c4.2-7,1.8-15.3-0.3-22.6c4.2-2.5,4.4-7.5,2.9-11.8c-8.3-29.2-16.9-58.3-25.3-87.5c-1.7-4.3-3-9.2-6.7-12.3
			c-12.9-10.5-25.4-21.6-38.8-31.6c-4.4-2.9-9.2-5.7-14.7-5.6c-14.5-1.2-27.2,6.9-40.4,11.5C169.4,28.5,147.5,17.3,130.6,24.8z"/>
		<path class="st0" d="M191,167c3-3.2,7-5.3,10.1-8.5c-0.7,4.2-4.4,6.8-7.3,9.6c-7.1,7.3-16.9,10.9-26.3,14.3
			c-11.2,4.1-23.4,4.6-35.2,3.6c3.9-1.3,8-1.6,12-2.2C161.1,182.7,176.6,175.1,191,167z"/>
		<path class="st0" d="M252.2,214.8c6-2.3,11.9-4.8,18-6.8c5.5-2,10.2,2.5,15.1,4.4c-1.8-0.3-5.5-0.8-7.3-1.1c0.1,8-1.3,16.9,3.2,24
			c-0.7-0.4-2.2-1.3-2.9-1.8l-1.9,0.6c1.6-5.7,0.6-11.7,0.3-17.4c-0.1-3-1-7.3-4.7-7.5c-6.1,0.1-11.5,3.5-17,5.7
			c-2,6.2-0.5,12.8-1.1,19.2c-0.4,2.1,0.2,4.1,1,6c-1.1,0.1-3.3,0.4-4.4,0.5C251.4,232,250.4,223.2,252.2,214.8z"/>
		<path class="st0" d="M142.6,248.2l1.8,0.4c-0.6,11.1,1.8,22.1,1.1,33.1c-0.6,0.4-1.9,1.1-2.5,1.4
			C143.1,271.5,142.6,259.8,142.6,248.2z"/>
		<path class="st0" d="M113,254c1.5-0.7,3.1-1.3,4.7-1.8c-7.1,4.4-2.7,14.6-4,21.5c0.9,0.2,2.8,0.7,3.8,0.9c-1.1,1.5-2.6,2-4.6,1.6
			C111.5,269.1,112.3,261.3,113,254z"/>
		<path class="st0" d="M112.7,280.1c2.4-0.6,4.8-1.3,7.2-2.2c-2.4,1.4-4.8,3-6.8,5c-0.2,8.8,1.9,17.6,1,26.3
			C112.8,299.7,111.8,289.7,112.7,280.1z"/>
		<path class="st0" d="M184.5,316.7c4.1-2.7,8.6-4.9,12.7-7.5c-2.1,3.3-5.5,5.4-8.2,8c9,1.9,18.3-0.2,27.4,0.2
			c5.9,0.5,11.6-1.4,17.4-1.5c-2.8,1.7-5.3,4.8-3.4,8.1c4.2,11.3,6.2,23.5,11.5,34.4l0.2,0.2c-1.3,0.4-4,1.2-5.4,1.6
			c0.5-1.2,1.4-3.5,1.9-4.7c-2-9.7-5.2-19.1-8.4-28.5c-1.4-3.6-3.6-8.4-8.2-8.1c-11.9,0.9-24,0-35.7,2c-0.8,2.6-0.3,5.4-0.9,8.1
			C184.7,325.1,182.2,320.6,184.5,316.7z"/>
		<path class="st0" d="M185.4,329.1c3.6,2.8,3.4,8,4.3,12.1C187.8,337.4,187.7,332.8,185.4,329.1z"/>
	</g>
	<g>
		<path class="st1" d="M130.6,24.8c17-7.5,38.8,3.7,43.5,21.5c13.2-4.5,26-12.6,40.4-11.5c5.4-0.1,10.3,2.7,14.7,5.6
			C242.5,50.5,255,61.6,268,72c3.7,3.1,5,7.9,6.4,12.3c8.4,29.2,17,58.3,25.3,87.5c1.4,4.2,1.3,9.2-2.9,11.8
			c2.1,7.3,4.4,15.6,0.3,22.6c-0.8,2.5-4.2,3.6-4.4,6.2c6.1,2.9,5.7,10.4,6.8,16.1c1.3,11.5,3,23,1.9,34.6
			c-3,35.1-20.5,68.5-47.5,91.1c-4.8,3.5-8.8,9.3-15.3,9.4c-13.6,0.1-27.2,0.1-40.8,0c-2.7,0.4-5-1.7-6-3.9c-3-8.7-6.5-17.2-9.4-26
			c-6.4,0.6-11.6,6.1-18.1,7.2c-12.9,4.2-26.4-0.9-37.8-7.1c-13-7.5-17.8-23.4-17.5-37.6c0.4-14.9-0.7-30,1.2-44.7
			c-3.8-1.2-8.2-2.1-10.9-5.4c-3-4.4-3.7-9.8-5.4-14.7c-6.6-22.7-13.4-45.3-20-68c-2.8,0.4-7.7,2.3-8.9-1.6
			c-5.1-17.3-10.9-34.4-14.8-52c-1.3-9.4,5.2-18.7,14-21.7c13.9-5.6,28-10.9,42-16.1c-1.8-3.6-5.1-7-4.1-11.4
			c1.8-7.9,10.4-11.6,17.8-11.7C114.5,39.8,122.3,29,130.6,24.8 M137,27.3l0.4,0.8c-9.4,1-18.7,11.5-13.4,20.9l-0.1,0.2
			c1.8,2,3.7,3.9,5.4,5.9c-6.3-2.9-15.3-3.7-19.7,2.7c-2.1,2-1.8,5-1.9,7.7c1.4,1.5,2.8,3,4.5,4.1l-0.3-0.7l2.2,0.1
			c14.8-6,30.2-10.8,44.8-17.2c3.6-1.2,10.6-0.9,10.7-5.9c-1.9-6.8-7.6-13.2-14.5-14.9C150,26.9,143.2,26.5,137,27.3 M195.7,42
			c-43.1,16.9-86.9,32.3-129.5,50.5c-9.2,3.4-13.7,13.9-10.9,23.1c3.2,13.2,7.7,26.1,11.3,39.2l1.1,1.3v1.4
			c1.4,6.5,8.5-0.4,11.9,3.7l-2.1,0.8c1.7,5.1,2.9,10.3,4.3,15.5c0.2,0.8,0.6,2.4,0.9,3.2c6.1,18.9,11.4,38,17,57l0.1,0.1
			c0.9,4.4,3.9,8.2,8.4,9.1c3.1,0.6,6.3,3.7,9.3,1.9c6.4-1.6,12.7-3.3,19.1-5.2c1.3,0.5,3.8,1.4,5,1.8c7.9-3,16.1-5.5,24.1-8.3
			c0.1,0.9,0.4,2.8,0.5,3.7c-0.8,0.1-2.4,0.4-3.2,0.5l-0.4,1.1c-6.2,1.7-12.6,3.3-18.4,6.1l-1.8-0.4c-0.1,11.7,0.5,23.3,0.4,34.9
			c0.6-0.4,1.9-1.1,2.5-1.4c8.9-5.8,15.9-14.7,26.1-18.4c12.8-0.7,24.8,4.8,36.9,8c9.1,4.1,2.2,16,4.3,23.1
			c15.7-11.8,31.2-28.1,32.5-48.7l0.2,0.6c1.4-10.4,2.4-20.9,2.1-31.3c-3.1-1.1-6.3-0.8-9.1,1.1c-8.4,3-16.7,6.1-25.2,8.8l-0.4,1.3
			c-0.9-0.1-2.9-0.2-3.8-0.2c-0.1-0.9-0.2-2.6-0.2-3.4c10.8-3.6,21.5-7.3,32.2-10.9c2.8-1.1,5.9-0.3,8.8-0.1
			c6.8-2.3,13.3-5.4,20.2-7.3c7.2-1.8,12.8,3.7,18.9,6.3c2-2.1,4-4.2,5.7-6.5c0.6-1.8,1.1-3.5,1.6-5.3c-0.2-5.1-1.5-10-2.7-14.9
			l-1.2-0.4c0-0.9,0.1-2.7,0.1-3.6c3.8-0.4,4.4-4.8,3.4-7.8c-5.2-18.2-10.4-36.3-15.5-54.5c-4.3-13.7-7.1-28-12.8-41.2l-1.3-0.6
			c-12.1-10.2-24.6-20-36.9-30C220,38.1,206.5,37.4,195.7,42 M252.2,214.8c-1.8,8.4-0.7,17.2-1.7,25.8c-0.1,1.1-0.3,3.2-0.4,4.2
			c-2.2,16.3-10.3,31.4-22.2,42.7c-8.7,9.1-20.7,14.1-30.6,21.6c-4.1,2.7-8.6,4.8-12.7,7.5c-2.3,3.9,0.2,8.4,0.9,12.4l0,0
			c2.3,3.7,2.4,8.3,4.3,12.1c2.1,6.3,3.1,13.9,8,18.6c13,0.1,26-0.5,38.9,0.4c1.3-0.4,4-1.2,5.4-1.6l-0.2-0.2
			c34.2-23.8,56.7-64.8,55.9-106.7c0-1.2-0.1-3.7-0.1-5c-0.1-8.9-1.8-17.7-3.3-26.5c-0.7-4.6-5.4-6.2-9.1-7.8
			c-4.9-1.9-9.6-6.5-15.1-4.4C264.1,210,258.2,212.5,252.2,214.8 M132.8,247.8c-5,1.6-10.1,3-15.2,4.4c-1.6,0.5-3.1,1.1-4.7,1.8
			c-0.7,7.3-1.5,15.2-0.2,22.3c0,1-0.1,2.9-0.1,3.9c-0.9,9.6,0.1,19.6,1.4,29.2c1.3,7.6,5.7,14.9,12.1,19.2l0.6-0.1
			c5.9,5.4,14.1,7.5,21.7,9.4c11.6,3.1,22.6-3,32.1-8.8c1.2-3.6-2.5-7.1-1.2-10.7c0.7-4,4.5-5.9,7.5-8c7.1-4.3,14.2-8.9,21.3-13.2
			c1-6.5,1.4-13,1.3-19.6c-0.6-0.6-1.7-1.7-2.2-2.2c-8-2.9-16.1-5.8-24.4-7.4c-6.1-2-12.9-1.5-18,2.7c-8.5,6.5-17,13-25.6,19.4
			c0-4.9,0.1-9.8,0.1-14.7c0.7-8.5,0.2-17,0.1-25.5C139.4,246.9,134.6,245.2,132.8,247.8z"/>
	</g>
	<g>
		<path class="st2" d="M137,27.3c6.2-0.8,13-0.4,18,3.7c3.3,6.5,4.2,13.6,3.9,20.8c-14.6,6.4-30,11.3-44.8,17.2l-2.2-0.1
			c-3.1-3.1-2.9-7.1-2.3-11.1c4.4-6.3,13.3-5.6,19.7-2.7c-1.7-2-3.6-4-5.4-5.9L124,49c2.5-3.4,1.6-8.2,4.4-11.5
			c2.3-3.7,7.1-4.7,9.6-7.9l-0.6-1.4L137,27.3z"/>
		<path class="st2" d="M195.1,44.6c7.4-2.8,16-5.2,23.6-1.4c6.7,2.3,9.7,9.2,11.4,15.5c0.6-2.3-0.2-5.4,2.2-6.9
			c0.1,16,7.4,30.6,10.5,46c-2.4,2.6-5.8,3.8-9.2,4.8c-3.5-1-7.1-1.7-10.7-2.4c-1.4-3.6-2.4-7.3-3.5-11c-0.5,0.2-1.6,0.6-2.1,0.9
			c-3.5-8.9-4.3-18.9-9.3-27.2c-44.8,15.9-89.4,32.6-134.1,48.7c0.1,13.8,8.3,26.4,9.4,40.2c-2.6,2.9-6.5,4.1-10.1,5.3
			c-1.7-1.8-3.6-2.1-5.8-0.9l-1.1-1.3c-3.6-13.1-8.1-26-11.3-39.2c0.8-5.2,0-11.2,3.8-15.3c4.3-4.9,10.7-7.4,16.6-10
			C115.4,74.9,155.3,59.8,195.1,44.6z"/>
	</g>
	<g>
		<path class="st3" d="M124,49c-5.3-9.4,4-19.8,13.4-20.9l0.6,1.4c-2.6,3.2-7.3,4.2-9.6,7.9C125.6,40.7,126.6,45.6,124,49z"/>
	</g>
	<g>
		<path class="st4" d="M155.1,31c7,1.7,12.6,8.1,14.5,14.9c-0.1,5-7.1,4.6-10.7,5.9C159.3,44.6,158.3,37.4,155.1,31z"/>
		<path class="st4" d="M232.4,51.8c4.3,1.4,7.6,4.8,11.1,7.5c7.6,6.1,15.7,11.5,23,18l-0.3-1.6l1.3,0.6c5.7,13.2,8.5,27.5,12.8,41.2
			c5.2,18.2,10.3,36.3,15.5,54.5c1,3,0.4,7.4-3.4,7.8c-6.4-22-13.1-44-19.2-66.2c-1.2-7.9-10.9-12.2-18-10.3c0,0.9-0.1,2.7-0.2,3.7
			c3.8,13.4,8.8,26.6,10.9,40.4c-3.7-0.6-8.2-0.2-11.2-2.7c-4.6-13.6-7.2-28-12.6-41.3c-6.3,0.1-12.3,4.4-18.6,2.2
			c3.4-1,6.8-1.9,10.2-3c3.3-1,6.7-2.2,9.2-4.8C239.8,82.4,232.5,67.7,232.4,51.8z"/>
	</g>
	<g>
		<path class="st5" d="M195.7,42c10.8-4.6,24.3-3.9,33.6,3.7c12.2,10,24.8,19.8,36.9,30l0.3,1.6c-7.3-6.5-15.3-12-23-18
			c-3.5-2.7-6.8-6.1-11.1-7.5c-2.5,1.4-1.7,4.5-2.2,6.9c-1.7-6.3-4.8-13.2-11.4-15.5c-7.6-3.8-16.1-1.4-23.6,1.4
			C155.4,59.8,115.5,75,75.7,90.3c-5.9,2.5-12.2,5-16.6,10c-3.9,4.2-3,10.2-3.8,15.3c-2.8-9.2,1.7-19.8,10.9-23.1
			C108.8,74.3,152.6,58.9,195.7,42z"/>
		<path class="st5" d="M255.1,196.1c8.6-3.3,17.7-1.1,26.1,1.6c4.6,1.6,9.8,2.5,13.3,6.3c-1.7,2.4-3.7,4.4-5.7,6.5
			c-6.1-2.7-11.7-8.1-18.9-6.3c-6.9,1.9-13.4,5-20.2,7.3c-2.9-0.1-6-1-8.8,0.1c-10.8,3.6-21.5,7.3-32.2,10.9
			c-14.3,4.8-28.8,9.1-43,14.6c-8,2.8-16.2,5.3-24.1,8.3c-1.3-0.5-3.8-1.4-5-1.8c-6.3,1.8-12.7,3.5-19.1,5.2c-2.5-0.6-4.9-1.3-7-2.7
			c0.9-3,4.2-3.3,6.7-4.3C163.2,226.5,209.1,211.2,255.1,196.1z"/>
	</g>
	<g>
		<path class="st6" d="M109.6,57.8c-0.6,4-0.8,8,2.3,11.1l0.3,0.7c-1.8-1.1-3.2-2.6-4.5-4.1C107.8,62.8,107.5,59.8,109.6,57.8z"/>
		<path class="st6" d="M167.1,240.7c13.6-4.8,27.1-10.5,41.2-13.1c-2.7,8.1-9.2,14.9-17.8,16.4c2.6-2.4,5.3-5.1,5.7-8.9
			c-9.2,1.5-18,4.6-27,6.8C168.6,241.5,167.6,241,167.1,240.7z"/>
		<path class="st6" d="M136.8,274.2c0.6,0.3,1.9,0.9,2.6,1.2c0.1,4.9-0.1,9.8-0.1,14.7c-0.7,0.2-2.2,0.5-2.9,0.6
			C135.5,285.3,136.9,279.8,136.8,274.2z"/>
	</g>
	<g>
		<path class="st7" d="M74.1,111.6c44.7-16.1,89.3-32.8,134.1-48.7c5,8.3,5.8,18.3,9.3,27.2c2,5.2,2.5,11.1,6.1,15.5
			c6.3,2.2,12.3-2.1,18.6-2.2c5.5,13.3,8,27.7,12.6,41.3c3.1,2.5,7.5,2.1,11.2,2.7c-2.2-13.8-7.1-27-10.9-40.4
			c0-0.9,0.1-2.7,0.2-3.7c7.1-1.9,16.8,2.4,18,10.3c6.1,22.1,12.8,44.1,19.2,66.2c0,0.9-0.1,2.7-0.1,3.6c-0.7-0.3-2.2-0.8-3-1
			c-3.1-9-5.6-18.3-8.5-27.4c-3.6-1.4-7.9-0.8-11.1-3c2.9,0,5.8,0.1,8.7,0.4c1.1-3.5-0.4-7-1.4-10.3c-2.7-10.9-6.3-21.7-9.5-32.3
			l-0.5-0.4c-2.4-0.7-4.9-1.4-7.3-2.2c0.7,2.5,1.3,5.1,2,7.7c0.2,0.5,0.5,1.6,0.7,2.1c0.2,0.8,0.6,2.4,0.9,3.2
			c0.2,0.4,0.5,1.3,0.6,1.7c2.1,8.6,6.3,17,6.2,25.9c-0.4,4.5-5.8,4-9,3.7c-2.9-0.9-6.8-1.1-8.2-4.1c-4.3-13.4-8.4-26.9-12.7-40.3
			c-4.8,1.1-9.5,3.1-14.5,3.1c-4,0.2-6.7-3.4-7.6-6.8c-3.2-10.7-6.3-21.3-9.2-32.1l-1-0.2c-42.2,15.1-84.1,31-126.3,45.9
			c1.4,12.9,8.1,25.2,9.1,38.3c-1.9,3.9-7.3,4.3-10.9,6c-3.5-4.1-10.5,2.8-11.9-3.7c1.4-0.1,4.3-0.4,5.8-0.5
			c3.6-1.1,7.5-2.3,10.1-5.3C82.4,138,74.2,125.4,74.1,111.6z"/>
	</g>
	<g>
		<path class="st8" d="M81.3,116.9C123.6,102,165.5,86,207.6,71l1,0.2c2.9,10.7,6,21.4,9.2,32.1c1,3.4,3.7,7,7.6,6.8
			c5,0.1,9.7-2,14.5-3.1c4.4,13.4,8.4,26.9,12.7,40.3c1.5,3.1,5.3,3.3,8.2,4.1c-1.2,0.1-3.7,0.3-4.9,0.4c1.4,5.3,3.1,10.6,4.1,16
			c-1.8,6.5,2.9,12.6,1.6,19.1c-0.1,4.5-4.8,6.3-8.4,7.5c-41.8,13.8-83.5,27.7-125.3,41.8c-6.4,1.9-12.7,4.8-19.4,5.5
			c-3-1.2-5.8-2.9-8.9-3.9l-0.1-0.1c-5.7-19-10.9-38.1-17-57c8.6,7.4,22.4,1.5,25.6-8.8c4.7-1.1,9.2-2.9,13.6-4.9
			c2.9-2.1,8.8-0.9,9-5.5c-4.2-0.1-8,1.6-11.9,2.7l-0.8,0.2c0.9-2,1.3-4.7,3.9-5.3c6.1-0.3,12.1,1.1,18.1,1.4
			c-4.4-6.1-12.2-9.3-19.1-11.7c-2.9-0.4-7-1.8-9.2,0.7c4.3,1,8.6,2.1,12.8,3.5c-6.9,1.1-14.2,0.2-20.8,3.3c0.1-1.3,0.4-3.9,0.5-5.2
			c-4.4,2.4-9.1,5.9-8.7,11.4l-0.8,2.1l4.9-1.8c-1.7,3.5-6,2.2-8.9,3.8c-4.5,1.7-9.4,5.3-8.9,10.7c-1.5-5.2-2.7-10.4-4.3-15.5
			l2.1-0.8c3.6-1.8,9-2.1,10.9-6C89.4,142.1,82.7,129.8,81.3,116.9 M172.9,115.1c10.8,3.9,23.2,2,33.1-3.5c3.7-2.1,3.2-8.1-0.9-9.3
			c-11.8,0.5-23.6-1.3-35.4-1.2C165.7,105.3,167.4,113,172.9,115.1 M168.8,116.2c-3.5-3.9-5.7-8.6-4.7-13.9
			C158.9,106,162,116.3,168.8,116.2 M125.6,115c3.4,3.7,6.3,8.1,5.5,13.4C136.7,125.4,132,114.1,125.6,115 M196.3,118.3l0.1,0.8
			c-8.9,5.6-11.7,16.5-14.4,25.9c0.6,0.3,1.7,0.9,2.2,1.2c1.8-2.2,3.6-4.5,5.5-6.7l0.8,2.6c9.1-2.7,17.7-8.8,27.5-8.2
			c6.4,7.3,20.4,6.5,24.6-2.7c1.3-3.7-1-7.4-4.1-9.3c-6.9-2.7-14.2,1-21.3-0.7c2.2-0.9,4.4-1.6,6.7-2.1c-3-2-6.9-1.8-10.3-1.3
			C208.3,113.8,202,117.9,196.3,118.3 M98.4,136c-4.2,1.9-1.2,8.8,2.8,8.8c10.2,0.1,19.8-5.7,25.9-13.7c3.5-5.2,0-12-5.5-13.9
			C113.3,122.5,106.9,130.7,98.4,136 M204.3,147.4c-0.1,0.7-0.3,2.1-0.4,2.8c-18.6,17.5-42.9,31.1-69,30.3
			c-6.6,0.5-13.3-2.6-19.8-0.7c-3.3,0.9-4.4,4.3-6,6.9c1.9-0.7,3.6-1.7,5-3.2c14.5,13.7,33.6,24,54,23.7
			c12.1,0.4,23.9-5.5,31.4-14.9c8.6-11.7,14-25.8,16-40.2c1.6,0.2,4.8,0.6,6.3,0.8c-0.1-0.7-0.2-2.1-0.2-2.8
			C216.6,146.6,210.1,146.8,204.3,147.4 M163.7,211.3c5.8,6.1,16.1,5.1,22.9,1.4c0.7-1.9,1.3-3.9,1.8-5.9
			C180.5,209.5,172.3,212.7,163.7,211.3z"/>
		<path class="st8" d="M259.5,107.1c2.4,0.8,4.8,1.5,7.3,2.2c-1.1,0.3-3.4,0.8-4.6,1.1c-0.2,1.1-0.5,3.3-0.7,4.3
			C260.9,112.2,260.3,109.6,259.5,107.1z"/>
		<path class="st8" d="M169.1,241.8c9-2.2,17.9-5.3,27-6.8c-0.4,3.8-3,6.5-5.7,8.9C183.4,244.8,175.6,245.3,169.1,241.8z"/>
		<path class="st8" d="M250,244.8c9.4-2.1,18.8-4.7,28.1-7l2.2,1.5c-3.6,12-5.3,24.6-11.1,35.8c-4,7.4-8.5,14.6-14.4,20.7
			c-6.7,7-11.8,16.2-21.1,20.2c-5.8,0.2-11.5,2.1-17.4,1.5c-9.1-0.4-18.4,1.6-27.4-0.2c2.8-2.6,6.2-4.7,8.2-8
			c9.9-7.5,21.9-12.5,30.6-21.6C239.7,276.2,247.9,261.1,250,244.8z"/>
	</g>
	<g>
		<path class="st9" d="M217.4,90.1c0.5-0.2,1.6-0.6,2.1-0.9c1.1,3.7,2.1,7.4,3.5,11c3.6,0.7,7.2,1.3,10.7,2.4c-3.4,1.1-6.8,2-10.2,3
			C219.9,101.2,219.4,95.3,217.4,90.1z"/>
	</g>
	<g>
		<path class="st10" d="M172.9,115.1c-5.6-2-7.3-9.8-3.1-14c11.8-0.1,23.6,1.7,35.4,1.2c4,1.2,4.6,7.2,0.9,9.3
			C196.1,117,183.7,119,172.9,115.1 M170.2,105.5c0.1,6.3,8.4,5.6,12.8,5.9c4.9-0.4,12-0.3,14.9-4.4c-2.7-1.7-6.2-0.6-9.2-1
			C182.5,106.1,176.2,104,170.2,105.5z"/>
		<path class="st10" d="M98.4,136c8.5-5.3,14.9-13.5,23.3-18.8c5.5,2,9,8.8,5.5,13.9c-6.1,7.9-15.7,13.8-25.9,13.7
			C97.3,144.9,94.2,138,98.4,136 M102.6,138.9c7.2-0.2,13.4-5.4,18.2-10.5c1.6-1.9,4.8-4.1,3.1-7.1l-1.9-0.1
			C116.2,127.7,107.9,132.1,102.6,138.9z"/>
	</g>
	<g>
		<path class="st11" d="M168.8,116.2c-6.8,0.1-9.9-10.2-4.7-13.9C163.1,107.6,165.3,112.3,168.8,116.2z"/>
		<path class="st11" d="M266.8,109.3l0.5,0.4c3.2,10.6,6.8,21.4,9.5,32.3c-0.7,2.9-2.4,5.5-5.5,6.1c0.7-2.6,1.6-5.1,2.4-7.7
			c-6.2-4.7-5.7-13-10-18.8c-0.1-0.4-0.5-1.3-0.6-1.7c2.2-1.8,1.9-2.9-0.9-3.2c-0.2-0.5-0.5-1.6-0.7-2.1c0.2-1.1,0.5-3.2,0.7-4.3
			C263.4,110.1,265.7,109.6,266.8,109.3z"/>
	</g>
	<g>
		<path class="st12" d="M170.2,105.5c6-1.5,12.3,0.6,18.5,0.5c3,0.4,6.5-0.7,9.2,1c-2.9,4.2-10,4-14.9,4.4
			C178.6,111.1,170.3,111.7,170.2,105.5z"/>
	</g>
	<g>
		<path class="st13" d="M125.6,115c6.4-0.9,11.1,10.4,5.5,13.4C131.8,123.1,129,118.7,125.6,115z"/>
	</g>
	<g>
		<path class="st14" d="M196.3,118.3c5.8-0.3,12.1-4.5,17.4-0.6c-3.5,1.4-6.8,3-10.2,4.6c-2.2,0.2-4.4,0.2-6.5-0.1l-0.5-3.1
			L196.3,118.3z"/>
	</g>
	<g>
		<path class="st15" d="M213.7,117.7c3.4-0.4,7.3-0.6,10.3,1.3c-2.3,0.5-4.6,1.2-6.7,2.1c-5.9,0.7-11.5,2.5-16.3,5.8c0,1,0,3,0,4
			c-4,2.2-7.9,4.8-11,8.3c-0.1,0.1-0.1,0.2-0.2,0.2c-1.9,2.2-3.6,4.4-5.5,6.7c-0.6-0.3-1.7-0.9-2.2-1.2c2.7-9.4,5.5-20.3,14.4-25.9
			l0.5,3.1c-3.7,2.1-5.5,6.3-7.1,9.9c4.2-3.7,8.3-7.7,13.6-9.9C206.8,120.7,210.2,119.1,213.7,117.7z"/>
	</g>
	<g>
		<path class="st16" d="M262.3,116.8c2.8,0.3,3.1,1.4,0.9,3.2C262.9,119.2,262.5,117.6,262.3,116.8z"/>
		<path class="st16" d="M164.8,270.7c5.1-4.2,11.9-4.7,18-2.7c-3.2,0.6-7.1-0.3-9.7,1.9c-1.6,5.6-0.6,11.6-2.5,17.1l-1.5-1.8
			c-0.4,8.1-0.7,16.4-4.4,23.9l1.4,0.8c-11.8,8.5-24.3,17.8-39.4,18.7l-0.6,0.1c-6.5-4.4-10.8-11.7-12.1-19.2c1-8.8-1.1-17.5-1-26.3
			c2-2,4.4-3.6,6.8-5c4.9-1.7,9.8-3.2,14.7-4.6l2.1,0.9c0.1,5.5-1.3,11.1-0.4,16.6c0.7-0.1,2.2-0.5,2.9-0.6
			C147.8,283.7,156.3,277.2,164.8,270.7z"/>
	</g>
	<g>
		<path class="st17" d="M217.2,121.1c7.1,1.8,14.4-2,21.3,0.7c3.1,1.9,5.4,5.5,4.1,9.3c-4.2,9.2-18.2,10-24.6,2.7
			c-0.5-0.4-1.4-1.1-1.8-1.4c-4,0.6-8,1.5-12,1.9c-0.8-0.9-2.4-2.6-3.2-3.5c0-1,0-3,0-4C205.8,123.6,211.4,121.8,217.2,121.1
			 M204.4,130.3c4.3,0.8,7.6-3.2,11.9-2.6c1.1,1.3,2.3,2.5,3.6,3.5c4.3,7.5,15.9,5.8,20.5-0.5c0.6-2.9-1.3-5.1-3.3-6.8
			c-4.1-0.1-8.3-0.4-12.5,0.3c-1.4,1.2-2.6,2.7-4.3,3.3c-0.5-0.9-1.5-2.7-2-3.7C213.1,123,206.2,124.6,204.4,130.3z"/>
	</g>
	<g>
		<path class="st18" d="M102.6,138.9c5.3-6.7,13.5-11.1,19.4-17.7l1.9,0.1c1.7,3-1.5,5.1-3.1,7.1C116,133.5,109.9,138.6,102.6,138.9
			z"/>
	</g>
	<g>
		<path class="st19" d="M196.9,122.2c2.2,0.3,4.3,0.3,6.5,0.1c-5.3,2.1-9.4,6.1-13.6,9.9C191.5,128.5,193.2,124.3,196.9,122.2z"/>
		<path class="st19" d="M95.6,162.6c-0.3-5.5,4.4-9,8.7-11.4c-0.1,1.3-0.4,3.9-0.5,5.2C100.7,158,98.2,160.4,95.6,162.6z"/>
		<path class="st19" d="M261.8,186.9c1.3-6.5-3.4-12.6-1.6-19.1c2,6.9,2.6,14.4,6.5,20.6c4.7,4.1,10.9,5.8,16.6,8.1
			c4.2,1.2,8.5,3.9,12.9,2.2c-0.4,1.8-1,3.5-1.6,5.3c-3.5-3.8-8.7-4.7-13.3-6.3c-8.4-2.6-17.6-4.9-26.1-1.6
			c-46,15.1-91.9,30.4-137.9,45.6c-2.5,1-5.8,1.4-6.7,4.3c2.1,1.4,4.6,2.2,7,2.7c-3.1,1.8-6.3-1.3-9.3-1.9c-4.5-0.9-7.6-4.7-8.4-9.1
			c3.1,1.1,5.9,2.7,8.9,3.9c6.7-0.7,13-3.5,19.4-5.5c41.7-14.1,83.5-28,125.3-41.8C257,193.2,261.6,191.4,261.8,186.9z"/>
		<path class="st19" d="M164.8,309.1c3.6-7.5,4-15.7,4.4-23.9l1.5,1.8c-0.5,5.8-1.5,12,0.1,17.7c3.7,2.5,8.4,2.7,12.5,4.5
			c-5.6-0.9-11.9-2.9-17,0.6L164.8,309.1z"/>
	</g>
	<g>
		<path class="st20" d="M263.7,121.8c4.3,5.8,3.8,14.1,10,18.8c-0.9,2.5-1.8,5.1-2.4,7.7c3.2-0.6,4.8-3.3,5.5-6.1
			c1.1,3.3,2.6,6.8,1.4,10.3c-2.9-0.2-5.8-0.3-8.7-0.4c3.3,2.2,7.5,1.6,11.1,3c2.9,9.1,5.4,18.3,8.5,27.4c0.7,0.3,2.2,0.8,3,1
			l1.2,0.4c1.2,4.9,2.5,9.8,2.7,14.9c-4.4,1.6-8.7-1.1-12.9-2.2c-5.7-2.2-11.9-4-16.6-8.1c-3.8-6.2-4.5-13.7-6.5-20.6
			c-1-5.4-2.6-10.7-4.1-16c1.2-0.1,3.7-0.3,4.9-0.4c3.2,0.3,8.6,0.8,9-3.7C270.1,138.7,265.9,130.3,263.7,121.8z"/>
		<path class="st20" d="M173.2,269.9c2.6-2.1,6.6-1.3,9.7-1.9c8.4,1.6,16.4,4.6,24.4,7.4c0.6,0.6,1.7,1.7,2.2,2.2
			c0.1,6.5-0.3,13.1-1.3,19.6c-7.2,4.3-14.2,8.8-21.3,13.2c-0.9-0.3-2.7-0.9-3.6-1.3c-4.1-1.8-8.8-1.9-12.5-4.5
			c-1.7-5.7-0.6-11.9-0.1-17.7C172.5,281.5,171.5,275.5,173.2,269.9z"/>
	</g>
	<g>
		<path class="st21" d="M204.4,130.3c1.9-5.6,8.7-7.2,14-6.5c0.5,0.9,1.5,2.7,2,3.7c1.8-0.6,3-2.2,4.3-3.3c3,3.3,7.6,3.1,11.7,3.3
			c-2.4,6.6-11.1,2.3-16.5,3.8c-1.3-1.1-2.5-2.2-3.6-3.5C212,127.1,208.7,131,204.4,130.3z"/>
	</g>
	<g>
		<path class="st22" d="M224.7,124.1c4.1-0.7,8.3-0.4,12.5-0.3c-0.2,0.9-0.6,2.7-0.8,3.5C232.3,127.2,227.8,127.4,224.7,124.1z"/>
	</g>
	<g>
		<path class="st23" d="M237.2,123.8c2,1.7,3.9,3.9,3.3,6.8c-4.7,6.3-16.3,8-20.5,0.5c5.3-1.4,14,2.8,16.5-3.8
			C236.6,126.5,237,124.7,237.2,123.8z"/>
	</g>
	<g>
		<path class="st24" d="M190,139.3c3-3.5,6.9-6.1,11-8.3c0.8,0.9,2.4,2.6,3.2,3.5C198.9,134.7,195.1,139.6,190,139.3z"/>
	</g>
	<g>
		<path class="st25" d="M204.1,134.4c4-0.4,8-1.4,12-1.9c0.5,0.3,1.4,1,1.8,1.4c-9.8-0.5-18.4,5.5-27.5,8.2l-0.8-2.6
			c0.1-0.1,0.1-0.2,0.2-0.2C195.1,139.6,198.9,134.7,204.1,134.4z"/>
		<path class="st25" d="M163.7,211.3c8.6,1.4,16.8-1.8,24.7-4.5c-0.5,2-1.1,4-1.8,5.9C179.8,216.4,169.5,217.4,163.7,211.3z"/>
	</g>
	<g>
		<path class="st26" d="M111.8,149.6c2.2-2.5,6.3-1.1,9.2-0.7c7,2.4,14.8,5.6,19.1,11.7c-6.1-0.4-12-1.7-18.1-1.4
			c-7.4-3.3-16.1-0.9-22.4,3.8l-4.9,1.8l0.8-2.1c2.6-2.3,5.2-4.6,8.2-6.2c6.6-3.1,13.9-2.3,20.8-3.3
			C120.4,151.7,116.1,150.6,111.8,149.6z"/>
	</g>
	<g>
		<path class="st27" d="M204.3,147.4c5.8-0.7,12.3-0.8,17.2,2.8c0.1,0.7,0.2,2.1,0.2,2.8c-1.6-0.2-4.8-0.6-6.3-0.8
			c-1.9,14.4-7.3,28.5-16,40.2c-7.5,9.4-19.3,15.3-31.4,14.9c-20.4,0.3-39.4-10-54-23.7c-1.4,1.4-3.1,2.5-5,3.2c1.6-2.6,2.7-6,6-6.9
			c6.5-1.9,13.2,1.2,19.8,0.7c26.2,0.8,50.5-12.7,69-30.3C204,149.5,204.2,148.1,204.3,147.4 M201.3,157.6l-0.3,0.9
			c-3.1,3.1-7.1,5.2-10.1,8.5c-14.4,8-29.8,15.6-46.6,16.8c-6.7-0.3-13.4-1.6-20,0c-2.1-0.2-4.1-0.4-6.2-0.3
			c9.4,6.8,18.9,14,30.4,17.1c9.1,3.2,18.9,2.7,28.4,2.1l0.2-1.8c-1.1,0-3.4,0-4.5,0c0.4-0.7,1.1-2.1,1.4-2.8
			c-1.3-2.3-4.4-2-6.4-3.4c-1.5-2.3-2.7-4.7-4.1-7c11.2-3.1,21.9-8.1,31.3-14.9c5.7-4.1,11.1-10.4,10.5-17.9
			C204.4,155.6,202.3,156.9,201.3,157.6 M174.6,196.3l-0.5,2.7c9.6,0.6,16.4-8.2,23.3-13.9l0.1-3.5
			C187.9,181.6,181.4,190.5,174.6,196.3z"/>
	</g>
	<g>
		<path class="st28" d="M67.6,156.1c2.2-1.2,4.1-0.9,5.8,0.9c-1.4,0.1-4.3,0.4-5.8,0.5V156.1z"/>
	</g>
	<g>
		<path class="st29" d="M201.3,157.6c1-0.7,3-2,4.1-2.6c0.6,7.5-4.8,13.8-10.5,17.9c-9.4,6.8-20.1,11.8-31.3,14.9
			c-8.9,1.9-18.1,2.6-27.3,2.5c-4.8-0.2-9.1-2.6-12-6.4c6.6-1.6,13.4-0.3,20,0c-4,0.5-8.1,0.8-12,2.2c11.8,1,24,0.5,35.2-3.6
			c9.4-3.4,19.2-7,26.3-14.3c2.9-2.7,6.6-5.3,7.3-9.6L201.3,157.6z"/>
	</g>
	<g>
		<path class="st30" d="M99.6,163c6.3-4.7,15-7.1,22.4-3.8c-2.6,0.5-3,3.3-3.9,5.3c-4.1,1.1-7.8,3.8-9.9,7.4
			c-3.1,10.2-16.9,16.2-25.6,8.8c-0.2-0.8-0.6-2.4-0.9-3.2c-0.5-5.4,4.4-9,8.9-10.7C93.6,165.1,97.9,166.4,99.6,163 M100.4,167.6
			c-5.6,0.6-12.8,0.4-15.2,6.8l-0.8-0.4c0.1,1.3,0.2,4,0.2,5.3c7.4,5.5,20.4,1.2,21.2-8.6c2.4-3.1,5.5-5.6,8.6-8.1l1.7-0.4
			C110.9,157.7,102.6,161.7,100.4,167.6z"/>
	</g>
	<g>
		<path class="st31" d="M100.4,167.6c2.2-5.9,10.5-9.9,15.6-5.5l-1.7,0.4c-8.6,0.1-9.7,10.9-17.3,13c-3.9,2.1-8.4,1.2-11.9-1.2
			C87.6,168.1,94.8,168.2,100.4,167.6z"/>
	</g>
	<g>
		<path class="st32" d="M97.1,175.5c7.5-2.1,8.6-12.9,17.3-13c-3,2.5-6.2,5-8.6,8.1c-0.8,9.7-13.8,14.1-21.2,8.6
			c-0.1-1.3-0.2-4-0.2-5.3l0.8,0.4C88.7,176.8,93.2,177.6,97.1,175.5z"/>
	</g>
	<g>
		<path class="st33" d="M118.9,164.2c3.9-1.1,7.7-2.8,11.9-2.7c-0.2,4.6-6.1,3.4-9,5.5C121.1,166.3,119.7,164.9,118.9,164.2z"/>
	</g>
	<g>
		<path class="st34" d="M108.2,171.9c2.2-3.7,5.8-6.3,9.9-7.4l0.8-0.2c0.7,0.7,2.2,2.1,2.9,2.8C117.4,168.9,112.9,170.8,108.2,171.9
			z"/>
	</g>
	<g>
		<path class="st35" d="M118.2,183.5c2.1,0,4.1,0.1,6.2,0.3c2.9,3.8,7.2,6.2,12,6.4c9.1,0.1,18.3-0.6,27.3-2.5
			c1.4,2.3,2.7,4.7,4.1,7c2,1.4,5.1,1.1,6.4,3.4c-0.3,0.7-1,2.1-1.4,2.8c1.1,0,3.4,0,4.5,0l-0.2,1.8c-9.5,0.6-19.3,1.1-28.4-2.1
			C137.1,197.5,127.6,190.3,118.2,183.5z"/>
	</g>
	<g>
		<path class="st36" d="M174.6,196.3c6.8-5.8,13.3-14.8,22.9-14.6l-0.1,3.5c-6.8,5.8-13.7,14.5-23.3,13.9L174.6,196.3z"/>
	</g>
	<g>
		<path class="st37" d="M254.9,214.9c5.5-2.2,10.9-5.6,17-5.7c3.7,0.2,4.6,4.5,4.7,7.5c0.3,5.8,1.3,11.8-0.3,17.4
			c-7.2,2.1-14.5,3.7-21.6,6c-0.9-1.9-1.4-3.9-1-6C254.4,227.7,252.9,221,254.9,214.9z"/>
		<path class="st37" d="M117.7,252.2c5.1-1.4,10.1-2.8,15.2-4.4c1,0.2,3,0.5,4,0.6c1.6,6.5,0.5,13.6,0.5,20.3
			c-6.7,1.7-13.3,4-19.9,6c-0.9-0.2-2.8-0.7-3.8-0.9C115,266.8,110.6,256.6,117.7,252.2z"/>
	</g>
	<g>
		<path class="st38" d="M278,211.3c1.8,0.3,5.5,0.8,7.3,1.1c3.7,1.6,8.4,3.2,9.1,7.8c1.5,8.8,3.2,17.6,3.3,26.5
			c-5.7-3.5-11-7.5-16.5-11.4C276.7,228.2,278.1,219.3,278,211.3z"/>
	</g>
	<g>
		<path class="st39" d="M238.4,216.1c2.7-1.8,6-2.2,9.1-1.1c0.4,10.4-0.7,21-2.1,31.3l-0.2-0.6c0.1-9.9,0.4-19.8-0.3-29.7
			C243.2,216,240,216.1,238.4,216.1z"/>
	</g>
	<g>
		<path class="st40" d="M213.2,224.9c8.5-2.6,16.8-5.8,25.2-8.8c1.6,0,4.8-0.1,6.4-0.1c0.7,9.9,0.4,19.8,0.3,29.7
			c-1.3,20.6-16.8,36.9-32.5,48.7c-2-7.1,4.8-19.1-4.3-23.1c-12.1-3.2-24.1-8.7-36.9-8c-10.1,3.7-17.2,12.6-26.1,18.4
			c0.7-11.1-1.7-22-1.1-33.1c5.8-2.8,12.2-4.4,18.4-6.1c8.3,7.2,20.2,6.9,30.3,4.8c10.1-2.1,17.8-11.1,19.8-21L213.2,224.9z"/>
	</g>
	<g>
		<path class="st41" d="M165.8,237.1c14.1-5.4,28.6-9.8,43-14.6c0.1,0.9,0.2,2.6,0.2,3.4c-0.2,0.4-0.5,1.2-0.7,1.6
			c-14.1,2.6-27.6,8.4-41.2,13.1l-0.8,0.1C166.2,239.9,165.9,238,165.8,237.1z"/>
	</g>
	<g>
		<path class="st42" d="M209,225.9c1,0.1,2.9,0.2,3.8,0.2c-2,9.9-9.7,18.9-19.8,21s-22,2.4-30.3-4.8l0.4-1.1
			c0.8-0.1,2.4-0.4,3.2-0.5l0.8-0.1c0.5,0.3,1.5,0.9,2,1.2c6.5,3.5,14.3,3,21.4,2.1c8.6-1.5,15.1-8.3,17.8-16.4
			C208.5,227.1,208.8,226.3,209,225.9z"/>
	</g>
	<g>
		<path class="st43" d="M254.8,240c7.1-2.3,14.4-3.8,21.6-6l1.9-0.6c0.7,0.4,2.2,1.3,2.9,1.8c5.4,3.9,10.8,7.9,16.5,11.4
			c0,1.3,0.1,3.8,0.1,5c-5.9-4-11.8-8-17.4-12.5l-2.2-1.5c-9.4,2.3-18.7,4.9-28.1,7c0.1-1.1,0.3-3.2,0.4-4.2
			C251.5,240.4,253.7,240.2,254.8,240z"/>
	</g>
	<g>
		<path class="st44" d="M280.4,239.3c5.6,4.5,11.5,8.4,17.4,12.5c0.8,41.8-21.7,82.9-55.9,106.7c-5.3-10.9-7.3-23-11.5-34.4
			c-1.9-3.4,0.6-6.4,3.4-8.1c9.3-4,14.4-13.1,21.1-20.2c5.9-6.1,10.4-13.3,14.4-20.7C275.1,263.8,276.8,251.2,280.4,239.3z"/>
	</g>
	<g>
		<path class="st45" d="M132.8,247.8c1.8-2.6,6.6-0.9,6.6,2.2c0.2,8.5,0.6,17-0.1,25.5c-0.6-0.3-1.9-0.9-2.6-1.2l-2.1-0.9
			c-5,1.4-9.9,2.9-14.7,4.6c-2.4,0.9-4.8,1.6-7.2,2.2c0-1,0.1-2.9,0.1-3.9c2,0.4,3.5-0.1,4.6-1.6c6.6-1.9,13.2-4.3,19.9-6
			c0-6.7,1.1-13.8-0.5-20.3C135.8,248.3,133.9,248,132.8,247.8z"/>
	</g>
	<g>
		<path class="st46" d="M166.2,309.8c5.2-3.5,11.4-1.5,17-0.6c0.9,0.3,2.7,0.9,3.6,1.3c-3,2.1-6.8,4-7.5,8
			c-1.3,3.7,2.4,7.1,1.2,10.7c-9.5,5.8-20.6,11.9-32.1,8.8c-7.6-2-15.8-4-21.7-9.4C142,327.7,154.4,318.4,166.2,309.8z"/>
	</g>
	<g>
		<path class="st47" d="M186.3,321c11.7-2,23.9-1.1,35.7-2c4.6-0.3,6.8,4.5,8.2,8.1c3.2,9.4,6.4,18.8,8.4,28.5
			c-0.5,1.2-1.5,3.5-1.9,4.7c-13-0.9-26-0.2-38.9-0.4c-5-4.7-6-12.3-8-18.6c-0.9-4.1-0.6-9.3-4.3-12.1l0,0
			C186,326.4,185.6,323.6,186.3,321z"/>
	</g>
</g>
</svg>
