<?xml version="1.0" encoding="utf-8"?>
<!-- Generator: Adobe Illustrator 23.0.0, SVG Export Plug-In . SVG Version: 6.00 Build 0)  -->
<svg version="1.1" id="Layer_1" xmlns="http://www.w3.org/2000/svg" xmlns:xlink="http://www.w3.org/1999/xlink" x="0px" y="0px"
	 viewBox="0 0 400 400" style="enable-background:new 0 0 400 400;" xml:space="preserve">
<style type="text/css">
	.st0{fill:#FEFDFD;}
	.st1{fill:#050102;}
	.st2{fill:#6D3717;}
	.st3{fill:#FFB9A9;}
	.st4{fill:#3F1905;}
	.st5{fill:#200F0F;}
	.st6{fill:#3F1909;}
	.st7{fill:#8A563B;}
	.st8{fill:#4A1F08;}
	.st9{fill:#FEBBBB;}
	.st10{fill:#85544D;}
	.st11{fill:#7A492E;}
	.st12{fill:#EC584A;}
	.st13{fill:#E3797A;}
	.st14{fill:#F88B6F;}
	.st15{fill:#FD9692;}
	.st16{fill:#D5715F;}
	.st17{fill:#00DAC5;}
	.st18{fill:#9E625A;}
	.st19{fill:#0F7266;}
	.st20{fill:#B37F75;}
	.st21{fill:#4FC1B6;}
	.st22{fill:#01A793;}
	.st23{fill:#64CEC8;}
	.st24{fill:#6AD6CF;}
	.st25{fill:#01457B;}
	.st26{fill:#0374B3;}
	.st27{fill:#794544;}
	.st28{fill:#7A3F41;}
	.st29{fill:#FEA9A9;}
	.st30{fill:#E57D7F;}
	.st31{fill:#9F3D3B;}
	.st32{fill:#FEA1A1;}
	.st33{fill:#D76C6C;}
	.st34{fill:#9E4544;}
	.st35{fill:#923838;}
	.st36{fill:#F7BEBD;}
	.st37{fill:#FEA4A7;}
	.st38{fill:#D06564;}
	.st39{fill:#E79593;}
	.st40{fill:#E88686;}
	.st41{fill:#FEA4A4;}
	.st42{fill:#653A39;}
	.st43{fill:#321C1A;}
	.st44{fill:#623937;}
	.st45{fill:#F69293;}
	.st46{fill:#383B48;}
	.st47{fill:#232223;}
	.st48{fill:#D16667;}
	.st49{fill:#684140;}
	.st50{fill:#EDC3BF;}
	.st51{fill:#A73E40;}
	.st52{fill:#262A33;}
	.st53{fill:#FA9A99;}
	.st54{fill:#F8CECB;}
	.st55{fill:#F4908F;}
	.st56{fill:#D36869;}
	.st57{fill:#E98081;}
	.st58{fill:#E9455F;}
	.st59{fill:#EB8283;}
	.st60{fill:#A34342;}
	.st61{fill:#E88181;}
	.st62{fill:#784645;}
	.st63{fill:#734242;}
	.st64{fill:#663234;}
	.st65{fill:#7A4242;}
	.st66{fill:#371B19;}
	.st67{fill:#96635F;}
</style>
<g>
	<g>
		<path class="st0" d="M28.5,36.6L28.5,36.6c0,0.1,0,0.1,0,0.2V36.6z"/>
		<path class="st0" d="M170.2,42.1c4.6-3.6,11-3.2,16.4-2.1c13.6,3.2,27,6.9,40.4,10.9c1-7.6,9.7-8.3,14.8-4.3
			c5.3-5.1,14.1-3.6,17.6,2.7c4.5,5.1,1.7,13.8,8,17.4c8.8,7.3,18.9,13.7,25.4,23.4c6.3,3.4,16,4.6,18,12.7
			c1.3,6.1,5.3,12.6,3.1,18.9c-18.6,25.1-45.3,44.1-75.4,52.8c-0.1,3.8-0.3,7.6,0.4,11.3c1.3,2.8,4.9,2.7,7.4,3.9
			c3.7-4,11.6-5.3,14.4,0.3c7.3,0.3,14.9-0.3,21.8,2.5c4,8.6,19.4,10.8,8.2,24l-2.3-13.8c1.4,2.7-5.1,13.1,1.8,11.5l1.6,3.8
			c-4.8,4.7-7.6,11.1-13,15.1c1.1,2.5,1.7,5.3,3.5,7.4c11.4,3.8,23.7,2.5,35.4,0.8c7.7,4,13.6,11.2,21.7,15c1.8,7-0.6,14.1-3.4,20.4
			c-0.9,2.1-3.1,3-5,4c-2,4.6-2.6,11.2-8.2,13c-20.8,2.1-42.1-3.6-59.5-15c-15.6,13.1-32.3,25-49.8,35.5
			c-0.1,16.8-1.5,33.6-4.7,50.1c-0.5,2-1.5,4.1-3.5,5.1c-5.3,3-10.9,5.7-16.8,7.3c-10.2-2.1-20.2-5.7-30.1-9.1
			c-3.2-1-4.5-4.8-3.2-7.7c3.2-11.5,7.1-22.8,9.3-34.6c-1.7,0.1-5.2,0.2-7,0.3c-7.3,12.2-14.8,24.6-25.5,34.2
			c-3.6,3.3-8.3,0.5-11.8-1.5c-6.4-3.7-13.6-6.1-19.6-10.6c-3.9-6.5-8.4-13.2-9.5-20.9c4.6-3.7,9.5-6.9,14-10.6
			c-9.1-1.7-22.6-2-25.2-13c-0.1-15,0.9-29.9,1.8-44.9c-4.1,1.7-10.3,5.1-13.1-0.4c-1.5-3.8-3.9-8.5-2-12.4
			c5.4-6.7,12.9-11.7,17.2-19.2c0.4-7.1,3.3-14.1,9.2-18.3c8.1-6,15.2-13.6,24.4-17.8c12-0.2,23.8,3.3,35.8,4.7
			c-2.2-18.1,0.5-36.8,9-53.1c-2.6-3.8-5.5-7.4-9.2-10.2c-3.9-3-3.7-8.4-5.5-12.6c-6.9-14.6-12-30.3-13.1-46.4
			c-0.8-3.9,2.2-7.4,5.8-8.4c7.1-2.5,14-5.7,21.3-7.4C164.3,52,165.8,46,170.2,42.1 M166.7,54.1c-1.6,1.9-2.4,4.3-3.5,6.4
			c-9,0.8-17.6,4.8-25.5,8.9c-0.2,17.4,5.9,34.5,13.3,50c1.5,3.4,0.8,8,4.3,10.2c4.7,3.1,7.4,8.1,10.6,12.5
			c-9.6,17.1-12.3,37.4-9,56.6c-10.4-1.7-20.8-3.1-31.2-4.9c-3.3-0.5-7-1.5-10,0.7c-8.3,5.6-16,12-23.5,18.5
			c-4.8,3.9-4.6,10.3-5.9,15.7c-5.1,7.1-12.2,12.4-17.5,19.2c0,3.8,1.9,7.3,3.4,10.7c4.7-1.1,8.9-3.5,12.7-6.3
			c-0.2,17.6-2.8,35.3-1.5,52.8c6.8,8.7,19.7,6.9,29.4,9.7c-6,5.1-12.9,8.9-18.7,14.2c3.7,6.6,5.3,15.6,12.5,19.4l0.2,0.4l0.5-0.2
			c7.1,3.2,13.7,7.6,21,10.2c12.1-9.7,20.2-23.6,27.5-37c4.2,0.5,8.4,1,12.5,1.7c-2.3,10.2-5.4,20.2-8,30.4l-1.2-0.5
			c0.2,0.3,0.7,0.9,0.9,1.2c-1,3.1-1.9,6.2-2.8,9.4c10,4.2,20.4,7.5,31,9.9c5.8-2,12-4,16.8-8c4.2-17.2,5-35.2,5.3-52.9
			c18.6-11.3,36.2-24,53-37.8c14.9,11.1,33.7,16.3,52.2,16.4c3.4-0.1,8.3,0.4,9.5-3.7c3.7-9.3,6.1-19.2,7.6-29.1
			c1-3.3-3-4.4-4.9-6.2c-1.3-1.1-2.7-2.1-4.1-3.1c-3-2.1-5.6-6.4-9.9-4.6c-11.4,2.4-23.1,1.4-34.3-1.6c-1.7-3.8-3.2-7.6-4.7-11.5
			c2.1-1.4,4.3-2.9,6.3-4.4c0.5-3.6,0.3-7.4,2.5-10.4c-0.8-7.3-0.3-14.9-2.8-21.9c-9.9-1.3-20.4-3.2-30.1-0.7
			c0.3-1.2,0.9-3.6,1.2-4.8c-4.2,2-8.5,3.9-12.9,5.5c-0.5-1.8-1.1-3.5-1.6-5.3c-3.3-5.3-2.7-12-1.4-17.9c29.9-8.2,56.4-27,75-51.7
			c1-5.5-2-10.9-3.3-16.1c-2.3-10.1-17.5-6.6-20.3-16.3c-4.5-4.5-9.3-8.6-14.3-12.6l-0.7-0.2c-3.8-3.4-7.9-6.4-11.8-9.6
			c-0.9-6.8-1.7-15.6-9-18.6c-4-1.6-7.2,1.5-8.5,5c-3.4-3-9.8-7.6-13.2-1.9h-0.7c0.4,0.7,1.3,2.2,1.7,3c0.1,0.8,0.4,2.3,0.5,3.1
			c-13.6-4.9-27.6-8.4-41.6-12c-5.2-1.2-10.9-2.7-16.1-0.6C169.8,45.4,168.2,50.1,166.7,54.1z"/>
		<path class="st0" d="M300.7,99.2c2,1.8,3.9,3.7,4.9,6.2c-1,1.1-2.9,3.2-3.9,4.2C303,106.1,302,102.6,300.7,99.2z"/>
		<path class="st0" d="M182.7,111.3c7.9,2.1,16.2,1.1,24,2.9c0.5,0.8,1.5,2.3,2.1,3.1c-2.3,0-4.6,0-7,0l0.1,1.9
			c-2.9-0.1-5.8-0.1-8.6-0.2c-2.1-1.3-4.6-1.6-7-1.9c-1.1-1.5-2.2-3-3.2-4.6L182.7,111.3z"/>
		<path class="st0" d="M155.8,127.2c-2.4-2.5-1.1-6.3-0.7-9.3c0.4,2.3,0.8,4.7,1.3,7c2.6,2,5.2,4.1,7.9,6
			C161.4,129.7,158.3,129.1,155.8,127.2z"/>
		<path class="st0" d="M222.3,148.9c8.2-3.1,16-7.4,23.4-12.2c-0.4,0.4-1.1,1.1-1.5,1.5s-1.2,1.1-1.7,1.5c-6.3,4.4-13.7,6.9-20,11.3
			c-0.8,3.6-0.8,7.4-1.1,11.1c8-1.6,16.8-2.9,23.1-8.5c0.7,0.3,2,1,2.6,1.3l-1.1,0.4c-7,3.2-14.3,5.9-21.8,7.7
			c-1.3-0.2-2.6-0.4-3.9-0.7C220.9,157.9,221.5,153.4,222.3,148.9z"/>
		<path class="st0" d="M158.8,194.4c-0.8-10.1-0.6-20.3,1.6-30.1c-0.5,9.6-1.1,19.3,0.1,28.9c2.9,1,5.6,2.1,8.5,3.1
			C165.7,195.6,162.2,195,158.8,194.4z"/>
		<path class="st0" d="M248.2,195.7c6,1.7,11.4,5.2,13.8,11.1c-1.1-0.5-3.4-1.5-4.5-2c-2.8,2.4-5.7,4.7-8.4,7.1
			c2.4-3.8,5.4-7.1,8.7-10.1C255.3,200.3,250.5,197.3,248.2,195.7z"/>
		<path class="st0" d="M91.1,219.4c1.5-4.5,6-7,9.5-9.8c-1.8,2.9-3.2,6-4.5,9.1c3.7,0.5,7.5,1,11.2,1.5c22.5,4,45.1,6.9,67.6,10.6
			c5.3,1.4,9.9-1.5,14.1-4.3c-4.1,3.7-6.4,8.7-6.5,14.2c-1-2.5-1.7-5.3-3.7-7.1c-3.8-1.8-8.1-2.1-12.2-2.8
			c-24.4-3.2-48.7-7.7-73.2-10.7c-3.9,10.8-2.9,22.6-3.9,33.8c-1,14.2-2.6,28.5-2.4,42.7c-0.3,4.1,2,7.7,3.8,11.2
			c-2.5-1.9-6.2-3.8-5.5-7.5c1.4-18.4,1.7-36.9,3.2-55.3c0.4-4.9,0.7-9.8,0.9-14.8C89.9,226.5,90.1,222.8,91.1,219.4z"/>
		<path class="st0" d="M286,248c6.5,1.1,13.5-0.3,19.5,2.7C298.9,250.7,292.3,250.1,286,248z"/>
		<path class="st0" d="M103.8,251c5.1,0.1,10.1,0.5,15,1.8c0,3.2-0.1,6.4-0.2,9.6c-7.8-3.8-17.2-3.1-25.3-0.9
			c0.5-0.3,1.4-1.1,1.9-1.4c2.5-0.6,5-1.1,7.4-1.8C103.2,255.8,103.6,253.4,103.8,251z"/>
		<path class="st0" d="M150.8,258.3c4.7-0.2,9.3,0.2,13.8,1.4c-0.5,2.5-0.6,5-0.3,7.5c3.2,2,6.9,3.1,9.6,5.9c-5.2-3.8-11.7-5-18-4.4
			l-0.2-0.9c0.1-0.4,0.2-1.1,0.3-1.5c-1.9,0.2-5.8,0.5-7.8,0.7C149.1,264.1,149.9,261.2,150.8,258.3z"/>
	</g>
	<g>
		<path class="st1" d="M166.7,54.1c1.5-4,3.1-8.7,7.2-10.7c5.2-2.1,10.9-0.6,16.1,0.6c14,3.6,28,7,41.6,12c-0.1-0.8-0.4-2.3-0.5-3.1
			c6.7,7.7,17.8,7.7,26.7,11.4c-0.9-5.5-0.9-14.1-8.1-15.1c-0.6,0.2-1.8,0.5-2.4,0.7c-0.4,1.5-1.3,4.4-1.7,5.9
			c-5.3-2.2-9-8.2-15.5-5.9c3.4-5.7,9.8-1.1,13.2,1.9c1.3-3.5,4.5-6.6,8.5-5c7.2,3,8.1,11.9,9,18.6c4,3.1,8.1,6.2,11.8,9.6
			c-2.5-0.6-5-1.2-7.2-2.7c-7.9-7.8-19.1-10-29.4-13c-18.8-5.1-37.2-12.4-56.7-14.3c-5.3-1.2-7.6,4.3-10.3,7.8L166.7,54.1z"/>
		<path class="st1" d="M178.1,86.2c1.5-1.1,3.1-2.1,4.6-3.2c7.3,2.3,7.7,10.3,6,16.6c-2.2-1.4-4.4-2.9-6.6-4.3
			c-0.1-1-0.4-3.1-0.5-4.1c-5-2-9.9-0.5-14.1,2.4C168.8,88.6,173.3,85.8,178.1,86.2 M180.5,86.3c2.4,1.5,4.7,3.9,7.4,4.5
			C189.1,87.4,182.1,83.1,180.5,86.3z"/>
		<path class="st1" d="M287.6,87.8c2.7,9.6,18,6.2,20.3,16.3c1.3,5.3,4.3,10.6,3.3,16.1c-18.6,24.7-45.1,43.6-75,51.7
			c-1.3,5.9-1.9,12.6,1.4,17.9c0.5,1.8,1,3.6,1.6,5.3l-0.4,0.7c1.1,1.9,2,4,2.7,6.1c0.9,4.2-3.9,5.7-6.3,8.1
			c1.6,3.6,3.3,7.3,5.1,10.8l0.7,1.4c0.1,0.8,0.2,2.5,0.3,3.3c-4.5,6.4-12,9.9-17.7,15.1c-3.5,2.7-5.3,6.8-6.6,10.8
			c-0.5-0.6-1.6-1.7-2.2-2.3c4.1-11.2,15.7-16.2,24.1-23.6c-2.1-5.3-4.3-10.6-6.7-15.8c2.3-2,4.7-3.8,6.6-6.2
			c-0.7-4.4-2.6-8.6-4.2-12.7c-5.7,3.7-11.1,7.9-16.9,11.5c-4.4,3.2-10,2.1-15,1.9c-10-1.3-20-2.6-29.8-5.1c0.7-0.3,2.2-1,3-1.4
			c12.2,1.9,24.4,4.4,36.9,4.9c7-4.6,14-9.1,20.8-13.9c-0.5-5.9-0.5-11.8,0-17.7c-5.1-2.5-10.2-5.1-15.3-7.7c0.4-4.3,0.9-8.7,1.1-13
			l0.1-2.8c9.2-3.5,17.7-8.5,25.8-14.1c4-3.6,4.9-9.9,9.8-12.4c-0.6,1.8-1.9,5.3-2.5,7.1c3-2.1,5.2-5,6.8-8.2
			c2.2-0.8,4.3-1.6,6.5-2.4C274,108.3,281.6,98.6,287.6,87.8 M286.9,94.7c-4.9,6.8-9.4,14-15.4,20c-7.5,8.6-17,14.9-25.8,22
			c-7.4,4.8-15.1,9-23.4,12.2c-0.8,4.5-1.4,9-1.8,13.5c1.3,0.3,2.6,0.5,3.9,0.7c4,2.6,8.3,5.3,13.1,6.1c7.7-2.2,15.4-4.8,22.1-9.2
			c-4.3-1.9-8.5-5-13.4-4.6l1.1-0.4c-0.7-0.3-2-1-2.6-1.3c-0.1-4.7-1-9.3-2-13.9c0.4-0.4,1.2-1.1,1.7-1.5c0.4,5.4,1.7,10.6,2.4,16
			l2.6-0.5l-0.7,0.3c4.7,1.6,9.2,5,14.3,4.9c17.7-10.4,34-23.8,45.9-40.7c-0.5-4.4-2.1-8.6-3.2-12.9c-1-2.5-2.9-4.4-4.9-6.2
			C296,98.1,291.7,94.3,286.9,94.7z"/>
		<path class="st1" d="M213.3,94.1c7.3-5.5,19,0.3,18,9.7c-0.4,2.9,4.7,9.8-0.7,9.6c-2.1-3.4-3.8-7-6-10.2c-3.8-2.6-8.7-4.2-12.1,0
			c-1.9,1.3-4.2,1.6-6.3,2.3c2.3-11.4,18.6-9.4,24.7-2.4C229.3,94.8,220.6,92.7,213.3,94.1z"/>
		<path class="st1" d="M176.1,104c3.5-0.7,5.5,2.6,8,4.4c7.3,3.8,15.9,0.9,23.6,3.2c1.7,1.4,2.1,3.7,2.9,5.6
			c-1.3,9.9-13.2,13.9-21.8,11.6C177.7,127.3,171.5,113.7,176.1,104 M176.6,105.4c-2,7.1,1,18.8,10.1,18.1c1.8,4.7,9.5,3.2,13.2,1.3
			c3.5-0.7,6.1-3.3,8.4-5.7c-5.7-0.8-12.7,4.9-17.5,0.1c-2.3-0.3-4.4-1-6.5-1.9c-0.3-1.2-0.9-3.6-1.2-4.8c1,1.6,2.1,3.1,3.2,4.6
			c2.4,0.3,4.9,0.6,7,1.9c2.9,0.1,5.8,0.2,8.6,0.2l-0.1-1.9c2.3,0,4.6,0,7,0c-0.5-0.8-1.5-2.3-2.1-3.1c-7.8-1.8-16.1-0.8-24-2.9
			l-0.6-1.7C180.3,108.2,178.5,106.8,176.6,105.4z"/>
		<path class="st1" d="M91.6,252.3c1.9-1.2,3.8-2.5,5.7-3.7c7.1,0.1,14.5-1.4,21.3,1.2c5.9,1.8,3.4,8.9,3.9,13.4
			c0.5,0.7,1.7,2.1,2.2,2.8c-2-1.3-4-2.5-6-3.7c0-3.2,0.2-6.4,0.2-9.6c-4.9-1.3-10-1.7-15-1.8c-0.2,2.4-0.6,4.8-1.1,7.2
			c-2.4,0.8-5,1.2-7.4,1.8c-0.5,0.3-1.4,1.1-1.9,1.4l-2.1,1.5C91.5,259.4,91.6,255.9,91.6,252.3 M93.7,257.2
			c2.8-0.7,6.5-0.4,7.7-3.7C97.7,253.1,92.6,251.3,93.7,257.2z"/>
		<path class="st1" d="M216.3,260.9c1-1.1,2-2.2,2.9-3.3c2.9,9.6,10,17,15.1,25.5c2.1,2.8-1.3,5-3.2,6.7C225,294.1,219,299,212,302
			c-7.1,0.7-14.2-1-21.2-1.9l1.2-2.1c8.1-0.3,17,4.2,24.4-0.7c5.5-3.6,11.3-7,16-11.6c-0.8-5.2-4.9-8.9-8.1-12.7
			c-6.2,4.5-12.2,9.2-19.1,12.5c-2-0.3-4-0.5-6-0.9l-1.4-1.1c10.2,1.5,17.7-7,25.2-12.5C220.9,267.5,218.6,264.2,216.3,260.9z"/>
		<path class="st1" d="M163.6,285.4c5.1,2.2,7.4,6.7,6.9,12.2c-1-1.6-2-3.3-3-4.9c-0.8,0.8-2.4,2.3-3.2,3c-1,0.1-2.9,0.3-3.9,0.3
			c2.1-2.1,4.2-4.3,6.3-6.4C165.7,288.2,164.6,286.8,163.6,285.4z"/>
		<path class="st1" d="M97.4,287.7l1.8,0.1c5.7,0.6,11.3,1.7,16.8,3c-0.7,2.6-0.7,5.5-2.1,7.9c-3.6,0.9-7.2-0.6-10.7-0.9
			c-2.2-0.4-4.4-0.9-6.5-1.3C96.9,293.5,97.2,290.6,97.4,287.7 M99.5,292.1c3,4,8.9,3.1,13.3,4C110.8,291.2,103.7,293.2,99.5,292.1z
			"/>
		<path class="st1" d="M130.9,302.5c0.2-3,0.6-6,0.7-9.1c6.2,0.5,12.4,1.4,18.4,3c0,1.5,0.1,4.3,0.1,5.8c-1.4,0.9-2.7,1.9-4.1,3
			C141,304.3,135.9,303.4,130.9,302.5 M133.5,297.8c2.2,4.6,9.1,3.9,13.1,2.2C142.3,299.2,137.9,298.5,133.5,297.8z"/>
	</g>
	<g>
		<path class="st2" d="M169.1,52.8c2.6-3.4,4.9-9,10.3-7.8c19.5,1.9,37.9,9.2,56.7,14.3c10.3,3,21.5,5.2,29.4,13
			c-4.4,8.4-7.2,17.5-11.6,25.8c-2.6-1-5.2-1.9-7.8-2.9c1.8-7.5,4.5-14.7,6.1-22.2l-1.7-1C235.3,65.3,219,61.3,203,56.6
			c-8.8-2-17.5-5.7-26.7-4.9c-3.3,5.7-4.2,12.4-7.4,18.2c-0.9,2.5-3.7,2.4-5.7,3.1C164.2,66.1,166.8,59.5,169.1,52.8z"/>
		<path class="st2" d="M229.4,50h0.7c6.5-2.3,10.2,3.7,15.5,5.9c0.5,0.1,1.4,0.2,1.8,0.3c1.2-2.1,2-4.4,2.3-6.9
			c7.2,1,7.1,9.6,8.1,15.1c-8.9-3.8-19.9-3.8-26.7-11.4C230.7,52.2,229.8,50.7,229.4,50z"/>
	</g>
	<g>
		<path class="st3" d="M247.3,49.9c0.6-0.2,1.8-0.5,2.4-0.7c-0.3,2.4-1.1,4.7-2.3,6.9c-0.5-0.1-1.4-0.2-1.8-0.3
			C246.1,54.4,246.9,51.4,247.3,49.9z"/>
		<path class="st3" d="M179.2,56.4c22.8,5.2,44.9,13.2,67.4,19.4c-2.1,7.3-4.8,14.5-5.8,22c2.3,1.2,4.6,2.5,6.9,3.7
			c-3.7,9.2-7.7,18.3-10.3,27.9c1.3,3,5.3,2.6,7.8,3.9c-8.1,5.6-16.5,10.6-25.8,14.1c-14.4-4.4-29.1-7.7-43.5-12
			c-3.8-1.7-7.7-3.2-11.6-4.6c-2.7-1.9-5.3-4-7.9-6c-0.5-2.3-0.9-4.7-1.3-7c3.8-13.3,7.7-26.8,13.4-39.5
			C174.2,72.3,175.8,63.8,179.2,56.4 M180.8,73.5c5.6-0.8,11.2-1,16.5,1.3c0.1-2.5,0.1-5,0.2-7.5C191.7,64.3,180.3,64.9,180.8,73.5
			 M222,75.6c-1,1.2-1.7,2.6-1.9,4.2c3.2,1.5,7,2.1,9.3,4.9c2,1.1,3.7,6.1,6.2,2.6C238.4,80.9,228.1,71.2,222,75.6 M178.1,86.2
			c-4.8-0.4-9.4,2.4-10.5,7.2c4.2-2.9,9.1-4.3,14.1-2.4c0.1,1,0.3,3.1,0.5,4.1c2.2,1.5,4.4,2.9,6.6,4.3c1.6-6.3,1.3-14.3-6-16.6
			C181.2,84.1,179.7,85.1,178.1,86.2 M213.3,94.1c7.2-1.4,15.9,0.7,17.6,9.1c-6.2-7.1-22.4-9-24.7,2.4c2.1-0.7,4.4-1.1,6.3-2.3
			c4.1,0.5,8.1-1.3,12.1,0c2.3,3.3,3.9,6.9,6,10.2c5.4,0.2,0.3-6.8,0.7-9.6C232.4,94.5,220.6,88.6,213.3,94.1 M176.1,104
			c-4.7,9.7,1.5,23.4,12.6,24.8c8.6,2.3,20.6-1.7,21.8-11.6c0.7,2.3,1.8,4.4,3.3,6.4c3-3.7,3-8.7,0.1-12.5
			c-9.6-3.8-19.8-2.5-29.9-2.8C181.6,106.6,179.7,103.3,176.1,104 M180.1,129c2,4.7,10.1,8,12.9,2.5
			C188.7,130.9,184.4,130.1,180.1,129z"/>
		<path class="st3" d="M138.9,71c7.7-3,15.3-6.2,23.3-8.1c-0.8,3.2-1.3,6.4-1.3,9.7c1.3,1.6,2.6,3.2,3.9,4.8
			c-2.4,13.7-9.1,26.1-12,39.7C144.4,103.1,141.2,86.9,138.9,71z"/>
		<path class="st3" d="M286.9,94.7c4.8-0.4,9.1,3.3,13.8,4.5c1.4,3.3,2.3,6.9,1,10.4c-15,17.3-31.5,34-52.4,44.1l-2.6,0.5
			c-0.7-5.3-2-10.6-2.4-16c0.4-0.4,1.1-1.1,1.5-1.5c8.7-7.1,18.3-13.4,25.8-22C277.5,108.7,282,101.6,286.9,94.7z"/>
	</g>
	<g>
		<path class="st4" d="M176.3,51.8c9.2-0.8,17.9,2.9,26.7,4.9c16,4.7,32.3,8.6,47.6,15.4c-2.3,7.1-4.8,14.2-6.9,21.4
			c0.6,0.5,1.8,1.4,2.4,1.8c2.5,1.1,5.2,2,7.8,2.9c4.4-8.3,7.2-17.4,11.6-25.8c2.1,1.5,4.7,2.1,7.2,2.7l0.7,0.2
			c5,3.9,9.8,8.1,14.3,12.6c-6,10.8-13.5,20.5-21.8,29.6c-2-1.4-4-3-6.5-3.3c-1.9,2-3.1,4.5-4.3,6.8c-4.9,2.4-5.9,8.8-9.8,12.4
			c-2.5-1.2-6.5-0.9-7.8-3.9c2.6-9.6,6.6-18.7,10.3-27.9c-2.3-1.3-4.6-2.5-6.9-3.7c0.9-7.6,3.7-14.7,5.8-22
			C224,69.5,202,61.6,179.2,56.4c-3.3,7.4-5,15.9-10.6,22c-2.5-2-5.1-3.9-7.7-5.9c0-3.3,0.5-6.5,1.3-9.7c0.3-0.6,0.7-1.7,1-2.3
			c1.1-2.1,1.9-4.6,3.5-6.4l2.3-1.3c-2.3,6.6-4.8,13.2-5.9,20.2c2-0.7,4.9-0.7,5.7-3.1C172.1,64.2,173.1,57.5,176.3,51.8
			 M248.1,107.2c-2.3,7.6-7.3,14.5-7.1,22.7c5.7-9,8.2-19.9,12.7-29.6C249.5,99.5,249.5,104.6,248.1,107.2z"/>
	</g>
	<g>
		<path class="st5" d="M137.7,69.5c7.9-4.1,16.6-8.1,25.5-8.9c-0.3,0.6-0.7,1.7-1,2.3c-8,1.9-15.6,5.2-23.3,8.1
			c2.3,15.9,5.6,32.1,13.9,46c2.9-13.6,9.6-26,12-39.7c-1.3-1.6-2.6-3.2-3.9-4.8c2.6,1.9,5.1,3.9,7.7,5.9
			c-5.7,12.6-9.6,26.1-13.4,39.5c-0.4,3-1.7,6.8,0.7,9.3c2.4,1.9,5.6,2.6,8.4,3.7c3.9,1.4,7.9,2.9,11.6,4.6l1.5,2.4
			c-1-0.3-3-0.9-4-1.2c-2.7,3.2-5,6.6-7.2,10.1c-0.3,1.1-1,3.2-1.3,4.3l-0.7,0.8c-0.3,1.1-1,3.3-1.3,4.3l-0.5,1.4
			c-1.7,1.7-2.4,3.7-1.9,6.1l-0.1,0.4c-2.3,9.9-2.4,20.1-1.6,30.1c3.4,0.6,6.8,1.2,10.2,1.9c1.4,0.3,4.1,1,5.5,1.3l-2.5,1.3
			c-4.4-0.2-8.8-0.9-13.2-1.3c3.7,3.2,8.8,2.9,13.3,3.8c9,1.5,18.2,2.2,26.9,4.7c5.3,1.6,3.6,8.4,4.4,12.6c3.7,0,7.4,0.1,11-0.1
			c-1.1,0.3-3.4,0.9-4.5,1.2c-2.6,0-5.1,0-7.7,0c-0.4,4.1-0.8,8.3-1.3,12.4l-1.9-2.3c-0.2-5.4,0.5-10.8,1.1-16.1
			c0.2-1,0.7-3,0.9-4.1c-5.4-2.6-11.5-2.9-17.3-3.8c-21.5-3.4-43-6.7-64.5-10.1c-6.5,4.2-12.5,9.2-18.7,13.8c-3.5,2.9-8,5.3-9.5,9.8
			c-1,3.5-1.2,7.1-1.5,10.7c-0.7,0.6-2,1.9-2.7,2.5c-4.7,4.6-9.4,9.3-14,14c-2.4,2.1-0.2,5.5,0,8l0.5,2.1c4.2-2.6,8.3-5.3,11.9-8.7
			c0.8-0.8,2.5-2.3,3.4-3.1c-1.5,18.4-1.8,36.9-3.2,55.3c-0.7,3.7,3,5.6,5.5,7.5c9.4,2.3,18.9,3.7,28.5,5.3
			c-1.2,0.9-2.4,1.7-3.5,2.6c-3,2.2-5.9,4.5-8.9,6.8c7.6,4.4,16,7.1,23.2,12l-1.2,1.1c-2.7-1-5.4-2.1-8.2-2.9
			c-2.7,0.3-4.1,3.1-5.9,4.8c2.6,1.5,5.1,3.1,7.7,4.6c2.3,3.8,2.5,10.3,7.1,11.9c2.3-2.7,3.9-5.9,5.6-9c0.3,0.6,0.8,1.8,1.1,2.3
			c6.5-8,11.9-16.8,16.6-26c1.7-1.7,4-2.1,6.4-1.8c4,0.6,8,1.4,12,2.1l-0.8,3c-1.1,4.4-2.1,8.8-3.3,13.2c-1.2,4.4-2.5,8.8-3.7,13.1
			c9.3,2.5,18.3,6.1,27.7,7.9c4.8-1.4,9.3-3.7,13.8-5.9c1.4-12.9,2.4-25.8,2.7-38.7c0-0.8,0.1-2.4,0.2-3.2
			c19.5-11.8,38.3-25.2,55.3-40.4c0.7,0.5,2.1,1.6,2.8,2.1c12.6,9.3,27.9,14.4,43.3,16.1c1.6-3.9,3.1-7.9,4.2-12
			c1.4-5.6,2.8-11.1,3.4-16.9c-3.9-3.1-7.8-6.1-11.8-9.2c-6-3-13.1-1.6-19.5-2.7c-1.2-0.3-3.6-0.8-4.8-1.1c-0.8-0.2-2.5-0.6-3.4-0.7
			c-1.6-4.1-3.2-8.1-4.7-12.2c-0.2-0.6-0.7-1.8-0.9-2.3c0.3-0.9,0.8-2.6,1-3.4c1-6.1,0.6-12.2,0.5-18.3c-3.3-1-6.5-2-9.8-2.9
			c0,1.2-0.1,3.7-0.1,4.9c-0.5-1.3-1.4-3.7-1.9-5c-2.4-5.9-7.8-9.4-13.8-11.1l2.7-1.3c9.8-2.5,20.2-0.7,30.1,0.7
			c2.5,7,2,14.6,2.8,21.9c-2.2,3-2,6.9-2.5,10.4c-2.1,1.5-4.2,2.9-6.3,4.4c1.5,3.9,3.1,7.7,4.7,11.5c11.2,3,22.9,4,34.3,1.6
			c4.3-1.9,6.9,2.4,9.9,4.6l-1.5,1.5c-2.5,0.4-5.2,0.1-7.4,1.6c-2.4,2.2,2.5,3,3.9,2.5l0.8,1.6c0.4,0.5,1.2,1.6,1.5,2.1
			c-1.4,10.3-4.4,20.2-6.8,30.3c3.6-1.2,8.5-1.5,9.2-6.1c2.5-9.9,7.5-20.1,4.4-30.4c1.9,1.8,5.9,2.9,4.9,6.2
			c-1.5,9.9-3.9,19.7-7.6,29.1c-1.3,4.1-6.1,3.7-9.5,3.7c-18.5-0.1-37.3-5.3-52.2-16.4c-16.8,13.8-34.5,26.4-53,37.8
			c-0.3,17.7-1.1,35.7-5.3,52.9c-4.7,4-10.9,6-16.8,8c-10.6-2.4-21-5.7-31-9.9c0.9-3.1,1.9-6.3,2.8-9.4l1.4,1.9
			c-0.1,1.3-0.3,3.9-0.4,5.2l0.6,1.6c1.3,0.3,3.9,1,5.2,1.3c0.6-3.2,1.1-6.3,1.7-9.4c-1-0.4-3.1-1.1-4.1-1.4
			c-0.9,0.1-2.6,0.2-3.4,0.3l-0.7-0.3c2.6-10.1,5.7-20.2,8-30.4c-4.2-0.6-8.3-1.2-12.5-1.7c-7.3,13.5-15.4,27.4-27.5,37
			c-7.4-2.5-13.9-7-21-10.2c0.7-0.2,2-0.6,2.7-0.9c5.2,2.2,10.1,4.8,15.2,7.1c-2.1-4.5-3.1-10.3-7.7-13c-6.1-3.6-12.6-6.4-19.1-9.2
			c2.6,5.3,5.4,10.5,8.2,15.8c-7.2-3.8-8.9-12.7-12.5-19.4c5.8-5.3,12.7-9.1,18.7-14.2c-9.7-2.8-22.6-1-29.4-9.7
			c-1.4-17.5,1.2-35.2,1.5-52.8c-3.8,2.8-8,5.3-12.7,6.3c-1.5-3.4-3.4-6.9-3.4-10.7c5.4-6.8,12.5-12.1,17.5-19.2
			c1.3-5.4,1.1-11.8,5.9-15.7c7.5-6.5,15.2-12.9,23.5-18.5c3-2.1,6.7-1.1,10-0.7c10.4,1.7,20.8,3.2,31.2,4.9
			c-3.3-19.2-0.6-39.5,9-56.6c-3.2-4.4-6-9.4-10.6-12.5c-3.5-2.2-2.8-6.8-4.3-10.2C143.5,104,137.4,86.9,137.7,69.5 M162.8,132.8
			c1.7,2.5,3.3,5,5.1,7.5c0.7-1.4,1.5-2.9,2.2-4.3C167.6,135,165.2,133.9,162.8,132.8 M261.1,198.5c-0.8,3.1,2,4.8,3.7,6.8
			c1.8-2.9,3.5-5.9,5.1-8.8C266.9,196.8,262.9,195.3,261.1,198.5 M272.5,196.7c-1.5,2.9-3,5.7-4.4,8.6c2.8,0.6,5.6,1.2,8.3,1.8
			c2.5,6.5,2.3,13.7,0.1,20.2c4.5-9.3,0.2-19.9,1.9-29.7C276.4,197.3,274.5,197,272.5,196.7 M308.2,250.8c3.6,0,8.3,0.7,10.1-3.4
			C314.9,248,308.6,245.7,308.2,250.8 M105.1,324.4c-1.8,1.2-3.7,2.3-5.4,3.7c-0.7,2.9,3,3.4,4.6,5c2.3-2.1,4.5-4.3,6.4-6.8
			C108.8,325.6,107,325,105.1,324.4 M112.7,327.9c-2.1,1.9-4.1,3.9-6.2,5.9c2.2,1,4.5,1.9,6.7,2.9c1.6-2,3.4-3.9,5-5.9
			C116.4,329.8,114.5,328.8,112.7,327.9 M170.7,356.2c-0.6,3.1-1.2,6.2-1.9,9.2c2.7,0.7,5.5,1.4,8.2,2.1c0.3-3.2,0.7-6.4,1-9.6
			C175.5,357.3,173.1,356.7,170.7,356.2 M180.4,359.2c-1.4,3.1-1,6.5-1.3,9.8c3.1-0.1,8.5,3.5,10.5,0.1c5.7-1.9,14.1-3.2,13.6-11
			c-4.1,1.5-8.1,2.9-12.2,4.1C187.6,361,184.2,358.7,180.4,359.2z"/>
	</g>
	<g>
		<path class="st6" d="M180.8,73.5c-0.5-8.7,10.9-9.3,16.7-6.1c-0.1,2.5-0.1,5-0.2,7.5C192,72.5,186.4,72.7,180.8,73.5z"/>
	</g>
	<g>
		<path class="st7" d="M250.6,72.1l1.7,1c-1.6,7.5-4.3,14.8-6.1,22.2c-0.6-0.5-1.8-1.4-2.4-1.8C245.7,86.2,248.3,79.2,250.6,72.1z"
			/>
	</g>
	<g>
		<path class="st8" d="M222,75.6c6.1-4.3,16.4,5.4,13.6,11.7c-2.5,3.4-4.2-1.5-6.2-2.6c-2.3-2.8-6.2-3.3-9.3-4.9
			C220.3,78.2,220.9,76.8,222,75.6z"/>
	</g>
	<g>
		<path class="st9" d="M180.5,86.3c1.6-3.1,8.7,1.1,7.4,4.5C185.1,90.1,182.8,87.8,180.5,86.3z"/>
		<path class="st9" d="M100.7,209.5c6.2-4.7,12.2-9.7,18.7-13.8c21.5,3.4,43,6.7,64.5,10.1c-3.3,2.2-6.5,4.7-10.6,5
			c-11.8,1.3-23.6,0.8-35.4,1c-5.1,0-9.7,2.2-14.5,3.5c-5.3,1.6-11.1,2-16,4.8c-3.7-0.5-7.5-1-11.2-1.5
			C97.5,215.5,98.9,212.4,100.7,209.5z"/>
	</g>
	<g>
		<path class="st10" d="M212.5,103.3c3.4-4.3,8.3-2.7,12.1,0C220.6,102.1,216.6,103.8,212.5,103.3z"/>
	</g>
	<g>
		<path class="st11" d="M248.1,107.2c1.5-2.6,1.5-7.7,5.6-6.9c-4.5,9.7-7,20.6-12.7,29.6C240.8,121.7,245.7,114.8,248.1,107.2z"/>
	</g>
	<g>
		<path class="st12" d="M176.6,105.4c1.9,1.4,3.7,2.8,5.6,4.2l0.6,1.7l0.4,1.2c0.3,1.2,0.9,3.6,1.2,4.8c2.1,0.9,4.2,1.6,6.5,1.9
			c4.8,4.8,11.8-0.9,17.5-0.1c-2.3,2.5-4.9,5.1-8.4,5.7c-4.4-0.4-8.8-0.9-13.2-1.3C177.6,124.2,174.6,112.6,176.6,105.4z"/>
	</g>
	<g>
		<path class="st13" d="M184.1,108.3c10,0.3,20.3-1,29.9,2.8c2.9,3.8,2.9,8.8-0.1,12.5c-1.4-2-2.5-4.1-3.3-6.4
			c-0.8-1.9-1.2-4.2-2.9-5.6C200,109.2,191.4,112.1,184.1,108.3z"/>
		<path class="st13" d="M302.4,260.4c5,0,9.9-0.3,14.9-0.5c-0.6,5.7-2.1,11.3-3.4,16.9C309.6,271.6,304.9,266.6,302.4,260.4z"/>
		<path class="st13" d="M167.4,337.7c8.7,4.6,15.4,12.6,24.8,15.9c-0.2,1.3-0.6,3.8-0.8,5.1c-9.5-1.8-18.4-5.4-27.7-7.9
			C164.9,346.5,166.2,342.1,167.4,337.7z"/>
	</g>
	<g>
		<path class="st14" d="M301.7,109.6c1-1.1,2.9-3.2,3.9-4.2c1.1,4.3,2.7,8.5,3.2,12.9c-11.9,16.8-28.2,30.3-45.9,40.7
			c-5.1,0.1-9.5-3.3-14.3-4.9l0.7-0.3C270.2,143.7,286.7,127,301.7,109.6z"/>
		<path class="st14" d="M255,121c1.3-2.4,2.4-4.9,4.3-6.8c2.5,0.3,4.5,1.9,6.5,3.3c-2.2,0.9-4.3,1.7-6.5,2.4
			c-1.6,3.2-3.8,6.1-6.8,8.2C253.1,126.3,254.4,122.7,255,121z"/>
	</g>
	<g>
		<path class="st15" d="M186.7,123.6c4.4,0.4,8.8,0.9,13.2,1.3C196.2,126.7,188.6,128.2,186.7,123.6z"/>
		<path class="st15" d="M239.1,195.2c4.4-1.7,8.7-3.5,12.9-5.5c-0.3,1.2-0.9,3.6-1.2,4.8l-2.7,1.3c2.4,1.5,7.2,4.6,9.5,6.2
			c-3.3,3-6.3,6.3-8.7,10.1c-2.7,3.1-5.7,6-8.8,8.8c-1.8-3.6-3.5-7.2-5.1-10.8c2.4-2.4,7.2-3.9,6.3-8.1c-0.7-2.1-1.7-4.1-2.7-6.1
			L239.1,195.2z"/>
	</g>
	<g>
		<path class="st16" d="M180.1,129c4.3,1.1,8.6,1.9,12.9,2.5C190.2,137,182.1,133.7,180.1,129z"/>
	</g>
	<g>
		<path class="st17" d="M162.8,132.8c2.4,1,4.8,2.1,7.3,3.2c-0.7,1.4-1.5,2.9-2.2,4.3C166.1,137.8,164.5,135.4,162.8,132.8z"/>
		<path class="st17" d="M166.3,146.8c2.2-3.5,4.5-6.9,7.2-10.1c1,0.3,3,0.9,4,1.2c1.7,0.7,3.3,1.4,5,2c3,2.8,5.8,6.1,9.8,7.3
			c4.4,1.4,9-0.1,13.5-0.5c3.6,0.7,7.3,1.6,10.8,2.6c0.8,7.6-2.9,14.6-4.1,22c-2.3,10.3-1.2,20.9,0.1,31.3
			c-12.4-0.5-24.6-3-36.9-4.9c-0.3-0.1-0.9-0.1-1.2-0.2c-1.4-0.3-4.1-1-5.5-1.3c-2.9-1-5.6-2.1-8.5-3.1c-1.2-9.6-0.6-19.3-0.1-28.9
			l0.1-0.4c2.5-1.4,3.1-3.4,1.9-6.1l0.5-1.4c0.3-1.1,1-3.3,1.3-4.3l0.7-0.8C165.3,150.1,165.9,147.9,166.3,146.8z"/>
		<path class="st17" d="M222.5,151c6.3-4.4,13.7-6.9,20-11.3c1.1,4.5,1.9,9.2,2,13.9c-6.3,5.6-15.1,6.9-23.1,8.5
			C221.7,158.4,221.7,154.6,222.5,151z"/>
	</g>
	<g>
		<path class="st18" d="M175.9,135.5c14.4,4.3,29.1,7.6,43.5,12l-0.1,2.8c-0.7-0.2-2-0.7-2.7-0.9c-3.6-1-7.2-1.8-10.8-2.6
			c-2.2-0.5-4.4-1-6.6-1.5c-2.9-2.8-6.8-3.8-10.7-3.1c-2-0.7-4.1-1.4-6.1-2.1c-1.7-0.7-3.4-1.3-5-2L175.9,135.5z"/>
	</g>
	<g>
		<path class="st19" d="M182.5,139.9c2,0.7,4,1.4,6.1,2.1c2.4,3.6,6.7,4.3,10.7,3.1c2.2,0.5,4.4,1,6.6,1.5
			c-4.5,0.4-9.1,1.9-13.5,0.5C188.3,146,185.4,142.7,182.5,139.9z"/>
	</g>
	<g>
		<path class="st20" d="M188.6,142c3.9-0.7,7.8,0.4,10.7,3.1C195.3,146.3,191,145.6,188.6,142z"/>
	</g>
	<g>
		<path class="st21" d="M164.9,151.1c0.3-1.1,1-3.2,1.3-4.3C165.9,147.9,165.3,150.1,164.9,151.1z"/>
	</g>
	<g>
		<path class="st22" d="M216.6,149.3c0.7,0.2,2,0.7,2.7,0.9c-0.2,4.3-0.7,8.7-1.1,13c5.1,2.6,10.2,5.2,15.3,7.7
			c-0.5,5.9-0.5,11.8,0,17.7c-6.8,4.8-13.8,9.3-20.8,13.9c-1.3-10.4-2.4-21-0.1-31.3C213.7,163.9,217.5,156.9,216.6,149.3z"/>
		<path class="st22" d="M224.4,163.1c7.5-1.9,14.8-4.6,21.8-7.7c4.9-0.3,9.1,2.7,13.4,4.6c-6.7,4.4-14.5,7-22.1,9.2
			C232.6,168.4,228.4,165.7,224.4,163.1z"/>
	</g>
	<g>
		<path class="st23" d="M162.9,156.3c0.3-1.1,1-3.3,1.3-4.3C163.9,153.1,163.2,155.2,162.9,156.3z"/>
	</g>
	<g>
		<path class="st24" d="M160.5,163.8c-0.4-2.4,0.2-4.4,1.9-6.1C163.7,160.4,163,162.4,160.5,163.8z"/>
	</g>
	<g>
		<path class="st25" d="M234.6,190.8c1.6,4.2,3.5,8.3,4.2,12.7c-1.9,2.4-4.3,4.2-6.6,6.2c2.4,5.2,4.6,10.5,6.7,15.8
			c-8.4,7.4-20,12.5-24.1,23.6c-5.5-4.9-9.3-11.3-13.8-17c4.3-3,8.4-6.1,12.4-9.4c-0.9-0.7-2.6-2.3-3.5-3c1.1-0.3,3.4-0.9,4.5-1.2
			c0.6-0.2,1.8-0.7,2.3-1c0-4.1-1.8-7.9-3.1-11.8c-3.7-0.5-7.4-1.1-11.1-1.6c5,0.2,10.7,1.3,15-1.9
			C223.5,198.6,228.9,194.5,234.6,190.8z"/>
		<path class="st25" d="M199.5,273.3c8.1,0.3,11.9-7.4,16.7-12.4c2.3,3.3,4.6,6.6,6.9,10c-7.5,5.5-15,14-25.2,12.5l-1.3-1.1
			c1.8,0,5.4,0,7.2,0C202.5,279.3,201.1,276.2,199.5,273.3z"/>
	</g>
	<g>
		<path class="st26" d="M174.6,197.5c0.3,0,0.9,0.1,1.2,0.2c-0.7,0.3-2.2,1-3,1.4c9.8,2.4,19.8,3.8,29.8,5.1
			c3.7,0.5,7.4,1.1,11.1,1.6c1.3,3.8,3.1,7.6,3.1,11.8c-0.6,0.3-1.8,0.7-2.3,1c-3.7,0.1-7.4,0.1-11,0.1c-0.8-4.2,0.9-11-4.4-12.6
			c-8.8-2.5-18-3.2-26.9-4.7c-4.5-0.9-9.6-0.6-13.3-3.8c4.4,0.4,8.8,1.1,13.2,1.3L174.6,197.5z"/>
		<path class="st26" d="M202.3,219.7c2.5,0,5.1,0,7.7,0c0.9,0.7,2.6,2.3,3.5,3c-4,3.3-8.2,6.4-12.4,9.4
			C201.5,228,201.9,223.9,202.3,219.7z"/>
		<path class="st26" d="M196.9,273.3c0.7,0,2,0,2.7,0c1.6,2.9,2.9,6,4.3,9c-1.8,0-5.4,0-7.2,0l-0.5-0.4
			C196.4,279.1,196.6,276.2,196.9,273.3z"/>
	</g>
	<g>
		<path class="st27" d="M261.1,198.5c1.9-3.3,5.8-1.7,8.9-2c-1.7,3-3.4,5.9-5.1,8.8C263.1,203.3,260.3,201.6,261.1,198.5z"/>
	</g>
	<g>
		<path class="st28" d="M272.5,196.7c1.9,0.3,3.9,0.6,5.9,0.9c-1.7,9.9,2.6,20.4-1.9,29.7c2.3-6.6,2.4-13.7-0.1-20.2
			c-2.8-0.6-5.6-1.2-8.3-1.8C269.6,202.4,271,199.5,272.5,196.7z"/>
	</g>
	<g>
		<path class="st29" d="M183.8,205.8c5.8,0.9,11.9,1.2,17.3,3.8c-0.2,1-0.7,3-0.9,4.1c-3.8,4.2-7.5,8.4-11.2,12.7
			c-4.2,2.7-8.8,5.7-14.1,4.3c-22.5-3.7-45.1-6.6-67.6-10.6c4.9-2.9,10.6-3.3,16-4.8c4.8-1.3,9.4-3.5,14.5-3.5
			c11.8-0.1,23.7,0.3,35.4-1C177.3,210.5,180.6,208,183.8,205.8z"/>
	</g>
	<g>
		<path class="st30" d="M249,212c2.7-2.4,5.6-4.8,8.4-7.1c1.1,0.5,3.4,1.5,4.5,2c0.5,1.2,1.4,3.7,1.9,5c0-1.2,0.1-3.7,0.1-4.9
			c3.2,1,6.5,2,9.8,2.9c0.1,6.1,0.5,12.2-0.5,18.3c-2.3-6-5.1-11.9-8.7-17.3c0.6,7.5,4.2,14.2,7.6,20.7c0.2,0.6,0.7,1.8,0.9,2.3
			c-11.2-1.7-24.8-1.6-32.1-11.7l-0.7-1.4C243.3,218,246.3,215.1,249,212z"/>
		<path class="st30" d="M189,226.3c3.7-4.3,7.4-8.5,11.2-12.7c-0.6,5.4-1.3,10.7-1.1,16.1c-3.3,3.8-7.1,7.2-10,11.3
			c-2.1,3.7-2.3,8.1-3.1,12.1c-0.4-0.8-1.1-2.4-1.5-3.1c-0.8,0.1-2.4,0.3-3.3,0.4c0.5-3.3,0.9-6.7,1.3-10
			C182.6,235,184.9,230,189,226.3z"/>
	</g>
	<g>
		<path class="st31" d="M264.6,210.9c3.6,5.4,6.3,11.3,8.7,17.3c-0.3,0.9-0.8,2.6-1,3.4C268.7,225.1,265.2,218.4,264.6,210.9z"/>
	</g>
	<g>
		<path class="st32" d="M93.5,219.9c24.5,3,48.7,7.5,73.2,10.7c4.1,0.7,8.4,1,12.2,2.8c2,1.9,2.7,4.7,3.7,7.1
			c-0.4,3.3-0.8,6.7-1.3,10c-0.6,4.5-1.2,9.1-1.5,13.7l-1.5-1c-8.5-5.7-19.7-11.1-30-7.3c-1.3,4.2-2.3,8.5-3.3,12.9
			c3.6-0.3,7.2-0.6,10.7-1l0.2,0.9c-0.1,0.5-0.4,1.6-0.6,2.1c3.2,1.1,6.4,2.1,9.5,3.2c-6.6,0.1-13.4-0.2-19.3,3.1
			c-6.4-1-12.9-1.9-19.3-2.8c1.8-0.9,3.6-1.7,5.4-2.6c-2.3-1.9-4.6-3.8-6.9-5.7c-0.5-0.7-1.7-2.1-2.2-2.8c-0.5-4.5,2-11.6-3.9-13.4
			c-6.8-2.6-14.2-1.1-21.3-1.2c-1.9,1.2-3.8,2.4-5.7,3.7l-2.1,1.4C90.6,242.4,89.5,230.7,93.5,219.9z"/>
	</g>
	<g>
		<path class="st33" d="M241,222.2c7.3,10.1,21,10,32.1,11.7c1.5,4.1,3.2,8.1,4.7,12.2c-1.1,3.1-3.2,5.5-5.5,7.7
			c-10-1.7-20.6,0.4-30.1-3.7c-6.5-2.7-13-5.5-18.7-9.6c5.7-5.2,13.2-8.7,17.7-15.1C241.2,224.7,241,223,241,222.2z"/>
		<path class="st33" d="M133.5,297.8c4.4,0.7,8.8,1.4,13.1,2.2C142.6,301.7,135.7,302.4,133.5,297.8z"/>
	</g>
	<g>
		<path class="st34" d="M87,232.5c0.7-0.6,2-1.9,2.7-2.5c-0.2,4.9-0.5,9.8-0.9,14.8c-0.9,0.8-2.5,2.3-3.4,3.1
			c0.1-1.1,0.3-3.4,0.4-4.5C86.1,239.7,86.4,236.1,87,232.5z"/>
	</g>
	<g>
		<path class="st35" d="M189.1,241.2c2.9-4.1,6.7-7.6,10-11.3l1.9,2.3c4.5,5.7,8.2,12.1,13.8,17c0.5,0.6,1.6,1.7,2.2,2.3
			c1.7,1.7,1.9,4,2.2,6.2c-1,1.1-1.9,2.2-2.9,3.3c-4.8,5-8.6,12.7-16.7,12.4c-0.7,0-2,0-2.7,0c-0.2,2.9-0.5,5.8-0.7,8.7
			c-0.4,5.5-1.7,10.9-4.1,16l-1.2,2.1c-3.1,5.5-6.6,10.7-9.8,16.1c4.2,0.7,8.3,1.7,12.6,1.6c5.3-1.1,9.9-4.3,14.6-6.9
			c-0.1,0.8-0.1,2.4-0.2,3.2c-3.9,2.3-7.9,4.5-12,6.4c-5.6,0.1-11.1-0.7-16.6-1.6c-2.9,1.9-5.8,3.8-8.7,5.6l0.8-3
			c0.9-1,1.8-1.9,2.7-2.9c11.9-12.6,21-29.7,19.5-47.5c-2.7-5.9-6-11.5-7.7-17.8C186.8,249.2,187,244.8,189.1,241.2 M190.1,246.8
			c-4.1,9.7,3.3,23.4,14.2,24.1l-0.2-1c1.9-1.7,3.8-3.5,5.7-5.2c2.6-3.1,5-6.3,7.4-9.5c-7.2-6-13-13.5-17.5-21.8
			C196.2,237.6,189.9,240.8,190.1,246.8z"/>
	</g>
	<g>
		<path class="st36" d="M73,246.5c4.6-4.7,9.3-9.4,14-14c-0.5,3.6-0.9,7.2-1.2,10.8c-4.5,3.4-8.9,7.1-12.8,11.2
			C72.8,252,70.6,248.6,73,246.5z"/>
	</g>
	<g>
		<path class="st37" d="M190.1,246.8c-0.2-6,6.1-9.3,9.5-13.4c4.5,8.2,10.3,15.7,17.5,21.8c-2.3,3.3-4.8,6.5-7.4,9.5
			c-2.4-0.4-4.8-0.8-7.2-1.3C196.3,259.8,193.1,253,190.1,246.8z"/>
	</g>
	<g>
		<path class="st38" d="M217,251.4c1.3-4.1,3.1-8.1,6.6-10.8c5.8,4.1,12.2,7,18.7,9.6c9.5,4.1,20.1,2,30.1,3.7
			c2.3-2.2,4.4-4.7,5.5-7.7c0.9,0.2,2.5,0.6,3.4,0.7c0.2,2.6,0.3,5.2,0.5,7.8c-4.5,6.5-9.6,12.5-15.4,17.9c-0.7-0.5-2.1-1.6-2.8-2.1
			c-17.1,15.2-35.8,28.5-55.3,40.4c-4.7,2.5-9.3,5.8-14.6,6.9c-4.3,0.1-8.4-0.9-12.6-1.6c3.3-5.4,6.7-10.7,9.8-16.1
			c7,0.9,14.1,2.6,21.2,1.9c7-3,13-7.9,19.1-12.2c1.8-1.6,5.3-3.9,3.2-6.7c-5.1-8.4-12.2-15.8-15.1-25.5
			C218.9,255.4,218.6,253.1,217,251.4z"/>
		<path class="st38" d="M181.2,250.5c0.8-0.1,2.5-0.3,3.3-0.4c0.4,0.8,1.1,2.4,1.5,3.1c1.7,6.3,5.1,11.9,7.7,17.8
			c1.5,17.8-7.5,34.9-19.5,47.5c1.2-18.2,4.5-36.2,5.5-54.4C180.1,259.6,180.6,255.1,181.2,250.5z"/>
		<path class="st38" d="M99.5,292.1c4.3,1.1,11.4-0.9,13.3,4C108.3,295.2,102.5,296.1,99.5,292.1z"/>
	</g>
	<g>
		<path class="st39" d="M73,254.5c3.9-4.1,8.3-7.8,12.8-11.2c-0.1,1.1-0.3,3.4-0.4,4.5c-3.5,3.4-7.7,6.1-11.9,8.7L73,254.5z"/>
	</g>
	<g>
		<path class="st40" d="M190.1,246.8c3,6.2,6.2,12.9,12.4,16.6c0.5,2.2,1.1,4.3,1.6,6.5l0.2,1C193.4,270.3,185.9,256.6,190.1,246.8z
			"/>
	</g>
	<g>
		<path class="st41" d="M281.2,246.9c1.2,0.3,3.6,0.8,4.8,1.1c6.3,2.1,12.9,2.7,19.5,2.7c3.9,3,7.9,6.1,11.8,9.2
			c-5,0.2-9.9,0.5-14.9,0.5c-7.1-1.1-14-3.1-20.7-5.7C281.5,252.1,281.4,249.5,281.2,246.9z"/>
		<path class="st41" d="M196,320.5c4.1-1.9,8.1-4.1,12-6.4c-0.4,12.9-1.3,25.9-2.7,38.7c-4.5,2.2-9,4.4-13.8,5.9
			c0.2-1.3,0.6-3.8,0.8-5.1C194.5,342.7,196.4,331.7,196,320.5z"/>
		<path class="st41" d="M143.1,320c3.3,0.5,6.7,0.9,10,1.3c-4.7,9.2-10.1,18-16.6,26c-0.3-0.6-0.8-1.8-1.1-2.3
			c-1.4-2.9-2.8-5.9-4.2-8.7C135,330.6,139.1,325.3,143.1,320z"/>
	</g>
	<g>
		<path class="st42" d="M308.2,250.8c0.4-5.1,6.7-2.8,10.1-3.4C316.5,251.5,311.8,250.8,308.2,250.8z"/>
	</g>
	<g>
		<path class="st43" d="M323.8,249.4c1.4,1,2.8,2,4.1,3.1c3.1,10.3-1.9,20.5-4.4,30.4c-0.7,4.6-5.7,4.9-9.2,6.1
			c2.4-10.1,5.4-20,6.8-30.3c1.9,0.1,6.2-0.9,5.1-3.6c-2.2-1.4-4.9-0.1-6.6,1.5l-0.8-1.6c1.2-1.3,2.3-2.7,3.5-4.1L323.8,249.4z"/>
	</g>
	<g>
		<path class="st44" d="M314.8,252.5c2.2-1.4,4.9-1.2,7.4-1.6c-1.2,1.4-2.3,2.7-3.5,4.1C317.3,255.5,312.4,254.7,314.8,252.5z"/>
	</g>
	<g>
		<path class="st45" d="M89.6,253.7l2.1-1.4c-0.1,3.5-0.2,7.1-0.3,10.6l2.1-1.5c8.1-2.2,17.5-2.9,25.3,0.9c2,1.2,4,2.4,6,3.7
			c2.3,1.9,4.6,3.8,6.9,5.7c-1.8,0.9-3.6,1.7-5.4,2.6c-8.1-0.2-17.9-6-24.6,0.8c-3.9,2.9-3.4,8.2-4.2,12.5c-0.3,2.9-0.6,5.8-0.8,8.7
			c0.1,2.5-0.1,6.3,3.2,6.9c9.2,2.8,19,3.3,28.4,5.3c7.9,1.1,16.2,4.7,23.9,0.9c3.8,2.5,7.5,6.4,12.5,5.5c3.9,0,5-4.4,4.9-7.5
			c-0.1-4.5-3-8.1-5.1-11.8c0.8-0.7,2.4-2.3,3.2-3c1,1.7,2,3.3,3,4.9c0.6-5.5-1.8-10-6.9-12.2c1,1.4,2,2.8,3.1,4.2
			c-2.1,2.1-4.1,4.3-6.3,6.4l-1,0.1c-0.1-5.1,0.5-10.4-0.8-15.4c-4.2-1.8-8.7-2.7-13.1-3.6c5.9-3.3,12.8-3.1,19.3-3.1
			c-3.2-1.1-6.4-2.1-9.5-3.2c0.1-0.5,0.4-1.5,0.6-2.1c6.3-0.6,12.8,0.5,18,4.4l1.7,1.5c0.9-3.8,1.7-7.6,2.6-11.4l1.5,1
			c-1,18.2-4.3,36.2-5.5,54.4c-0.9,0.9-1.8,1.9-2.7,2.9c-4-0.7-8-1.5-12-2.1c-13.3-2.2-26.7-4.4-40.1-6.5
			c-9.5-1.6-19.1-3.1-28.5-5.3c-1.8-3.5-4.1-7.1-3.8-11.2C87,282.2,88.5,267.9,89.6,253.7z"/>
	</g>
	<g>
		<path class="st46" d="M93.7,257.2c-1.1-5.9,4-4.1,7.7-3.7C100.1,256.8,96.4,256.5,93.7,257.2z"/>
		<path class="st46" d="M196.1,282l0.5,0.4l1.3,1.1l1.4,1.1c2,0.4,4,0.7,6,0.9c1.4,3.4,2.8,6.8,4.1,10.2c2.3,0.5,4.7,1.1,7,1.6
			c-7.4,5-16.3,0.4-24.4,0.7C194.4,292.9,195.7,287.5,196.1,282z"/>
	</g>
	<g>
		<path class="st47" d="M148.2,256c10.3-3.9,21.4,1.5,30,7.3c-0.8,3.8-1.7,7.6-2.6,11.4l-1.7-1.5c-2.7-2.8-6.4-3.9-9.6-5.9
			c-0.3-2.5-0.2-5,0.3-7.5c-4.5-1.2-9.2-1.6-13.8-1.4c-0.9,2.9-1.7,5.8-2.5,8.7c1.9-0.2,5.8-0.5,7.8-0.7c-0.1,0.4-0.2,1.1-0.3,1.5
			c-3.6,0.4-7.2,0.7-10.7,1C145.9,264.5,147,260.2,148.2,256z"/>
	</g>
	<g>
		<path class="st48" d="M281.7,254.7c6.7,2.5,13.6,4.6,20.7,5.7c2.5,6.3,7.2,11.2,11.4,16.3c-1.1,4.1-2.6,8.1-4.2,12
			c-15.5-1.7-30.8-6.8-43.3-16.1C272.1,267.2,277.2,261.2,281.7,254.7z"/>
	</g>
	<g>
		<path class="st49" d="M319.5,256.6c1.7-1.5,4.4-2.9,6.6-1.5c1.2,2.6-3.2,3.7-5.1,3.6C320.6,258.2,319.9,257.1,319.5,256.6z"/>
	</g>
	<g>
		<path class="st50" d="M202.4,263.4c2.4,0.5,4.8,0.9,7.2,1.3c-1.9,1.7-3.8,3.5-5.7,5.2C203.5,267.7,203,265.6,202.4,263.4z"/>
	</g>
	<g>
		<path class="st51" d="M101.6,275.2c6.7-6.8,16.5-1,24.6-0.8c6.4,0.9,12.8,1.8,19.3,2.8c4.4,0.9,8.9,1.7,13.1,3.6
			c1.3,5,0.7,10.3,0.8,15.4l1-0.1c1-0.1,2.9-0.3,3.9-0.3c2.1,3.7,5.1,7.3,5.1,11.8c0.1,3.1-1,7.5-4.9,7.5c-5,1-8.7-3-12.5-5.5
			c-7.7,3.7-16,0.2-23.9-0.9c-9.4-2-19.2-2.5-28.4-5.3c-3.3-0.6-3.1-4.4-3.2-6.9c2.2,0.5,4.3,0.9,6.5,1.3c-1.1,0.1-3.4,0.3-4.6,0.4
			c4.8,4.1,11.4,3.8,17.3,5c9.3,1.2,18.5,4.3,28,3.8l2.1-1.7c1.3-1,2.7-2,4.1-3c7.1-2.6,5.8-10.9,6.3-17c-1.2-4.2-6.3-3.9-9.6-4.8
			c-12.2-1.9-24.2-4.4-36.5-5.7c-3.4-0.8-6.2,1.5-8.6,3.5c-0.4,1.6-0.8,3.2-1.2,4.8c-0.3,1.2-0.9,3.6-1.2,4.8l-1.8-0.1
			C98.2,283.4,97.7,278.1,101.6,275.2 M158.2,300.4c-0.5,0-1.6-0.1-2.1-0.1c1.1,0.8,3.4,2.4,4.5,3.2l-2.8,1.5
			c-2.4-2.2-4.1-2.1-5.3,0.5c3.7,2.3,6.8,7.5,11.7,6.5c3.5-2.5,4.1-11.6-1.4-11.7C163.7,296.9,156.9,297.3,158.2,300.4z"/>
	</g>
	<g>
		<path class="st52" d="M205.3,285.4c6.9-3.4,12.9-8.1,19.1-12.5c3.2,3.8,7.3,7.5,8.1,12.7c-4.7,4.6-10.5,8-16,11.6
			c-2.3-0.5-4.7-1.1-7-1.6C208.1,292.2,206.7,288.8,205.3,285.4z"/>
	</g>
	<g>
		<path class="st53" d="M101.7,278.2c2.5-2,5.2-4.3,8.6-3.5c12.2,1.4,24.3,3.9,36.5,5.7c3.4,1,8.5,0.6,9.6,4.8l-2.1,0.6
			c-6.6,1.5-13.3,0-19.8-1.1C123.5,282.9,112.1,282.6,101.7,278.2z"/>
	</g>
	<g>
		<path class="st54" d="M100.4,283c0.4-1.6,0.8-3.2,1.2-4.8c10.4,4.4,21.9,4.7,32.9,6.6c6.5,1.1,13.2,2.6,19.8,1.1
			c-1.9,2.2-3.3,4.7-4.4,7.3c-0.5-0.9-1.4-2.8-1.8-3.7C132.3,286.7,116.5,283.4,100.4,283z"/>
	</g>
	<g>
		<path class="st55" d="M100.4,283c16,0.4,31.9,3.7,47.7,6.5c0.5,0.9,1.4,2.8,1.8,3.7c0,0.8,0.1,2.5,0.1,3.3c-6-1.6-12.2-2.5-18.4-3
			c-0.2,3-0.6,6-0.7,9.1c5.1,0.9,10.2,1.7,15.2,2.7L144,307c-9.5,0.4-18.7-2.6-28-3.8c-5.9-1.3-12.5-0.9-17.3-5
			c1.1-0.1,3.4-0.3,4.6-0.4c3.5,0.4,7.2,1.8,10.7,0.9c1.5-2.3,1.4-5.3,2.1-7.9c-5.5-1.3-11.1-2.4-16.8-3
			C99.5,286.6,100.1,284.2,100.4,283z"/>
	</g>
	<g>
		<path class="st56" d="M154.3,285.9l2.1-0.6c-0.5,6.1,0.9,14.4-6.3,17c0-1.5-0.1-4.3-0.1-5.8c0-0.8-0.1-2.5-0.1-3.3
			C151,290.5,152.5,288,154.3,285.9z"/>
		<path class="st56" d="M170.7,324.5c3-1.8,5.9-3.7,8.7-5.6c5.5,0.9,11,1.7,16.6,1.6c0.4,11.2-1.6,22.2-3.8,33.1
			c-9.5-3.3-16.1-11.3-24.8-15.9C168.6,333.3,169.7,328.9,170.7,324.5z"/>
	</g>
	<g>
		<path class="st57" d="M158.2,300.4c-1.3-3.1,5.5-3.5,4.5-0.2C161.6,300.2,159.3,300.3,158.2,300.4z"/>
	</g>
	<g>
		<path class="st58" d="M156.1,300.3c0.5,0,1.6,0.1,2.1,0.1c1.1-0.1,3.4-0.2,4.5-0.2c5.5,0.1,5,9.2,1.4,11.7c-4.9,1-8-4.2-11.7-6.5
			c1.8,0.9,3.6,0.8,5.3-0.5l2.8-1.5C159.4,302.7,157.2,301.1,156.1,300.3z"/>
	</g>
	<g>
		<path class="st59" d="M152.4,305.4c1.2-2.6,2.9-2.7,5.3-0.5C156,306.2,154.2,306.3,152.4,305.4z"/>
	</g>
	<g>
		<path class="st60" d="M119.5,312.9c13.4,2.1,26.7,4.3,40.1,6.5c-2.3-0.2-4.7,0.1-6.4,1.8c-3.3-0.4-6.7-0.8-10-1.3
			c-9.1-1.4-18.1-3.3-27.2-4.4C117.1,314.7,118.3,313.8,119.5,312.9z"/>
	</g>
	<g>
		<path class="st61" d="M107.1,322.4c2.9-2.3,5.9-4.6,8.9-6.8c9.1,1.2,18.1,3.1,27.2,4.4c-4.1,5.3-8.2,10.6-11.9,16.1
			c-0.2-0.4-0.7-1.3-0.9-1.7C123.1,329.5,114.6,326.8,107.1,322.4z"/>
	</g>
	<g>
		<path class="st62" d="M105.1,324.4c1.9,0.6,3.7,1.3,5.6,1.9c-1.9,2.4-4.1,4.7-6.4,6.8c-1.6-1.6-5.3-2.1-4.6-5
			C101.4,326.7,103.3,325.6,105.1,324.4z"/>
	</g>
	<g>
		<path class="st63" d="M112.7,327.9c1.9,1,3.7,1.9,5.6,2.9c-1.6,2-3.4,3.9-5,5.9c-2.2-1-4.5-1.9-6.7-2.9
			C108.6,331.8,110.6,329.8,112.7,327.9z"/>
	</g>
	<g>
		<path class="st64" d="M98.5,332.6c6.5,2.9,13,5.6,19.1,9.2c4.6,2.7,5.7,8.5,7.7,13c-5.1-2.3-10.1-4.9-15.2-7.1
			c-0.7,0.2-2,0.6-2.7,0.9l-0.5,0.2l-0.2-0.4C103.9,343.1,101.1,338,98.5,332.6z"/>
	</g>
	<g>
		<path class="st65" d="M115.1,337.5c1.8-1.7,3.2-4.5,5.9-4.8c2.8,0.8,5.5,1.9,8.2,2.9c-2.2,2.1-4.3,4.3-6.4,6.5
			C120.2,340.5,117.6,339,115.1,337.5z"/>
		<path class="st65" d="M159.3,353.3l1.2,0.5l0.7,0.3c0.9-0.1,2.6-0.2,3.4-0.3c1,0.4,3.1,1.1,4.1,1.4c-0.6,3.1-1.1,6.3-1.7,9.4
			c-1.3-0.3-3.9-1-5.2-1.3l-0.6-1.6c3.1-0.2,2.7-4.2,0.4-5.2l-1.4-1.9C159.9,354.3,159.5,353.6,159.3,353.3z"/>
		<path class="st65" d="M170.7,356.2c2.4,0.6,4.9,1.2,7.3,1.8c-0.3,3.2-0.7,6.4-1,9.6c-2.7-0.7-5.5-1.4-8.2-2.1
			C169.4,362.3,170.1,359.2,170.7,356.2z"/>
		<path class="st65" d="M180.4,359.2c3.8-0.5,7.2,1.8,10.6,3.1c-0.5,2.3-0.9,4.6-1.4,6.9c-1.9,3.3-7.4-0.2-10.5-0.1
			C179.4,365.8,179.1,362.3,180.4,359.2z"/>
	</g>
	<g>
		<path class="st66" d="M129.1,335.5l1.2-1.1c0.2,0.4,0.7,1.3,0.9,1.7c1.5,2.9,2.8,5.8,4.2,8.7c-1.7,3.1-3.3,6.3-5.6,9
			c-4.5-1.5-4.8-8.1-7.1-11.9C124.9,339.9,126.9,337.6,129.1,335.5z"/>
		<path class="st66" d="M191,362.3c4.1-1.2,8.2-2.6,12.2-4.1c0.5,7.8-7.9,9.1-13.6,11C190.1,366.9,190.6,364.6,191,362.3z"/>
	</g>
	<g>
		<path class="st67" d="M161.5,356.5c2.4,1,2.7,5-0.4,5.2C161.3,360.4,161.5,357.8,161.5,356.5z"/>
	</g>
</g>
</svg>
