<?xml version="1.0" encoding="utf-8"?>
<!-- Generator: Adobe Illustrator 23.0.0, SVG Export Plug-In . SVG Version: 6.00 Build 0)  -->
<svg version="1.1" id="Layer_1" xmlns="http://www.w3.org/2000/svg" xmlns:xlink="http://www.w3.org/1999/xlink" x="0px" y="0px"
	 viewBox="0 0 400 400" style="enable-background:new 0 0 400 400;" xml:space="preserve">
<style type="text/css">
	.st0{fill:#00D9C4;}
	.st1{fill:#FCFCFC;}
	.st2{fill:#030303;}
	.st3{fill:#C66B58;}
	.st4{fill:#6E3816;}
	.st5{fill:#F88B6F;}
	.st6{fill:#FEB9AA;}
	.st7{fill:#401A05;}
	.st8{fill:#FEB9AB;}
	.st9{fill:#2B2C32;}
	.st10{fill:#4E240C;}
	.st11{fill:#3E3E40;}
	.st12{fill:#5E3015;}
	.st13{fill:#FEFEFE;}
	.st14{fill:#0D0C11;}
	.st15{fill:#262221;}
	.st16{fill:#24242A;}
	.st17{fill:#0074B3;}
	.st18{fill:#060507;}
	.st19{fill:#1B1A21;}
	.st20{fill:#723F24;}
	.st21{fill:#1D1C22;}
	.st22{fill:#CE7F6B;}
	.st23{fill:#C76F5A;}
	.st24{fill:#288578;}
	.st25{fill:#FBCFC3;}
	.st26{fill:#FEBAAB;}
	.st27{fill:#F9B7A7;}
	.st28{fill:#02A694;}
	.st29{fill:#C16D59;}
	.st30{fill:#0A89C9;}
	.st31{fill:#151419;}
	.st32{fill:#01447B;}
	.st33{fill:#012E6D;}
	.st34{fill:#014478;}
	.st35{fill:#8F8F91;}
	.st36{fill:#282A30;}
	.st37{fill:#535869;}
	.st38{fill:#4CC822;}
	.st39{fill:#646778;}
	.st40{fill:#148702;}
	.st41{fill:#72D92F;}
	.st42{fill:#79D735;}
	.st43{fill:#2BA602;}
	.st44{fill:#147408;}
	.st45{fill:#127406;}
	.st46{fill:#6FCC31;}
	.st47{fill:#743603;}
	.st48{fill:#A24B00;}
	.st49{fill:#62C22C;}
	.st50{fill:#552402;}
	.st51{fill:#7CC63B;}
	.st52{fill:#893E01;}
	.st53{fill:#D37628;}
	.st54{fill:#B7611F;}
</style>
<g>
	<g>
		<path class="st0" d="M37.8,30.2H38c0,0.1-0.1,0.2-0.1,0.2v-0.2H37.8z"/>
		<path class="st0" d="M165,136.6c2.2-3.9,5.2-8.5,10.4-6.8c-3.9,5.3-7.7,10.7-12.7,15.1c-0.2,0.2-0.5,0.4-0.6,0.6
			c-0.7-0.1-2-0.2-2.7-0.3l-1-0.4c1.4-1.4,2.8-2.8,4.3-4.1l-0.1-1.3C163.2,138.8,164.4,137.4,165,136.6z"/>
		<path class="st0" d="M161.3,151.8c4.6-6.7,9.3-13.3,15.2-18.9c4.3,3.5,8,7.8,12.8,10.7c6.2,1.5,12.7,0.6,18.9,1.4
			c-0.4,2.9-0.9,5.8-1.3,8.7c-5.4,12.9-6.9,27.2-6.7,41.1c-17.2-1.9-34-6-50.5-10.8C151.7,172.8,154.7,161.4,161.3,151.8z"/>
		<path class="st0" d="M211.4,146c3.6-0.4,7.2-0.7,10.8-0.8c-1.3,3.9,1.5,12.2-4.7,11.9c-2.1,0.1-4.2,0.1-6.2,0
			C211.3,153.4,211.3,149.7,211.4,146z"/>
	</g>
	<g>
		<path class="st1" d="M176.3,32.7c4.7-3,10.5-2.1,15.6-0.8c11,3,21.7,6.9,32.7,9.9c3-8.1,13.3-8,19.7-4.2c3.7-3.9,9.4-6.6,14.6-4.1
			c8.4,3.4,9.5,14.1,8.9,22c3.8,2.2,8.7,2.8,11.9,6c5.3,5.7,5.8,14.7,12.1,19.6c20.2,18.3,34.3,43,40.4,69.5
			c7.1,29.3,3.4,60.8-9,88.1c-14,30.4-39.4,55.5-70.4,68.4c-2.7,7,0.8,17-6.6,21.5c-7.1,5.1-14.7,9.2-22.4,13.2
			c-4.7,2.3-9.6,5.2-15,4.5c-20.5-2.2-40.9-5.8-60.5-12.2c-2-0.7-4.3-1.7-4.9-4c-3-8.9-5.1-18.1-7.9-27.1
			c-29.1-15.2-52.6-41-64.4-71.7C58,198.2,58.7,160,72.8,127.4c16.4-38.7,51.5-68.6,92.3-78.7C168.5,43.2,170,35.7,176.3,32.7
			 M167.1,51.8c-21.2,3.9-40.2,15.7-56.9,28.7l0.5,0.7c-11.1,8.5-19.5,20.1-27.1,31.8l0.1,0.3c-14.4,23.7-20.6,52-18.4,79.5
			c0.7,7,1.8,13.9,3.4,20.7c9.1,37.3,34.9,70.3,69.3,87.4c3.2,9.7,5.4,19.8,8.7,29.5c15.3,5.8,31.6,9,47.8,11.1
			c8.2,1.1,17.3,4.2,25.1-0.4c8.4-4.3,16.8-8.7,24.5-14.2c1.3-1.2,3.5-2.1,3.7-4.1c0.9-5.8,1.3-11.6,2.4-17.4
			c39.2-15.9,69.8-51.6,79.1-92.9h0.2c1.2-5.6,2.2-11.3,2.8-17c2.4-18.4-0.4-37-5.6-54.7c-7.6-22.6-20.5-44-39.1-59
			c-2.1-3.5-4-7.2-5.8-10.9c-0.7-1.7-1.4-3.5-2.1-5.2c-3.7-4.7-9.9-5.9-15.2-7.8c1.1-7.3,1.4-17.3-6.1-21.4
			c-5.2-2.8-10.7,0.8-13.1,5.5c-4.1-2.9-9.7-5.3-14.6-3.1c-2.8,1.2-3,4.5-3.3,7.1c-10.6-3.6-21.3-6.7-31.9-10.1
			c-4.8-1.4-10-2.8-15-1.6C172.1,35.9,171,45.6,167.1,51.8z"/>
		<path class="st1" d="M120,92.5c4.6-1,3.7,5.6-0.4,3.1C119.7,94.8,119.9,93.3,120,92.5z"/>
		<path class="st1" d="M132.4,108.7c0.8,1.7,2,2.9,3.8,3.7c-1.5,1.1-2.2,2.8-2.5,4.6c-0.9-1.4-1.9-2.7-3-4
			C131.1,112,132,109.8,132.4,108.7z"/>
		<path class="st1" d="M293,146.7c2.1,0.3,3.7-0.5,4.6-2.5c0.1,2.1,1.3,3.5,3.2,4.3c-1.9,0.1-3.5,0.9-4.7,2.3
			C295.5,149.1,294.4,147.7,293,146.7z"/>
		<path class="st1" d="M241.4,163.1c0.6,0.2,1.7,0.6,2.2,0.8c-4.1,5.9-1.7,13.8-2.4,20.6c0.6,0.9,1.7,2.7,2.3,3.6
			c-0.8,0-2.3-0.1-3.1-0.1c-1.2-7.7,0.8-15.7-1.5-23.3C239.5,164.2,240.7,163.5,241.4,163.1z"/>
		<path class="st1" d="M121.4,190.9c0.7,1.9,1.5,3.7,2.2,5.5c1.3,0.1,3.8,0.4,5.1,0.5c-4.2,1.3-5.7,4.7-5.3,9
			c-0.3-0.8-0.6-1.7-0.9-2.5c-0.3-0.9-0.9-2.6-1.3-3.5c-1.3-0.3-3.8-0.9-5.1-1.2c3.7-0.6,5.3-2.6,5-6.1L121.4,190.9z"/>
	</g>
	<g>
		<path class="st2" d="M167.1,51.8c3.9-6.2,5-15.8,13.3-17.6c5-1.1,10.2,0.2,15,1.6c10.6,3.3,21.4,6.5,31.9,10.1
			c0.3-2.6,0.5-5.8,3.3-7.1c4.9-2.3,10.5,0.2,14.6,3.1c2.4-4.7,7.9-8.2,13.1-5.5c7.5,4.1,7.2,14.1,6.1,21.4c5.3,2,11.5,3.1,15.2,7.8
			l-2.2,0.5c-25.3-11.5-52.5-18.1-78.8-27c-5.8-1.8-12-4.2-18.2-2.7c-4.2,0.9-5.6,5.5-7.7,8.7c-2.2,3.9-4.1,7.9-5.8,12
			c-0.2,0.7-0.5,2.1-0.6,2.8l0.9,1.4c0.8,1.5,1.6,3.1,2.2,4.7c-2.2,4.7-4.4,9.3-6.6,14c-0.4-4.9,3.3-9.2,3.2-13.9
			C162.7,61.7,164.9,56.4,167.1,51.8 M251,39c-3.2,1.3-3,5.2-3.9,7.9c-0.2,0.4-0.5,1.1-0.7,1.5c-2.4-2.5-3.9-7.7-8-7.3
			c-1.6-2.9-9.2,0-8.5,3.8c0.9,3.2,4.6,3.4,7.2,4.4c8.2,2.2,16.3,5,24.4,7.7c1.8-5.9,1.4-12.5-2.1-17.7
			C256.7,38.5,253.6,36.8,251,39z"/>
		<path class="st2" d="M291.5,101.1c0.3-10.9-11.5-19.2-9.8-30.3c1.8,3.7,3.7,7.4,5.8,10.9c2.1,6.3,5.7,12.2,6.4,18.9
			c-1.4,9.2-6.9,17.1-11.3,25.2c-5,7.9-8.7,16.8-15,23.8c-4.8,2.9-9.4,6.2-13.7,9.8c-7.4,0.5-14.7-1.7-22-2.3
			c0.2,3.7,0.6,7.4,1.6,11c-0.7,0.4-2,1.2-2.6,1.6c-0.2-2.5-0.4-5-0.6-7.5c-0.2-3.5,0-7-0.5-10.5c-1.6-2.9-4.9-4.4-7.5-6.3
			c-3.6,0.1-7.2,0.4-10.8,0.8l-1,0.2c-0.2,13.8-0.6,27.8,2,41.4c0.5,3.4,3.2,5.6,5.7,7.6c13.3,3.9,27.7,1.2,40.3-3.6
			c2.8-2.1,2.2-5.9,2.3-9c-0.1-4,0.1-8.2-1.1-12.1c-4.8-3.4-10.4-5.1-16-6.7c-0.6-0.2-1.7-0.6-2.2-0.8c-0.6-0.5-1.9-1.4-2.5-1.9
			c8.5,0.7,16.9,3.5,23.7,8.8c-1,7.4,0.7,14.9-0.7,22.3c-2.8,2.9-7,3.5-10.7,4.6c-8.2,2.2-16.8,2.8-25.3,2.7
			c-0.5,5.5-1.6,11-1.4,16.5c1.1,5.2,3.3,10.1,4.7,15.2c1.6,5.6,3.9,11.1,6.6,16.3c9-1.1,18.2-1.2,27.3-1.9
			c5.4-0.2,9.5-4.3,14.1-6.6c5.1-3.1,11.9-3.3,15.5-8.5c8.6-1.1,12.5-9.9,20.3-12.4c4.6-1.8,9.1-3.9,13.8-5.5
			c0.6-0.1,1.9-0.2,2.5-0.2c-9.3,41.3-39.9,77-79.1,92.9c-1.1,5.7-1.5,11.6-2.4,17.4c-0.2,2-2.4,2.9-3.7,4.1
			c-7.7,5.4-16.1,9.9-24.5,14.2c-7.7,4.5-16.9,1.5-25.1,0.4l2.4-1.7c4,0.4,7.9,0.9,11.9,1.2c1.3,0.1,3.9,0.1,5.2,0.2
			c5.8-2.5,11.1-5.9,16.6-9c5.1-2.5,10-5.7,14.8-8.8c0.9-6.2,1.7-12.3,2.4-18.5c0.3-2.7,0.7-5.4,1.1-8c0.8-4.9,1.3-9.8,1.8-14.7
			c-3-0.4-6.1-0.9-9.1-1.3c-2.4,2.7-4.8,5.5-7.6,7.8c-3,0-6.1-0.1-9.1-0.1c-1.2,3.4-1.3,7.6-4.4,9.9c-2.6,2.3-6.3,2.3-9.5,2.5
			c-4.8-1.1-10.7-3.3-10.6-9.2c2.7,2.3,5.5,4.5,8.7,6.1c2.8,1.3,5.9,0.2,8.8,0c3.2-3.3,4.3-7.8,5.2-12.2c2.9,0.4,5.8,0.9,8.7,0.7
			c4.8-1.5,6.6-6.7,8.8-10.6c3.4,1.6,7.3,5.1,11.1,2.3c5-3.8,4.9-10.7,5.6-16.4c-13.3,4.2-25.1,12.4-38.7,15.8
			c-3.9,0.4-7.9,0.3-11.7-0.6c8.7,1.2,17.3-1,25-5.1c7.8-3.9,16-7,23.8-10.8c0.2-2.8-3.1-2-4.9-2.5c-4.2-0.5-8.4,0.2-12.6,0.7
			c-6.7,5.9-14.9,11.8-24.3,10.7c-8.5-1-18.9-0.1-24.8-7.5c-10.2,3.1-21,2.6-31.3,0.2c6.9-1.5,14,0.1,21-0.3
			c3.9-0.8,8.1-1.9,10.5-5.4c0-0.8,0.1-2.5,0.2-3.3c8.3,1.6,16.8,2.8,25.2,3.6c6.4-1.1,12-4.7,17.5-8c-4-12.2-8.2-24.2-11.7-36.5
			c3.2-3.9,3.1-9,3.1-13.8c-4-1.1-8-2-12.1-2.5c-0.9-0.3-2.6-0.9-3.5-1.2c1.1-0.2,3.2-0.6,4.3-0.8c-2.4-7.4-3.2-15.2-3.7-22.9
			c-0.5-8.5,0.1-17.1,0.6-25.6c0.8-4.9-6.1-3.9-9.2-4.5c5.8-2.9,11.3,1.7,16.8,3.2l-0.5-2.6c4.7,1.7,9.6,3.2,13.9,5.8
			c0.9,2.2,1.8,4.5,2.6,6.8c5,1.1,10,2.1,15.1,2.5c5.8,1.7,9.5-2.8,11.5-7.6c2-0.3,4.1-0.6,6.1-0.9
			C275.6,133.5,285.3,118,291.5,101.1 M225.7,254.9c-5,3.5-11.5,2.9-17.2,3.8c-5.9-1.2-11.9-2.3-18-2.7c1.2,1.8,0.6,5.8,2.4,6.4
			c4.4,4.5,11.2,4.4,17,4.4c2.9,0.8,6.1,0.4,9.1,0.6c5.7-1.9,10.9-5.2,15.2-9.3c2-2.6-0.2-5.5-1.6-7.8
			C230.3,251.9,228,253.5,225.7,254.9 M269.9,279.9C270,285.4,275,277.5,269.9,279.9z"/>
		<path class="st2" d="M134.8,134.8c2.9,0.1,5.9,0.4,8.7,1.2c5.8,1.4,9.6,6.4,14.8,8.8l1,0.4c-0.6,0.6-1.7,1.9-2.2,2.5
			c-3.8-3-7.2-6.6-11.5-8.8c-3.9-1.3-8-2.2-12.1-2.6L134.8,134.8z"/>
	</g>
	<g>
		<path class="st3" d="M172.6,45.2c2.1-3.2,3.5-7.8,7.7-8.7c6.2-1.6,12.4,0.9,18.2,2.7c26.3,8.9,53.5,15.4,78.8,27
			c-0.2,2.6-0.3,5.3-0.4,7.9c-0.7-2.4-0.1-6.2-2.9-7.2c-14.4-6.3-29.5-10.6-44.3-15.9c-12.4-4.1-24.7-8.5-37.4-11.8
			c-3.4-0.8-7-1.7-10.5-1.1C178.2,39.5,175.5,42.6,172.6,45.2z"/>
		<path class="st3" d="M156.9,120.2c19.9,6.9,39.9,13.7,59.4,21.6l0.5,2.6c-5.5-1.5-11-6.1-16.8-3.2c-0.2,0-0.6,0.1-0.8,0.1
			c-3.8-4.2-9.6-5-14.8-6.3c-0.1-0.2-0.3-0.5-0.5-0.7c-0.4-0.6-1.1-1.9-1.5-2.5c-3.9-2.2-8.1-3.8-12.2-5.4c-1.3,1.8-2.6,3.5-3.9,5.3
			c-3.1-2.3-6.2-4.7-9-7.2C157.2,123.4,157,121.3,156.9,120.2z"/>
		<path class="st3" d="M218.1,195.2c7.5-2.5,15.2-4.3,22.9-6.2c5.9-0.4,11.9,0.5,17.5,2.7C245.7,196.4,231.3,199,218.1,195.2z"/>
	</g>
	<g>
		<path class="st4" d="M172.6,45.2c2.9-2.6,5.6-5.7,9.3-7.2c3.5-0.6,7.1,0.3,10.5,1.1c12.6,3.4,25,7.8,37.4,11.8
			c14.7,5.3,29.9,9.6,44.3,15.9c2.8,1,2.2,4.8,2.9,7.2c-3,7.5-6.2,15.4-11.2,21.7c-4.4,0.7-8.3-2-12.1-3.6c2.4-8,5.4-15.8,8.5-23.6
			c-22.9-9.1-46.6-15.8-70.1-22.9c-3.3-0.5-7.3-2.7-10.4-0.7c-3.8,5-5.5,11.2-8.7,16.6c-0.7,0.1-2.1,0.1-2.8,0.2
			c-0.6-1.7-1.2-3.9-3.3-4.4C168.5,53.2,170.4,49.1,172.6,45.2z"/>
		<path class="st4" d="M251,40.3c2.5-1.8,5.7-0.9,8.5-1c3.5,5.2,3.9,11.8,2.1,17.7c-8.1-2.7-16.2-5.4-24.4-7.7
			c-2.6-1-6.3-1.2-7.2-4.4c2.9-1,5.7-2.5,8.5-3.8c4.1-0.4,5.5,4.8,8,7.3c0.2-0.4,0.5-1.1,0.7-1.5C248.3,44.7,249.4,42.3,251,40.3z"
			/>
	</g>
	<g>
		<path class="st5" d="M251,39c2.6-2.2,5.7-0.6,8.5,0.2c-2.8,0.1-6.1-0.8-8.5,1c-1.6,2-2.7,4.4-3.9,6.7
			C247.9,44.2,247.8,40.3,251,39z"/>
		<path class="st5" d="M166.8,57.3c2,0.5,2.7,2.7,3.3,4.4c-0.7-0.1-2.2-0.1-3-0.2l-0.9-1.4C166.3,59.4,166.6,58,166.8,57.3z"/>
		<path class="st5" d="M257.6,130c4.6-6.9,8-14.3,12.5-21.3c3.1,2.9,6.1,6.1,7.5,10.3c-2.4-1.4-4.7-3-7.1-4.3c-2.8,3.8-5,8-7.4,12
			c0.7,2.7,1.4,5.4,2.1,8.2c0.1,0.6,0.4,1.6,0.5,2.2c-0.8,1.4-1.5,2.7-2.3,4.1c-3.3-0.8-6.5-1.7-9.7-2.8c1.4,1.3,2.8,2.6,4.2,3.9
			c-0.6,2.7-2.5,6.3,1.6,7.1c-2,4.8-5.7,9.3-11.5,7.6c-3.6-2.7-7.3-5.3-11.3-7.4c1.9-5.4,4-10.7,6.4-15.8c1.8-2.6,3.4-5.3,4.8-8.1
			C251.1,127,254.4,128.5,257.6,130z"/>
		<path class="st5" d="M134.4,139.4c3.7-0.2,7.4-0.4,11.2-0.4c4.3,2.2,7.7,5.8,11.5,8.8c-1.9,2.1-3.8,4.2-6.1,5.9
			C143.5,152.2,137.3,146.4,134.4,139.4z"/>
		<path class="st5" d="M216.8,159.8c4.6-0.6,9.2,0.7,13.5,2.3c0.2,2.5,0.4,5,0.6,7.5c-2.8,1.5-5.9,2.7-8.9,3.8
			c-0.7-4.2-1.2-8.5-1.6-12.7C219.5,160.4,217.7,160,216.8,159.8z"/>
		<path class="st5" d="M241.2,184.5c0.8-6.8-1.7-14.7,2.4-20.6c5.5,1.7,11.2,3.4,16,6.7c1.3,3.9,1,8.1,1.1,12.1
			c-0.2,3.1,0.5,6.8-2.3,9c-5.6-2.1-11.5-3-17.5-2.7l-0.6-1c0.8,0,2.3,0.1,3.1,0.1C242.9,187.1,241.7,185.4,241.2,184.5z"/>
	</g>
	<g>
		<path class="st6" d="M229.9,44.9c-0.8-3.8,6.8-6.7,8.5-3.8C235.6,42.4,232.9,43.8,229.9,44.9z"/>
		<path class="st6" d="M210.3,146.1l1-0.2c0,3.7-0.1,7.4-0.1,11.1c2.1,0,4.1,0,6.2,0c-1.6,0.2-4.9,0.6-6.5,0.8l0.2,2.2
			c1.4-0.1,4.2-0.2,5.6-0.3c0.9,0.2,2.7,0.6,3.6,0.8c0.4,4.3,0.8,8.5,1.6,12.7c3-1.1,6.1-2.2,8.9-3.8c0.7-0.4,2-1.2,2.6-1.6
			c1.8-1.1,3.6-2.3,5.4-3.4c2.3,7.6,0.3,15.6,1.5,23.3l0.6,1c-7.7,1.9-15.4,3.7-22.9,6.2c-2.5-2-5.3-4.2-5.7-7.6
			C209.7,173.9,210.2,159.9,210.3,146.1z"/>
	</g>
	<g>
		<path class="st7" d="M181.5,44.9c3.1-1.9,7.1,0.2,10.4,0.7c23.5,7.2,47.2,13.8,70.1,22.9c-3.1,7.8-6.1,15.6-8.5,23.6
			c3.9,1.5,7.8,4.2,12.1,3.6c5.1-6.3,8.3-14.2,11.2-21.7c0.2-2.6,0.2-5.3,0.4-7.9l2.2-0.5c0.7,1.7,1.4,3.5,2.1,5.2
			c-1.7,11.1,10.1,19.4,9.8,30.3c-6.2,16.9-15.9,32.4-26.1,47.3c-2,0.3-4.1,0.7-6.1,0.9c-4.1-0.9-2.2-4.4-1.6-7.1
			c-1.4-1.3-2.8-2.6-4.2-3.9c3.2,1.1,6.4,2,9.7,2.8c0.8-1.4,1.5-2.7,2.3-4.1c3.3-5.7,6.7-11.3,10.1-16.9c-1.5-1.3-3.2-2.4-4.8-3.4
			c-4.9,4.7-6.9,11.4-5.7,18.1c-0.7-2.7-1.4-5.4-2.1-8.2c2.4-4,4.7-8.2,7.4-12c2.4,1.3,4.7,2.9,7.1,4.3c-1.3-4.2-4.4-7.3-7.5-10.3
			c-4.4,6.9-7.9,14.4-12.5,21.3c-3.3-1.5-6.6-2.9-9.9-4.4c0.4-10,8.8-17.2,11.4-26.5c-2.2-2.4-5.3-4.1-7.1-6.9
			c0.7-7.1,4.3-13.5,6.6-20.2c-24.7-9.4-50-16.6-75.2-24.3c-3,6.6-6.1,13.2-10.1,19.3c-1-0.2-3.1-0.6-4.1-0.8
			c-0.6-1.6-1.4-3.2-2.2-4.7c0.7,0.1,2.2,0.1,3,0.2c0.7-0.1,2.1-0.1,2.8-0.2C176,56.1,177.8,49.9,181.5,44.9 M261.6,99.4
			c-3.4,8.3-8.2,15.9-12,23.9c0.6,0,1.9-0.1,2.5-0.1c2.9-3.8,4.7-8.3,7.3-12.4c1.9-3.6,4.8-7.1,4.2-11.4
			C263.1,99.5,262.1,99.4,261.6,99.4z"/>
	</g>
	<g>
		<path class="st8" d="M173.4,66.9c4-6.1,7.1-12.7,10.1-19.3c25.2,7.7,50.6,14.9,75.2,24.3c-2.3,6.7-5.9,13.1-6.6,20.2
			c1.8,2.8,4.9,4.5,7.1,6.9c-2.7,9.3-11.1,16.5-11.4,26.5c-1.5,2.8-3.1,5.5-4.8,8.1c-4.7,4.3-6.7,11.1-12.8,13.9
			c-4.3-2.6-9.2-4.1-13.9-5.8c-19.5-7.9-39.5-14.7-59.4-21.6c0.1,1.1,0.3,3.2,0.4,4.3c-3.2-2.7-6.3-5.5-9-8.7
			c3.6-10,7.6-19.9,11.8-29.7c1-1.9,1.8-3.9,2.7-5.9c2.1-4.7,4.4-9.4,6.6-14C170.3,66.3,172.3,66.8,173.4,66.9 M183.7,63.2
			c5.3-0.8,10.6-0.7,15.9-0.7c3.2,0.3,2.2-3.9,2.9-5.8C196.2,54.2,185.2,55.3,183.7,63.2 M174.2,71.1c-3,8-6.7,15.9-9.1,24.1
			c5.9,3,11.9,6.9,18.7,7.3c4.9,0.3,6.4-5.4,8.1-8.8c2.6-7.1,7.2-13.7,7.2-21.5c-5.5-4-12.2-5.9-18.8-6.8
			C176.6,64.6,175.3,68.5,174.2,71.1 M231.7,72.1c5.4,3.3,9.7,8.5,15.7,10.8c0.4-7.5-5.4-13.4-11.8-16.1
			C234.3,68.5,233,70.3,231.7,72.1 M226.5,81.9c-3,1.2-3.7,5.1-5,7.8c-2.6,7.6-6.6,14.8-8.4,22.7c4.6,4.4,11.4,6.3,17.4,8.2
			c7.5,1.5,9.3-7.9,11.8-13c2-6.3,8.1-13.1,4.6-19.7C241,83.9,233.5,81.9,226.5,81.9 M192.7,104.8c-1.8,2.1-3.8,4.1-5.8,6.2
			c4.1-1.8,8.7-4.7,13.2-2.1c4.5,1.2,3.9,6.7,6.6,9.7c-0.2-4.3-0.4-8.6-0.2-13c-0.3,0.9-1,2.5-1.3,3.4
			C201.1,107.3,196.9,105.9,192.7,104.8 M191.9,126.7c0.2-3.5,0.1-7-0.1-10.4C188.4,118.9,188.1,124.2,191.9,126.7z"/>
	</g>
	<g>
		<path class="st9" d="M110.2,80.4c16.7-13,35.6-24.8,56.9-28.7c-2.1,4.6-4.4,9.9-1.2,14.6c0.1,4.7-3.6,8.9-3.2,13.9
			c-0.8,2-1.7,3.9-2.7,5.9c-5,4.9-6.8,11.8-9.7,18c-1.7,4.2-4.1,8.6-3.3,13.3c4.4,7.8,14.8,10.4,17.9,19.3l-1.5-0.3
			c-4.8-0.9-9.6-2.1-14.4-3.4c-0.6-1.3-1.3-2.7-1.9-4c-0.9-0.4-1.8-0.8-2.7-1.2c-1.5-1.7-2.3-4.5-4.6-5.2c-2.4,0.8-4.7,1.9-7,3
			c-3.7-3.3-8-6.2-10.4-10.5c0.5-6.7-1.3-13-2.8-19.4c4.1,2.4,4.9-4.2,0.4-3.1c-1.9-0.8-3.8-1.7-5.7-2.6c-0.9-3-2.1-5.9-3.6-8.7
			L110.2,80.4 M145.7,77.4C146,82.9,150.7,74.8,145.7,77.4 M132.4,108.7c-0.5,1.1-1.4,3.2-1.8,4.3c1.1,1.3,2.1,2.6,3,4
			c0.4-1.8,1-3.5,2.5-4.6C134.5,111.6,133.2,110.4,132.4,108.7z"/>
	</g>
	<g>
		<path class="st10" d="M183.7,63.2c1.4-7.9,12.5-9.1,18.8-6.4c-0.7,1.9,0.3,6-2.9,5.8C194.3,62.5,189,62.5,183.7,63.2z"/>
	</g>
	<g>
		<path class="st11" d="M174.2,71.1c1.2-2.5,2.4-6.5,6-5.7c6.7,0.9,13.4,2.8,18.8,6.8c0,7.8-4.6,14.4-7.2,21.5
			c-1.7,3.5-3.3,9.2-8.1,8.8c-6.8-0.4-12.7-4.3-18.7-7.3C167.5,86.9,171.1,79.1,174.2,71.1 M175.1,75.4c-2.2,6.1-5.4,11.9-6.6,18.4
			c4.4,3.4,10,5,15.4,6c2.6-0.7,3.5-3.5,4.5-5.6c2.8-5.8,4.5-12.2,8-17.6c-2.4-6.8-10.7-7-16.6-8.6
			C176.8,69.2,176.4,72.8,175.1,75.4z"/>
		<path class="st11" d="M114.7,199.6c1.5-2.9,2.4-6.9,6.5-6.9c0.3,3.5-1.4,5.5-5,6.1c1.3,0.3,3.8,0.9,5.1,1.2
			c0.3,0.9,0.9,2.6,1.3,3.5C119.9,202.3,117.2,201,114.7,199.6z"/>
	</g>
	<g>
		<path class="st12" d="M231.7,72.1c1.3-1.8,2.6-3.6,3.9-5.3c6.5,2.7,12.3,8.6,11.8,16.1C241.5,80.5,237.2,75.4,231.7,72.1z"/>
	</g>
	<g>
		<path class="st13" d="M175.1,75.4c1.4-2.6,1.7-6.2,4.7-7.5c5.9,1.6,14.3,1.8,16.6,8.6c-3.5,5.5-5.2,11.8-8,17.6
			c-1.1,2.1-1.9,5-4.5,5.6c-5.4-1-11-2.6-15.4-6C169.7,87.4,172.9,81.5,175.1,75.4 M184.9,79.8c-1.6,2.9-2.8,6-3.7,9.2
			c-1.1,2.5,2.7,2.5,4,3.4c2.3-3.6,4.6-7.4,5.3-11.7C188.6,80.5,186.7,78.6,184.9,79.8z"/>
		<path class="st13" d="M226.5,84.2c5.6,0.3,11.2,1.8,16.1,4.4c4.6,2.8,0.8,8.2-0.4,11.9c-2.6,5.4-4.2,11.2-7.4,16.2
			c-6.2,2.9-13.3-2.2-19-4.9C218.5,102.2,222.6,93.2,226.5,84.2 M225.7,106.4c1.2,0.3,3.6,1,4.8,1.3c1.5-2.5,3-5.1,4.5-7.6
			c-0.6-0.3-1.7-0.8-2.3-1.1l-0.5-1.2c0.8-0.6,2.5-1.7,3.3-2.2C227.9,91.7,227.7,101.8,225.7,106.4z"/>
	</g>
	<g>
		<path class="st14" d="M184.9,79.8c1.8-1.2,3.7,0.7,5.5,0.9c-0.7,4.3-3,8.1-5.3,11.7c-1.3-0.9-5.1-0.9-4-3.4
			C182.1,85.8,183.3,82.7,184.9,79.8 M184.6,87.2c2.1,0.3,4.1-3,2.9-4.7C185.3,82.2,183.5,85.4,184.6,87.2z"/>
		<path class="st14" d="M288.9,215.9c13.1-9.2,26.9-18.7,43.3-20.4c-0.7,5.7-1.6,11.4-2.8,17h-0.2c-0.6,0.1-1.9,0.2-2.5,0.2
			c-4.7,1.7-9.2,3.7-13.8,5.5c-7.9,2.5-11.7,11.3-20.3,12.4c-3.6,5.2-10.4,5.4-15.5,8.5c-4.6,2.3-8.6,6.4-14.1,6.6
			c-9.1,0.7-18.2,0.8-27.3,1.9c-2.7-5.2-4.9-10.7-6.6-16.3c0.5-0.5,1.5-1.6,1.9-2.1c2.6-0.4,5.2-0.7,7.7-1.2
			c1.2,2.5,2.2,2.4,2.9-0.3c0.5,0.1,1.4,0.2,1.8,0.2c1,0.9,2,1.8,3,2.8c7.5-5,16.9-1.3,24.8-4.9
			C277.6,223.1,284.1,220.7,288.9,215.9z"/>
	</g>
	<g>
		<path class="st15" d="M226.5,81.9c7.1-0.1,14.6,2,20.5,5.9c3.5,6.6-2.6,13.5-4.6,19.7c-2.5,5-4.3,14.5-11.8,13
			c-6.1-1.9-12.8-3.8-17.4-8.2c1.8-7.9,5.8-15,8.4-22.7C222.8,87,223.5,83.1,226.5,81.9 M226.5,84.2c-3.8,9.1-8,18.1-10.6,27.6
			c5.7,2.6,12.8,7.7,19,4.9c3.2-5,4.8-10.9,7.4-16.2c1.2-3.7,5-9.1,0.4-11.9C237.6,86,232.1,84.5,226.5,84.2z"/>
		<path class="st15" d="M192.7,104.8c4.2,1.2,8.4,2.5,12.5,4.2c0.3-0.9,1-2.5,1.3-3.4c-0.2,4.3,0,8.6,0.2,13c-2.7-3-2.1-8.5-6.6-9.7
			c-4.5-2.6-9.1,0.3-13.2,2.1C188.9,108.9,190.8,106.9,192.7,104.8z"/>
	</g>
	<g>
		<path class="st16" d="M83.6,112.9c7.6-11.6,16-23.3,27.1-31.8c1.5,2.8,2.7,5.7,3.6,8.7c1.9,0.9,3.8,1.8,5.7,2.6
			c-0.1,0.8-0.3,2.3-0.4,3.1c1.6,6.4,3.4,12.7,2.8,19.4c2.4,4.4,6.8,7.3,10.4,10.5c2.3-1.1,4.6-2.2,7-3c2.3,0.8,3.1,3.5,4.6,5.2
			c0.9,0.4,1.8,0.8,2.7,1.2c0.7,1.3,1.3,2.6,1.9,4c4.8,1.3,9.5,2.5,14.4,3.4c-0.2,0.8-0.6,2.3-0.9,3.1l0.1,1.3
			c-1.5,1.3-3,2.6-4.3,4.1c-5.3-2.4-9-7.5-14.8-8.8c-2.8-0.8-5.8-1.1-8.7-1.2l-1.3,1.5c-1.7,2-3.3,4.2-4.7,6.4l-0.3-3
			c-3.6,4.3-6.4,9.1-8.9,14.1c-4.6-3.6-8.8-7.8-12.5-12.4c-1.9-0.4-3.8-0.9-5.7-1.3c-1.1-3.9-2.9-7.6-6.4-9.7
			c-6.1-4-8.3-11.1-11.3-17.3L83.6,112.9z"/>
		<path class="st16" d="M287.5,81.7c18.7,15,31.6,36.5,39.1,59c-4.3,3.9-9.7,6.1-15.5,6.2c0.8,1.1,1.5,2.2,2.3,3.3
			c-5.1,2.4-9.6,5.8-14.2,9c-6,4.4-13.7,1.8-20.6,2.4c0.6,0.5,1.8,1.6,2.4,2.1c6.2,0.7,12.6-0.4,18.7,1.5
			c-10.3,2.3-21.3-0.6-31.3,2.6c3.7,0.9,7.4,1.6,11.1,2.4c-3.3,0.5-6.5,1-9.7,1.4c-0.4,2-0.9,4-1.3,6c-2-1.2-4.6-2.3-2.2-4.8
			c-1.2-1-2.5-2-3.7-2.9c-6.8-5.2-15.2-8.1-23.7-8.8c0.6,0.5,1.8,1.4,2.5,1.9c-0.6,0.4-1.9,1.2-2.5,1.5c-1.8,1.1-3.6,2.3-5.4,3.4
			c-0.9-3.6-1.4-7.3-1.6-11c7.4,0.6,14.6,2.9,22,2.3c4.3-3.6,8.9-6.9,13.7-9.8c6.3-7,10.1-15.8,15-23.8c4.3-8.1,9.8-16,11.3-25.2
			C293.3,93.9,289.7,88,287.5,81.7 M293,146.7c1.5,1,2.5,2.4,3.2,4.1c1.2-1.4,2.8-2.2,4.7-2.3c-1.9-0.8-3.1-2.1-3.2-4.3
			C296.7,146.2,295.1,147,293,146.7z"/>
	</g>
	<g>
		<path class="st17" d="M184.6,87.2c-1-1.8,0.7-5,2.9-4.7C188.7,84.2,186.6,87.5,184.6,87.2z"/>
		<path class="st17" d="M230,97.8c0.6,0,1.7,0,2.2,0l0.5,1.2c-0.3,1-0.9,3-1.2,4C229.8,101.6,229.3,99.9,230,97.8z"/>
		<path class="st17" d="M148.9,190.1c0.1-1,0.3-3,0.4-4c16.5,5.2,33.4,8.7,50.5,10.9c-0.1,5.8,0.2,11.5,0.8,17.3
			c-3-0.2-5.9-0.5-8.9-0.7c-8.7-1.9-17.5-3.5-26.4-4.7c1,0.9,3,2.7,4.1,3.6c0.5,13.7,2.8,27.2,6,40.4c-7.3-0.1-14.6-1.3-21.7-2.9
			c-0.3-14.7-4.2-29.7-1-44.3c5.4,1.1,10.9,1.7,16.4,1.7c-5.6-2-11.6-2.8-17.3-4.6C150.4,198.7,149.7,194.4,148.9,190.1z"/>
		<path class="st17" d="M184.2,215.2c0.9,0.1,2.6,0.2,3.5,0.2c5.3,1.1,10.6,2.3,16,3.2c3.1,13,6.9,25.7,10.9,38.4
			c-8.5-0.8-16.9-2-25.2-3.6l-0.1-2.7C187.5,238.9,185.6,227.1,184.2,215.2z"/>
	</g>
	<g>
		<path class="st18" d="M150.4,104.1c2.9-6.2,4.6-13.1,9.7-18c-4.2,9.8-8.2,19.7-11.8,29.7c2.7,3.2,5.8,6.1,9,8.7
			c2.9,2.6,5.9,4.9,9,7.2c1.3-1.8,2.6-3.5,3.9-5.3c4.1,1.7,8.3,3.3,12.2,5.4c0.4,0.6,1.1,1.9,1.5,2.5c-1.8-1-3.7-1.9-5.6-2.7
			c-0.5,0.3-1.4,0.9-1.9,1.2c-5.8,5.6-10.6,12.3-15.2,18.9c-6.5,9.6-9.5,21-11.6,32.2c16.6,4.8,33.4,8.9,50.5,10.8
			c2.6,0.1,5.2,0.2,7.8,0.3c0.9,0.3,2.6,0.9,3.5,1.2c-3.8,0.6-7.7,1-11.6,0.8c-17.1-2.2-34.1-5.8-50.5-10.9c-0.1,1-0.3,3-0.4,4
			c-0.6,4.9-0.7,9.9-0.6,14.8c1.1,0.2,3.3,0.6,4.4,0.8c-3.2,14.6,0.7,29.6,1,44.3c7.2,1.5,14.4,2.7,21.7,2.9c4.6-1,9.2-2.2,13.9-2.2
			l0.1,2.7c0,0.8-0.1,2.5-0.2,3.3c-1.2-1.4-2.5-2.8-3.7-4.2c-3.4,0.9-6.7,1.8-10.1,2.5c-7.3-0.3-14.4-1.5-21.6-2.6
			c1.3,3.4,2.6,6.7,4,10c-2.1-1.1-3.9-2.7-5.6-4.3c-4.6,2.2-9.2,4.3-13.6,6.7c-1.9,1.2-3.7,2.4-5.5,3.7c6.4,1.2,12.9,1.4,19.4,2
			c-5.4,0.1-10.8-0.1-16.2-0.8c-1.5-0.3-2.9-0.3-4.3-0.1c-1.1,2.7-0.3,5.6,0.2,8.3c0.1,0.7,0.4,2,0.5,2.6c0.3,0.7,0.8,2.1,1.1,2.8
			c4.2,9,16.5,7.3,22.8,1.6c2.5,2.6,4.6,6.6,8.7,6.6c4,0.5,7.3-2.1,10.5-4c0.8,0.8,2.5,2.3,3.4,3.1c0.1,0.1,0.3,0.3,0.4,0.4
			c3,4.4,9.1,5.4,13.7,3.2c2.6-1.8,4.7-4.1,7-6.1c0,0.8,0.1,2.4,0.1,3.3c-3.5,4.4-9.3,7.3-15,6.2c-4.1-0.3-7-3.5-10.1-5.8
			c-3.9,1-7.8,2.7-11.8,2.1c-2.9-0.9-5-3.2-7.4-4.9c-5.4,3.1-11.5,4-17.7,2.9c2.4,9.8,4.8,19.6,7.5,29.3c1,2.7,1.2,5.9,3.2,8.1
			c2.1,0.7,4.2,1.3,6.3,1.7c7.6,1.8,15.2,3.4,22.8,5c6.2,1.3,12.4,2.5,18.6,3.5l-2.4,1.7c-16.2-2-32.5-5.3-47.8-11.1
			c-3.4-9.7-5.5-19.7-8.7-29.5c-34.5-17.1-60.2-50.1-69.3-87.4c5.6,1.5,11.3,2.5,17.1,2.5c2,1.6,4.1,3.3,6,5c-0.3-1.6-0.7-4.9-1-6.6
			c2.1,2,4.2,4.1,6.2,6.1c8,2,16.3,3.1,23.8,6.8c8.4,4.2,18,4.8,26.7,8.2c2.2-7.5,1.4-15.4,1-23.1c-4.1-10.2-2.6-21.2-0.7-31.7
			c-0.6-0.8-1.2-1.6-1.9-2.4c0.6-0.4,1.8-1.2,2.4-1.6c3.9-10.4,8-20.7,13.9-30.2l-0.2-0.9c0.2-0.1,0.5-0.4,0.6-0.6
			c5-4.4,8.9-9.8,12.7-15.1c-5.3-1.8-8.3,2.8-10.4,6.8c-3.1-8.9-13.4-11.5-17.9-19.3C146.3,112.7,148.7,108.3,150.4,104.1z"/>
		<path class="st18" d="M163.5,136.4l1.5,0.3c-0.6,0.7-1.8,2.1-2.3,2.8C162.9,138.7,163.3,137.2,163.5,136.4z"/>
	</g>
	<g>
		<path class="st19" d="M225.7,106.4c1.9-4.5,2.2-14.6,9.8-10.8c-0.8,0.6-2.5,1.7-3.3,2.2c-0.6,0-1.7,0-2.2,0
			c-0.7,2.1-0.2,3.8,1.5,5.1c0.3-1,0.9-3,1.2-4c0.6,0.3,1.7,0.8,2.3,1.1c-1.5,2.5-3,5.1-4.5,7.6C229.4,107.4,227,106.7,225.7,106.4z
			"/>
		<path class="st19" d="M311.2,146.9c5.8-0.1,11.2-2.3,15.5-6.2c5.1,17.6,8,36.3,5.6,54.7c-16.4,1.7-30.3,11.2-43.3,20.4
			c-4.8,4.9-11.3,7.3-17.5,9.9c-7.9,3.6-17.3,0-24.8,4.9c-1-0.9-2-1.9-3-2.8c-0.5-0.1-1.4-0.2-1.8-0.2c-0.7,0.1-2.1,0.2-2.9,0.3
			c-2.6,0.5-5.1,0.9-7.7,1.2c-0.5,0.5-1.5,1.6-1.9,2.1c-1.4-5.1-3.7-10-4.7-15.2c-0.2-5.5,1-11,1.4-16.5c8.5,0,17.1-0.5,25.3-2.7
			c3.7-1.1,7.9-1.7,10.7-4.6c1.4-7.3-0.2-14.9,0.7-22.3c1.2,1,2.5,1.9,3.7,2.9c-2.4,2.6,0.2,3.7,2.2,4.8c0.4-2,0.9-4,1.3-6
			c3.2-0.4,6.5-0.9,9.7-1.4c-3.7-0.8-7.4-1.5-11.1-2.4c10.1-3.2,21-0.4,31.3-2.6c-6.1-1.9-12.5-0.9-18.7-1.5
			c-0.6-0.5-1.8-1.6-2.4-2.1c6.8-0.6,14.6,1.9,20.6-2.4c4.6-3.3,9.1-6.6,14.2-9C312.7,149.1,312,148,311.2,146.9 M318.1,191.6
			C319,192.5,319,192.5,318.1,191.6 M273.5,213.5c0.1,0.9,0.2,2.7,0.3,3.5c0.7-0.1,2.1-0.2,2.8-0.3c0.1-0.8,0.2-2.3,0.2-3.1
			C276,213.6,274.4,213.5,273.5,213.5z"/>
	</g>
	<g>
		<path class="st20" d="M261.6,99.4c0.5,0,1.5,0.1,2,0.1c0.6,4.3-2.3,7.8-4.2,11.4c-2.5,4.1-4.3,8.6-7.3,12.4
			c-0.6,0-1.9,0.1-2.5,0.1C253.4,115.3,258.2,107.7,261.6,99.4z"/>
	</g>
	<g>
		<path class="st21" d="M83.7,113.2c3,6.2,5.2,13.3,11.3,17.3c3.5,2.2,5.3,5.9,6.4,9.7c1.9,0.4,3.8,0.9,5.7,1.3
			c3.7,4.6,7.8,8.8,12.5,12.4c2.5-5,5.3-9.8,8.9-14.1l0.3,3c-2.3,4.5-4.7,9-7.2,13.4c6.4,9.3,15.5,17.9,26.8,20.4
			c-0.6,0.4-1.8,1.2-2.4,1.6c0.6,0.8,1.2,1.6,1.9,2.4c-1.9,10.5-3.4,21.5,0.7,31.7c-6.2-1.7-12.8,0.6-18.8-1.8
			c-0.9,0.4-1.8,0.8-2.8,1.2c-9-1.5-19.8-2.7-25.5-10.7c-5.3-1.6-10.4-3.9-15.5-6.3c-6.5-3.1-13.8-2.1-20.7-2.1
			C63.1,165.1,69.3,136.8,83.7,113.2 M81.5,138.1C79,143.1,87.1,138.2,81.5,138.1 M97.1,177.8C97.4,183.3,102.2,175.2,97.1,177.8
			 M121.4,190.9l-0.2,1.8c-4.1,0-5,3.9-6.5,6.9c2.5,1.5,5.2,2.7,7.9,3.8c0.3,0.9,0.6,1.7,0.9,2.5c-0.4-4.3,1.1-7.6,5.3-9
			c-1.3-0.1-3.8-0.4-5.1-0.5C122.9,194.6,122.1,192.8,121.4,190.9z"/>
	</g>
	<g>
		<path class="st22" d="M191.9,126.7c-3.8-2.5-3.5-7.8-0.1-10.4C192,119.7,192,123.2,191.9,126.7z"/>
	</g>
	<g>
		<path class="st23" d="M270.8,116.7c1.7,1,3.3,2.1,4.8,3.4c-3.4,5.6-6.8,11.2-10.1,16.9c-0.1-0.6-0.4-1.6-0.5-2.2
			C263.9,128.1,265.9,121.4,270.8,116.7z"/>
	</g>
	<g>
		<path class="st24" d="M176.4,132.9c0.5-0.3,1.4-0.9,1.9-1.2c1.9,0.9,3.7,1.7,5.6,2.7c0.1,0.2,0.3,0.5,0.5,0.7
			c2.3,5.9,9.1,8.3,14.8,6.3c0.2,0,0.6-0.1,0.8-0.1c3.1,0.7,9.9-0.4,9.2,4.5c-0.6,8.5-1.1,17.1-0.6,25.6c-0.6-5.9-1.3-11.8-1.7-17.7
			c0.5-2.9,0.9-5.8,1.3-8.7c-6.3-0.8-12.8,0.1-18.9-1.4C184.4,140.7,180.7,136.4,176.4,132.9z"/>
	</g>
	<g>
		<path class="st25" d="M230.1,147.6c6.1-2.8,8.1-9.6,12.8-13.9c-2.4,5.1-4.5,10.4-6.4,15.8C234.4,148.8,232.3,148.2,230.1,147.6z"
			/>
	</g>
	<g>
		<path class="st26" d="M133.5,136.4c4.1,0.5,8.2,1.4,12.1,2.6c-3.7,0-7.5,0.2-11.2,0.4c2.9,7,9.1,12.8,16.6,14.4
			c2.3-1.7,4.2-3.8,6.1-5.9c0.6-0.6,1.7-1.9,2.2-2.5c0.7,0.1,2,0.2,2.7,0.3l0.2,0.9c-5.8,9.5-10,19.8-13.9,30.2
			c-11.3-2.6-20.4-11.1-26.8-20.4c2.5-4.4,4.9-8.9,7.2-13.4C130.2,140.5,131.7,138.4,133.5,136.4z"/>
		<path class="st26" d="M162.1,145.6c0.2-0.1,0.5-0.4,0.6-0.6C162.6,145.1,162.2,145.4,162.1,145.6z"/>
		<path class="st26" d="M273.5,213.5c0.8,0,2.5,0.1,3.3,0.1c-0.1,0.8-0.2,2.3-0.2,3.1c-0.7,0.1-2.1,0.2-2.8,0.3
			C273.8,216.1,273.6,214.3,273.5,213.5z"/>
	</g>
	<g>
		<path class="st27" d="M184.3,135.1c5.2,1.3,11,2.1,14.8,6.3C193.4,143.4,186.6,141,184.3,135.1z"/>
	</g>
	<g>
		<path class="st28" d="M222.2,145.2c2.6,1.9,6,3.4,7.5,6.3c0.5,3.5,0.3,7,0.5,10.5c-4.3-1.6-8.8-2.9-13.5-2.3
			c-1.4,0.1-4.2,0.2-5.6,0.3l-0.2-2.2c1.6-0.2,4.9-0.6,6.5-0.8C223.7,157.4,220.9,149.1,222.2,145.2z"/>
		<path class="st28" d="M200.2,194.8c-0.2-13.9,1.2-28.2,6.7-41.1c0.4,5.9,1.1,11.8,1.7,17.7c0.5,7.7,1.3,15.5,3.7,22.9
			c-1.1,0.2-3.2,0.6-4.3,0.8C205.4,195,202.8,195,200.2,194.8z"/>
	</g>
	<g>
		<path class="st29" d="M230.1,147.6c2.1,0.6,4.3,1.2,6.4,1.9c4,2.1,7.7,4.7,11.3,7.4c-5.1-0.4-10.1-1.4-15.1-2.5
			C231.9,152.1,231.1,149.9,230.1,147.6z"/>
	</g>
	<g>
		<path class="st30" d="M148.9,190.1c0.8,4.3,1.5,8.6,2.8,12.8c5.7,1.8,11.7,2.6,17.3,4.6c-5.5,0-11-0.6-16.4-1.7
			c-1.1-0.2-3.3-0.6-4.4-0.8C148.1,200,148.3,195,148.9,190.1z"/>
	</g>
	<g>
		<path class="st31" d="M65.3,192.7c6.9,0,14.3-1,20.7,2.1c5,2.4,10.1,4.6,15.5,6.3c5.7,8,16.5,9.2,25.5,10.7
			c0.9-0.4,1.8-0.8,2.8-1.2c6.1,2.4,12.6,0.1,18.8,1.8c0.4,7.7,1.2,15.6-1,23.1c-8.7-3.3-18.3-4-26.7-8.2
			c-7.5-3.7-15.8-4.9-23.8-6.8c-2.1-2-4.2-4.1-6.2-6.1c0.3,1.6,0.7,4.9,1,6.6c-2-1.7-4-3.4-6-5c-5.8,0-11.5-1-17.1-2.5
			C67,206.6,66,199.6,65.3,192.7z"/>
	</g>
	<g>
		<path class="st32" d="M211.5,196.3c4.1,0.5,8.1,1.4,12.1,2.5c0,4.8,0.1,9.9-3.1,13.8c-6.3,2.4-13.2,2.1-19.8,1.8
			c-0.6-5.7-0.9-11.5-0.8-17.3C203.7,197.3,207.6,196.9,211.5,196.3z"/>
	</g>
	<g>
		<path class="st33" d="M165.3,208.9c8.9,1.2,17.7,2.8,26.4,4.7l-4,1.7c-0.9-0.1-2.6-0.2-3.5-0.2c1.4,11.9,3.3,23.7,5,35.5
			c-4.7,0.1-9.3,1.3-13.9,2.2c-3.2-13.3-5.5-26.8-6-40.4C168.4,211.6,166.4,209.8,165.3,208.9z"/>
	</g>
	<g>
		<path class="st34" d="M200.6,214.3c6.6,0.3,13.5,0.6,19.8-1.8c3.6,12.3,7.8,24.3,11.7,36.5c-5.5,3.3-11.1,6.9-17.5,8
			c-4-12.7-7.9-25.4-10.9-38.4c-5.4-0.9-10.7-2.1-16-3.2l4-1.7C194.7,213.9,197.6,214.1,200.6,214.3z"/>
	</g>
	<g>
		<path class="st35" d="M238.9,227.9c0.7-0.1,2.2-0.2,2.9-0.3C241.1,230.3,240.1,230.4,238.9,227.9z"/>
	</g>
	<g>
		<path class="st36" d="M225.7,254.9c2.3-1.5,4.6-3.1,6.9-4.6c1.4,2.2,3.6,5.2,1.6,7.8c-4.3,4.1-9.5,7.4-15.2,9.3
			c-0.8-2.4-1.7-4.8-2.5-7.2c-2.7-0.5-5.3-1-8-1.5C214.3,257.8,220.7,258.5,225.7,254.9z"/>
		<path class="st36" d="M175.4,255c3.4-0.7,6.7-1.6,10.1-2.5c1.2,1.4,2.5,2.8,3.7,4.2c-2.4,3.5-6.6,4.6-10.5,5.4
			C177.7,259.7,176.6,257.4,175.4,255z"/>
	</g>
	<g>
		<path class="st37" d="M153.8,252.4c7.2,1.1,14.4,2.3,21.6,2.6c1.1,2.4,2.2,4.7,3.3,7.1c-7,0.4-14-1.1-21,0.3
			C156.5,259.1,155.1,255.8,153.8,252.4z"/>
		<path class="st37" d="M190.5,256c6.1,0.4,12,1.5,18,2.7c2.7,0.5,5.3,1,8,1.5c0.8,2.4,1.6,4.8,2.5,7.2c-3-0.2-6.2,0.2-9.1-0.6
			c-5.4-2-11-5.7-17-4.4C191.1,261.9,191.6,257.8,190.5,256z"/>
	</g>
	<g>
		<path class="st38" d="M138.6,264.8c4.4-2.4,9-4.6,13.6-6.7c1.7,1.6,3.5,3.2,5.6,4.3c10.2,2.4,21.1,2.9,31.3-0.2
			c5.9,7.4,16.3,6.5,24.8,7.5c9.4,1.1,17.6-4.9,24.3-10.7c4.2-0.5,8.4-1.2,12.6-0.7c1.8,0.5,5.1-0.3,4.9,2.5
			c-7.8,3.8-16,6.9-23.8,10.8c-7.7,4.1-16.3,6.3-25,5.1c-0.7-0.1-2-0.4-2.6-0.6c-4.4-1.1-9-1.7-13.5-1.8c-0.7,0-2-0.1-2.7-0.1
			c-6-0.7-12-1.4-18-2.1c1-0.3,2.9-1,3.9-1.4C162.3,268,149.6,269.9,138.6,264.8z"/>
	</g>
	<g>
		<path class="st39" d="M192.9,262.4c6-1.3,11.6,2.3,17,4.4C204,266.9,197.3,266.9,192.9,262.4z"/>
	</g>
	<g>
		<path class="st40" d="M218.6,277.4c13.6-3.4,25.4-11.6,38.7-15.8c-0.6,5.6-0.5,12.6-5.6,16.4c-3.8,2.7-7.7-0.8-11.1-2.3
			c-2.2,4-4,9.2-8.8,10.6c-2.9,0.2-5.8-0.4-8.7-0.7c-1,4.3-2,8.9-5.2,12.2C217,290.9,216.7,284,218.6,277.4z"/>
	</g>
	<g>
		<path class="st41" d="M133.1,268.5c1.8-1.2,3.6-2.5,5.5-3.7c11,5.1,23.7,3.2,35.3,5.9c-1,0.3-2.9,1-3.9,1.4
			c-4.3-0.4-8.6-0.9-12.9-1.2c-1.5-0.1-3.1-0.3-4.6-0.4C146,269.9,139.5,269.7,133.1,268.5z"/>
	</g>
	<g>
		<path class="st42" d="M131.9,269.7c1.4-0.2,2.9-0.2,4.3,0.1c-1.8,2.5-3.2,5.3-4.2,8.3C131.7,275.3,130.8,272.4,131.9,269.7z"/>
	</g>
	<g>
		<path class="st43" d="M152.5,270.6c1.5,0.1,3.1,0.3,4.6,0.4c-0.6,0.4-1.8,1.2-2.4,1.6c11,1,22.1,3.6,33.2,1.7c0.7,0,2,0.1,2.7,0.1
			c-0.5,0.5-1.5,1.4-2,1.8c5.2,0.4,10.4,0.4,15.6,0c0.7,0.2,2,0.4,2.6,0.6c3.8,0.9,7.8,1.1,11.7,0.6c-1.9,6.6-1.6,13.5-0.7,20.3
			c-2.9,0.2-6.1,1.3-8.8,0c-2.4-3.2-4.7-6.5-7.5-9.5l-1.3,0.1c-2.4,2-4.5,4.3-7,6.1c-4.6,2.2-10.7,1.2-13.7-3.2
			c-0.1-0.1-0.3-0.3-0.4-0.4c-0.9-0.8-2.5-2.3-3.4-3.1c-3.2,1.9-6.5,4.4-10.5,4c-4.1-0.1-6.2-4-8.7-6.6c-6.3,5.7-18.6,7.5-22.8-1.6
			c2.1-1.5,1.8-2.4-1.1-2.8c-0.1-0.7-0.4-2-0.5-2.6c1-2.9,2.3-5.7,4.2-8.3C141.7,270.5,147.1,270.7,152.5,270.6z"/>
	</g>
	<g>
		<path class="st44" d="M154.7,272.5c0.6-0.4,1.8-1.2,2.4-1.6c4.3,0.3,8.6,0.8,12.9,1.2c6,0.7,12,1.4,18,2.1
			C176.8,276.1,165.8,273.5,154.7,272.5z"/>
	</g>
	<g>
		<path class="st45" d="M188.7,276.2c0.5-0.5,1.5-1.4,2-1.8c4.6,0.2,9.1,0.7,13.5,1.8C199,276.5,193.8,276.6,188.7,276.2z"/>
	</g>
	<g>
		<path class="st46" d="M132.6,280.7c2.8,0.3,3.2,1.3,1.1,2.8C133.4,282.8,132.9,281.4,132.6,280.7z"/>
	</g>
	<g>
		<path class="st47" d="M241.6,280.6c3,0.4,6.1,0.9,9.1,1.3c-0.5,4.9-1,9.8-1.8,14.7c-4,2.6-12.8,3.1-11,9.5
			c3.1,1.5,6.7-1.1,9.9-1.5c-0.8,6.2-1.5,12.3-2.4,18.5c-4.8,3.2-9.6,6.3-14.8,8.8c-2.5-0.3-4.9-0.6-7.4-0.9c0.2-2.5,0.4-5,0.6-7.5
			c-3.9,1.4-7.8,3-11.7,4.7c-0.1-4.1-0.1-8.1-0.3-12.2c0.3-3,0.6-6,0.8-9c2.9-0.9,5.8-1.8,8.6-2.7c2.1-4.8,4.4-9.4,6.9-13.9
			c2-0.6,3.9-1.2,5.9-1.8C236.8,286.1,239.2,283.4,241.6,280.6 M232.7,312.3c0,2,0.1,4,0.1,6.1c5-1.3,12.1-3.6,9.5-10.3
			C239,309.3,235.8,310.7,232.7,312.3z"/>
	</g>
	<g>
		<path class="st48" d="M138.4,292c6.1,1,12.3,0.2,17.7-2.9c2.4,1.8,4.5,4,7.4,4.9c4.1,0.6,8-1.1,11.8-2.1c3.1,2.3,6,5.5,10.1,5.8
			c5.7,1.1,11.5-1.7,15-6.2c0,5.9,5.8,8.1,10.6,9.2c0.6,2.1,1.1,4.2,1.6,6.3c-0.2,3-0.5,6-0.8,9l-1-2.1c-0.4-2.4-0.7-4.9-1.1-7.4
			c-2.5,0.1-5,0.2-7.6,0.4c-0.1,2.7,0.3,5.4,0.6,8c-3,0.1-5.9,0.2-8.9,0.4c0.3,2.3,0.6,4.6,1.2,6.8c4.7,2.5,10.3,2.5,15.5,3.2
			c-0.1,5.2-0.7,10.4-1.8,15.4c-4-0.3-7.9-0.8-11.9-1.2c-6.2-1-12.4-2.2-18.6-3.5c-0.2-1.3-0.5-3.9-0.7-5.2
			c-2.7-0.4-5.4-0.8-8.1-1.2c1.1-2.8,1.8-5.7,2.3-8.7c-5.6-1.6-11.4-2.8-17.3-2.9c-1.2,2.8-2.4,5.6-3.7,8.3
			c-1.7-1.7-3.3-3.4-4.9-5.2C143.2,311.6,140.7,301.8,138.4,292 M141.8,295.1c1,2.6,1.1,6.5,4.4,7.4c3.9,1.3,8.1,0.7,12.2,0.6
			c-0.5-2.1-1-4.1-1.5-6.2C151.9,295.8,146.8,295.2,141.8,295.1 M185.9,310.8c4.4,0.6,9.1,3.5,13.5,1.6c4.1-6.9-5.8-9.1-10.8-8.8
			C184.6,303.5,185.9,308.2,185.9,310.8z"/>
	</g>
	<g>
		<path class="st49" d="M200.2,288.3l1.3-0.1c2.7,3,5.1,6.3,7.5,9.5c-3.2-1.6-6-3.8-8.7-6.1C200.3,290.8,200.3,289.1,200.2,288.3z"
			/>
	</g>
	<g>
		<path class="st50" d="M224.9,288.4c3,0,6.1,0.1,9.1,0.1c-1.9,0.7-3.9,1.2-5.9,1.8c-2.5,4.5-4.8,9.2-6.9,13.9
			c-2.9,0.9-5.8,1.8-8.6,2.7c-0.5-2.1-1.1-4.2-1.6-6.3c3.3-0.2,6.9-0.2,9.5-2.5C223.6,296,223.7,291.8,224.9,288.4z"/>
		<path class="st50" d="M237.8,306.2c-1.7-6.4,7.1-7,11-9.5c-0.4,2.7-0.8,5.3-1.1,8C244.5,305.1,240.9,307.7,237.8,306.2z"/>
		<path class="st50" d="M232.7,312.3c3.1-1.6,6.3-3,9.6-4.2c2.5,6.7-4.5,9-9.5,10.3C232.7,316.4,232.7,314.3,232.7,312.3z"/>
		<path class="st50" d="M212.1,328.3c3.9-1.7,7.8-3.2,11.7-4.7c-0.2,2.5-0.4,5-0.6,7.5c2.4,0.3,4.9,0.6,7.4,0.9
			c-5.5,3.1-10.8,6.6-16.6,9C213,336.8,212.2,332.6,212.1,328.3z"/>
	</g>
	<g>
		<path class="st51" d="M179.1,290.8c0.1,0.1,0.3,0.3,0.4,0.4C179.4,291.1,179.2,290.9,179.1,290.8z"/>
	</g>
	<g>
		<path class="st52" d="M141.8,295.1c5.1,0.1,10.1,0.7,15.1,1.8c0.5,2.1,1,4.1,1.5,6.2c-4.1,0.1-8.3,0.7-12.2-0.6
			C142.9,301.6,142.8,297.7,141.8,295.1z"/>
		<path class="st52" d="M185.9,310.8c-0.1-2.6-1.3-7.3,2.7-7.3c5-0.3,14.9,1.9,10.8,8.8C195.1,314.3,190.4,311.4,185.9,310.8z"/>
		<path class="st52" d="M202.2,307c2.5-0.2,5-0.3,7.6-0.4c0.3,2.4,0.7,4.9,1.1,7.4c-0.1,3.8-0.2,7.6-0.3,11.4
			c-5.2-0.7-10.7-0.7-15.5-3.2c-0.7-2.2-0.9-4.5-1.2-6.8c3-0.1,5.9-0.3,8.9-0.4C202.5,312.4,202.1,309.7,202.2,307z"/>
		<path class="st52" d="M154.4,318.2c5.9,0.1,11.7,1.3,17.3,2.9c-0.4,3-1.2,5.9-2.3,8.7c2.7,0.4,5.4,0.8,8.1,1.2
			c0.2,1.3,0.5,3.9,0.7,5.2c-7.6-1.6-15.2-3.3-22.8-5c-1.6-1.5-3.2-3.1-4.7-4.6C152.1,323.8,153.2,321,154.4,318.2z"/>
	</g>
	<g>
		<path class="st53" d="M210.8,314l1,2.1c0.2,4.1,0.2,8.1,0.3,12.2c0.1,4.3,0.9,8.6,1.9,12.8c-1.3,0-3.9-0.1-5.2-0.2
			c1-5.1,1.7-10.2,1.8-15.4C210.7,321.6,210.7,317.8,210.8,314z"/>
	</g>
	<g>
		<path class="st54" d="M145.9,321.3c1.6,1.8,3.2,3.5,4.9,5.2c1.5,1.6,3.1,3.1,4.7,4.6c-2.1-0.5-4.2-1.1-6.3-1.7
			C147.1,327.2,146.9,324,145.9,321.3z"/>
	</g>
</g>
</svg>
