<?xml version="1.0" encoding="utf-8"?>
<!-- Generator: Adobe Illustrator 23.0.0, SVG Export Plug-In . SVG Version: 6.00 Build 0)  -->
<svg version="1.1" id="Layer_1" xmlns="http://www.w3.org/2000/svg" xmlns:xlink="http://www.w3.org/1999/xlink" x="0px" y="0px"
	 viewBox="0 0 400 400" style="enable-background:new 0 0 400 400;" xml:space="preserve">
<style type="text/css">
	.st0{fill:#FEBAAA;}
	.st1{fill:#FEFEFE;}
	.st2{fill:#096E5B;}
	.st3{fill:#08D4BB;}
	.st4{fill:#8F4F04;}
	.st5{fill:#0DD0B5;}
	.st6{fill:#E4A611;}
	.st7{fill:#CE8909;}
	.st8{fill:#169581;}
	.st9{fill:#71E5D8;}
	.st10{fill:#7BDED2;}
	.st11{fill:#0DBCA4;}
	.st12{fill:#C27E09;}
	.st13{fill:#8BEAE0;}
	.st14{fill:#084437;}
	.st15{fill:#FBF09A;}
	.st16{fill:#6E391A;}
	.st17{fill:#16917D;}
	.st18{fill:#EFD056;}
	.st19{fill:#5BDFD0;}
	.st20{fill:#10C1AA;}
	.st21{fill:#098F79;}
	.st22{fill:#6F391B;}
	.st23{fill:#FBF5C7;}
	.st24{fill:#3F1A05;}
	.st25{fill:#262931;}
	.st26{fill:#03D5BB;}
	.st27{fill:#078A75;}
	.st28{fill:#11B29B;}
	.st29{fill:#0B8A75;}
	.st30{fill:#0C9B86;}
	.st31{fill:#0C8E79;}
	.st32{fill:#1CCDB6;}
	.st33{fill:#87D1C8;}
	.st34{fill:#13C7AE;}
	.st35{fill:#15D3BA;}
	.st36{fill:#FDB9A8;}
	.st37{fill:#FDB9AA;}
	.st38{fill:#FEB9A9;}
	.st39{fill:#0DD3B9;}
	.st40{fill:#16D2B9;}
	.st41{fill:#07D1B5;}
	.st42{fill:#078772;}
	.st43{fill:#87C2BB;}
	.st44{fill:#FDA18C;}
	.st45{fill:#012D6D;}
	.st46{fill:#4C93AA;}
	.st47{fill:#F88C6F;}
	.st48{fill:#068E77;}
	.st49{fill:#8DC1BB;}
	.st50{fill:#C76B57;}
	.st51{fill:#933B2A;}
	.st52{fill:#E2836E;}
	.st53{fill:#148472;}
	.st54{fill:#33D3BC;}
	.st55{fill:#FA8F74;}
	.st56{fill:#0C7F6B;}
	.st57{fill:#FD947A;}
	.st58{fill:#0BD3B8;}
	.st59{fill:#09A48E;}
	.st60{fill:#FCBBAC;}
	.st61{fill:#A6E3DC;}
	.st62{fill:#C86B57;}
	.st63{fill:#075243;}
	.st64{fill:#068A74;}
	.st65{fill:#0AC0A8;}
	.st66{fill:#A80A18;}
	.st67{fill:#098870;}
	.st68{fill:#096352;}
	.st69{fill:#30D7C2;}
	.st70{fill:#01D6BB;}
	.st71{fill:#5CDCCE;}
	.st72{fill:#DFA111;}
	.st73{fill:#02A793;}
	.st74{fill:#06D5BA;}
	.st75{fill:#088771;}
	.st76{fill:#19D2BA;}
	.st77{fill:#545769;}
	.st78{fill:#0174B2;}
	.st79{fill:#B5F1EC;}
	.st80{fill:#2ACFB9;}
	.st81{fill:#0FC7AF;}
	.st82{fill:#8AE3DA;}
	.st83{fill:#0E8A75;}
	.st84{fill:#96E0D9;}
	.st85{fill:#18C4AC;}
	.st86{fill:#068670;}
	.st87{fill:#09D4BB;}
	.st88{fill:#C1BEB4;}
	.st89{fill:#A00613;}
	.st90{fill:#065B94;}
	.st91{fill:#087B66;}
	.st92{fill:#0174B3;}
	.st93{fill:#0EBAA2;}
	.st94{fill:#068A72;}
	.st95{fill:#058872;}
	.st96{fill:#23B29E;}
	.st97{fill:#012E6E;}
	.st98{fill:#7DE3D8;}
	.st99{fill:#00447A;}
	.st100{fill:#5BE0D1;}
	.st101{fill:#0074B2;}
	.st102{fill:#014278;}
	.st103{fill:#09D4BA;}
	.st104{fill:#014479;}
	.st105{fill:#3A3A39;}
	.st106{fill:#12B39D;}
	.st107{fill:#088974;}
	.st108{fill:#04D5BA;}
	.st109{fill:#F62136;}
	.st110{fill:#088A75;}
	.st111{fill:#0AD1B6;}
	.st112{fill:#70D8CD;}
	.st113{fill:#15C9B0;}
	.st114{fill:#85CDC4;}
	.st115{fill:#095344;}
	.st116{fill:#0B907A;}
	.st117{fill:#27D6BF;}
	.st118{fill:#09917B;}
	.st119{fill:#34CFBB;}
	.st120{fill:#088D77;}
	.st121{fill:#06D4B9;}
	.st122{fill:#08806A;}
	.st123{fill:#424341;}
	.st124{fill:#88E6DC;}
	.st125{fill:#31D0BB;}
	.st126{fill:#414242;}
</style>
<g>
	<g>
		<path class="st0" d="M31.9,35.1h0.4c-0.1,0.1-0.3,0.3-0.4,0.5V35.1z"/>
		<path class="st0" d="M177.2,131.8c10.2-0.3,20.4-0.7,30.6-1c7.5,2.3,15.3,3.9,23.1,5.1c3.5,11.7,7.7,23.2,11.5,34.8
			c2.8,8.6,7,17.1,7,26.3c-17.1,6-34.4,11.3-51.5,17.2c-3.6-8-6.5-16.4-8.1-25c-2.2-10.9-8.2-20.5-11.7-31c-2.1-4.2,2.9-6.8,4.9-9.7
			C181.1,143,179.1,137.4,177.2,131.8 M189.8,138.9c-2.2,2.3-3.1,5.4-4,8.3c5.3-2,10.2-4.8,15.7-6.3c-0.6-1.6-1.2-3.1-1.8-4.7
			C196.4,136.7,192.4,136.3,189.8,138.9 M218.8,139c-2,13.1,2.5,26,7.9,37.7c4.5-0.3,8.9-1,13.3-1.7c0.7-5.9-1.1-11.6-3-17.1
			l-2.3,0.5c-1.3-2.3-2.3-4.7-3.5-7.1l2.4-0.6C229.3,146.2,224.1,142.4,218.8,139 M187.2,152.4c2,10.2,5.4,20.2,10.1,29.4
			c5.9-0.7,12.2-0.7,17.7-3.6c-2.1-9.6-5.7-18.8-10.6-27.2C199,148.4,192.5,150.5,187.2,152.4 M213.2,182.6
			c-0.6,5.1-4.4,8.4-8.1,11.6c8.3-5.3,19.5-0.8,26.7-8.1c-4.9,1-9.8,2.6-14.9,2.4C214.9,187.3,214.3,184.7,213.2,182.6z"/>
	</g>
	<g>
		<path class="st1" d="M143,81.7c3.8-1.3,8.7-1.4,11.5,2c4.3,6,5.1,13.6,5.6,20.8c4,0.1,8.1,0.1,11.6,2.3c3.5,2.6,8.1,0.1,11.9,1.9
			c3.2,1.1,4,4.7,5.7,7.3c1.3,0,4-0.1,5.4-0.1c2.3-10.6,3.9-21.5,7.3-31.8c5.1-1.2,7.5,2.9,9,7c2.6-1.7,5.2-6.5,8.8-4.1
			c1.9,2.7,2,6.2,2.9,9.3c3-2.9,6.1-6.6,10.8-5.8c0.4,3.7,0.6,7.5,0.7,11.2c3.3-1.6,6.7-6.3,10.5-3.2c0.7,2.7,0.8,5.4,1.1,8.2
			c3.3-2.2,12-5.2,10.7,1.7c-4.1,9.1-11.6,16.1-16.3,24.8c1.1,5,1.3,10,0.8,15c3.9,12.8,8.2,25.4,12.8,37.9
			c9.3-6.4,15.7-15.8,21.3-25.5c-3.5-9.5-0.3-19.6,5.4-27.5c3.4-4.8,7.4-10.6,13.8-11.2c4.5,0.5,7.4,4.3,10.2,7.4
			c4.2-2.7,6.7-6.8,9.1-11.1c4.8-0.9,4.4,5,7.3,7.2c1.6,1.8,6.3,4.1,3.1,6.7c-3.3,2.8-5.6,6.4-7.2,10.4c-5.5,0.1-5.7-6.2-9.1-9
			c3,8.8,7.4,18.3,3.2,27.6c3.4,4.8,9.3,10.4,5.6,16.8c-9.3,26.1-35.9,40.8-61.7,46.5c4.4,4,9.1,7.6,13.7,11.5
			c9.5-8.4,22.8-8.4,34.6-10.6c9.2-1,18.4-3.6,27.7-2.8c3.5,0.7,4,4.7,4.9,7.6c1.7,8.4,6.1,17.5,1.2,25.6c4.2,4.5,7.3,9.8,10.4,15.1
			c4.7,8,11.1,15.1,14.5,23.8c1.5,3.5-1.7,6.4-3.8,8.8c-3.3,3.5-6.2,7.5-10.3,10.2c-7,2.3-14.6,1.7-22,1.7c-3.8,0.2-6.1-3.2-8.5-5.6
			c-10.7,5.5-14.8,18.1-25.2,23.8c-6.7,4.2-14.8,3.7-22.3,3.6c-8.2-0.1-15.8-4.5-24-4c-8.4,0.3-16.4,3.7-24.7,4.7
			c-9.3,0.8-18.3-2.3-26.3-6.8c-6.9,3.7-15.6,3.9-22.5,0.1c-4.7,5.9-11.9,9.6-19.5,8.4c-8.4-0.1-14.1-7.6-16.8-14.8
			c-11.6,2.5-22-4-33.2-5.5c-2.4-0.5-4.2-2.2-6.2-3.4c-10.5,9-27.7,7.5-36.6-3.1c-8.3,0.2-19,1.4-24.3-6.6
			c-4.2-7.5-0.8-16.5,4.7-22.3c-4.8-6.3-7.1-14.9-4.3-22.5c1.7-3.7,5.7-5.5,9.6-6.3c5.1-0.8,7.4-5.9,9.3-10c-2-4.7-4.5-9.8-2.8-15
			c1.9-7.6,9.1-11.7,14.6-16.5c-2.7-4.7-5.5-10.1-3.8-15.7c0.8-5.9,5.2-10.2,9.6-13.9c-0.2-5.3-2.2-11.4,1.5-16
			c1.8-2.8,5.5-2.6,8.4-3.5c1.3-4.7,3.6-9,7-12.5c-2.3-8.3,3.3-15.3,9.9-19.6c1.7-8.2,7.2-14.9,14.2-19.2c4.4-2.2,3.5-7.9,5.9-11.5
			c1.9-4,6.3-5.6,9.9-7.7C133.6,89.6,137,83.9,143,81.7 M144.5,84.5c-7.8,2.9-10.8,11.7-18.4,14.8c-1.7,0.6-3.1,1.6-4,3
			c-1.6,3.5-2.6,7.2-3.3,11c-5.7,3.3-11.8,7.1-14.4,13.5c-1.4,3.6-3,7.1-5.2,10.2c-6.6,1.8-9.3,10.1-5.9,15.8
			c-5.3,2.8-7.2,8.9-8,14.5c-2.9,0.5-5.9,0.5-8.5,1.8c-3.6,4.4-1.3,10.5-0.7,15.5l-0.4,1.3c-6.2,2.5-10.1,9-10.4,15.5
			c0,4.6,2.9,8.4,4.9,12.4l-0.7-1c-0.2,0.8-0.7,2.5-0.9,3.4c-5.2,3.4-10.3,7.3-13.2,12.9l-1.3,0.8l0.6,0.9c-0.7,5,1.3,9.6,3.6,13.9
			c-1.7,3.5-2.9,7.6-6,10.2c-3.4,4.2-10.7,2.4-13.3,7.7c-3.1,7.6,1.2,15.4,4.9,21.8c-5.2,5.2-10.1,13.5-5.6,20.6
			c5.5,6.8,15.2,4.4,22.8,5.1c2.5,1.8,4.7,4,7.2,5.9c1.5,1,3.3,1.7,5,2.1c8.5,2.1,17.5-0.3,23.4-6.8c3.3,4.1,8.2,5.8,13.3,6.3
			c9,3.2,18.8,6.6,28.3,3.3c1,3.8,2.2,7.6,5,10.5c0.1,0.5,0.4,1.5,0.6,2c9.1,5.9,23.2,3.4,26.9-7.5c6.2,6,16.6,7,23.3,1.2
			c9.1,6,20.5,9.4,31.4,6.8c9.8-2.1,19.9-5.8,29.9-2.7c13.2,3.6,29.6,6.1,40.5-4.3c7.2-7.5,12.7-17.2,22.8-21.3
			c1.5,2.2,3,4.4,4.6,6.6c7.6-0.1,15.4,0.9,22.8-1.2c4.8-4,9.4-8.6,12.9-13.9c-0.6-4.7-4.1-8.5-6.4-12.5
			c-6.7-9.2-11.3-19.9-19.1-28.3c0.8-3.7,3.6-7.1,2.6-11.1c-1.2-6.8-3-13.6-5.1-20.1c-15.2,0.7-30.2,3.7-45.1,6.1
			c-6.6,0.8-12.4,4.1-17.4,8.5c-6.9-5.6-14.2-10.8-20.2-17.4c15.4-2.6,30.5-7.7,43.3-16.8c11-7.7,19.7-19.3,23-32.3
			c-1.3-4.5-4.8-8-7.2-11.9c5.4-11.8-1-25.3-9.1-34.1c-4.1-4.6-9.7,0-12.3,3.7c3.8,0.9,7-5,10.6-2c7.3,6.9,10.5,17.5,9.7,27.4
			c-0.8-2.2-1.7-4.3-2.7-6.3c2.2-3.2,0.9-10-4-8.8l-0.4-1c-0.9,0.1-2.7,0.2-3.6,0.3c4-1.9,1.1-7,1-10.3c-2.5,0.7-6.1,0.1-7.2,3.1
			c0.1,2.6,0.6,5.2,1,7.7c-0.7,0.3-2.2,0.9-2.9,1.2c-0.8-3-1.3-6-2.2-8.9c-2.4,0-2.9,2.8-4,4.3c-3.4,6.5-6.9,14.6-2.5,21.5
			c-5.5,12.7-14.5,24.4-26.7,31.3c-4.5-13.7-9.5-27.3-14.1-41.1c-1.3-3,0.2-6,0.2-9.1c-0.4-2.7-1.4-5.2-2.1-7.9
			c6.7-7.8,13-16.4,17.4-25.7c-4,1.6-7.7,3.7-11.5,5.8c0.2-4,0.4-8.1,0.5-12.1c-3.7,2.2-7.3,4.5-11.1,6.7c-0.3-4.5-0.4-8.9-0.7-13.4
			c-3.3,2.7-6.4,5.7-9.6,8.6c-1.1-4.3-2.2-8.7-3.5-13c-2.8,3-5.4,6.2-8.2,9.3c-1.3-4-2.4-8.3-5.2-11.6c-2.9,10.7-4.8,21.6-6.9,32.5
			c-3.5-0.8-7.1-0.4-10.7-0.4c-0.8-2.3-1.3-4.8-2.6-6.9c-3.5-2-7.5-0.9-11.1-0.3c-3.4-4.7-9.1-4.3-14.3-3.7
			c-2.5-7.2-1.3-15.6-6.1-22C150.7,83.5,147.1,83.3,144.5,84.5 M308.7,129.9c0.6,3.6,4.3,6,6.3,8.9c2.4-2.8,4.8-5.7,7.2-8.6
			c-2.5-2.6-5-5.2-7.5-7.8C312.6,124.8,310.4,127.2,308.7,129.9z"/>
		<path class="st1" d="M150.6,100.1c1.7-4.6-0.1-9.2-1.6-13.5c3.9,4.4,4.4,10.4,5,15.9c-1.2-0.3-2.4-0.7-3.6-1L150.6,100.1z"/>
		<path class="st1" d="M136.9,94.4c2-1.8,3.9-3.6,5.9-5.3c0.3,2.2,0.6,4.4,1,6.7l-1.1-0.2C140.8,95.1,138.8,94.7,136.9,94.4z"/>
		<path class="st1" d="M295.4,111.5c3.4-4,6.7-7.9,9.4-12.4c4.3,0.3,4.3,5.4,7.1,7.6c1.6,1.7,6,3.8,2.9,6.3
			c-3.6,3.1-5.8,7.2-8.1,11.2C301.5,121.2,300.5,114.6,295.4,111.5 M305.6,103.7c-1.7,2.6-4.5,4.8-5.4,7.8c1.6,2.5,3.5,4.8,5.2,7.1
			c2-2.6,4.8-4.9,5.7-8.1C309.5,108.2,307.5,106,305.6,103.7z"/>
		<path class="st1" d="M146.2,105.5c2.4-2.5,9.5-1.4,9.2,2.7l-0.7,0.3C151.8,107.6,149,106.5,146.2,105.5z"/>
		<path class="st1" d="M131,115.8c2.2-0.8,5.3-0.2,6.7,1.9c-0.4,1.1-0.6,3.7-2.4,3c-1.5-1.4-3-2.9-4.5-4.2L131,115.8z"/>
		<path class="st1" d="M128.2,143.6c3.5-4.6,8.3-8.6,14.2-9.2C137.6,137.5,133,140.6,128.2,143.6z"/>
		<path class="st1" d="M99.2,153.3c5.5-1.5,10.3,2.3,15,4.5c-2.1,1.3-4.1,2.6-6.2,3.9c-0.2-0.8-0.4-1.6-0.6-2.3
			c-0.4-4.7-4.4-5.5-8.3-5.6c-0.3,1.2-0.8,3.5-1.1,4.6l-1.4-0.2c-2-0.2-4-0.4-6.1-0.6C93.4,156.2,96.2,154.5,99.2,153.3z"/>
		<path class="st1" d="M233,160.6c3.2,3.2,4.4,7.6,5.8,11.8c-3.5,0.8-7,1.5-10.5,2.2c1.9-2,3.8-3.9,5.6-5.9c-1.7,0-3.4,0-5.1,0
			C230.7,166.2,231.8,163.3,233,160.6z"/>
		<path class="st1" d="M203.5,166.2c1.2-0.1,3.5-0.1,4.6-0.2c1.3,3.7,2.7,7.4,4,11.1c-4.3,0.9-8.6,1.5-12.9,2.3
			c-2.2-3.7-4.3-7.6-4.2-12c1.8,3.1,3.3,6.4,4.8,9.7c1.4-0.2,4.2-0.6,5.6-0.8C204.9,172.9,204.2,169.5,203.5,166.2z"/>
		<path class="st1" d="M101.9,186c2.8-0.6,5.7-1,8.6-1.1c0.7,1.7,1.4,3.4,2.2,5.1c-0.7-0.3-2.1-0.9-2.8-1.2
			C107.2,187.8,104.5,186.8,101.9,186z"/>
		<path class="st1" d="M77.2,197.5l1.4-0.3c4.3,1.2-0.3,6.1-1.6,1.7L77.2,197.5z"/>
		<path class="st1" d="M230.7,206.1c1.7,3.4,3.3,6.9,4.5,10.6c-1.7-0.6-3.4-1.2-5-1.8C230.4,211.9,230.5,209,230.7,206.1z"/>
		<path class="st1" d="M70.8,214.9c3.5-0.4,7.1-0.8,10.3,1c-3,0.3-6.1,0.6-9.1,0.7C71.7,216.1,71.1,215.3,70.8,214.9z"/>
		<path class="st1" d="M193.4,222.1c1.7-1.6,3.4-3.3,5-5c2.6,2,5.3,4,8.1,5.8c1-1.2,2-2.4,3-3.6c1.1,0.3,3.3,1.1,4.4,1.4
			c0.7,1.4,1.3,2.7,2,4.1C208.5,224.1,200.9,223.4,193.4,222.1z"/>
		<path class="st1" d="M85.4,222.1c0.6,0,1.7,0.1,2.3,0.1c-0.4,1.9-1.3,3.7-2.5,5.3c-0.6-0.6-1.9-1.7-2.5-2.2
			C83.4,224.5,84.7,222.9,85.4,222.1z"/>
		<path class="st1" d="M92.9,222.4c0.6-0.1,1.8-0.2,2.4-0.3c1.8,1,3.4,2.3,4.9,3.7v0.9C97,227.5,94,225.3,92.9,222.4z"/>
		<path class="st1" d="M65.3,238.8c4.5-2.4,10-3.2,14.5-0.1c-4.8-0.6-10.7-2-12.5,4l-0.3-0.6C66.5,241.3,65.7,239.6,65.3,238.8z"/>
		<path class="st1" d="M257.9,235.7c3,2.3,6.1,4.5,9.1,6.8c-0.6,0.2-1.7,0.7-2.3,0.9C262.3,240.9,260.1,238.3,257.9,235.7z"/>
		<path class="st1" d="M106.7,249.8c7.8-4.6,18.1-10.2,27-5.1c2.4,2.3,3.8,5.5,5.8,8.1c-1.9-0.2-3.8-0.5-5.8-0.7l0.2-1.1
			c0.1-0.9,0.1-2.6,0.2-3.5c-1.5-3.4-5.7-1.8-8.5-2.1c-0.5,0-1.6,0-2.2,0c-2.9,0.1-5.8,0.2-8.7,0.5c0.2,1.1,0.6,3.3,0.8,4.4
			c-0.4,0.2-1.1,0.6-1.4,0.8C111.6,250.7,109.2,250.2,106.7,249.8z"/>
		<path class="st1" d="M73.1,245.2c4.4-0.2,10.1-1,13,3.2C81.8,247.2,77.4,246.2,73.1,245.2z"/>
		<path class="st1" d="M117.8,255.6c-0.6-3.6,3.7-6.4,6.9-5.6C123.2,252.7,120.7,254.6,117.8,255.6z"/>
		<path class="st1" d="M73.9,255.4c-1.2-2.9,4-4.7,5.5-2.2C77.7,254.3,76,255.7,73.9,255.4z"/>
		<path class="st1" d="M170.6,254.4c2-0.9,3.9-1.9,5.9-2.8c2.2,12.6,5.3,25.2,11.5,36.5c-1.2,0.1-3.5,0.4-4.7,0.5
			c3.2,2.9,7.2,4.8,9.8,8.4c4.2,5.6,8.2,11.7,14.6,15c-2,0.8-4.1,1.7-6.1,2.6c2.1,1.2,4.1,2.7,6.4,3.4c6.4-4,13.9,0.7,20.6-2.2
			c11.3-3.9,23.8-3.6,35,0.2c6.8,2.3,14.3,4.4,21.3,1.7c7.6-3.3,12.7-10.1,18.6-15.6c2.4,1,4.8,1.9,7.2,2.9
			c-1.8,0.1-3.6,0.2-5.4,0.3c-3.8-0.8-7.1,3.7-4.4,6.9c-2.6,2.4-5.1,4.9-7.7,7.2c-2.2,1.7-4.2,3.7-5.8,6c-4,0-8-0.1-12-0.4
			c0.4-5.8-6.1-4.1-9.9-4.7c2.1,1.6,4.2,3.1,6.5,4.4c-6.6-0.4-13.2-1.7-19.5-3.8c-2.3-1.1-5-0.6-7.3,0.4c-5.4,1.9-10.9,3.4-16.2,5.6
			c-4.3-2.5-8.9-0.6-13.1,1c-2.2-0.7-4.3-1.4-6.5-2.1c-1.7-1.4-3.6-2.3-5.8-2.6c-2.4-0.9-4.7-1.9-7-2.9c0.3-2.8-1.9-4.8-4-6.2
			c-1.1-1.1-2.2-2.2-3.2-3.4c4.6-3.5-1.4-7.1-3.4-10.2c0,1.6,0.1,4.8,0.2,6.5c-3.6-3.4-6.5-7.4-8.4-12c4.9-4.6-1.9-9.7-4.3-13.7
			c-0.5-1.8-0.9-3.7-1.3-5.5c1.9-2.8,0.6-6-1.3-8.3C170.8,263,170.7,258.7,170.6,254.4 M172.7,255.3c0.3,3.4,0,7.4,3,9.8
			C176.2,261.5,175.8,257.6,172.7,255.3 M230.5,319.9c4.2-0.5,12.7,2.1,13-4.4C238.7,315.3,234,316.6,230.5,319.9z"/>
		<path class="st1" d="M78.8,268.4c4.7-4.8,11-10.7,18.2-8.2c-1.4,0.2-4.1,0.5-5.5,0.7c-0.1,1.1-0.4,3.4-0.6,4.5
			c-0.7-0.9-1.4-1.9-2.1-2.9l-1.2,0.7C84.6,264.9,81.6,266.6,78.8,268.4z"/>
		<path class="st1" d="M98.5,262c1,2.4,2.1,4.9,3.2,7.3c-2,0-3.3,0.9-4.1,2.8l-0.6,1.1c0.2-1.2,0.5-3.6,0.6-4.7
			C97.9,266.2,98.2,264.1,98.5,262z"/>
		<path class="st1" d="M134.7,266.1c4.6-0.5,9.3-0.7,13.9-0.1c-1.9,1.5-3.7,3-5.5,4.5c-0.5-0.2-1.3-0.8-1.8-1
			C139.2,268.2,136.9,267.2,134.7,266.1z"/>
		<path class="st1" d="M106.7,269.4c6.9-4.5,16-4.8,23.7-2.2c-0.5,0-1.6,0-2.2,0.1C120.9,266.8,113.7,267.6,106.7,269.4z"/>
		<path class="st1" d="M55.7,271.5c6-2.3,12.1,0.2,17.8,2.2c2.7,1.1,5.7,2.1,7.7,4.4c0.8,1.9,0.2,4,0.2,6.1
			c-0.5-1.6-1.1-3.2-1.7-4.8c-2.3-1.9-4.9-3.4-7.5-4.9c-0.2,0.8-0.5,2.4-0.6,3.3c-0.5-0.5-1.6-1.5-2.2-2
			C65.9,271.8,60.6,271.6,55.7,271.5z"/>
		<path class="st1" d="M138.5,274.9c1.9-0.8,4-1.3,5.9-0.2c-2,1.9-4.1,3.9-6.9,4.5c-0.2-0.6-0.6-1.8-0.8-2.4
			C137.1,276.3,138,275.4,138.5,274.9z"/>
		<path class="st1" d="M90,276.3c-0.2-3.2,5.5-3.3,6.4-0.6C94.3,276.1,92.1,276.8,90,276.3z"/>
		<path class="st1" d="M104.4,282.3c6.4-2,10.9,3.9,14.7,7.9c-0.4,0.7-1.3,2-1.7,2.7c-1.6-1.2-3.1-2.3-4.7-3.5
			c-0.8-3.4-2.5-7.3-6.7-6.2c-2.1,3.3-3.7,6.9-5.8,10.2C101.1,289.6,101.7,285.4,104.4,282.3z"/>
		<path class="st1" d="M63,304.4c2.9-5.2,6.7-10.9,13-12.2c7-2.3,14.9,0.5,18.9,6.7c-3.8-2.5-7.9-5.1-12.6-4.5c-0.6,0-1.7,0-2.3,0
			C72.3,293,68,300,63,304.4z"/>
		<path class="st1" d="M76.2,306.5c-2.4-2.9,2.5-8.3,5.5-6.1C80,302.5,78.3,304.7,76.2,306.5z"/>
		<path class="st1" d="M85.7,300.7l1,0.4c0.1,1.9-1.2,5.5-3.7,4.5C82.8,303.5,83.7,301.8,85.7,300.7z"/>
		<path class="st1" d="M150.2,318.4c1.9-3,4.9-5,8-6.7c0.3,0.6,1,1.6,1.4,2.2C156.4,315.4,153.3,316.9,150.2,318.4z"/>
	</g>
	<g>
		<path class="st2" d="M144.5,84.5c2.6-1.3,6.2-1,7.9,1.5c4.8,6.4,3.6,14.8,6.1,22c-3.8,6.1-6.2,12.8-8.4,19.6
			c-3.7,11.9-17,16.2-23.3,26.3c-0.1-3.7-0.3-7.3-0.5-11c-0.2,0.7-0.7,2.1-0.9,2.8c-1.9-1.7-3.8-3.4-5.8-5.1
			c-5.5-6.2-14.2-4-21.2-2.2l0.8-1.3c2.3-3.1,3.9-6.6,5.2-10.2c2.6-6.4,8.6-10.2,14.4-13.5c0.7-3.8,1.7-7.5,3.3-11
			c-0.3,6.4-0.9,13.1,1.9,19.1c0.8-4.1,1.5-8.2,2-12.4c1.3-0.1,2.6-0.2,4-0.3c-0.5,1.1-1.6,3.4-2.2,4.5c3.1,0,6.2,0,9.3,0
			c-1.7-1.9-3.5-3.7-5.2-5.5c0.6-0.3,1.9-1,2.6-1.3c2.1,0.1,4.2,0.3,6.2,0.4c-3.5-4.7-8.8-7.2-14.6-7.6
			C133.7,96.2,136.7,87.4,144.5,84.5 M142.7,88l0.2,1c-2,1.7-4,3.5-5.9,5.3l-1.7-0.3c0.7,1.8,1.4,3.6,2.2,5.3
			c2.4-0.2,3.7-2.3,5.4-3.8l1.1,0.2l0.2,1.6c2.2,0.9,4.4,1.8,6.5,2.7l-0.3,1.4c1.2,0.3,2.4,0.7,3.6,1c-0.5-5.5-1.1-11.5-5-15.9
			l-0.2-0.7C146.7,86.6,144.7,87.3,142.7,88 M142.6,99.8c-2.7,0.6-1.6,4.9,1,3.4C146.4,102.7,145.3,98.4,142.6,99.8 M138.7,115.1
			c1-0.1,2.9-0.4,3.8-0.6c0.3-0.9,1-2.6,1.3-3.4c3.9,0.7,8,0.7,10.8-2.6l0.7-0.3c0.2-4.1-6.8-5.1-9.2-2.7
			C141.9,106.8,140.6,111.6,138.7,115.1 M145.8,114c-0.4,1.6-0.9,3.3-1.3,4.9c1.4,0.4,2.9,0.8,4.3,1.3c1.3-1.9,2.6-3.9,3.9-5.8
			C150.4,114.2,148.1,114.1,145.8,114 M131,115.8l-0.1,0.7c-0.9,0.6-2.7,1.9-3.6,2.5c-1.1,3.9-2.5,7.8-2.3,11.9
			c1.4,1.4,3.6,1.5,5.4,2.2c0.4-2.9,0.9-5.8,1.3-8.8l1.7,0.3c0.2,2.8,0.3,5.7,0.4,8.5c2-0.3,4.1-0.6,6.1-0.8
			c0.1-2.2,0.1-4.3,0.2-6.5c1.5,0.1,4.5,0.1,6,0.2c-1.3-1.3-1.7-4.1-3.7-4.4c-0.3-2.9-1.8-3.9-4.6-3.1l-0.1-0.8
			C136.3,115.6,133.2,114.9,131,115.8 M106.6,131.1c3.7-2.7,7.1-5.7,10.2-9.1c1.3,1.4,2.6,2.8,4,4.1c-0.4-3-0.9-5.9-1.4-8.9
			C113.4,119.9,108.1,124.4,106.6,131.1 M111.8,133.8c3.9,1.6,7.7,3.1,11.7,4.5c0.6-4-0.8-7.7-2.7-11.2
			C117.3,128.6,114.3,130.9,111.8,133.8 M128.4,135c-0.8,2.5,0,3.3,2.5,2.5C131.7,135,130.8,134.2,128.4,135 M128.2,143.6
			c4.8-3,9.4-6.1,14.2-9.2C136.5,135.1,131.7,139.1,128.2,143.6z"/>
	</g>
	<g>
		<path class="st3" d="M142.7,88c2-0.7,4-1.4,6-2.2l0.2,0.7c1.6,4.3,3.3,8.9,1.6,13.5c-2.2-0.9-4.4-1.8-6.5-2.7l-0.2-1.6
			c-0.3-2.2-0.6-4.5-1-6.7L142.7,88z"/>
	</g>
	<g>
		<path class="st4" d="M204.1,86.9c2.9,3.3,3.9,7.6,5.2,11.6c2.7-3.1,5.4-6.2,8.2-9.3c1.2,4.3,2.3,8.7,3.5,13
			c3.2-2.9,6.3-5.8,9.6-8.6c0.2,4.5,0.4,9,0.7,13.4c3.7-2.2,7.3-4.5,11.1-6.7c-0.1,4-0.3,8.1-0.5,12.1c3.8-2.1,7.5-4.1,11.5-5.8
			c-4.4,9.4-10.7,17.9-17.4,25.7c-1.7,1.2-3.4,2.4-5.1,3.5c-7.8-1.2-15.5-2.8-23.1-5.1c-1.8-1.8-3.5-3.6-5.2-5.5
			c-1.5-1.6-2.9-3.3-4.4-4.9l-1-1C199.3,108.5,201.3,97.6,204.1,86.9 M200.2,118.9c7.3,9.4,19.3,14.3,31.1,12.6
			c7.1-3.6,11-10.9,14.7-17.5c-4.5,2.8-9.9,4.9-13.1,9.3c-0.9,0.2-2.8,0.5-3.8,0.7c0.7-7.8,0.6-16-2.4-23.4
			c-5.6,4.9-10.5,10.4-16.1,15.3c-1.8-6.5-3.3-13.2-4.8-19.8C203,103.4,201.6,111.2,200.2,118.9 M209.8,105.3
			c2.5-1.2,5.1-2.4,7.3-4.1c0-2.1-0.3-4.1-0.9-6.1C213.5,98.1,211.3,101.5,209.8,105.3 M231.1,111c1.5,0.2,3,0.4,4.5,0.5
			c1,1.4,1.9,2.8,2.9,4.2c0.5-3.5,1-7.1,1.5-10.6C237,107,234,109,231.1,111z"/>
		<path class="st4" d="M220.2,225.6c1.4-4,4.8-5.3,8.7-4.8c0.7,1.6,1.4,3.1,2.1,4.7c-0.7,0.7-2,2-2.6,2.6c-0.3-1.5-0.8-4.5-1.1-6
			C224.9,223.2,222.6,224.4,220.2,225.6z"/>
	</g>
	<g>
		<path class="st5" d="M135.2,94.1l1.7,0.3c1.9,0.3,3.9,0.7,5.8,1.2c-1.6,1.5-2.9,3.7-5.4,3.8C136.6,97.6,135.9,95.9,135.2,94.1z"/>
		<path class="st5" d="M111.8,133.8c2.5-2.9,5.5-5.1,8.9-6.6c1.9,3.4,3.4,7.2,2.7,11.2C119.6,136.9,115.7,135.3,111.8,133.8z"/>
		<path class="st5" d="M125.6,245.5c2.9,0.3,7-1.3,8.5,2.1c0,0.9-0.1,2.6-0.2,3.5C131.1,249.4,128.4,247.4,125.6,245.5z"/>
	</g>
	<g>
		<path class="st6" d="M200.2,118.9c1.5-7.7,2.8-15.5,5.6-22.8c1.5,6.6,3,13.2,4.8,19.8c5.5-4.9,10.5-10.4,16.1-15.3
			c3,7.4,3.1,15.6,2.4,23.4c-0.7,2.3,0.1,4.6,1.5,6.4l0.6,1.1C219.5,133.2,207.4,128.3,200.2,118.9 M214.4,125.4
			c1.4,2.8,4.9,3.4,7.6,2.2c3.2-4.1,1.9-9.7,2.1-14.5C220,116.2,214.3,119.6,214.4,125.4z"/>
		<path class="st6" d="M305.6,103.7c1.9,2.3,3.8,4.5,5.6,6.9c-0.9,3.2-3.8,5.5-5.7,8.1c-1.7-2.4-3.6-4.7-5.2-7.1
			C301.1,108.5,303.9,106.4,305.6,103.7 M305.1,109c-2.9,0.6-1.6,5.2,1.2,4.3C309.1,112.7,307.8,108.1,305.1,109z"/>
	</g>
	<g>
		<path class="st7" d="M209.8,105.3c1.5-3.8,3.7-7.2,6.4-10.2c0.6,2,0.9,4,0.9,6.1C214.9,102.8,212.3,104,209.8,105.3z"/>
	</g>
	<g>
		<path class="st8" d="M122.1,102.4c0.9-1.5,2.3-2.5,4-3c0,1.4,0,2.9-0.1,4.3c2.8,1,5.6,2,8.4,2.9c-0.6,0.3-1.9,1-2.6,1.3
			c-0.5,0.2-1.5,0.7-1.9,1c-1.3,0.1-2.6,0.2-4,0.3c-0.5,4.1-1.2,8.3-2,12.4C121.2,115.5,121.7,108.8,122.1,102.4z"/>
	</g>
	<g>
		<path class="st9" d="M126.1,99.4c5.8,0.4,11,2.9,14.6,7.6c-2.1-0.1-4.2-0.3-6.2-0.4c-2.8-0.9-5.6-2-8.4-2.9
			C126.1,102.2,126.1,100.8,126.1,99.4z"/>
		<path class="st9" d="M103.3,145.1c3.2,0.4,6.7,0,9.6,1.4c2.9,2.2,3.1,6,3.3,9.3C111.6,152.8,102.2,152.3,103.3,145.1z"/>
		<path class="st9" d="M109,181.1c0.9-2.8,1.9-5.6,3.1-8.3c0,2.5,0,5.1,0,7.6v1.4C111.3,181.6,109.8,181.3,109,181.1z"/>
		<path class="st9" d="M167.9,219.9c0.6-1.7,1.3-3.5,1.9-5.2c3.9,3.6,8.7,6.2,13.9,7.6c0.5,1,1.4,3.1,1.9,4.1
			C179.7,224.1,173.8,221.9,167.9,219.9z"/>
		<path class="st9" d="M50.2,266c1.1-4.8,2.2-11.4,8.3-11.7c8,0.1,14.1,6.4,18.9,12.1c-6.3,2.1-10.7-3.9-14.9-7.5
			c-0.8-0.8-2.4-2.3-3.2-3.1c-1.4,0.5-2.7,1-4.1,1.5c0.2,1.9,0.4,3.8,0.6,5.7c-0.3,0.1-0.8,0.5-1.1,0.6
			C53.2,264.4,51.7,265.2,50.2,266z"/>
		<path class="st9" d="M74.3,259.3c3.3-1.6,6.7-3.1,10.1-4.7c-0.1,1.5-0.2,4.5-0.3,6C80.6,263,77.2,262.1,74.3,259.3z"/>
		<path class="st9" d="M39.9,294.2c2.6-5.6,7.5-10.4,13.9-10.8c0.1,1.1,0.4,3.3,0.5,4.4c-1.4,0-2.8,0-4.3,0c-2.2,3-4.4,6-6.8,8.9
			C42.4,296,40.7,294.8,39.9,294.2z"/>
	</g>
	<g>
		<path class="st10" d="M142.6,99.8c2.7-1.5,3.8,2.9,1,3.4C141,104.7,140,100.5,142.6,99.8z"/>
	</g>
	<g>
		<path class="st11" d="M138.7,115.1c1.9-3.5,3.2-8.3,7.5-9.6c2.8,1,5.6,2.1,8.5,3c-2.8,3.3-6.9,3.3-10.8,2.6
			c-0.3,0.9-1,2.6-1.3,3.4C141.6,114.7,139.7,115,138.7,115.1z"/>
		<path class="st11" d="M82.5,239.6c-3.3-4.5-3.1-9.8,0.2-14.3c0.6,0.6,1.9,1.7,2.5,2.2c0.7,0.6,2,1.8,2.7,2.4
			C86.1,233.1,84.3,236.4,82.5,239.6z"/>
	</g>
	<g>
		<path class="st12" d="M231.1,111c2.9-2,5.9-4,8.9-5.9c-0.5,3.6-1,7.1-1.5,10.6c-1-1.4-1.9-2.8-2.9-4.2
			C234.1,111.4,232.6,111.2,231.1,111z"/>
	</g>
	<g>
		<path class="st13" d="M131.8,107.9c1.8,1.8,3.5,3.7,5.2,5.5c-3.1,0-6.2,0-9.3,0c0.5-1.1,1.6-3.4,2.2-4.5
			C130.4,108.6,131.4,108.1,131.8,107.9z"/>
		<path class="st13" d="M137.8,118.4c2.8-0.8,4.3,0.2,4.6,3.1C140.2,122,137.3,121.2,137.8,118.4z"/>
		<path class="st13" d="M133.4,124.6c2.2,0.4,4.4,0.9,6.7,1.2c-0.1,2.2-0.1,4.3-0.2,6.5c-2,0.2-4.1,0.5-6.1,0.8
			C133.7,130.2,133.6,127.4,133.4,124.6z"/>
		<path class="st13" d="M98.4,138.4c6.9-1.7,15.7-4,21.2,2.2l-0.1,1.6c-5.2-1.5-11.2-5.8-16.1-1.4l-0.9,0.6
			c-2.1,0.5-4.2,0.9-6.3,1.3C96.8,141.3,97.6,139.8,98.4,138.4z"/>
		<path class="st13" d="M296.4,145.3c1.4,2.3,2.7,4.6,4.1,6.9c-3.1,1.4-6.3,2.6-9.5,3.9c-0.5-0.8-1.6-2.4-2.1-3.3
			C291.4,150.4,293.9,147.9,296.4,145.3z"/>
		<path class="st13" d="M78.7,171c2.6-0.5,5.2-0.5,7.8-0.6c-2.6,2.5-5.4,4.8-7.7,7.5l-1,1.1C78.1,176.4,77.3,173.4,78.7,171z"/>
		<path class="st13" d="M93.3,185.7c2.5-0.9,5-1.7,7.6-2.4c-2.4,2.6-5,5-7.6,7.5C93.3,189.5,93.3,187,93.3,185.7z"/>
		<path class="st13" d="M71.5,191.2c4.6-2.8,10.3-5.6,15.7-3.1c4.2,1.6,6.8,5.4,8,9.6c-3.3-3-6.6-5.8-10-8.6c-0.3,1.3-1,3.8-1.4,5.1
			c-0.4-0.5-1.1-1.4-1.5-1.9c-0.8-0.1-1.6-0.1-2.4-0.2C77,191.9,74.2,191.6,71.5,191.2z"/>
		<path class="st13" d="M76.5,206.5c3.6-2.7,7-5.5,10.4-8.5c0.3,2.1,0.5,4.2,0.8,6.3c-0.5,0.4-1.4,1.2-1.9,1.6
			c-0.8,0.7-2.5,2.2-3.3,2.9C80.5,208.1,78.5,207.3,76.5,206.5z"/>
		<path class="st13" d="M92.7,202.5c4.2-1.6,8.6-2.6,13.1-2.9c0.5,0.7,1.5,2.2,2,2.9C102.8,203.4,97.7,203,92.7,202.5z"/>
		<path class="st13" d="M95,257.6c0.3-4.4,2-9,6.9-9.8C100,251.2,99.6,256.7,95,257.6z"/>
		<path class="st13" d="M129.5,251.1c-0.2,3.1-0.4,6.3-0.8,9.4c-3.2-0.6-6.5-1.2-9.7-1.8C122.5,256.1,126,253.6,129.5,251.1z"/>
		<path class="st13" d="M42.7,260.8c2.3,0,4.5-0.1,6.8-0.1c-3.1,2.2-6.3,4.4-9.3,6.6C41,265.2,41.8,263,42.7,260.8z"/>
		<path class="st13" d="M61.6,262.4c1.9,1.7,3.9,3.5,5.8,5.2c-3.4-0.2-6.9-0.5-10.3-0.7C58.7,265.4,60.2,263.9,61.6,262.4z"/>
		<path class="st13" d="M89.8,267.4c1.6,0.8,3.2,1.5,4.8,2.3c-3.8,1.7-7.3,3.8-10.8,6C85.4,272.6,87.4,269.9,89.8,267.4z"/>
		<path class="st13" d="M148.4,276.1l1.9,0.7c-1.6,3.4-3.7,6.5-6.3,9.3c-2.1-0.5-4.1-1-6.2-1.5C141.1,281.5,144.6,278.6,148.4,276.1
			z"/>
		<path class="st13" d="M126.9,290.4c6.7-0.1,12.3,3.6,15.6,9.3c-0.8,0.2-2.3,0.6-3.1,0.8c0,2.2-0.1,4.5-0.1,6.7
			c-1.9-2.2-3.1-5-3.1-7.9c-0.1-1.8-0.2-3.7-0.3-5.5c-3.1-0.3-6.2-0.3-9,1.1l-1.3,0.5C125.9,294.1,126.5,291.7,126.9,290.4z"/>
		<path class="st13" d="M55.8,291c2.1,3.5,2.3,7.5,0.3,11.1l-1.2-0.3c-0.9-0.3-2.8-0.8-3.8-1.1C52.8,297.5,54.3,294.2,55.8,291z"/>
		<path class="st13" d="M143.6,312.5c2.4-5.1,3.8-10.5,5.5-15.9c0.2,2.4,0.3,4.7,0.5,7.1c2-1.5,4.1-3.1,6-4.6
			c0.1,3.3,0.3,6.5,0.6,9.8c-0.8-1.1-1.6-2.2-2.3-3.2C150.5,307.9,147,310.1,143.6,312.5z"/>
		<path class="st13" d="M132.6,300.9l1-1c1.7,4.2,0.8,8.2-2.1,11.5c-2.5-0.6-5-1.2-7.5-1.6C126.9,306.8,129.8,303.8,132.6,300.9z"/>
		<path class="st13" d="M162.9,312.3c3.2,0.2,3.3,4.3,1.6,6.2C162.9,316.7,162.4,314.6,162.9,312.3z"/>
	</g>
	<g>
		<path class="st14" d="M150.1,127.6c2.2-6.8,4.7-13.5,8.4-19.6c5.1-0.5,10.8-0.9,14.3,3.7c3.7-0.5,7.7-1.6,11.1,0.3
			c1.3,2.1,1.9,4.6,2.6,6.9c3.6,0.1,7.2-0.4,10.7,0.4l1,1c-10.4,0.3-21,0.2-31.2,2.2c-6.2,1-10.6,5.8-14.9,10
			c-8.6,9.6-21,16.5-26.2,28.6c-0.5,9.4,5.6,17.6,8.6,26.2c-1.4-1.8-2.9-3.6-4.3-5.4c-5.5,8.7-9.7,19.1-7.6,29.6
			c1.1,6.6,6.3,11.6,12,14.7c7.5,4,15.5,7.2,23.3,10.6c2.9-5.4,5.8-10.8,8.5-16.4c-0.1-3-0.6-5.9-1.2-8.8c1.7,0.4,3.5,0.7,5.3,1
			l-0.6,1.8c-0.6,1.7-1.3,3.5-1.9,5.2c-2.4,6-5.1,12-7.5,18c6.3,3.1,12.9,5.5,19.8,7.2c3.5-6.4,6.8-12.9,9.9-19.5
			c0.3,1.6,0.7,3.2,1.1,4.8c-2.2,5.6-8.7,12.4-3.9,18.3c6.8,10.2,15.1,19.3,21.7,29.5c-9.6-7-15.9-17.2-22.5-26.8
			c-1.7-3-4.9-4.6-8.1-5.7c0.2,8.6,2,17.2,5.2,25.2c4.7,15.6,13.4,30,25.5,41.1h-1.6c-6.4-3.3-10.4-9.4-14.6-15
			c-2.6-3.6-6.6-5.5-9.8-8.4c1.2-0.1,3.5-0.4,4.7-0.5c-6.2-11.3-9.3-23.9-11.5-36.5c-0.2-1.1-0.6-3.4-0.8-4.5
			c-0.8-0.1-2.4-0.2-3.2-0.2c-0.6,1.3-1.7,4-2.3,5.3c-0.8-2.7-1.5-5.3-2.4-7.9c-2.9,17-1.9,35,5,51c-1.5-0.8-3-1.6-4.5-2.3
			c-1.7,1.5-3.4,3.1-5.1,4.6c-1.4-0.1-4.1-0.2-5.5-0.2c2.7-2.6,5.5-5,7.7-8c0.9-3.8-0.5-7.6-1-11.3c-0.3-1.6-0.6-3.2-0.9-4.8
			c-0.3-1.8-0.5-3.6-0.7-5.4c-0.1-6.7,0.8-13.4,0.9-20.1c-0.3-1.3-0.7-2.7-1.2-4c-1.1-0.6-3.4-1.9-4.5-2.5
			c-6.7-3.6-13.7-6.5-20.5-10c-4.7-2.5-9.2-5.4-13.1-8.9c-2.3-3-4.3-6.1-6.5-9.1l-0.8-1.1c1-4.5,0.6-9.2-1.6-13.3
			c-1.1-2.3-2.3-4.5-3.5-6.7c3.2-0.7,6.4-1.5,9.6-2.3c-3.4-2.4-7.1-4.4-11.2-5.1c-2.9,0.1-5.8,0.4-8.6,1.1c-1.6,1.8-3.1,3.7-4.6,5.6
			c-0.1,2.1,0,4.2,0.1,6.3c3.6-1.8,7.3-3.6,11.1-5c-2.2,0.6-6.4,3.3-3.6,5.7l0.9,0.9c-4.5,0.3-8.9,1.3-13.1,2.9
			c-1.7,0.6-3.3,1.2-5,1.9c-0.2-2.1-0.5-4.2-0.8-6.3c-2.8-0.4-5.5-0.9-8.3-0.9L77,197l-0.2,1.5c-0.2,2.5-0.3,5.1-0.4,7.6
			c2,0.8,4,1.6,6,2.4c0.8-0.7,2.5-2.2,3.3-2.9c-1,3.1-2,6.2-2.9,9.3c2.2,1.5,4.5,3,6.8,4.5c0.5-4.4,1.4-8.8,2.3-13.2
			c3.1,0.3,6.4,0.5,9.2,2.1c-2.5,0.1-5,0.2-7.5,0.4c-0.2,3.3-0.4,6.5-0.5,9.8c3.2-2.5,6.4-5.1,9.7-7.3c-0.3,0.7-1,2.1-1.3,2.9
			c-1.9,2.7-4.1,5.3-6.3,7.8c-0.6,0.1-1.8,0.2-2.4,0.3c-1.3,0-3.9-0.1-5.2-0.2c-0.6,0-1.7-0.1-2.3-0.1c-1.4-2.1-2.8-4.2-4.3-6.2
			c-3.2-1.8-6.8-1.4-10.3-1l-0.6-0.9c-2-3.9-4.9-7.8-4.9-12.4c0.3-6.5,4.2-13,10.4-15.5c1.1-0.5,3.3-1.5,4.4-1.9
			c-0.4-2.1-0.9-4.1-1.3-6.2c2.4-2.7,5.1-5,7.7-7.5c-2.6,0.1-5.2,0.1-7.8,0.6c-1.4,2.4-0.6,5.4-1,8c-0.5,1.9-1.1,3.8-1.6,5.7
			c-0.6-5-2.8-11.1,0.7-15.5c2.6-1.3,5.7-1.3,8.5-1.8c0.8-5.6,2.7-11.7,8-14.5c5.5-1.6,8.4-6.1,9.1-11.5l0.9-0.6
			c5.4,2.2,10.6,4.6,15.4,7.7c-0.4,3.2-0.8,6.4-1.1,9.7c4-3.2,6.5-7.6,7.7-12.5c0.2-0.7,0.7-2.1,0.9-2.8c0.2,3.7,0.3,7.3,0.5,11
			C133.1,143.8,146.3,139.4,150.1,127.6 M155.2,124.2c9.3-3.1,19.1-4.8,28.9-5.1c-0.7-2-1.3-4.1-2-6.1c-3.4,0.7-6.8,1.6-10,2.9
			c-2.5-2.6-4.5-7.5-8.9-6C157.1,111.8,154.9,118.3,155.2,124.2 M103.3,145.1c-1.1,7.3,8.4,7.7,12.9,10.8c-0.2-3.3-0.5-7.1-3.3-9.3
			C109.9,145.1,106.5,145.5,103.3,145.1 M99.2,153.3c-3,1.1-5.8,2.8-8.6,4.4c-0.4,1.4-1.1,4.1-1.5,5.5c-1.9,1.2-2.3,2.8-1.2,5
			c0.7,9.6,10.8,13.6,19.1,14.2c-0.1-2.4-0.1-4.8-0.2-7.2c-3.3,0.2-6.6,0.3-9.9,0.5c-1.5-5.3-1.9-10.8-1.1-16.2l0.9-1.3l1.4,0.2
			l-0.4,2c3.3,0.1,6.6,0,9.8-1c0.2,0.8,0.4,1.5,0.6,2.3c0.8,1.3,2.3,3.9,3,5.1c2.8-2.5,5.8-5.2,3.1-9.1
			C109.5,155.6,104.7,151.8,99.2,153.3 M112.1,172.8c-1.2,2.7-2.2,5.5-3.1,8.3c0.8,0.2,2.4,0.5,3.1,0.7v-1.4
			c9.6-2.7,4.8-14.9,10.6-21.1C118.6,163.3,113.4,166.9,112.1,172.8 M98.8,162.4c-0.6,1-1.7,3.1-2.3,4.2c0.8,2.2,1.5,4.4,2.2,6.6
			c3.5,0.1,7,0.1,10.4,0c-0.2-2.6,0.7-5.6-1.2-7.8C106.2,162.2,102,163,98.8,162.4 M116.7,180.4c2.1,2.5,4.2,5,6.3,7.4
			c1.7-2.5,3.8-4.9,4.7-7.8c1.1-3.1-1.8-5.3-3.2-7.7C121.7,174.7,119,177.5,116.7,180.4 M84.8,176.9c-1.6,0.5-3.6,4.1-1.1,4.6
			C86.5,181.7,89.1,175.4,84.8,176.9 M89.7,178.6c-1.3,2.2-2.7,4.4-3.9,6.6c3.3-0.7,6.6-1.7,9.7-2.9
			C93.6,181.1,91.7,179.9,89.7,178.6 M93.3,185.7c0,1.3,0,3.8,0,5.1c2.6-2.4,5.1-4.9,7.6-7.5C98.4,184,95.8,184.8,93.3,185.7
			 M71.5,191.2c-4.9,6.1-4.4,14.6,0.8,20.3c3-0.1,5.9-0.1,8.9-0.2c-2.8-1.4-5.6-2.7-8.4-4c0.3-5.9,3.2-11,7-15.3
			c0.8,0.1,1.6,0.1,2.4,0.2c0.4,0.5,1.1,1.4,1.5,1.9c3.7,3.3,7.7,7.2,13.1,5.1c-0.4-0.4-1.3-1.2-1.7-1.6c-1.1-4.2-3.8-8.1-8-9.6
			C81.7,185.6,76.1,188.4,71.5,191.2z"/>
		<path class="st14" d="M214.4,125.4c-0.1-5.8,5.6-9.3,9.7-12.3c-0.2,4.8,1.1,10.4-2.1,14.5C219.3,128.8,215.8,128.2,214.4,125.4
			 M217.2,126c5.5,0.5,5.8-5.1,5.4-9.1C219.9,119.3,217.8,122.4,217.2,126z"/>
		<path class="st14" d="M123.5,245.6c0.5,0,1.6,0,2.2,0c2.7,1.9,5.5,3.8,8.3,5.5l-0.2,1.1c-0.8,2.9-1.4,5.9-1.8,8.9
			c-0.8-0.1-2.4-0.4-3.2-0.5c0.4-3.1,0.6-6.3,0.8-9.4c-1.2-0.3-3.6-0.8-4.8-1c-3.2-0.8-7.6,2-6.9,5.6c0.1,1.2,0.3,3.6,0.4,4.8
			c-0.5-0.2-1.4-0.6-1.9-0.8c-0.5-1.8-0.9-3.7-1.4-5.6c-0.2-0.7-0.6-2.2-0.8-2.9c0.3-0.2,1.1-0.6,1.4-0.8
			C118.2,248.9,120.8,247.2,123.5,245.6z"/>
		<path class="st14" d="M80,294.5c0.6,0,1.7,0,2.3,0c3.8,3.6,6.9,7.7,9.4,12.3c-3.3,1.7-6.2,4.5-10,5c-3.2-0.8-5.8-3-8.6-4.8
			c-0.2-1.7-0.5-3.4-0.7-5.1C75,299.5,77.5,297,80,294.5 M76.2,306.5l-0.9,0.9c3.3,1.1,8.2,4.6,10.7,0.4c2.4-1.7,1.1-4.4,0.7-6.7
			l-1-0.4c-0.8-0.3-2.5-0.8-3.3-1l-0.7,0.7C78.7,298.1,73.8,303.6,76.2,306.5z"/>
	</g>
	<g>
		<path class="st15" d="M305.1,109c2.8-0.9,4,3.7,1.2,4.3C303.5,114.2,302.2,109.6,305.1,109z"/>
		<path class="st15" d="M308.7,129.9c1.7-2.7,3.9-5,6-7.5c2.5,2.6,5,5.2,7.5,7.8c-2.4,2.9-4.8,5.7-7.2,8.6
			C312.9,135.8,309.3,133.5,308.7,129.9z"/>
	</g>
	<g>
		<path class="st16" d="M155.2,124.2c-0.3-5.9,1.9-12.5,8.1-14.3c4.3-1.4,6.4,3.5,8.9,6c3.2-1.3,6.6-2.3,10-2.9c0.7,2,1.3,4.1,2,6.1
			C174.3,119.4,164.5,121.1,155.2,124.2z"/>
	</g>
	<g>
		<path class="st17" d="M145.8,114c2.3,0.1,4.6,0.2,6.9,0.3c-1.3,1.9-2.6,3.9-3.9,5.8c-1.4-0.4-2.9-0.8-4.3-1.3
			C145,117.3,145.4,115.6,145.8,114z"/>
	</g>
	<g>
		<path class="st18" d="M232.9,123.3c3.2-4.3,8.6-6.5,13.1-9.3c-3.7,6.7-7.6,14-14.7,17.5l-0.6-1.1
			C231.4,128.1,232.2,125.7,232.9,123.3z"/>
	</g>
	<g>
		<path class="st19" d="M106.6,131.1c1.4-6.7,6.7-11.2,12.8-13.9c0.5,3,1,5.9,1.4,8.9c-1.3-1.4-2.7-2.7-4-4.1
			C113.7,125.4,110.3,128.4,106.6,131.1z"/>
		<path class="st19" d="M217.2,126c0.7-3.6,2.7-6.7,5.4-9.1C223,120.9,222.7,126.5,217.2,126z"/>
		<path class="st19" d="M98.8,162.4c3.1,0.6,7.4-0.2,9.2,3.1c1.9,2.2,1,5.2,1.2,7.8c-3.5,0.1-7,0-10.4,0c-0.7-2.2-1.5-4.4-2.2-6.6
			C97.1,165.6,98.2,163.5,98.8,162.4z"/>
		<path class="st19" d="M93.7,209c2.5-0.1,5-0.3,7.5-0.4c0.7,0.4,2,1.3,2.7,1.7c1.6,0.6,3.3,1.1,5,1.5c0.3,0.8,0.9,2.4,1.3,3.2
			c-2.9-0.3-5.7-0.5-8.6-0.8c0.3-0.7,1-2.1,1.3-2.9c-3.4,2.3-6.5,4.8-9.7,7.3C93.3,215.5,93.5,212.3,93.7,209z"/>
		<path class="st19" d="M55.4,229.1c2.9-1.7,5.7-3.5,8.5-5.3c-0.7,4.6-1.6,9.5-5.7,12.2c-1.2-1.8-2.3-3.6-3.5-5.3l-0.6-0.9
			L55.4,229.1z"/>
		<path class="st19" d="M117,234.2c2.8-2.1,5.7-4.1,8.7-5.9c1.2,3.4,2.2,6.9,3.3,10.3c-2.9,0.5-5.8,0.9-8.6,1.2
			C119.2,238,118.1,236.1,117,234.2z"/>
		<path class="st19" d="M107.4,293.8c2.2,0,4.4,0,6.6,0.1c-2.7,3.2-5.5,6.2-8.5,9.1C106.1,299.9,106.8,296.8,107.4,293.8z"/>
	</g>
	<g>
		<path class="st20" d="M127.2,118.9c0.9-0.6,2.7-1.9,3.6-2.5c1.5,1.4,3,2.8,4.5,4.2C132.6,120.2,129.9,119.6,127.2,118.9z"/>
	</g>
	<g>
		<path class="st21" d="M137.7,117.6l0.1,0.8c-0.4,2.8,2.4,3.6,4.6,3.1c2,0.3,2.4,3.1,3.7,4.4c-1.5,0-4.5-0.1-6-0.2
			c-2.2-0.3-4.4-0.7-6.7-1.2l-1.7-0.3c-0.5,2.9-0.9,5.8-1.3,8.8c-1.8-0.7-4-0.8-5.4-2.2c-0.2-4.1,1.2-8,2.3-11.9
			c2.7,0.6,5.4,1.3,8.1,1.7C137.1,121.3,137.3,118.7,137.7,117.6z"/>
	</g>
	<g>
		<path class="st22" d="M167,122.7c10.3-2,20.8-1.9,31.2-2.2c1.5,1.6,2.9,3.3,4.4,4.9c-9.6,1.6-19.3,2.1-29,2.5
			c2.3,7.1,4.6,14.1,7,21.1c-2.8,0.6-5.6,1.2-8.5,1.8c-3.7-7.2-6.1-15.2-10.8-21.8c-3.3,0.7-6.3,2.2-9.3,3.6
			C156.4,128.5,160.8,123.7,167,122.7z"/>
	</g>
	<g>
		<path class="st23" d="M229.1,124c0.9-0.2,2.8-0.5,3.8-0.7c-0.7,2.4-1.4,4.8-2.2,7.1C229.2,128.6,228.4,126.3,229.1,124z"/>
	</g>
	<g>
		<path class="st24" d="M173.6,127.9c9.7-0.5,19.4-1,29-2.5c1.7,1.9,3.4,3.7,5.2,5.5c-10.2,0.3-20.4,0.8-30.6,1
			c1.9,5.6,3.9,11.1,5.8,16.7c-2,3-7,5.5-4.9,9.7c3.5,10.5,9.5,20.1,11.7,31c-4.7,2.6-9.6,5-14.6,7.1c-4.5-8.3-8.2-17-12.4-25.5
			c-4.4,2.6-8.7,5.5-12.5,8.9c1.2,3,2.4,6,3.7,9c2.5,5.3,4.5,11.2,9.2,15c3.6-0.4,7.1-1.4,10.6-2.2c-3.5,2-7.1,3.9-10.7,5.8
			c2.5,1.8,4.9,3.6,7.4,5.3c-1.7-0.3-3.5-0.7-5.3-1c-10.8-5.8-19.5-14.7-29.3-21.8c-0.3-0.6-1-1.9-1.4-2.5c-3-8.6-9.1-16.8-8.6-26.2
			c5.3-12.1,17.6-19.1,26.2-28.6c3-1.5,6-2.9,9.3-3.6c4.7,6.6,7.1,14.6,10.8,21.8c2.8-0.6,5.7-1.2,8.5-1.8
			C178.3,142,175.9,134.9,173.6,127.9z"/>
	</g>
	<g>
		<path class="st25" d="M285.9,130.9c2.6-3.7,8.2-8.3,12.3-3.7c8.1,8.8,14.6,22.4,9.1,34.1c2.5,3.9,6,7.4,7.2,11.9
			c-3.3,13-12,24.6-23,32.3c-12.8,9.1-27.9,14.2-43.3,16.8c6,6.6,13.3,11.8,20.2,17.4c5-4.3,10.8-7.6,17.4-8.5
			c15-2.4,30-5.4,45.1-6.1c2.1,6.6,3.9,13.3,5.1,20.1c1,4-1.8,7.4-2.6,11.1c7.8,8.4,12.4,19.1,19.1,28.3c2.3,4,5.8,7.8,6.4,12.5
			c-3.5,5.2-8,9.9-12.9,13.9c-7.4,2.2-15.2,1.2-22.8,1.2c-1.6-2.2-3.1-4.4-4.6-6.6c-10.1,4.1-15.6,13.8-22.8,21.3
			c-10.9,10.4-27.3,7.9-40.5,4.3c-10-3.1-20.2,0.6-29.9,2.7c-10.9,2.6-22.3-0.8-31.4-6.8c-2.9-2-5.7-4.1-8.6-6.2
			c-1.9-2.9-3.7-5.9-5.3-8.9l0.4-1.9c7.5,9.5,17.1,18.2,29.3,20.9c9.3,2.8,18.6-1,27.6-2.8c15.1-4.2,29.7,6.2,44.9,2.6
			c8.6-0.9,14-8,18.8-14.3c4.1-5.2,9.3-9.2,14.8-12.8c-0.8-2.7-1.4-5.4-2.1-8.1c-3.7,1.9-7.3,3.7-10.5,6.3
			c-5.9,5.5-11,12.3-18.6,15.6c-7,2.7-14.5,0.6-21.3-1.7c-11.2-3.7-23.7-4.1-35-0.2c-6.7,2.9-14.2-1.7-20.6,2.2
			c-2.3-0.8-4.3-2.2-6.4-3.4c2-0.9,4.1-1.7,6.1-2.6h1.6c5.7,1.2,11.5,3.3,17.2,1.6c7.7-2,15.6-4.2,23.7-3
			c10.1,0.9,19.6,5.9,29.8,5.6c9.1-1.1,13.9-10,20.7-15.1c3.5-3.1,8.6-4.9,11-9c-1.7-4.6-4.7-9.3-9.3-11.4c-7-0.9-13.8,1.9-20.2,4.4
			c-9.5,3.6-17.4,11.8-28,12l-1.1-0.8c1.1-0.5,3.2-1.5,4.3-2c10-4,18.4-11.1,28.7-14.1c6.1-1.8,12.5-2.3,18.8-2.7
			c6,6.4,10.5,13.8,14.6,21.5c6.1,0.2,12.3,0.3,18.4-0.3c4.5-3.7,8.5-7.9,12.6-12c-5.5-9.1-11.2-18.1-17.3-26.8
			c-5.3,1.6-10.8,2.5-16.3,2.9c-0.8,0.1-2.4,0.2-3.2,0.3c1.7-3.7,3.5-7.3,5.1-11c1.4-7.6-1.4-15.1-3.1-22.4
			c-11,1.6-22.1,2.6-32.8,5.5c-6.4,1.5-10.8,6.7-15.4,11.1c-1.2,1-2.4,1.9-3.8,2.7c-14.4,3-27.9,9.7-40.9,16.4
			c-2.4,6.1-5.4,12.6-4.4,19.2c3.1,5.1,7.8,8.9,11.8,13.2c-7.7-2.6-12.8-9.1-17.5-15.3c3.3-6.3,5.5-13,7.2-19.9
			c0.9-0.5,2.7-1.4,3.6-1.9c13.6-6.2,27.8-11.2,41.5-17.3c0.6-0.2,1.8-0.7,2.3-0.9c-3-2.3-6.1-4.5-9.1-6.8
			c-7.6-6.9-14.5-14.4-21.1-22.2c-0.9,6.1-1,12.3-2.1,18.3c0-6-1.9-11.6-6.6-15.5c-0.2-2.7-0.4-5.5-0.6-8.2
			c-6.9,1.6-13.7,3.9-20.4,6.5c0.9,1.6,1.7,3.2,2.5,4.8c-1,1.2-2,2.4-3,3.6c-2.8-1.8-5.5-3.8-8.1-5.8c-1.7,1.7-3.3,3.4-5,5
			c7.5,1.3,15,1.9,22.5,2.8c-0.6-1.4-1.3-2.8-2-4.1c1.5-0.6,2.9-1.1,4.4-1.6c-0.7,4.3-0.1,8.7,1.6,12.7c-9.4-3.8-19.9-3.8-29.2-7.9
			c-2.3-0.7-4.7-1.2-7.1-1.9c-5.1-1.4-10-3.9-13.9-7.6l0.6-1.8c4,2.1,7.9,4.5,12.2,5.6c5.3-0.4,10.2-2.7,15.2-4.2
			c17.1-5.9,34.4-11.2,51.5-17.2c0-9.3-4.3-17.7-7-26.3c-3.8-11.6-8-23.1-11.5-34.8c1.7-1.2,3.4-2.3,5.1-3.5
			c0.8,2.6,1.7,5.2,2.1,7.9c0,3-1.6,6.1-0.2,9.1c4.5,13.7,9.6,27.3,14.1,41.1c12.2-7,21.2-18.6,26.7-31.3c3-0.7,5.9-1.3,8.9-2
			c0.2-1.7,0.5-3.5,0.8-5.2l0.6,1c0.5,0.8,1.6,2.4,2.1,3.3c3.2-1.3,6.4-2.5,9.5-3.9c1.8,2.6,3.8,5,5.9,7.3c-0.1-0.8-0.1-2.4-0.2-3.3
			c0.8-10-2.4-20.5-9.7-27.4C292.9,126,289.7,131.9,285.9,130.9 M279.7,164.1c-4.7,8.9-10.7,17.3-18.8,23.5
			c-5.8,2.7-9.3,7.7-11.8,13.3c-3.7,0.8-7.4,1.7-11.1,2.5c-0.1,3.8,0.5,7.7,3,10.8c3.8,7.8,13.7,3.4,20,1.7c-2.2-0.5-4.4-1-6.6-1.5
			l0.4-0.9c6.3-0.2,13,1.2,19-1.3c8.6-3.4,16.4-8.5,23.2-14.8c6-5.8,11-12.7,13.7-20.7l1.6-0.6c-1.5-8.2-8.2-13.9-12.8-20.4
			C292.9,158.4,285.3,159.4,279.7,164.1 M230.7,206.1c-0.2,2.9-0.4,5.8-0.6,8.7c1.7,0.6,3.4,1.2,5,1.8
			C234.1,213,232.5,209.5,230.7,206.1 M318.6,229.4c0.9,7.1,2.4,14,4.3,21c3.7-0.4,7.4-0.9,11.1-1.5c-1.2-7.2-2.6-14.3-5.1-21.2
			C325.5,228.2,322.1,228.8,318.6,229.4 M339.5,301c1.3,2.5,2.7,5,4,7.6c4.8-2.9,9.4-6.5,12.2-11.4c0.3-3.4-2.3-6-3.8-8.7
			C347.5,292.3,343.3,296.5,339.5,301z"/>
		<path class="st25" d="M189.8,138.9c2.6-2.6,6.6-2.2,9.9-2.7c0.6,1.6,1.2,3.1,1.8,4.7c-5.5,1.5-10.4,4.3-15.7,6.3
			C186.7,144.3,187.6,141.2,189.8,138.9z"/>
		<path class="st25" d="M218.8,139c5.3,3.4,10.5,7.1,14.9,11.7l-2.4,0.6c-3.5-0.9-7-1.7-10.5-2.5c0.8,3.9,1.7,7.8,2.7,11.7
			c3.8-0.7,7.5-1.3,11.3-2.1l2.3-0.5c2,5.5,3.7,11.2,3,17.1c-4.4,0.8-8.9,1.4-13.3,1.7C221.2,165,216.7,152.2,218.8,139 M233,160.6
			c-1.2,2.7-2.4,5.6-4.1,8c1.7,0,3.4,0,5.1,0c-1.8,2-3.8,3.9-5.6,5.9c3.5-0.6,7-1.3,10.5-2.2C237.4,168.2,236.3,163.8,233,160.6z"/>
		<path class="st25" d="M187.2,152.4c5.3-1.9,11.8-4,17.1-1.4c4.8,8.5,8.5,17.7,10.6,27.2c-5.4,2.9-11.7,2.9-17.7,3.6
			C192.5,172.5,189.2,162.6,187.2,152.4 M190.2,153.8c1,3.6,2,7.2,3,10.7c4.6-0.2,9.2-0.7,13.8-1.4c-1.3-3.7-2.6-7.3-4-11
			C198.7,152.2,194.4,152.7,190.2,153.8 M194.6,166.5l0.5,0.9c-0.1,4.4,2,8.3,4.2,12c4.3-0.8,8.6-1.5,12.9-2.3
			c-1.3-3.7-2.7-7.4-4-11.1c-1.2,0.1-3.5,0.1-4.6,0.2C200.6,166.3,197.6,166.4,194.6,166.5z"/>
		<path class="st25" d="M213.2,182.6c1.1,2,1.7,4.7,3.8,6c5.1,0.2,10-1.4,14.9-2.4c-7.3,7.3-18.4,2.8-26.7,8.1
			C208.7,191.1,212.6,187.7,213.2,182.6z"/>
		<path class="st25" d="M172.7,255.3c3.1,2.3,3.5,6.2,3,9.8C172.7,262.7,173,258.8,172.7,255.3z"/>
		<path class="st25" d="M138.5,274.9c0.9-1.8,1.9-3.6,2.9-5.5c0.5,0.3,1.3,0.8,1.8,1c2.9,1.7,6,2.9,9.2,3.8
			c-0.3,2.8-0.6,5.7-0.7,8.5c-2.5,1.1-5,2.3-7.6,3.3c2.6-2.7,4.7-5.8,6.3-9.3l-1.9-0.7c-1-0.4-3-1.1-4-1.5
			C142.5,273.6,140.4,274.2,138.5,274.9z"/>
		<path class="st25" d="M173.5,281.2c2.4,4,9.3,9,4.3,13.7C175.8,290.5,174.4,285.9,173.5,281.2z"/>
		<path class="st25" d="M186.1,300.4c2,3.1,8,6.7,3.4,10.2c-1.1-1.3-2.2-2.5-3.2-3.7C186.2,305.3,186.1,302,186.1,300.4z"/>
		<path class="st25" d="M300.9,312.2c-2.7-3.2,0.6-7.7,4.4-6.9C305.2,308.2,303,310.3,300.9,312.2z"/>
		<path class="st25" d="M157.6,310.8c0.9,0.3,2.8,0.8,3.7,1l1.6,0.4c-0.5,2.3,0,4.4,1.6,6.2c-1.4,2.5-2.7,5.1-4.7,7.2
			c-3.3,1.5-7,0.9-10.5,1.3c0.2-2.4,0.4-4.7,0.6-7.1l0.6,1.5c0.3,0.7,1.1,2.2,1.5,2.9c2,0.6,4,1.2,5.9,1.8c1.1-2.1,2.2-4.3,3.2-6.4
			l0.7-1.5c-0.6-1.1-1.8-3.2-2.4-4.3c-0.3-0.5-1-1.6-1.4-2.2L157.6,310.8z"/>
		<path class="st25" d="M230.5,319.9c3.5-3.3,8.2-4.6,13-4.4C243.2,322,234.7,319.4,230.5,319.9z"/>
		<path class="st25" d="M265.5,320.2c3.8,0.6,10.3-1.1,9.9,4.7c-0.8-0.1-2.5-0.2-3.3-0.3C269.7,323.3,267.6,321.8,265.5,320.2z"/>
		<path class="st25" d="M203.7,323.1c2.2,0.3,4.1,1.2,5.8,2.6C207.5,328.9,202.5,326.8,203.7,323.1z"/>
		<path class="st25" d="M216,327.8c4.2-1.6,8.8-3.5,13.1-1C225,329.3,220.4,330,216,327.8z"/>
	</g>
	<g>
		<path class="st26" d="M289.2,133.3c1.2-3,4.8-2.3,7.2-3.1c0.1,3.3,3,8.4-1,10.3c-1.8,0.2-3.6,0.3-5.3,0.5
			C289.8,138.4,289.3,135.9,289.2,133.3z"/>
	</g>
	<g>
		<path class="st27" d="M281.1,137.6c1.1-1.5,1.6-4.3,4-4.3c0.9,2.9,1.4,6,2.2,8.9c0.7-0.3,2.2-0.9,2.9-1.2c1.7-0.2,3.5-0.3,5.3-0.5
			c0.9-0.1,2.7-0.2,3.6-0.3l0.4,1c1.3,3,2.6,5.9,4,8.8c1,2.1,1.9,4.2,2.7,6.3c0,0.8,0.1,2.4,0.2,3.3c-2.1-2.4-4.1-4.8-5.9-7.3
			c-1.4-2.3-2.7-4.7-4.1-6.9c-0.5-0.3-1.5-1-2-1.3c-2.7-2.1-5.8,1.8-5.7,4.5c-0.1,0.9-0.4,2.6-0.5,3.5c-0.2,1.7-0.5,3.5-0.8,5.2
			c-3,0.6-5.9,1.3-8.9,2C274.3,152.2,277.8,144.1,281.1,137.6 M284.1,147.6c-2.3,0.1-5,2.9-3.6,5.2
			C282.9,154.1,287.2,148.8,284.1,147.6z"/>
		<path class="st27" d="M139.3,307.2l1.5-1c0.2,5.6-2,12-8,13.6c-9.2,1.4-18.3-2.5-25.9-7.3c4.4-1.3,8.9-2.2,13.5-1.8
			c3.2,0.7,6.3,1.9,9.5,2.4C133.5,312.2,136.2,309.2,139.3,307.2z"/>
	</g>
	<g>
		<path class="st28" d="M128.4,135c2.5-0.8,3.3,0,2.5,2.5C128.4,138.3,127.5,137.5,128.4,135z"/>
	</g>
	<g>
		<path class="st29" d="M93.3,152.9c-3.4-5.8-0.8-14,5.9-15.8l-0.8,1.3c-0.8,1.4-1.6,2.9-2.3,4.3c2.1-0.4,4.2-0.8,6.3-1.3
			C101.7,146.9,98.8,151.4,93.3,152.9z"/>
	</g>
	<g>
		<path class="st30" d="M103.4,140.8c4.9-4.4,10.9-0.1,16.1,1.4c-0.2,2.1-0.4,4.2-0.7,6.4C114,145.4,108.7,143,103.4,140.8z"/>
		<path class="st30" d="M170.6,301.4c0.6,0.1,1.8,0.2,2.4,0.3c-0.3,3.6-1,7.2-0.5,10.8c1.3,4.1,4.4,7.3,7.1,10.6
			c-0.8,1.5-1.7,3-2.5,4.5C168.5,321.7,171,310.3,170.6,301.4z"/>
	</g>
	<g>
		<path class="st31" d="M119.6,140.6c1.9,1.7,3.8,3.4,5.8,5.1c-1.2,4.9-3.7,9.3-7.7,12.5c0.3-3.2,0.7-6.4,1.1-9.7
			c0.3-2.1,0.5-4.2,0.7-6.4L119.6,140.6z"/>
	</g>
	<g>
		<path class="st32" d="M299.5,141.2c4.9-1.2,6.2,5.6,4,8.8C302.1,147.1,300.8,144.2,299.5,141.2z"/>
	</g>
	<g>
		<path class="st33" d="M288.8,148.4c-0.1-2.7,2.9-6.5,5.7-4.5C293.6,146.4,291.3,148,288.8,148.4z"/>
	</g>
	<g>
		<path class="st34" d="M294.5,144c0.5,0.3,1.5,1,2,1.3c-2.5,2.5-5,5.1-7.5,7.6l-0.6-1c0.1-0.9,0.3-2.6,0.5-3.5
			C291.3,148,293.6,146.4,294.5,144z"/>
	</g>
	<g>
		<path class="st35" d="M284.1,147.6c3.1,1.3-1.2,6.5-3.6,5.2C279.2,150.5,281.8,147.6,284.1,147.6z"/>
		<path class="st35" d="M99.1,153.8c3.9,0.2,7.9,1,8.3,5.6c-3.2,1-6.5,1.1-9.8,1l0.4-2C98.3,157.3,98.9,155,99.1,153.8z"/>
		<path class="st35" d="M78.6,197.2c2.8,0,5.6,0.5,8.3,0.9c-3.4,2.9-6.9,5.8-10.4,8.5c0.1-2.5,0.2-5.1,0.4-7.6
			C78.3,203.2,82.9,198.4,78.6,197.2z"/>
		<path class="st35" d="M67.2,242.8c1.8-6,7.7-4.7,12.5-4c0.3,0.9,0.9,2.7,1.2,3.6C76.4,242.5,71.8,242.8,67.2,242.8z"/>
		<path class="st35" d="M144.4,274.7c1,0.4,3,1.1,4,1.5c-3.8,2.4-7.3,5.3-10.5,8.4c-0.1-1.3-0.3-4.1-0.4-5.4
			C140.2,278.6,142.4,276.6,144.4,274.7z"/>
		<path class="st35" d="M91.4,283.6c1.3,0,3.9-0.1,5.2-0.1c1.9,4,1.2,8.3-0.2,12.3c-2.2-1.8-4.5-3.6-6.5-5.7
			C89.8,287.8,90.8,285.7,91.4,283.6z"/>
		<path class="st35" d="M126.8,294.9c2.9-1.3,6-1.4,9-1.1c0.1,1.8,0.2,3.7,0.3,5.5C133,298,129.8,296.5,126.8,294.9z"/>
		<path class="st35" d="M82.3,294.4c4.7-0.6,8.9,2,12.6,4.5c0.4,1.8,0.6,3.6,0.7,5.4c-1,0.6-3,1.8-4,2.4
			C89.3,302.2,86.1,298,82.3,294.4z"/>
	</g>
	<g>
		<path class="st36" d="M220.7,148.9c3.5,0.8,7,1.6,10.5,2.5c1.1,2.4,2.2,4.8,3.5,7.1c-3.7,0.8-7.5,1.4-11.3,2.1
			C222.5,156.7,221.6,152.8,220.7,148.9z"/>
	</g>
	<g>
		<path class="st37" d="M190.2,153.8c4.2-1.1,8.5-1.5,12.8-1.6c1.3,3.6,2.7,7.3,4,11c-4.6,0.6-9.2,1.1-13.8,1.4
			C192.2,161,191.2,157.4,190.2,153.8z"/>
	</g>
	<g>
		<path class="st38" d="M279.7,164.1c5.6-4.8,13.2-5.7,19.8-8.3c4.6,6.5,11.3,12.2,12.8,20.4l-1.6,0.6c-5.5,2.1-11,4.2-15.9,7.2
			C290.7,176.8,285.5,170.2,279.7,164.1z"/>
	</g>
	<g>
		<path class="st39" d="M90.6,157.7c2,0.2,4,0.3,6.1,0.6l-0.9,1.3c-1.4,2-2.7,4-3.9,6c-0.7-0.6-2.1-1.7-2.8-2.3
			C89.4,161.8,90.2,159.1,90.6,157.7z"/>
		<path class="st39" d="M97.3,191.6c1.5-1.9,3-3.8,4.6-5.6c2.7,0.9,5.4,1.8,8,2.9C105.7,190.1,101.5,191,97.3,191.6z"/>
		<path class="st39" d="M55.3,257.3c1.4-0.5,2.7-1,4.1-1.5c0.8,0.8,2.4,2.3,3.2,3.1c-2.1,1.5-4.4,2.9-6.7,4.1
			C55.6,261.1,55.5,259.2,55.3,257.3z"/>
		<path class="st39" d="M72.2,274.3c2.6,1.4,5.2,3,7.5,4.9c-2.5-0.7-7.5,1.9-8.2-1.6C71.8,276.8,72.1,275.2,72.2,274.3z"/>
		<path class="st39" d="M96.3,275.6c2.4-0.2,3.8,3,5.7,4.2c-0.7,1.5-1.4,3-2,4.5c-2.8-2.3-6.2-2.9-9.8-2.9c-1.5,3.8-2.8,8.2-7.7,7.9
			c1.1-4.8,3.3-9.2,5.9-13.3l1.5,0.2C92.1,276.8,94.3,276.1,96.3,275.6z"/>
	</g>
	<g>
		<path class="st40" d="M108.1,161.7c2-1.3,4.1-2.6,6.2-3.9c2.7,3.9-0.3,6.6-3.1,9.1C110.3,165.6,108.8,163,108.1,161.7z"/>
		<path class="st40" d="M110.9,192.4l1.2-0.2c1.2,2.2,2.4,4.4,3.5,6.7c-3.3,0.3-6.5,0.6-9.8,0.6l-0.9-0.9
			C107.5,197.3,109.2,194.8,110.9,192.4z"/>
		<path class="st40" d="M74.2,222.3c1.3,0,3.9,0,5.2,0c-0.7,4-1.5,8-2.7,11.9c-3.4,0.8-4.3-3.2-6-5.1
			C71.9,226.8,73,224.5,74.2,222.3z"/>
		<path class="st40" d="M79.3,253.2c1.6-1.2,3.4,1.1,5.1,1.4c-3.4,1.6-6.7,3.1-10.1,4.7c-0.5-1.3-1.1-2.6-1.6-3.9h1.1
			C76,255.7,77.7,254.3,79.3,253.2z"/>
		<path class="st40" d="M106.7,269.4c7-1.9,14.2-2.7,21.5-2.2c-0.5,1.7-1,3.3-1.6,5c-3.4-0.6-6.9-1.5-10.3-0.9
			c-2.2,1.5-3.4,4-5.2,5.9c-4,1.1-4.5-5.1-6.2-7.5L106.7,269.4z"/>
		<path class="st40" d="M81.7,300.4l0.7-0.7c0.8,0.2,2.5,0.8,3.3,1c-2,1.2-2.9,2.8-2.6,4.9c2.4,1,3.7-2.6,3.7-4.5
			c0.4,2.3,1.7,5-0.7,6.7c-2.6,4.2-7.4,0.7-10.7-0.4l0.9-0.9C78.3,304.7,80,302.5,81.7,300.4z"/>
	</g>
	<g>
		<path class="st41" d="M112.1,172.8c1.3-5.9,6.5-9.5,10.6-13.5c-5.8,6.2-0.9,18.4-10.6,21.1C112.1,177.9,112.1,175.4,112.1,172.8z"
			/>
		<path class="st41" d="M114.7,246.1c2.9-0.2,5.8-0.4,8.7-0.5c-2.6,1.7-5.2,3.4-8,4.9C115.3,249.4,114.9,247.2,114.7,246.1z"/>
	</g>
	<g>
		<path class="st42" d="M91.8,165.6c1.2-2.1,2.6-4.1,3.9-6c-0.7,5.4-0.3,10.9,1.1,16.2c3.3-0.2,6.6-0.4,9.9-0.5
			c0.1,2.4,0.1,4.8,0.2,7.2c-8.3-0.6-18.4-4.6-19.1-14.2C89.8,168.8,91.1,167.1,91.8,165.6z"/>
	</g>
	<g>
		<path class="st43" d="M87.9,168.2c-1.1-2.2-0.7-3.8,1.2-5c0.7,0.6,2.1,1.7,2.8,2.3C91.1,167.1,89.8,168.8,87.9,168.2z"/>
	</g>
	<g>
		<path class="st44" d="M260.9,187.6c8.1-6.2,14.1-14.6,18.8-23.5c5.8,6.1,11,12.7,15.1,19.9c-2.6,2.4-5,5.1-7.4,7.7
			c-2,2.1-4.1,4.1-6.2,6C274.6,194,267.8,190.7,260.9,187.6z"/>
	</g>
	<g>
		<path class="st45" d="M194.6,166.5c3-0.1,5.9-0.2,8.9-0.3c0.7,3.4,1.4,6.7,2,10.1c-1.4,0.2-4.2,0.6-5.6,0.8
			c-1.5-3.3-3.1-6.5-4.8-9.7L194.6,166.5 M200.4,170.6c-1.9,1.5,0.6,5.1,2.6,3.5C204.8,172.6,202.4,169.1,200.4,170.6z"/>
		<path class="st45" d="M239.9,278.9c6.8-10.8,14.3-21.3,23.6-30c-0.8,2.1-1.7,4.2-2.6,6.2c-5.5,8.6-13.9,15.5-17.5,25.2
			c0.4,6.4,5.3,11.6,9.6,15.9l1.1,0.8c-5.7,0.1-11.4,0.4-17.1,0.6C239.1,291.6,239.9,285.3,239.9,278.9z"/>
	</g>
	<g>
		<path class="st46" d="M200.4,170.6c2-1.6,4.4,2,2.6,3.5C200.9,175.7,198.5,172.2,200.4,170.6z"/>
	</g>
	<g>
		<path class="st47" d="M150.3,179.8c3.8-3.4,8-6.4,12.5-8.9c4.2,8.5,7.9,17.2,12.4,25.5c5-2.2,9.9-4.5,14.6-7.1
			c1.7,8.6,4.5,17,8.1,25c-5,1.5-10,3.8-15.2,4.2c-4.4-1.1-8.3-3.5-12.2-5.6c-2.5-1.7-4.9-3.5-7.4-5.3c3.6-1.9,7.1-3.8,10.7-5.8
			c-3.5,0.8-7,1.7-10.6,2.2c-4.7-3.8-6.7-9.8-9.2-15c1.1-0.9,2.2-1.8,3.3-2.7c1.9,2.7,3.8,5.4,5.9,8c1.9,1.1,3.8,2.2,5.8,3.2
			c-4.1-6.6-3.6-16.4-10.5-20.8C155.8,177.6,153,178.7,150.3,179.8z"/>
	</g>
	<g>
		<path class="st48" d="M116.7,180.4c2.4-2.9,5-5.7,7.9-8.1c1.3,2.4,4.3,4.6,3.2,7.7c-0.9,3-3,5.4-4.7,7.8
			C120.9,185.3,118.8,182.9,116.7,180.4z"/>
	</g>
	<g>
		<path class="st49" d="M84.8,176.9c4.4-1.5,1.7,4.8-1.1,4.6C81.1,181,83.2,177.4,84.8,176.9z"/>
	</g>
	<g>
		<path class="st50" d="M150.3,179.8c2.7-1.1,5.5-2.3,8.2-3.3c1.8,5.8,3.4,11.7,4.7,17.6c-2.1-2.6-4-5.3-5.9-8
			c-1.1,0.9-2.2,1.8-3.3,2.7C152.7,185.8,151.5,182.8,150.3,179.8z"/>
	</g>
	<g>
		<path class="st51" d="M158.5,176.5c6.9,4.5,6.4,14.2,10.5,20.8c-1.9-1.1-3.9-2.1-5.8-3.2C161.9,188.1,160.3,182.3,158.5,176.5z"/>
	</g>
	<g>
		<path class="st52" d="M294.8,184.1c5-3.1,10.5-5.2,15.9-7.2c-2.6,8-7.7,14.9-13.7,20.7c-3.2-2-6.4-3.9-9.7-5.8
			C289.9,189.2,292.3,186.5,294.8,184.1z"/>
	</g>
	<g>
		<path class="st53" d="M77.7,179.1l1-1.1c0.4,2.1,0.9,4.1,1.3,6.2c-1.1,0.5-3.3,1.4-4.4,1.9l0.4-1.3
			C76.6,182.8,77.1,181,77.7,179.1z"/>
	</g>
	<g>
		<path class="st54" d="M89.7,178.6c2,1.2,3.9,2.4,5.8,3.7c-3.2,1.2-6.4,2.2-9.7,2.9C87,183,88.3,180.8,89.7,178.6z"/>
		<path class="st54" d="M113.5,276.2c2.9-1.5,6-2.7,9.1-3.7c1.3,3.6,2.1,7.2,2.5,11c-3,0-5.9-0.1-8.9-0.2
			C115.3,280.9,114.4,278.6,113.5,276.2z"/>
	</g>
	<g>
		<path class="st55" d="M122.5,211.7c-2-10.5,2.1-20.9,7.6-29.6c1.4,1.8,2.9,3.6,4.3,5.4c0.4,0.6,1.1,1.9,1.4,2.5
			c2.4,16,19.8,21.1,30.5,30.6c-2.7,5.5-5.6,10.9-8.5,16.4c-7.9-3.3-15.8-6.5-23.3-10.6C128.9,223.3,123.6,218.3,122.5,211.7z"/>
	</g>
	<g>
		<path class="st56" d="M110.5,184.9c4.1,0.6,7.8,2.7,11.2,5.1c-3.2,0.8-6.4,1.6-9.6,2.3l-1.2,0.2c-0.6,0.1-1.8,0.3-2.4,0.4
			c-3.8,1.4-7.4,3.2-11.1,5c-0.1-2.1-0.1-4.2-0.1-6.3c4.3-0.5,8.5-1.4,12.6-2.7c0.7,0.3,2.1,0.9,2.8,1.2
			C111.9,188.3,111.2,186.6,110.5,184.9z"/>
	</g>
	<g>
		<path class="st57" d="M249.2,201c2.4-5.7,6-10.7,11.8-13.3c6.9,3.1,13.7,6.4,20.3,10.1c-7.4,6.8-15.8,12.5-25.7,14.9
			C253.5,208.6,251.3,204.8,249.2,201z"/>
	</g>
	<g>
		<path class="st58" d="M85.1,189.1c3.4,2.8,6.8,5.7,10,8.6c0.4,0.4,1.3,1.2,1.7,1.6c-5.4,2.1-9.4-1.9-13.1-5.1
			C84,193,84.7,190.4,85.1,189.1z"/>
		<path class="st58" d="M50.2,266c1.5-0.8,3-1.6,4.5-2.4c0.9,5.7-2.1,10.9-3,16.4C51.6,275.3,51.2,270.6,50.2,266z"/>
		<path class="st58" d="M126.9,276.6c2.2-3.8,4.7-7.4,7.9-10.5c2.2,1.1,4.5,2.1,6.6,3.3c-0.9,1.8-1.9,3.6-2.9,5.5
			C134.6,275.4,130.7,276,126.9,276.6z"/>
		<path class="st58" d="M63,304.4c5-4.4,9.3-11.5,17-10c-2.5,2.5-5,5.1-7.6,7.5c0.2,1.7,0.5,3.4,0.7,5.1c-2.8,0.5-5.6,1-8.3,1.5
			C64.3,307.5,63.4,305.5,63,304.4z"/>
	</g>
	<g>
		<path class="st59" d="M71.5,191.2c2.8,0.4,5.5,0.7,8.3,1c-3.9,4.3-6.7,9.4-7,15.3c2.8,1.3,5.6,2.6,8.4,4c-3,0.1-6,0.1-8.9,0.2
			C67.1,205.8,66.6,197.4,71.5,191.2z"/>
	</g>
	<g>
		<path class="st60" d="M166.3,220.5c-10.6-9.5-28.1-14.7-30.5-30.6c9.8,7.2,18.5,16,29.3,21.8C165.7,214.7,166.3,217.6,166.3,220.5
			z"/>
	</g>
	<g>
		<path class="st61" d="M108.4,192.9c0.6-0.1,1.8-0.3,2.4-0.4c-1.7,2.4-3.4,4.8-6,6.2C102.1,196.2,106.2,193.5,108.4,192.9z"/>
	</g>
	<g>
		<path class="st62" d="M281.2,197.7c2.2-1.9,4.2-3.9,6.2-6c3.3,1.9,6.5,3.8,9.7,5.8c-6.8,6.3-14.6,11.4-23.2,14.8
			c-6,2.5-12.7,1.1-19,1.3l0.5-1C265.3,210.2,273.8,204.5,281.2,197.7z"/>
	</g>
	<g>
		<path class="st63" d="M105.8,199.5c3.3-0.1,6.5-0.3,9.8-0.6c2.2,4.1,2.6,8.8,1.6,13.3c-2.7-0.1-5.5-0.2-8.2-0.3
			c-1.7-0.4-3.4-0.9-5-1.5c2.4-1,4.8-2,7.2-2.9c-1.1-1.7-2.2-3.3-3.3-4.9C107.3,201.7,106.3,200.3,105.8,199.5z"/>
	</g>
	<g>
		<path class="st64" d="M92.7,202.5c5,0.5,10.1,1,15.1,0c1.1,1.6,2.2,3.3,3.3,4.9c-2.4,1-4.8,2-7.2,2.9c-0.7-0.4-2-1.3-2.7-1.7
			c-2.8-1.6-6.1-1.8-9.2-2.1c-0.9,4.4-1.8,8.8-2.3,13.2c-2.3-1.5-4.5-3-6.8-4.5c0.9-3.1,1.9-6.2,2.9-9.3c0.5-0.4,1.4-1.2,1.9-1.6
			C89.4,203.7,91,203,92.7,202.5z"/>
	</g>
	<g>
		<path class="st65" d="M238.1,203.5c3.7-0.8,7.4-1.7,11.1-2.5c2.1,3.8,4.3,7.7,6.3,11.6l-0.5,1l-0.4,0.9c2.2,0.5,4.4,1,6.6,1.5
			c-6.4,1.7-16.2,6.1-20-1.7C238.6,211.2,238,207.3,238.1,203.5z"/>
	</g>
	<g>
		<path class="st66" d="M207.1,214.6c6.6-2.6,13.4-4.9,20.4-6.5c0.2,2.7,0.4,5.5,0.6,8.2c-3.2,0.9-6.5,1.9-9.7,2.9
			c-1.5,0.5-2.9,1-4.4,1.6c-1.1-0.4-3.3-1.1-4.4-1.4C208.8,217.8,208,216.2,207.1,214.6z"/>
	</g>
	<g>
		<path class="st67" d="M108.9,211.9c2.7,0.1,5.5,0.2,8.2,0.3l0.8,1.1c-2.3,1.5-4.6,3-7.1,4.2c-2.6,1.2-5.4,2.2-8,3.4
			c-1,1.6-1.9,3.3-2.7,5c-1.5-1.4-3.1-2.6-4.9-3.7c2.3-2.5,4.4-5.1,6.3-7.8c2.9,0.3,5.7,0.5,8.6,0.8
			C109.8,214.3,109.2,212.7,108.9,211.9z"/>
	</g>
	<g>
		<path class="st68" d="M117.9,213.2c2.2,3,4.2,6.2,6.5,9.1c-2.2,1-4.3,1.9-6.5,2.9c-2.3,0.9-4.5,2.4-5.7,4.7c-1,1.7-1.9,3.3-2.8,5
			c-1.3,1.8-1.5,5.1,0.8,6.3c0.5,0.3,1.6,1,2.1,1.3c1.7-0.2,3.4-0.3,5.1-0.5c-0.5-3.2-1.1-6.4-1.6-9.6c0.3,0.5,0.9,1.5,1.2,1.9
			c1.1,1.9,2.2,3.8,3.3,5.6c2.9-0.3,5.8-0.7,8.6-1.2c0.5-2.6,0.9-5.2,1.3-7.9c1.4,1.2,2.8,2.4,4.2,3.6c-0.4,1.7-0.7,3.4-1.1,5.1
			c1.4-2.7,2.7-5.4,4.1-8.1c6.8,3.4,13.7,6.4,20.5,10c-1.1,0.3-3.2,0.9-4.3,1.2c-0.2,1.2-0.7,3.7-0.9,4.9c3.3-1.1,6.5-2.3,9.8-3.5
			c0.5,1.3,0.9,2.6,1.2,4c-1.4,0.3-4.2,1-5.6,1.4c2,6.1,3.8,12.3,4.7,18.7c0.2,1.8,0.4,3.6,0.7,5.4c-2.4-1.2-4.8-2.4-7.2-3.6
			c-2.5-1.3-5.1-2.5-7.7-3.6c-4.6-0.6-9.3-0.4-13.9,0.1c-3.1,3.1-5.7,6.7-7.9,10.5c-1,9.9,9.3,15.4,17.9,15.9
			c8.7-0.8,14.1-8.7,19.7-14.5c0.5,3.7,1.9,7.6,1,11.3c-2.2,3-5.1,5.4-7.7,8l-1,0.9l-1,0.9c-2,1.6-4,3.1-6,4.6
			c-0.2-2.4-0.3-4.7-0.5-7.1c-1.7,5.3-3.1,10.8-5.5,15.9c-3.6,5.9-2,12.8-0.4,19c-2.8-2.9-4-6.7-5-10.5c-9.6,3.3-19.3-0.1-28.3-3.3
			c-5.1-0.5-10-2.1-13.3-6.3c-5.9,6.5-14.9,8.9-23.4,6.8c8.8-1.6,20.3-3.3,22.4-13.8c-0.1-1.8-0.3-3.7-0.7-5.4
			c-4-6.2-11.9-9-18.9-6.7c-6.3,1.3-10.1,6.9-13,12.2c0.4,1,1.3,3.1,1.8,4.1c1.1,2.5,2.3,5.1,3.5,7.6c-2.4-1.9-4.7-4.1-7.2-5.9
			c-7.6-0.7-17.3,1.7-22.8-5.1c-4.5-7.2,0.4-15.4,5.6-20.6c-3.8-6.5-8.1-14.3-4.9-21.8c2.5-5.2,9.8-3.5,13.3-7.7
			c3.1-2.6,4.2-6.7,6-10.2c-2.2-4.3-4.3-8.9-3.6-13.9c1.2,1.8,2.3,3.5,3.5,5.3c4.1-2.7,5-7.7,5.7-12.2c-2.8,1.8-5.6,3.6-8.5,5.3
			c3-5.6,8-9.5,13.2-12.9c-1.4,5.9-2.4,11.9-3.2,17.9c0.6-0.2,1.9-0.6,2.6-0.9c0.9-4.7,2.3-9.3,3.9-13.7c4.5,0.8,9,1.6,13.5,2.6
			c-0.7,0.8-2,2.4-2.7,3.1c-3.3,4.5-3.4,9.8-0.2,14.3c1.8-3.2,3.5-6.5,5.4-9.7c2.1-0.3,4.2-0.6,6.3-0.9c1.6,2.3,3.3,4.5,4.9,6.8
			c1.2,0.1,3.6,0.4,4.8,0.6c-1.2-3.2-2.5-6.4-3.7-9.6v-0.9c0.8-1.7,1.7-3.3,2.7-5c2,2.6,4.3,5.1,6.7,7.4c1.7-2,3.4-4.1,5.1-6.2
			c-1.3-1.6-2.6-3.1-3.8-4.7C113.3,216.2,115.6,214.7,117.9,213.2 M74.2,222.3c-1.1,2.3-2.3,4.5-3.4,6.8c1.8,2,2.7,5.9,6,5.1
			c1.2-3.9,2-7.9,2.7-11.9C78.1,222.3,75.5,222.3,74.2,222.3 M88,235.7l-1.4,0.3c0,1.5,0.1,4.5,0.1,6l1.1-0.9l-0.8,1.7
			c4.4-1,8.3-3.6,10.3-7.7l-1.6,0.8c-0.7-0.4-2.2-1.1-2.9-1.5C93.2,230.4,86,232.6,88,235.7 M65.3,238.8c-3.2,3.9-5.5,8.4-7.1,13.2
			c4-2.2,7.4-5.3,8.7-9.8l0.3,0.6c4.6,0,9.2-0.3,13.7-0.4c-0.3-0.9-0.9-2.7-1.2-3.6C75.3,235.5,69.8,236.4,65.3,238.8 M138.7,237
			c-0.6,1.5-1.2,3.1-1.7,4.6c2.1,0.4,4.2,0.9,6.2,1.3c0.1-0.9,0.4-2.7,0.5-3.6C142,238.6,140.4,237.8,138.7,237 M96.6,241.7
			c-6.5,2.4-7.8,9.4-8.5,15.5c3.4-3.8,7.9-7.5,8.2-13l0.6,0.4c3.6,2.6,8,1.6,12,1.2c-1.1-2-2.3-4-3.4-6l-0.9,0.5
			C102.3,239.3,98.2,239,96.6,241.7 M106.7,249.8c-3.4,0.4-4.2,4.2-5.9,6.5c2.1,2.7,4.2,5.5,6.9,7.6c4.2,1.3,8.2-1,11.8-3
			c5.6,1.7,11.4,2.5,17.1,3.3c1.9-3.5,3.4-7.4,2.9-11.5c-2-2.6-3.4-5.8-5.8-8.1C124.8,239.6,114.5,245.2,106.7,249.8 M67,254
			c2.9-1.4,5.7-3,8.7-4.3c3.9-0.1,7.7,0.8,11.5,1.3c-0.3-0.6-0.8-1.9-1-2.6c-2.9-4.2-8.6-3.3-13-3.2C67.6,244.5,66,249.5,67,254
			 M95,257.6c4.6-0.8,5.1-6.3,6.9-9.8C97,248.6,95.3,253.2,95,257.6 M153.1,252.2c-5.8,1.2-9.9,5.8-12.6,10.8c0.7-0.4,2-1.2,2.7-1.6
			c2.7,0.8,5.5,1.7,8.3,2.5l1.3-0.1l-0.6,2.1c6.8,0.6,9-8.2,3-11.1c0-1.6,0-3.2,0-4.8C154.7,250.6,153.6,251.7,153.1,252.2
			 M73.9,255.4h-1.1c0.5,1.3,1.1,2.6,1.6,3.9c2.9,2.8,6.3,3.7,9.8,1.3c0.1-1.5,0.2-4.5,0.3-6c-1.6-0.3-3.4-2.6-5.1-1.4
			C77.9,250.7,72.6,252.5,73.9,255.4 M50.2,266c1,4.6,1.4,9.3,1.5,14c0.9-5.5,3.9-10.8,3-16.4c0.3-0.2,0.9-0.5,1.1-0.6
			c2.3-1.2,4.6-2.6,6.7-4.1c4.2,3.6,8.6,9.6,14.9,7.5c-4.9-5.7-11-12-18.9-12.1C52.4,254.6,51.3,261.3,50.2,266 M78.8,268.4
			c-0.5,1.4-1,2.9-1.4,4.3c4.1-2.3,9.2-4.3,10.3-9.5l1.2-0.7c0.7,0.9,1.4,1.9,2.1,2.9c2.2,1,4.5,1.9,6.7,2.9
			c-0.2,1.2-0.5,3.6-0.6,4.7l0.6-1.1c1.1,4,7.2-0.2,4.1-2.8c-1.1-2.4-2.2-4.9-3.2-7.3l0.2-2l-1.7,0.2
			C89.8,257.7,83.4,263.7,78.8,268.4 M42.7,260.8c-0.9,2.2-1.7,4.3-2.6,6.5c3.1-2.2,6.2-4.4,9.3-6.6C47.2,260.8,45,260.8,42.7,260.8
			 M61.6,262.4c-1.5,1.5-3,3-4.4,4.5c3.4,0.3,6.8,0.5,10.3,0.7C65.5,265.9,63.6,264.2,61.6,262.4 M106.7,269.4l-1.8,0.4
			c1.7,2.4,2.2,8.6,6.2,7.5c1.8-1.9,3-4.4,5.2-5.9c3.5-0.6,6.9,0.3,10.3,0.9c0.5-1.7,1-3.4,1.6-5c0.5,0,1.6,0,2.2-0.1
			C122.6,264.7,113.6,265,106.7,269.4 M89.8,267.4c-2.4,2.5-4.4,5.2-6,8.3c3.5-2.2,7.1-4.3,10.8-6C93,268.9,91.4,268.2,89.8,267.4
			 M55.7,271.5c-0.4,1.9-0.8,3.7-1.2,5.6c1.5,7.6,3.1,15.6,8.7,21.3c4.4-5,1.7-11.4,1.2-17.1c3,1.3,3.7-3.8,5-5.5
			c0.5,0.5,1.6,1.5,2.2,2c0.7,3.5,5.7,0.9,8.2,1.6c0.6,1.6,1.2,3.2,1.7,4.8c0-2,0.6-4.1-0.2-6.1c-2-2.3-5-3.3-7.7-4.4
			C67.8,271.7,61.7,269.1,55.7,271.5 M113.5,276.2c0.9,2.4,1.8,4.7,2.7,7.1c3,0.1,5.9,0.2,8.9,0.2c-0.4-3.7-1.2-7.4-2.5-11
			C119.5,273.5,116.5,274.7,113.5,276.2 M90,276.3l-1.5-0.2c-2.6,4.1-4.8,8.5-5.9,13.3c4.9,0.3,6.2-4.1,7.7-7.9c3.5,0,7,0.6,9.8,2.9
			c0.7-1.5,1.3-3,2-4.5c-1.9-1.3-3.2-4.4-5.7-4.2C95.4,273,89.8,273.1,90,276.3 M66.3,283.3c0.8,3,1.6,6,2.4,9
			c3.6-1.3,7.1-2.5,10.7-3.8C78.2,282.4,71.3,279.4,66.3,283.3 M104.4,282.3c-2.7,3.1-3.3,7.3-4.2,11.2c-3.2,6.4-2.5,15.2,2.7,20.4
			c0.6-5.5-0.3-11,0.1-16.4c0.9-4.8,6.1-5.9,9.7-8c1.6,1.2,3.1,2.3,4.7,3.5c0.4-0.7,1.2-2,1.7-2.7
			C115.3,286.2,110.8,280.2,104.4,282.3 M39.9,294.2l-1-0.7c0,3,0,6,0,9.1c5.4,4.6,13,7,19.8,4.1c3.1-1,2.1-5.2,3-7.6
			c-1.3,1.5-2.6,2.9-3.8,4.4c-0.4-0.3-1.3-1-1.8-1.4c2-3.6,1.8-7.6-0.3-11.1c-0.6,0.2-1.7,0.7-2.3,0.9c-3-2.8-7.9,3.5-4.8,6
			c-0.4,0.6-1.2,1.8-1.6,2.4c1,0.1,3,0.2,4.1,0.3c0.9,0.3,2.8,0.8,3.8,1.1c-2.2,0.6-4.4,1.2-6.6,1.7c-1.6-2.3-2.8-4.9-5-6.8
			c2.3-2.9,4.6-5.8,6.8-8.9c1.4,0,2.8,0,4.3,0c-0.1-1.1-0.3-3.3-0.5-4.4C47.4,283.9,42.5,288.6,39.9,294.2 M91.4,283.6
			c-0.6,2.1-1.5,4.2-1.5,6.5c2,2.1,4.3,3.9,6.5,5.7c1.4-4.1,2.1-8.3,0.2-12.3C95.3,283.5,92.7,283.5,91.4,283.6 M126.9,290.4
			c-0.3,1.2-1,3.7-1.4,4.9l1.3-0.5c3,1.6,6.2,3.1,9.4,4.4c0,2.9,1.2,5.7,3.1,7.9c0.1-2.2,0.1-4.5,0.1-6.7c0.8-0.2,2.3-0.6,3.1-0.8
			C139.2,294.1,133.6,290.3,126.9,290.4 M108.3,304.6h-1.7c0.1,2.6,0.1,5.2,0.3,7.8c7.6,4.9,16.7,8.7,25.9,7.3c6-1.6,8.1-8,8-13.6
			l-1.5,1c-3.1,1.9-5.8,5-9.4,5.9c-3.2-0.5-6.3-1.7-9.5-2.4c-0.3-2.1-0.7-4.1-1-6.2h-1.6c0.1-0.7,0.3-2.2,0.5-2.9
			c3.8-1.6,6.8-4.2,6.3-8.7l1.2-1.2C118.5,293.7,112.9,298.9,108.3,304.6 M107.4,293.8c-0.7,3-1.3,6.1-1.9,9.1
			c3-2.8,5.9-5.9,8.5-9.1C111.9,293.8,109.7,293.8,107.4,293.8 M120.9,304.5c0.9,1.8,2,3.5,3.1,5.2c2.5,0.5,5,1,7.5,1.6
			c3-3.3,3.8-7.3,2.1-11.5l-1,1c-2-0.8-4-1.5-6.1-2.1C124.3,300.3,122.4,302.2,120.9,304.5z"/>
	</g>
	<g>
		<path class="st69" d="M69.5,212.9l0.7,1l0.6,0.9c0.3,0.4,0.9,1.3,1.2,1.7c3-0.1,6.1-0.4,9.1-0.7c1.5,2,2.9,4.1,4.3,6.2
			c-4.5-0.9-9-1.8-13.5-2.6c-1.6,4.5-3,9.1-3.9,13.7c-0.6,0.2-1.9,0.6-2.6,0.9c0.8-6,1.8-12,3.2-17.9
			C68.8,215.4,69.3,213.8,69.5,212.9z"/>
		<path class="st69" d="M58.2,252c1.5-4.8,3.9-9.3,7.1-13.2c0.4,0.8,1.2,2.5,1.6,3.4C65.6,246.7,62.2,249.8,58.2,252z"/>
		<path class="st69" d="M88.1,257.2c0.7-6.1,2-13.1,8.5-15.5c-0.1,0.6-0.2,1.9-0.3,2.5C96,249.7,91.5,253.5,88.1,257.2z"/>
		<path class="st69" d="M100.8,256.3c1.7-2.3,2.5-6.1,5.9-6.5c2.5,0.4,4.9,0.9,7.4,1.5c0.2,0.7,0.6,2.1,0.8,2.9
			C110.1,253.8,105.3,254.4,100.8,256.3z"/>
		<path class="st69" d="M66.3,283.3c5-3.9,11.9-0.9,13.1,5.1c-3.6,1.3-7.1,2.6-10.7,3.8C67.9,289.3,67.1,286.3,66.3,283.3z"/>
	</g>
	<g>
		<path class="st70" d="M236.8,213.5c6.6,7.8,13.5,15.4,21.1,22.2c2.2,2.6,4.4,5.2,6.8,7.7c-13.7,6.1-27.9,11.1-41.5,17.3
			c-3.3-1.7-6.5-3.4-9.8-5.2c-8.5-7.3-16.2-15.6-22.2-25.1c-0.4-1.6-0.8-3.2-1.1-4.8c0.2-0.4,0.5-1.2,0.6-1.6
			c9.4,4.1,19.8,4,29.2,7.9c4.7,2.6,9.9,1.7,14.7-0.1C235.7,225.7,235.9,219.6,236.8,213.5z"/>
		<path class="st70" d="M78.8,268.4c2.9-1.9,5.9-3.5,8.9-5.2c-1.1,5.1-6.2,7.1-10.3,9.5C77.8,271.3,78.3,269.9,78.8,268.4z"/>
	</g>
	<g>
		<path class="st71" d="M102.9,220.8c2.6-1.2,5.3-2.3,8-3.4c1.3,1.6,2.6,3.1,3.8,4.7c-1.7,2-3.4,4.1-5.1,6.2
			C107.1,225.9,104.9,223.4,102.9,220.8z"/>
	</g>
	<g>
		<path class="st72" d="M218.4,219.2c3.2-1,6.5-2,9.7-2.9c4.7,3.9,6.6,9.5,6.6,15.5c-4.8,1.8-10,2.7-14.7,0.1
			C218.3,227.9,217.7,223.5,218.4,219.2 M220.2,225.6c2.4-1.1,4.7-2.3,7.1-3.5c0.3,1.5,0.8,4.5,1.1,6c0.6-0.7,2-2,2.6-2.6
			c-0.7-1.6-1.4-3.1-2.1-4.7C224.9,220.3,221.6,221.6,220.2,225.6z"/>
	</g>
	<g>
		<path class="st73" d="M167.9,219.9c5.9,2,11.8,4.3,17.6,6.4c-0.5-1-1.4-3.1-1.9-4.1c2.3,0.6,4.7,1.2,7.1,1.9
			c-0.2,0.4-0.5,1.2-0.6,1.6c-3.1,6.6-6.4,13.1-9.9,19.5c-6.8-1.7-13.4-4.2-19.8-7.2C162.8,231.9,165.5,225.9,167.9,219.9z"/>
		<path class="st73" d="M187.3,248.7c-4.8-5.9,1.6-12.7,3.9-18.3c6,9.5,13.7,17.8,22.2,25.1c2.1,2.3,4.1,4.7,6.2,7.1
			c-1.6,6.9-3.8,13.6-7.2,19.9c-1.1-1.4-2.2-2.9-3.3-4.3C202.4,268,194.1,258.9,187.3,248.7z"/>
	</g>
	<g>
		<path class="st74" d="M87.7,222.2c1.3,0,3.9,0.1,5.2,0.2c1.1,3,4.1,5.1,7.3,4.3c1.2,3.2,2.4,6.4,3.7,9.6c-1.2-0.1-3.6-0.4-4.8-0.6
			c-1.6-2.3-3.3-4.5-4.9-6.8c-2.1,0.3-4.2,0.6-6.3,0.9c-0.7-0.6-2-1.8-2.7-2.4C86.4,225.9,87.2,224.2,87.7,222.2z"/>
	</g>
	<g>
		<path class="st75" d="M117.9,225.2c2.2-0.9,4.3-1.9,6.5-2.9c3.9,3.6,8.4,6.4,13.1,8.9c-1.4,2.7-2.7,5.4-4.1,8.1
			c0.4-1.7,0.7-3.4,1.1-5.1c-1.4-1.2-2.8-2.4-4.2-3.6c-0.4,2.6-0.9,5.2-1.3,7.9c-1-3.5-2.1-6.9-3.3-10.3c-3,1.8-5.9,3.8-8.7,5.9
			c-0.3-0.5-0.9-1.5-1.2-1.9c0.5,3.2,1,6.4,1.6,9.6c-1.7,0.2-3.4,0.4-5.1,0.5c-0.5-0.3-1.6-1-2.1-1.3c1.5-2,2.2-4.3,2.5-6.7
			c-0.8,0.1-2.4,0.3-3.3,0.4c0.9-1.7,1.8-3.4,2.8-5C115.5,232.5,120.5,229.1,117.9,225.2z"/>
	</g>
	<g>
		<path class="st76" d="M112.2,229.9c1.1-2.3,3.4-3.8,5.7-4.7C120.5,229.1,115.5,232.5,112.2,229.9z"/>
	</g>
	<g>
		<path class="st77" d="M318.6,229.4c3.4-0.6,6.9-1.2,10.3-1.7c2.5,6.8,3.9,14,5.1,21.2c-3.7,0.7-7.4,1.2-11.1,1.5
			C321.1,243.5,319.5,236.5,318.6,229.4z"/>
		<path class="st77" d="M339.5,301c3.8-4.5,8-8.7,12.4-12.6c1.5,2.8,4.2,5.4,3.8,8.7c-2.8,5-7.5,8.5-12.2,11.4
			C342.2,306.1,340.9,303.6,339.5,301z"/>
	</g>
	<g>
		<path class="st78" d="M282.7,235.2c10.8-2.8,21.9-3.8,32.8-5.5c1.7,7.3,4.5,14.8,3.1,22.4c-12.8,1.5-28-1.3-37.8,9.1
			c-4.8-4.7-9.4-9.7-13.6-14.9C271.8,241.9,276.2,236.7,282.7,235.2z"/>
	</g>
	<g>
		<path class="st79" d="M88,235.7c-1.9-3.1,5.2-5.3,4.9-1.4C91.2,235,89.6,235.4,88,235.7z"/>
	</g>
	<g>
		<path class="st80" d="M88,235.7c1.7-0.3,3.3-0.8,4.9-1.4c0.7,0.4,2.2,1.1,2.9,1.5c-2.8,1.5-5.5,3.2-7.9,5.2l-1.1,0.9
			c0-1.5-0.1-4.5-0.1-6L88,235.7z"/>
	</g>
	<g>
		<path class="st81" d="M109.4,234.9c0.8-0.1,2.4-0.3,3.3-0.4c-0.3,2.4-1,4.7-2.5,6.7C108,240,108.1,236.7,109.4,234.9z"/>
	</g>
	<g>
		<path class="st82" d="M87.8,241.1c2.4-2.1,5.1-3.7,7.9-5.2l1.6-0.8c-2,4.1-5.9,6.8-10.3,7.7L87.8,241.1z"/>
	</g>
	<g>
		<path class="st83" d="M138.7,237c1.7,0.8,3.4,1.6,5,2.3c-0.1,0.9-0.4,2.7-0.5,3.6c-2.1-0.4-4.2-0.9-6.2-1.3
			C137.5,240.1,138.1,238.5,138.7,237z"/>
	</g>
	<g>
		<path class="st84" d="M96.6,241.7c1.5-2.7,5.6-2.4,8.1-1.4c-2.5,1.5-5.1,3-7.8,4.3l-0.6-0.4C96.4,243.6,96.5,242.3,96.6,241.7z"/>
	</g>
	<g>
		<path class="st85" d="M104.7,240.3l0.9-0.5c1.2,2,2.3,4,3.4,6c-4.1,0.3-8.5,1.4-12-1.2C99.6,243.3,102.2,241.9,104.7,240.3z"/>
	</g>
	<g>
		<path class="st86" d="M153.7,242.4c1.1-0.3,3.2-0.9,4.3-1.2c1.1,0.6,3.4,1.9,4.5,2.5c-3.2,1.2-6.5,2.4-9.8,3.5
			C153,246,153.4,243.6,153.7,242.4z"/>
	</g>
	<g>
		<path class="st87" d="M67,254c-1-4.5,0.6-9.6,6.1-8.8c4.4,1,8.7,2,13,3.2c0.2,0.6,0.8,1.9,1,2.6c-3.8-0.5-7.6-1.4-11.5-1.3
			C72.7,251,69.9,252.6,67,254z"/>
		<path class="st87" d="M91.5,260.9c1.4-0.2,4.1-0.5,5.5-0.7l1.7-0.2l-0.2,2c-0.3,2.1-0.5,4.3-0.8,6.4c-2.2-1-4.5-2-6.7-2.9
			C91.1,264.3,91.4,262,91.5,260.9z"/>
	</g>
	<g>
		<path class="st88" d="M172.9,295.2c-6.9-16-7.9-34-5-51c0.8,2.6,1.6,5.3,2.4,7.9c0.6-1.3,1.7-4,2.3-5.3c0.8,0.1,2.4,0.2,3.2,0.2
			c0.2,1.1,0.6,3.4,0.8,4.5c-2,0.9-3.9,1.9-5.9,2.8c0.1,4.3,0.1,8.7,0.3,13c-1.4,2.8-0.7,6,1.3,8.3c0.4,1.8,0.9,3.7,1.3,5.5
			c0.9,4.7,2.3,9.3,4.3,13.7c1.8,4.6,4.8,8.6,8.4,12c1.1,1.2,2.2,2.4,3.2,3.7c1,1.2,2.1,2.3,3.2,3.4c-2.1,3,1.3,5.6,4,6.2
			c2.3,1,4.7,2,7,2.9c-1.2,3.7,3.8,5.8,5.8,2.6c2.2,0.7,4.3,1.4,6.5,2.1c4.4,2.1,9,1.5,13.1-1c5.3-2.2,10.8-3.7,16.2-5.6
			c1.6,2.6,7.7,4.2,7.3-0.4c6.3,2.1,12.9,3.3,19.5,3.8c0.8,0.1,2.5,0.2,3.3,0.3c4,0.3,8,0.4,12,0.4c3.4,0.7,8.3-2.1,5.8-6
			c2.7-2.3,5.2-4.8,7.7-7.2c2-1.8,4.3-3.9,4.4-6.9c1.8-0.1,3.6-0.2,5.4-0.3c-2.4-0.9-4.8-1.9-7.2-2.9c3.2-2.6,6.9-4.5,10.5-6.3
			c0.7,2.7,1.3,5.4,2.1,8.1c-5.5,3.6-10.7,7.6-14.8,12.8c-4.9,6.3-10.3,13.4-18.8,14.3c-15.2,3.6-29.8-6.8-44.9-2.6
			c-9.1,1.8-18.4,5.7-27.6,2.8c-12.2-2.6-21.7-11.4-29.3-20.9C177.8,305.3,175.1,300.3,172.9,295.2z"/>
	</g>
	<g>
		<path class="st89" d="M178.5,245.8c3.2,1,6.3,2.6,8.1,5.7c6.6,9.6,12.9,19.8,22.5,26.8c1.1,1.4,2.2,2.8,3.3,4.3
			c4.7,6.2,9.8,12.8,17.5,15.3c2.4,0,4.8,0,7.1-0.1c5.7-0.3,11.4-0.5,17.1-0.6c10.7-0.2,18.5-8.4,28-12c6.4-2.4,13.2-5.3,20.2-4.4
			c4.7,2,7.7,6.7,9.3,11.4c-2.4,4.1-7.5,5.8-11,9c-1.2-2.7-2.2-5.4-3.8-7.9c-10.4-4.6-19.6,5.1-30.2,2.8c2.4,2.2,4.7,4.5,7,6.8
			c-10.5-2.1-21.1-4-31.8-3.2c-7.4-0.1-16.4,1.4-22.1-4.5c-6.1-6.4-11.3-13.8-18.5-19.1c3.4,7.7,10,13.6,12.5,21.7
			c1.6,6,7.8,8.7,12.1,12.5c-6.3-1.9-12.8-4-17.7-8.6c-10.1-8.6-14.6-21.7-24.4-30.7C180.6,262.9,178.7,254.4,178.5,245.8z"/>
	</g>
	<g>
		<path class="st90" d="M263.5,248.9c1.3-0.8,2.6-1.7,3.8-2.7c4.3,5.2,8.8,10.2,13.6,14.9c-2.2,2.8-4.1,5.7-6.2,8.6
			c-4.8-4.7-9.4-9.6-13.8-14.6C261.8,253.1,262.7,251,263.5,248.9z"/>
	</g>
	<g>
		<path class="st91" d="M158.1,249.1c1.4-0.3,4.2-1,5.6-1.4c-0.2,6.7-1,13.4-0.9,20.1C161.9,261.4,160.1,255.2,158.1,249.1z"/>
	</g>
	<g>
		<path class="st92" d="M222.5,265.3c13-6.8,26.5-13.4,40.9-16.4c-9.3,8.7-16.8,19.2-23.6,30C234.1,274.4,228.4,269.7,222.5,265.3z"
			/>
	</g>
	<g>
		<path class="st93" d="M124.7,250.1c1.2,0.3,3.6,0.8,4.8,1c-3.6,2.5-7.1,5-10.5,7.6c3.2,0.6,6.5,1.2,9.7,1.8
			c0.8,0.1,2.4,0.4,3.2,0.5c0.4-3,1-6,1.8-8.9c1.9,0.2,3.8,0.4,5.8,0.7c0.5,4.1-0.9,7.9-2.9,11.5c-5.7-0.8-11.5-1.6-17.1-3.3
			l-1.3-0.5c-0.1-1.2-0.3-3.6-0.4-4.8C120.7,254.6,123.2,252.7,124.7,250.1z"/>
	</g>
	<g>
		<path class="st94" d="M153.1,252.2c0.5-0.5,1.5-1.6,2-2.2c0,1.6,0,3.2,0,4.8c6,2.9,3.8,11.7-3,11.1l0.6-2.1c1.9-1.7-1-6.5-2.2-2.8
			c0.2,0.7,0.7,2.2,1,2.9c-2.8-0.8-5.5-1.6-8.3-2.5C147,258.8,150.1,255.5,153.1,252.2z"/>
	</g>
	<g>
		<path class="st95" d="M100.8,256.3c4.5-1.9,9.3-2.5,14.1-2.2c0.5,1.9,0.9,3.7,1.4,5.6c0.5,0.2,1.4,0.6,1.9,0.8l1.3,0.5
			c-3.6,1.9-7.6,4.3-11.8,3C105,261.8,102.9,259,100.8,256.3z"/>
	</g>
	<g>
		<path class="st96" d="M140.5,263c2.7-5,6.8-9.6,12.6-10.8c-3,3.3-6.2,6.6-9.8,9.2C142.6,261.8,141.2,262.6,140.5,263z"/>
	</g>
	<g>
		<path class="st97" d="M280.9,261.2c9.8-10.3,25-7.6,37.8-9.1c-1.6,3.7-3.4,7.3-5.1,11c-4.2,0.5-8.5,1.2-12.2,3.4
			c-2.5,4.1,0.8,8.1,3.5,11c-6.3,0.4-12.7,0.9-18.8,2.7c-10.4,3-18.8,10.1-28.7,14.1c4.5-9,11.4-16.5,17.4-24.5
			C276.7,266.9,278.7,264,280.9,261.2z"/>
	</g>
	<g>
		<path class="st98" d="M213.4,255.5c3.2,1.7,6.5,3.4,9.8,5.2c-0.9,0.5-2.7,1.4-3.6,1.9C217.5,260.2,215.5,257.8,213.4,255.5z"/>
	</g>
	<g>
		<path class="st99" d="M243.4,280.4c3.6-9.7,12-16.6,17.5-25.2c4.4,5,9,9.9,13.8,14.6c-5.9,8-12.8,15.5-17.4,24.5
			c-1.1,0.5-3.2,1.5-4.3,2C248.7,291.9,243.8,286.8,243.4,280.4z"/>
	</g>
	<g>
		<path class="st100" d="M150.6,261c1.2-3.7,4.1,1.1,2.2,2.8l-1.3,0.1C151.3,263.2,150.8,261.7,150.6,261z"/>
	</g>
	<g>
		<path class="st101" d="M316.7,262.8c5.5-0.4,11-1.3,16.3-2.9c6.2,8.7,11.9,17.6,17.3,26.8c-4,4.2-8.1,8.3-12.6,12
			C328.7,288.1,324.2,274.5,316.7,262.8z"/>
	</g>
	<g>
		<path class="st102" d="M301.3,266.5c3.7-2.2,8-2.9,12.2-3.4c0.8-0.1,2.4-0.2,3.2-0.3c7.5,11.7,11.9,25.3,21.1,35.9
			c-6.1,0.6-12.2,0.5-18.4,0.3c-4-7.7-8.6-15.1-14.6-21.5C302.2,274.6,298.8,270.6,301.3,266.5z"/>
	</g>
	<g>
		<path class="st103" d="M148.6,266c2.6,1.1,5.1,2.3,7.7,3.6c0.6,3.6,1.2,7.1,1.7,10.7c-2.1,0.8-4.3,1.6-6.4,2.5
			c0.2-2.9,0.4-5.7,0.7-8.5c-3.2-0.9-6.3-2.1-9.2-3.8C144.9,268.9,146.8,267.4,148.6,266z"/>
	</g>
	<g>
		<path class="st104" d="M218.1,284.5c-1-6.6,2.1-13.2,4.4-19.2c5.9,4.4,11.5,9.1,17.3,13.6c0,6.4-0.8,12.7-2.8,18.8
			c-2.4,0.1-4.8,0.1-7.1,0.1C225.9,293.4,221.2,289.6,218.1,284.5z"/>
	</g>
	<g>
		<path class="st105" d="M172.2,275.7c-2-2.3-2.8-5.5-1.3-8.3C172.9,269.7,174.1,272.9,172.2,275.7z"/>
	</g>
	<g>
		<path class="st106" d="M97.6,272.1c0.7-1.9,2.1-2.8,4.1-2.8C104.8,271.8,98.7,276,97.6,272.1z"/>
	</g>
	<g>
		<path class="st107" d="M156.3,269.6c2.4,1.2,4.8,2.4,7.2,3.6c0.3,1.6,0.6,3.2,0.9,4.8c-5.6,5.8-11,13.7-19.7,14.5
			c-8.6-0.5-18.9-6-17.9-15.9c3.9-0.6,7.7-1.2,11.6-1.7c-0.5,0.5-1.4,1.4-1.9,1.8c-3.8,1.8-3.5,7.9,1.3,7.8c2,0.5,4.1,1,6.2,1.5
			c2.6-1,5.1-2.2,7.6-3.3c2.1-0.9,4.3-1.7,6.4-2.5C157.5,276.7,156.9,273.1,156.3,269.6z"/>
	</g>
	<g>
		<path class="st108" d="M55.7,271.5c4.9,0.2,10.1,0.4,13.7,4.2c-1.3,1.7-2,6.9-5,5.5c-3.4-1.2-6.6-2.7-9.9-4.1
			C54.9,275.2,55.3,273.3,55.7,271.5z"/>
		<path class="st108" d="M155.6,299.1l1-0.9c2.1,2.7,4.2,5.4,6.3,8.2c-0.5,1.9-1.1,3.7-1.6,5.6c-0.9-0.2-2.8-0.8-3.7-1
			c-0.3-0.5-1-1.5-1.4-2C155.9,305.6,155.7,302.3,155.6,299.1z"/>
	</g>
	<g>
		<path class="st109" d="M183.8,271c9.7,9,14.3,22.1,24.4,30.7c4.9,4.6,11.4,6.7,17.7,8.6c-4.3-3.8-10.5-6.5-12.1-12.5
			c-2.6-8.1-9.1-14-12.5-21.7c7.2,5.3,12.4,12.7,18.5,19.1c5.7,5.9,14.7,4.5,22.1,4.5c10.7-0.8,21.3,1,31.8,3.2
			c-2.3-2.3-4.7-4.6-7-6.8c10.6,2.3,19.9-7.5,30.2-2.8c1.6,2.4,2.7,5.2,3.8,7.9c-6.8,5.1-11.6,14-20.7,15.1
			c-10.3,0.4-19.7-4.7-29.8-5.6c-8-1.2-16,0.9-23.7,3c-5.8,1.7-11.6-0.4-17.2-1.6C197.1,301,188.5,286.6,183.8,271z"/>
	</g>
	<g>
		<path class="st110" d="M54.5,277c3.3,1.4,6.5,2.9,9.9,4.1c0.5,5.8,3.2,12.2-1.2,17.1C57.7,292.6,56,284.6,54.5,277z"/>
	</g>
	<g>
		<path class="st111" d="M106.1,283.2c4.2-1.1,6,2.8,6.7,6.2c-3.6,2.1-8.8,3.2-9.7,8c-0.5,5.4,0.5,11-0.1,16.4
			c-5.2-5.2-5.9-14-2.7-20.4C102.3,290.1,103.9,286.5,106.1,283.2z"/>
	</g>
	<g>
		<path class="st112" d="M48.7,297.9c-3.1-2.5,1.8-8.8,4.8-6C51.9,293.9,50.3,295.9,48.7,297.9z"/>
	</g>
	<g>
		<path class="st113" d="M53.5,291.9c0.6-0.2,1.8-0.7,2.3-0.9c-1.5,3.2-3,6.5-4.7,9.6c-1-0.1-3-0.2-4.1-0.3c0.4-0.6,1.2-1.8,1.6-2.4
			C50.3,295.9,51.9,293.9,53.5,291.9z"/>
	</g>
	<g>
		<path class="st114" d="M108.3,304.6c4.5-5.7,10.2-10.9,17.4-12.9l-1.2,1.2c-2,2-4.1,4-5.9,6.2c-0.1,0.6-0.3,1.9-0.4,2.5
			c-0.1,0.7-0.3,2.2-0.5,2.9C114.6,304.5,111.5,304.6,108.3,304.6z"/>
	</g>
	<g>
		<path class="st115" d="M163.2,297.5c1.7-1.6,3.4-3.1,5.1-4.6c1.5,0.8,3,1.5,4.5,2.3c2.3,5.2,4.9,10.2,7.8,15l-0.4,1.9
			c-0.5,1.9-0.8,3.8-1.1,5.7c2.1,1.2,4.2,2.1,6.4,3.2c2.9,2,5.7,4.1,8.6,6.2c-6.7,5.8-17.1,4.8-23.3-1.2c-3.8,11-17.9,13.4-26.9,7.5
			c7.1-0.1,16.6,3,21.4-4.1C171.9,319.7,167.3,307.3,163.2,297.5 M170.6,301.4c0.4,8.9-2.1,20.3,6.5,26.2c0.8-1.5,1.6-3,2.5-4.5
			c-2.7-3.3-5.7-6.5-7.1-10.6c-0.5-3.6,0.2-7.2,0.5-10.8C172.4,301.6,171.2,301.4,170.6,301.4z"/>
	</g>
	<g>
		<path class="st116" d="M38.9,293.5l1,0.7c0.8,0.6,2.5,1.8,3.4,2.4c2.1,1.9,3.4,4.5,5,6.8c2.2-0.5,4.4-1.1,6.6-1.7l1.2,0.3
			c0.4,0.3,1.3,1,1.8,1.4c1.3-1.5,2.6-2.9,3.8-4.4c-0.9,2.5,0.2,6.6-3,7.6c-6.8,2.9-14.4,0.5-19.8-4.1
			C38.9,299.6,38.9,296.5,38.9,293.5z"/>
	</g>
	<g>
		<path class="st117" d="M118.7,299c1.8-2.2,3.9-4.1,5.9-6.2c0.5,4.5-2.5,7-6.3,8.7C118.3,300.9,118.6,299.7,118.7,299z"/>
	</g>
	<g>
		<path class="st118" d="M157.7,297.2c1.4,0.1,4.1,0.2,5.5,0.2c4.1,9.8,8.7,22.3,2,31.9c-4.8,7.1-14.3,4-21.4,4.1
			c-0.1-0.5-0.4-1.5-0.6-2c-1.6-6.2-3.3-13.1,0.4-19c3.3-2.4,6.8-4.5,10.3-6.8c0.8,1.1,1.6,2.2,2.3,3.2c0.3,0.5,1,1.5,1.4,2l0.6,0.8
			c-3,1.7-6.1,3.7-8,6.7l-0.2,1.5c-0.3,2.3-0.5,4.7-0.6,7.1c3.5-0.3,7.2,0.2,10.5-1.3c2-2.1,3.3-4.7,4.7-7.2c1.7-1.9,1.6-6-1.6-6.2
			l-1.6-0.4c0.5-1.9,1.1-3.7,1.6-5.6c-2.1-2.7-4.2-5.4-6.3-8.2L157.7,297.2z"/>
	</g>
	<g>
		<path class="st119" d="M120.9,304.5c1.4-2.3,3.4-4.2,5.7-5.7c2,0.6,4.1,1.3,6.1,2.1c-2.9,2.9-5.7,5.9-8.6,8.8
			C122.9,308,121.8,306.3,120.9,304.5z"/>
	</g>
	<g>
		<path class="st120" d="M91.7,306.8c1-0.6,3-1.8,4-2.4c-2.1,10.5-13.6,12.2-22.4,13.8c-1.8-0.5-3.5-1.1-5-2.1
			c-1.2-2.5-2.4-5-3.5-7.6c2.8-0.5,5.6-1,8.3-1.5c2.7,1.7,5.3,4,8.6,4.8C85.4,311.3,88.4,308.5,91.7,306.8z"/>
	</g>
	<g>
		<path class="st121" d="M106.6,304.7h1.7c3.1-0.1,6.3-0.1,9.4-0.1h1.6c0.3,2.1,0.7,4.1,1,6.2c-4.6-0.5-9.1,0.5-13.5,1.8
			C106.7,309.9,106.7,307.3,106.6,304.7z"/>
		<path class="st121" d="M150.2,318.4c3.1-1.6,6.2-3,9.3-4.5c0.6,1.1,1.8,3.2,2.4,4.3c-3.8,1-7.6,2.1-11.3,3.2l-0.6-1.5L150.2,318.4
			z"/>
	</g>
	<g>
		<path class="st122" d="M179.2,317.8c0.3-1.9,0.6-3.8,1.1-5.7c1.6,3.1,3.4,6,5.3,8.9C183.4,319.9,181.2,319,179.2,317.8z"/>
	</g>
	<g>
		<path class="st123" d="M196.7,320.2c-2.7-0.6-6.1-3.2-4-6.2C194.8,315.4,197,317.4,196.7,320.2z"/>
	</g>
	<g>
		<path class="st124" d="M150.7,321.3c3.7-1.1,7.5-2.2,11.3-3.2l-0.7,1.5c-3,1.7-6,3.3-9.1,4.7C151.7,323.5,151,322.1,150.7,321.3z"
			/>
	</g>
	<g>
		<path class="st125" d="M152.1,324.2c3.1-1.4,6.2-2.9,9.1-4.7c-1,2.2-2.1,4.3-3.2,6.4C156.1,325.4,154.1,324.8,152.1,324.2z"/>
	</g>
	<g>
		<path class="st126" d="M245.3,321.2c2.3-1,4.9-1.5,7.3-0.4C253,325.5,246.9,323.8,245.3,321.2z"/>
	</g>
</g>
</svg>
