<?xml version="1.0" encoding="utf-8"?>
<!-- Generator: Adobe Illustrator 23.0.0, SVG Export Plug-In . SVG Version: 6.00 Build 0)  -->
<svg version="1.1" id="Layer_1" xmlns="http://www.w3.org/2000/svg" xmlns:xlink="http://www.w3.org/1999/xlink" x="0px" y="0px"
	 viewBox="0 0 400 400" style="enable-background:new 0 0 400 400;" xml:space="preserve">
<style type="text/css">
	.st0{fill:#FAF7F1;}
	.st1{fill:#FDC805;}
	.st2{fill:#FA6805;}
	.st3{fill:#FEC703;}
	.st4{fill:#F37E17;}
	.st5{fill:#F8F6F3;}
	.st6{fill:#040303;}
	.st7{fill:#E5EEEF;}
	.st8{fill:#FEC802;}
	.st9{fill:#EE8F04;}
	.st10{fill:#FEC904;}
	.st11{fill:#82A5AF;}
	.st12{opacity:0.21;fill:#252524;enable-background:new    ;}
	.st13{fill:#FEC903;}
	.st14{fill:#B2C7D1;}
	.st15{fill:#1F2026;}
	.st16{fill:#5E717D;}
	.st17{fill:#B1C6D1;}
	.st18{fill:#B2C6D0;}
	.st19{fill:#1E2026;}
	.st20{fill:#BCCDD4;}
	.st21{fill:#B4C6CF;}
	.st22{fill:#6E3819;}
	.st23{fill:#F33D3C;}
	.st24{fill:#E4EDEF;}
	.st25{fill:#401A05;}
	.st26{fill:#C21A1B;}
	.st27{fill:#62909E;}
	.st28{fill:#7AB2C2;}
	.st29{fill:#6392A1;}
	.st30{fill:#FCFBFB;}
	.st31{fill:#B3C7D0;}
	.st32{fill:#ADBDC5;}
	.st33{fill:#FEB9A8;}
	.st34{fill:#770E24;}
	.st35{fill:#73ABBA;}
	.st36{fill:#F78B6F;}
	.st37{fill:#63351D;}
	.st38{fill:#96C7D6;}
	.st39{fill:#CC3D5C;}
	.st40{fill:#EF8C72;}
	.st41{fill:#727170;}
	.st42{fill:#68371B;}
	.st43{fill:#0B0A0C;}
	.st44{fill:#582D17;}
	.st45{fill:#FDFDFD;}
	.st46{fill:#5E7793;}
	.st47{fill:#8AA9B3;}
	.st48{fill:#FEFEFE;}
	.st49{fill:#FEC38F;}
	.st50{fill:#5D717F;}
	.st51{fill:#86A3AE;}
	.st52{fill:#75809D;}
	.st53{fill:#E5EDEF;}
	.st54{fill:#596D7C;}
	.st55{fill:#88A7B1;}
	.st56{fill:#B1C6D0;}
	.st57{fill:#E5EDF0;}
	.st58{fill:#CF785B;}
	.st59{fill:#04B6A2;}
	.st60{fill:#B1C1C8;}
	.st61{fill:#C76B55;}
	.st62{fill:#FBAC05;}
	.st63{fill:#83A5AF;}
	.st64{fill:#C6C6C5;}
	.st65{fill:#03A894;}
	.st66{fill:#82A0AA;}
	.st67{fill:#F9F8F8;}
	.st68{fill:#00DAC5;}
	.st69{fill:#00DCC2;}
	.st70{fill:#0C5F52;}
	.st71{fill:#F53903;}
	.st72{fill:#F88B6F;}
	.st73{fill:#FC8503;}
	.st74{fill:#F8AF98;}
	.st75{fill:#1D635A;}
	.st76{fill:#00A894;}
	.st77{fill:#FFB9AB;}
	.st78{fill:#D16D19;}
	.st79{fill:#A74903;}
	.st80{fill:#03D9C4;}
	.st81{fill:#93CDCE;}
	.st82{fill:#FDBEA0;}
	.st83{fill:#F78D70;}
	.st84{fill:#034579;}
	.st85{fill:#0174B3;}
	.st86{fill:#A34504;}
</style>
<g>
	<g>
		<path class="st0" d="M132.3,51.9c2.1-8.7,10.9-15.1,19.9-14.1c12.4,0.3,21.6,12.4,22.2,24.2c0.6,8.3-3.6,16.9-11,20.9
			c-4.2,2.5-9.4,1.6-14,2.2c-2.8,2.1-5.1,5-8.1,6.8c-4,2-8.7,2-12.9,3.4c-3.8,2.7-6.7,6.8-11.2,8.5c-3.4,1.4-7.1,0.3-10.6,0.4
			c-2.6,3.7-4.1,8.7-8.7,10.5c-3.2,1.1-6.7,0.1-10.1,0.2c0.4,4.1,1.8,8,1.3,12.2c-1.8,3.3-7.1,4.6-9.7,1.5c-3.9-4-6.5-9-10.9-12.5
			c1.9,8.1,10,15.8,6,24.3c-2.7,1-6.1,1.9-8.3-0.5c-10.9-9-18.5-21.3-26.5-32.8c-3.9-5.5-6.9-13.1-3.2-19.5c1.7-3.5,6.2-5,9.6-3.3
			c3.4,2.4,6,5.7,8.9,8.7c-2.4-5.5-6.4-11.9-3.1-17.9c3.1-4.3,8.7-2.1,13.1-2c4.7-4.2,9.2-9,15.6-10.1c4.2-0.4,6.6-3.5,8.3-7
			c4.4-2.5,10.5-0.5,13,3.9c5,8.4,8.1,17.8,13,26.3c1.4-0.4,2.7-0.9,4-1.4c-2.6-10.8-7.2-21.2-7.7-32.4c-0.2-4.3,3.3-9.1,8.1-8.2
			c7.6,0.2,9.1,8.9,10.9,14.6C130,56.3,132,54.3,132.3,51.9 M138.8,46.8c-5.7,5.3-6,14-3.5,20.8c1.6,4,4.6,7.3,6.9,10.9
			c-2.9,0.6-6.1,2.1-9,1c-3.5-9.4-5-19.5-9.2-28.7c-1.2-2.8-4.4-4.5-7.4-3.5c-2.2,1.4-2.7,4-2.4,6.5c1.3,11.7,5.2,22.8,9.5,33.7
			c-3.5,1-7.1,1.8-10.7,2.1c-5.5-9.1-8.3-19.6-14.1-28.5c-1.7-3-5.9-3.9-8.8-2.1c-2.1,4.2,0.1,8.7,1.4,12.7
			c3.5,8.7,6.9,17.7,12.4,25.4c2.5,3.6,7.3,6.2,11.5,3.9c5.2-1.3,7.8-6.1,10.9-9.9c4.5-0.5,9.5,0.7,13.6-1.9c3.4-1.4,4.5-5.2,6.4-8
			c5.3,0,11,2.1,15.8-1c13.6-7.8,11.2-31.2-3.2-36.9C153.2,38.7,142.7,40.1,138.8,46.8 M71.3,71.6c-3,2.7-0.9,6.9-1.2,10.3
			c-4.3-3.5-9.4-8.2-15.5-5.6c-3,10.1,6.6,17.5,8.8,26.7c-1.4,1.2-2.9,2.3-4.5,3.2c-4.1-5.8-6.6-12.8-12-17.6
			c-1.6-1.5-3.9-1.9-6-1.5c-4.1,3.4-3.8,9.4-1.3,13.6c6.5,11.8,14.4,22.7,23.4,32.7c2.6,2.6,5.9,6.5,10,4.4
			c-0.3-7.9-5.7-14.1-7.8-21.4c-0.2-2.5,2.7-3.5,4.5-4.5c4.7,4.6,7.5,11,12.4,15.4c2.6,1.5,4.5-1.6,3.8-3.9
			c-2.1-13.7-9.7-25.5-14.5-38.3c7.1,8.2,10,19.5,18.4,26.6c7.7,4.6,15-6.1,13.2-13c-2.8-2.8-6.6,0.4-9.8,0.7
			c-1.6-2.1-3.5-4.5-3.3-7.2c1.3-2.8,3.1-5.4,4.5-8.3c-2.9-3.8-8.6-1.6-12.7-2.6c-0.7-5.8,9.4-8.6,5.5-14.9
			C81.5,64.1,75.4,67.6,71.3,71.6 M88.5,75.4c-2.2,1.1-2.2,2.2-0.1,3.3C90.7,77.6,90.7,76.5,88.5,75.4 M94.9,90.2
			c-3.1,0.8-1.8,5.9,1.3,5.1C99.2,94.6,97.9,89.5,94.9,90.2z"/>
		<path class="st0" d="M149.8,54.5c8.5-3,12.9,12.7,4,13.7C146.2,69.6,143,57.4,149.8,54.5 M148.9,60.5c-0.7,3.9,3.3,5.6,6.5,4.5
			c0.2-2.3,0.2-4.7-0.8-6.8C152.4,56.9,148.8,57.3,148.9,60.5z"/>
		<path class="st0" d="M234.8,148.8c1.7-1.5,5,0.7,4.1,2.9C237.3,152.5,234.2,150.7,234.8,148.8z"/>
	</g>
	<g>
		<path class="st1" d="M138.8,46.8c3.8-6.7,14.4-8.1,20.3-3.5c4.4,5.4,9.4,11.3,8.8,18.8c0.8,6.8-3.7,13.3-10,15.7
			c-8.7,2.5-18.5-3.1-21.2-11.7C134.4,59.7,136.8,52.9,138.8,46.8 M147.9,52.2c-5.7,3-5.7,11.6-1.4,15.8c3.2,3.9,10.4,4.1,13.2-0.4
			C164.6,60.2,156.8,48.1,147.9,52.2z"/>
	</g>
	<g>
		<path class="st2" d="M159.1,43.3c14.4,5.6,16.9,29,3.2,36.9c-4.8,3.1-10.5,1.1-15.8,1c-1.9,2.8-3,6.6-6.4,8
			c-4.1,2.6-9,1.4-13.6,1.9c-3.1,3.8-5.8,8.6-10.9,9.9c-4.3,2.3-9-0.3-11.5-3.9c-5.5-7.7-8.9-16.7-12.4-25.4
			c-1.3-4-3.6-8.5-1.4-12.7c2.9-1.8,7-0.9,8.8,2.1c5.8,8.9,8.5,19.4,14.1,28.5c3.6-0.4,7.2-1.2,10.7-2.1c-4.3-10.8-8.1-22-9.5-33.7
			c-0.4-2.4,0.2-5.1,2.4-6.5c2.9-0.9,6.2,0.8,7.4,3.5c4.2,9.2,5.7,19.3,9.2,28.7c2.9,1.1,6.1-0.5,9-1c-2.3-3.7-5.3-6.9-6.9-10.9
			c-2.6-6.9-2.2-15.6,3.5-20.8c-2.1,6.1-4.5,12.9-2,19.3c2.7,8.6,12.5,14.3,21.2,11.7c6.3-2.3,10.7-8.9,10-15.7
			C168.5,54.6,163.4,48.7,159.1,43.3 M116.4,53.7c1.5,8.4,3.5,16.7,6.3,24.7c1.7,4,3.6,9.2,8.4,10.1c4.5,0.2,8.9-2,11.9-5.2
			c-1.9-4.1-8-0.4-11.7-0.7c-4-10-5.6-20.9-10.1-30.8C120.5,48.4,115.4,50.9,116.4,53.7 M91.3,62.4c0.8,6.8,4.3,12.8,6.9,19.1
			c2.9,5.8,5.2,12.3,10.3,16.5c5.6,2.1,14.1-1.7,14.4-8.1c-4,0-7.7,1.9-11.5,2.9c-6.6-10.3-9.3-22.7-16.8-32.4
			C93.8,60.8,92.2,61.8,91.3,62.4z"/>
		<path class="st2" d="M54.3,207.8c5.4,2.2,7.3,7.6,9.4,12.6c1-0.2,2-0.5,2.9-0.7c4.7,5,8.8,10.8,11.7,17c2.5,5.3,0.8,11.9-4.1,15.2
			c1.5-5.3,4.1-12.6-1.3-16.7c-3.2-3.7-7.7-4.8-12.3-3.6c-1.2-1.9-2.1-4-3.1-6c-6.3,3.7-10.6,10.3-12.5,17.2
			c-1.4,3.9,1.8,7.1,3.7,10.2c-8.1-1.1-9.7-11.1-7.7-17.6c1.6-7.3,8.2-11.4,12.5-17C56,215.4,54.2,211.3,54.3,207.8z"/>
	</g>
	<g>
		<path class="st3" d="M116.4,53.7c-1-2.7,4.1-5.3,4.9-1.8c4.5,9.9,6,20.8,10.1,30.8c3.7,0.3,9.8-3.4,11.7,0.7
			c-3.1,3.2-7.4,5.3-11.9,5.2c-4.9-0.9-6.8-6.1-8.4-10.1C119.9,70.4,117.9,62,116.4,53.7z"/>
	</g>
	<g>
		<path class="st4" d="M147.9,52.2c9-4.1,16.7,8,11.8,15.4c-2.8,4.5-10,4.3-13.2,0.4C142.2,63.8,142.2,55.2,147.9,52.2 M149.8,54.5
			c-6.9,2.9-3.6,15.1,4,13.7C162.7,67.2,158.3,51.5,149.8,54.5z"/>
	</g>
	<g>
		<path class="st5" d="M186.1,54.6c3.1-4.6,9.3-3.1,14-2.8c41.4,5.8,82.5,14.7,122.8,25.9c5,0.9,9,5.4,7.5,10.7
			c-4.9,38.1-10.7,76-18.2,113.7c-0.7,3.4-3.7,5.6-5.6,8.4c2.7,9.4,10.1,16.3,15.7,24.1c12.5,17.2,22.4,37.7,22.2,59.3
			c-0.5,8-10,8-15.5,10.8c-1.7,5.7,0.2,13.5-6,16.9c-6,2.7-12.7,3.4-19.1,4.1c-5.8,0.8-10.4-3.7-14.3-7.4c-4.3-3.4-2.2-9.3-2.5-13.9
			h-1.4c0.1,7.7,2,15.1,2.3,22.8c0,7.2-7.8,9.5-13.3,11.9c-12.9,6-27.2,2.1-40.5,0c-4.4-0.3-7.2-4.1-11-5.7
			c-8.8,1.5-17.1,6-26.2,5.7c-20.8-1.9-41.7-3.3-62.6-5.1c-3.3-0.3-8-1.2-8.3-5.3c-0.8-8.2,0.1-16.4-0.7-24.6
			c-4.5,2.9-6.6,8.4-11.2,11.1c-11.2,7.5-25.1,7.8-37.9,9.9c-2,2.4-2.6,6.7-6.2,7.1c-7.3,0.9-18.1,1.7-20.8-7.1
			c-1.6-7.8-12.9-9.2-12.6-17.7c0-9.3-0.4-18.7,0.2-28c0.9-5.5,7.7-4.2,11.7-5.3c0.5-5.7,1.2-11.7-0.4-17.2
			c-3.8-2.7-9.1-4.6-10.2-9.7c-1.3-6.2-1.2-13.4,2.7-18.7c3.3-4.9,8.4-8.3,11.1-13.7c0.4-4.1-4-6.9-4.4-10.9c1.1-2.2,3.5-2,5.4-1.1
			c7.5,3.2,11,11.1,17.5,15.4c-1.3-3.9-2.4-8-5-11.3c-2.8-2.1-6.6-3.3-8-6.9c-4.3-10-9.9-19.5-12.3-30.2c-2.4-0.6-4.9-0.9-7.4-1.5
			c-1.1-1.9-1.1-3.8,0-5.6c4.8-2.6,9.7,0.3,14.3,1.7c11.7-7.2,23.9-13.7,35.6-20.9c0.8-4,1.5-8,3.2-11.7c1.7-4.1-0.3-9.8,3.9-12.7
			c5.7-4.7,13.8-6.4,20.8-3.9c4.8,1.4,8.4,5,12.6,7.6c4.5-1,8.5-3.6,13.2-4.3c5.3-0.8,10.6-0.6,15.9-1.3c3.9-7.9,0.8-17.9,5.5-25.7
			C169.6,78.9,177.4,66.4,186.1,54.6 M188.3,56.9c-7.9,10.9-15.2,22.3-21.8,34.1c-1.9,3.5-4.1,7.3-3.1,11.4l1.8-1
			c0.4,4.6,0.1,9.2-0.6,13.7c0.2-3.7,0.3-7.4,0.1-11.1l-1.8,0.6c-1,5.3-0.9,10.7-2.4,15.9c-6.4,0.6-12.9,0-19.2,1.2
			c-4.7,0.9-8.9,3.5-13.4,4.9c-4.5-2.8-8.1-7.1-13.4-8.5c-6.3-1.8-13.9-0.5-18.6,4.2c-2.6,2.5-0.1,6-0.2,9c-1.1,2.4-2.8,4.3-4.1,6.6
			c0.2,2.1,0.7,4.2,0.9,6.4c-2.9,2.4-6.9,3.5-9,6.8c-6.6,1.1-11.8,5.5-17.6,8.5c-5.7,3.6-12.2,6.4-16.6,11.6
			c0.3,8.2,6.2,15.3,8.8,23.1c1.6,5.1,5.4,9.2,10.8,9.9c5.2,16.1,13.5,31.1,19.8,46.9c1.7,5,5.1,9.1,7.9,13.4
			c-3.2,10.4-14.6,14.8-24.7,13.4c-0.7-8.2-0.2-16.5,0-24.8c0.6-0.3,1.9-0.9,2.5-1.2c4.9-3.3,6.6-9.9,4.1-15.2
			c-2.9-6.2-7-12-11.7-17c-1,0.2-2,0.5-2.9,0.7c-2-5-4-10.4-9.4-12.6c-0.1,3.5,1.7,7.5-0.8,10.6c-4.3,5.6-10.9,9.7-12.5,17
			c-2,6.6-0.5,16.5,7.7,17.6c0.9,0.4,2.6,1.3,3.5,1.7c0,7.6,0.5,15.2-0.2,22.7c-3.7,0.4-7.5,0.3-11.2,0.8
			c-1.8,9.1-0.6,18.4-0.8,27.6c-1.1,8.8,11.1,9.8,12.4,17.7c1.9,8,12.5,6.4,18.5,4.9c0.4-2,0.9-4.1,1.4-6.1
			c13.7-2.1,28.6-2.4,40.7-10.1c6.7-4.3,8.6-12.7,14-18c2.3,11.7,1.5,23.5,2.6,35.3c2.4,1.6,5.4,1.2,8.1,1.6
			c18.2,1.2,36.2,3.2,54.4,4.5c5,0.3,10.2,0.9,14.9-1.2c6.9-1.9,13.9-3.8,20.8-5.8c-0.4,2.9,0.7,6.4,4.2,6.6
			c10.1,2.2,20.5,4.2,30.9,4.1c7.5-1.5,15.3-4.2,21.3-9c3.3-9.4-3.3-19.6-1.5-29.2c2.6-0.1,5.2,0,7.7,0.2c0.4,4.6-0.9,9.4,0.6,13.8
			c3.7,4.1,8.7,8.7,14.7,7.3c5.8-1,12.1-1.4,17.1-4.6c3.3-4.3,1.9-10.2,2.9-15.2c5.1-3.7,16-1.9,16.1-10.2
			c-1.1-24.7-13.9-47.3-29.5-65.8c-4.1-5.7-9-11.8-9.6-19c1.8-1.1,3.8-2,5.6-3.2c1.5-2.7,1.7-5.9,2.4-9c2-13.2,5.3-26.3,6.9-39.6
			c3.2-23.1,7.8-46,9.9-69.2c0.7-4.2-3.8-5.7-7-6.5c-39.8-11-80.2-19.5-121-25.4C195.6,54.6,190.7,53,188.3,56.9 M40.7,164.8
			c-1.7,3.3,5.5,4.4,6.1,1.2C46.1,163.6,42.5,163.3,40.7,164.8 M77.8,252.4c-5.7,5.9-2.8,14.9-3,22.3c7.2,1,15.8-2.4,17.6-10
			c-3.7-5.8-6.7-12.1-9.4-18.5C81.2,248.2,79.5,250.4,77.8,252.4z"/>
	</g>
	<g>
		<path class="st6" d="M188.3,56.9c2.4-3.9,7.3-2.3,11-2.1c40.8,5.9,81.3,14.5,121,25.4c3.2,0.8,7.6,2.3,7,6.5
			c-2.1,23.2-6.7,46.1-9.9,69.2c-1.7,13.3-4.9,26.3-6.9,39.6c-0.6,3-0.8,6.2-2.4,9c-1.8,1.2-3.8,2.1-5.6,3.2
			c0.6,7.3,5.4,13.3,9.6,19c15.6,18.5,28.4,41.1,29.5,65.8c-0.1,8.3-11,6.5-16.1,10.2c-1,5,0.4,10.9-2.9,15.2
			c-5.1,3.2-11.4,3.6-17.1,4.6c-6,1.3-11-3.3-14.7-7.3c-1.5-4.4-0.2-9.2-0.6-13.8c-2.6-0.3-5.1-0.4-7.7-0.2
			c-1.8,9.6,4.8,19.8,1.5,29.2c-6,4.8-13.8,7.5-21.3,9c-10.4,0.1-20.8-1.9-30.9-4.1c-3.4-0.2-4.5-3.6-4.2-6.6
			c0.1-4.3,0.2-8.6-0.1-12.9c-8.2,1.6-15.8,5.2-23.9,7.2c-14.7,2.4-29.8,1.8-44.6,0.6c-9.2-0.7-18.1-3.4-27.2-4
			c-1,3.3-1.7,6.6-2.3,10c-1.1-11.8-0.3-23.6-2.6-35.3c-5.4,5.4-7.3,13.7-14,18c-12,7.7-26.9,8-40.7,10.1c-0.5,2-0.9,4-1.4,6.1
			c-6,1.4-16.6,3.1-18.5-4.9c-1.3-7.9-13.5-8.9-12.4-17.7c0.2-9.2-1-18.5,0.8-27.6c3.7-0.4,7.5-0.4,11.2-0.8
			c0.7-7.6,0.2-15.2,0.2-22.7c0-2.7-0.1-5.5-0.1-8.2c1.3,0.7,2.7,1.4,4,2c3.4,1.9,7.4,1.7,11.2,1.6c1.1,0,3.3-0.1,4.4-0.1
			c0,0.8,0,2.4,0,3.2c-0.1,8.3-0.6,16.5,0,24.8c10.1,1.4,21.5-3,24.7-13.4c-2.8-4.4-6.2-8.4-7.9-13.4c-6.3-15.8-14.7-30.7-19.8-46.9
			l1.2,0.2c8.3,16.5,15.1,33.7,22.8,50.5c1,1.7,1.9,4,4,4.7c8.7-0.9,16.5-5.1,24.7-7.7c17.8-5.9,35.9-11.1,53.3-18
			c2.5-1.2,4.8-2.5,7.1-3.9c8.1-5.7,16.7-10.7,24-17.4c4.1-3.3,2.3-8.9-0.7-12.2c2.4-2.2,5-4.2,6.7-7c-0.3-6.3-2.9-12.1-4.8-18
			c-4.4-13.3-8.9-26.5-12.7-39.9c-1.3-3.9-2.2-8.2-5-11.4c-7.7-2.3-15.8-1.3-23.7-1.5c-11.3,0.2-23.2-0.6-33.7,4.4
			C116,135,100.3,143,84.6,151l-1.5,0.3c2.1-3.3,6.1-4.4,9-6.8c-0.2-2.1-0.7-4.2-0.9-6.4c1.3-2.3,3-4.2,4.1-6.6c0.1-3-2.4-6.5,0.2-9
			c4.8-4.7,12.3-6,18.6-4.2c5.3,1.5,8.9,5.8,13.4,8.5c4.6-1.4,8.7-4,13.4-4.9c6.3-1.2,12.8-0.7,19.2-1.2c1.5-5.2,1.4-10.6,2.4-15.9
			l1.8-0.6c0.2,3.7,0.1,7.4-0.1,11.1c-0.1,1.8-0.2,3.7-0.2,5.5c8.3,0.5,16.7-0.4,25,0.6l1.6,0.2c3.9,8.6,6.4,17.7,9.7,26.6
			c2,7.5,4.8,14.7,7.5,21.9c1.7,5.3,1.9,11.9,6.7,15.5c14.7,3.8,29.7,6,44.5,9.1c6.5,1.2,13.1,2.3,19.6,3.5c8.6,1.7,17.2,5,26.1,3.9
			c2.1-5.3,2.9-10.9,3.8-16.5c1.8-12.1,4.7-24.1,6.4-36.2c2.8-20.2,7.6-40.2,8-60.7c0.3-4.5-5-5.4-8.2-6.6
			c-32.9-9.1-66.4-16.4-100.1-21.7c-7.4-1-14.8-3.6-22.4-2.6c-4.4,2.2-6.5,7.1-9.4,10.9c-6.4,10.7-14.5,20.7-18,32.8l-1.8,1
			c-0.9-4.1,1.2-7.9,3.1-11.4C173.1,79.2,180.4,67.8,188.3,56.9 M96.4,125c-0.6,6.1,7.3,7.1,11.6,9.2c-3.3-0.1-6.6-0.1-9.8,0.2
			c-3.9,0.2-7.4,5.9-3.1,8.3c4.4-0.5,7.8-4,11.9-5.7c4.7-2.8,10.6-3.6,14.5-7.5C117.1,120.2,103.5,117.6,96.4,125 M215.4,189.6
			c-0.5,2.1-0.8,4.3-1.4,6.5c-1.9,1.9-4.9,2.9-5.5,5.8c5.3-0.5,9.8-5,15.3-4c6.7,0.7,12.7,3.8,19,5.5c1.4,2.4,4.2,3.5,6.6,4.7
			c2.4,2.9,7,4.6,7.7,8.6c-1.8,7.7-7.3,13.9-10.4,21.1c5,4.3,10.2,8.5,15.9,11.9c0.6,1.3,1.5,2.4,2.8,3.2c2.5,3.7,5.6,7,8.9,10.1
			c0.7,4.1,2,8,3.4,11.9c0.3,3.3,1.1,6.5,1.9,9.6c-0.5,4.1,0.5,8.3,1.6,12.2c3.2,0.6,6.4,0.8,9.6,0.7c0.8,0,2.3,0,3.1,0
			c-0.2,5.3-1.5,10.5-1.1,15.8c1.9,2.7,5,4.4,7.9,6c6.2-0.4,12.6-1,18.4-3.4c3.8-4.6,2.6-11.3,2.9-16.9c5.1-0.6,9.7-2.6,14.5-4.1
			c2.5-2.8,1.7-6.7,1.2-10c-2.2-11.4-5.8-22.7-11.6-32.8c-6.1-10.9-14.3-20.5-21.8-30.4c-2.2-5.2-4.3-10.3-6.4-15.5
			c-7.3-2.3-14.9-4-22.5-4.1c-1.3-2-4-1.6-6.1-1.7c-6-1.8-12.3-3-18.5-4.1c-2.5-0.8-5.1-1.1-7.7-1
			C234.2,192.3,224.6,191.8,215.4,189.6 M210.3,205.5c4.1,6.4,7.8,12.9,11,19.8c2.5,3.7,6.9,5.3,10.6,7.4c3.4,1.5,6.8,3.7,10.7,3.7
			c1.8-1.4,2.8-3.6,3.9-5.6c2.6-4.5,5.3-9,7-13.9c-5.7-6.4-13.5-11.2-21.8-13.5C225.2,199.4,215.8,200.1,210.3,205.5 M196.4,223
			c-3,5.5-4.7,11.6-5.8,17.7c-0.9,1.1-1.5,2.3-1.6,3.8c0.5,0.4,1.6,1.2,2.1,1.6c5.4,6.2,11,12.4,17.6,17.3l-0.6,1.1
			c0.8,0.4,2.4,1.3,3.2,1.7c5.3,8.3,15.8,13.1,18.1,23.3c3.1,13.8-0.3,28.1,2.4,42c5,2.6,10.8,2.6,16.2,3.6c6,0.7,12.4,2.6,18.3,0.4
			c5-2,10.3-3.7,14.4-7.2c1.8-3.5,0.7-7.5,0.3-11.2c-2-12.3-3.7-24.7-5.9-36.9c-1.6-9.4-4.8-19.2-12.6-25.4
			c-8.4-6.5-16.2-14.8-27-17.2l0.4-1.3c-1,0.1-3.1,0.2-4.2,0.3c-3.5-4.1-9.6-4.8-13.8-8.2c-3.6-4.2-2-11.8-6.5-15.1
			C205.9,215.3,200.7,218.9,196.4,223 M177.1,236c-4.9,1.5-10.7,2.2-14.5,5.7c-0.7,0.1-2,0.4-2.7,0.6c-7.4,1.2-14.5,3.7-21.3,6.9
			l-1-0.3c-1.9,0.5-3.6,1.4-5.3,2.4c-4.7,0.9-9.3,2.6-13.4,5c0.7,5.2,2.8,10.1,5.1,14.8c1.5,9.3,4.4,18.4,5.6,27.8
			c0.9,5.7,0.9,11.5,2.2,17.2c2.9,0.6,5.9,0.9,8.8,1.4c19.6,3.6,39.9,5.9,59.7,2.9c1.1,0,3.3,0.1,4.4,0.1l-0.3-1.3
			c7.6-1.5,15.2-3.7,22.1-7.2c0.9-8,0.6-16.5-2.1-24.2c-4.3-9.4-12.8-15.8-19.7-23.2c-5.7-5.3-10-12.3-17-16.1
			c-0.2-0.6-0.7-1.8-0.9-2.4c-0.8-6.5,2.8-12.2,3.8-18.5C185.7,229.6,181.4,232.8,177.1,236 M54.9,251.8c-0.5,9.7-0.8,19.5,0.1,29.2
			c0.6,0.6,1.8,1.8,2.4,2.4l-0.2,1.2c3.7,0,7.5,0,11.2-0.5c1.2-9.8,0.8-19.8,0.3-29.6l-0.2-1.4C64,252.1,59.4,252,54.9,251.8
			 M102.9,261.9c-2.8-0.8-5.6,4.1-3.8,6.4l-1.3,1c-3.3,3.3-6,7.4-10.3,9.4c-4.6,2.3-10,1.8-14.8,3.3c-1.1,1.4-2.1,2.8-3,4.3
			c-5.7,0.5-12.2,1.3-16.6-3.1c-2.6-3.1-6.5-2.7-10-1.3l-0.8-0.8c0.4,7.7,0,15.4,0.1,23.1c-0.5,6.8,6.4,10.8,11.7,13.5v1.2
			c1,0.1,3.1,0.4,4.1,0.6c14.5-0.2,29.2-1.3,43.2-5.3c12-2.9,19.7-14.6,22.8-25.8c1.7-6.7-1.4-13.1-4.3-18.9c-1-4.2-2.2-8.4-4-12.4
			C111.4,258,106.9,259.5,102.9,261.9 M53.6,322.3c1.9,6.8,9.8,5.1,15.1,4.7c0-1.2,0-3.7,0-4.9C63.7,321.5,58.6,321.6,53.6,322.3z"
			/>
		<path class="st6" d="M55.5,146.8c2.5,0.4,2.3,4.9,1,6.6C54.2,152.8,54.3,148.5,55.5,146.8z"/>
		<path class="st6" d="M230.6,145.6c5.1,0.2,9.6,2.4,14.2,4.4c4.7-0.6,9.2-2,13.9-2.4c3,2.3,6.2,5.5,5.3,9.7
			c-1.8,8.6-11,14.1-19.5,13.8c-7-0.1-13.8-4.1-17.3-10.2C229.5,156.1,230.6,150.9,230.6,145.6 M234.8,148.8
			c-0.7,1.9,2.5,3.7,4.1,2.9C239.8,149.5,236.5,147.3,234.8,148.8 M247.9,154.7c-3.5,0.8-6.3-1.1-9-3c-2.5-0.4-4.9,0.7-7.1,1.6
			c-0.6,2.3-0.7,4.8-0.7,7.2c2.7,5.1,8.6,7.7,14.2,7.1c6.4,0.6,14.8-3.3,15.9-10.3c0-1.1-0.1-3.2-0.1-4.3
			C257.4,149.3,249.7,148.8,247.9,154.7z"/>
		<path class="st6" d="M92,186.3c3.2-0.8,5.5,2.2,8.1,3.6c2.3,7.8,6,15,8.7,22.7c1.3,3.4,1.1,7.2-0.4,10.5c-2.9,1-5.9,1.9-8.8,2.9
			c-3.7,0.6-9.7,4.4-11.4-0.9c-2.3-5.3-6.1-9.7-8.5-14.9c-1.2-5.1-2.5-10.1-3.8-15.2C80.8,191.5,85.9,187.7,92,186.3 M78.9,196.1
			c-0.6,3.3,1.3,6.4,2.4,9.3c3,6.4,5.2,13.3,9.1,19.2c2.8,1.8,6.3-0.4,9.2-1.2c2.9-1.6,7.9-2.4,7.4-6.6c-1.1-5.7-3.8-10.9-5.8-16.2
			c-1.7-3.8-3.1-8.1-6.6-10.7C88.8,189.6,83.6,193.1,78.9,196.1z"/>
	</g>
	<g>
		<path class="st7" d="M192.5,57.7c7.5-1,15,1.6,22.4,2.6C248.7,65.6,282.1,72.9,315,82c3.2,1.2,8.5,2.1,8.2,6.6
			c-0.4,20.4-5.3,40.5-8,60.7c-1.7,12.1-4.5,24.1-6.4,36.2c-0.5-0.6-1.6-1.9-2.2-2.6c-2.3,2.9-3.9,6.4-6.8,8.8
			c-4.7,0.8-9.4-0.1-13.8-1.7c0.6-9.3,2.9-18.4,4.6-27.5c1.4-7.9,9.8-11.6,12.5-18.8c1.4-4.1,1.7-8.5,1.9-12.8
			c0.2-4.8-0.7-9.6-1.4-14.3c-0.8-7.4,2.5-16.3-2.6-22.5c-11.3-4.2-20.4,6.3-27.1,13.9c-3,2.5-6.1,5-9.7,6.7
			c-3.1,0.6-4.2-2.8-5.2-5.1c0.2-0.8,0.6-2.4,0.8-3.1c0.7-2.7,1-5.5,1.3-8.4c-1.8,1.7-3.9,2.9-6,4.1c-1.7-2.4-3.9-4.4-5.1-7.1
			c-0.4,1.7-0.7,3.4-1.1,5.1c-1.8,6.1-2.4,14.6-9.3,17.2c-0.5-0.4-1.6-1.2-2.2-1.6c-6.3-10.8-7-24.4-15.3-34.2
			c-3-3.6-8-3.1-12.1-2.8c-6.6,5.1-8.6,14-11.9,21.3c-1.4,3.8-2.8,7.6-3.7,11.6c-0.7,3.5-2,6.8-3.5,10.1l-1.6-0.2
			c-2.8-0.5-5.6-1.1-8.4-2c0.8-16.6,5-32.9,5.9-49.5c-1.2-0.4-2.4-0.9-3.7-1.2C186,64.8,188.2,59.9,192.5,57.7z"/>
		<path class="st7" d="M247.9,154.7c1.8-5.9,9.5-5.4,13.1-1.7c0,1.1,0.1,3.2,0.1,4.3C257,155.3,252.5,154.3,247.9,154.7z"/>
	</g>
	<g>
		<path class="st8" d="M91.3,62.4c0.8-0.5,2.5-1.5,3.3-2c7.5,9.7,10.2,22.2,16.8,32.4c3.8-1.1,7.4-2.9,11.5-2.9
			c-0.3,6.4-8.8,10.2-14.4,8.1c-5.1-4.2-7.4-10.7-10.3-16.5C95.7,75.2,92.1,69.1,91.3,62.4z"/>
	</g>
	<g>
		<path class="st9" d="M71.3,71.6c4.1-3.9,10.2-7.4,16-5.3c3.9,6.3-6.2,9.1-5.5,14.9c4.1,0.9,9.8-1.3,12.7,2.6
			c-1.3,2.8-3.2,5.4-4.5,8.3c-0.1,2.8,1.7,5.2,3.3,7.2c3.2-0.3,7-3.5,9.8-0.7c1.8,6.9-5.5,17.6-13.2,13
			c-8.4-7.1-11.3-18.4-18.4-26.6c4.8,12.8,12.4,24.7,14.5,38.3c0.8,2.3-1.2,5.4-3.8,3.9c-5-4.4-7.7-10.7-12.4-15.4
			c-1.8,0.9-4.7,2-4.5,4.5c2.1,7.3,7.6,13.6,7.8,21.4c-4.1,2.1-7.4-1.7-10-4.4c-9-9.9-16.9-20.9-23.4-32.7
			C37.1,96.4,36.8,90.4,41,87c2.1-0.4,4.4,0,6,1.5c5.4,4.8,7.8,11.9,12,17.6c1.6-1,3.1-2,4.5-3.2c-2.2-9.1-11.8-16.5-8.8-26.7
			c6-2.6,11.1,2.1,15.5,5.6C70.4,78.5,68.3,74.2,71.3,71.6 M71.9,74.1c-0.5,4.8,2.5,8.9,4.6,12.9c3.9,6.4,7.1,13.4,12.4,18.8
			c2,2.4,5.6,2.5,8.4,1.6c2.4-1.8,3.2-4.8,4-7.5c-2.9,0.7-5.6,2-8.4,3c-3.7-3.2-6.1-7.9-7.5-12.5c2.2-2.1,4.5-4.1,6.4-6.4
			c-3.7-0.4-7.6,0.1-11.2-1.1c-1-1.8-1.8-3.9-2-6c1.4-3.2,5.5-4.6,6.3-8.3C79.9,67.6,75,70.4,71.9,74.1 M57.1,77
			c-1.3,10.2,7.5,17.3,11.1,26c-3.3,2.7-7.1,4.8-11.1,6.3c-4.1-5.3-6-12.1-10.5-17.1c-1.4-2.1-4-1.9-6.2-2.1
			c-0.2,8.7,6.1,15.5,10.4,22.5c4.2,5.4,7.4,12.4,14,15.3c-1.2-4.5-3.6-8.5-4.6-13.1c0.5-4.5,6.3-5.5,9.8-7.1
			c4.6,2.1,6.1,8.3,11,10.4C78.7,107,73.1,97,68,87C65.8,82.4,62.6,77.7,57.1,77z"/>
	</g>
	<g>
		<path class="st10" d="M71.9,74.1c3.1-3.8,8-6.5,13.1-5.5c-0.8,3.7-4.9,5.1-6.3,8.3c0.2,2.1,1,4.1,2,6c3.6,1.2,7.5,0.7,11.2,1.1
			c-1.9,2.3-4.2,4.3-6.4,6.4c1.4,4.7,3.8,9.3,7.5,12.5c2.8-1.1,5.5-2.4,8.4-3c-0.8,2.7-1.6,5.7-4,7.5c-2.8,0.9-6.4,0.8-8.4-1.6
			c-5.3-5.4-8.5-12.4-12.4-18.8C74.4,83,71.3,78.9,71.9,74.1z"/>
	</g>
	<g>
		<path class="st11" d="M165.1,101.5c3.6-12.1,11.6-22.2,18-32.8c1.2,0.4,2.5,0.8,3.7,1.2c-0.9,16.6-5.1,32.9-5.9,49.5
			c2.7,0.9,5.6,1.4,8.4,2c-8.3-1-16.7-0.1-25-0.6c0-1.8,0.1-3.7,0.2-5.5C165.3,110.6,165.5,106.1,165.1,101.5z"/>
		<path class="st11" d="M210.3,205.5c5.5-5.4,14.9-6.1,21.4-2.1c-2.7,5-5.3,10-7.6,15.2c-1,2.2-2,4.5-2.9,6.8
			C218.1,218.4,214.4,211.9,210.3,205.5z"/>
		<path class="st11" d="M286.7,266.3c3.9,9.9,4,20.7,4.1,31.2c-3.2,0.1-6.4,0-9.6-0.7c-1.2-3.9-2.1-8.1-1.6-12.2
			C282.4,278.7,284.6,272.5,286.7,266.3z"/>
	</g>
	<g>
		<path class="st12" d="M88.5,75.4c2.2,1.1,2.1,2.2-0.1,3.3C86.3,77.6,86.3,76.5,88.5,75.4z"/>
	</g>
	<g>
		<path class="st13" d="M57.1,77c5.4,0.7,8.7,5.4,10.9,9.9c5.1,10,10.7,20,13,31.1c-4.9-2-6.4-8.2-11-10.4c-3.5,1.5-9.3,2.6-9.8,7.1
			c1.1,4.5,3.4,8.6,4.6,13.1c-6.6-2.9-9.8-9.9-14-15.3c-4.4-6.9-10.7-13.8-10.4-22.5c2.2,0.2,4.8,0,6.2,2.1
			c4.5,5.1,6.3,11.9,10.5,17.2c4-1.4,7.8-3.6,11.1-6.3C64.6,94.4,55.8,87.2,57.1,77z"/>
	</g>
	<g>
		<path class="st14" d="M198.1,99.8c3.3-7.3,5.3-16.2,11.9-21.3c3.2,1,6.6,1.8,9.4,3.7c2.9,2.5,4.3,6.2,5.8,9.6c-5,0-10-1-15,0.1
			C205.6,93.4,201.9,96.9,198.1,99.8z"/>
		<path class="st14" d="M289.4,149.9c6.7-5,11.9-11.6,15.7-19c-0.2,4.3-0.5,8.7-1.9,12.8c-2.7,7.2-11.2,10.9-12.5,18.8
			c-1.7,9.1-4,18.2-4.6,27.5c4.4,1.6,9.2,2.5,13.8,1.7c2.9-2.3,4.5-5.9,6.8-8.8c0.5,0.6,1.6,1.9,2.2,2.6c-0.9,5.6-1.7,11.2-3.8,16.5
			c-8.9,1.1-17.5-2.3-26.1-3.9C283.9,182.4,286.8,166.1,289.4,149.9z"/>
		<path class="st14" d="M274.3,263.1c2-5.7,4.1-11.4,6.1-17.1c1.9,5.1,5.1,10.2,4,15.9c-0.8,4.4-2,8.9-4.1,12.9
			c-0.7,0.1-2,0.2-2.7,0.3C276.3,271.1,275,267.1,274.3,263.1z"/>
	</g>
	<g>
		<path class="st15" d="M210,78.5c4.1-0.3,9.1-0.7,12.1,2.8c8.3,9.7,9,23.4,15.3,34.2c0.5,0.4,1.6,1.2,2.2,1.6
			c6.9-2.5,7.5-11.1,9.3-17.2c-0.3,4.6,0.1,9.5-2.3,13.6c-2.7,3.8-7.5,5.9-9,10.5c-1.5,3.8-3,7.8-5.7,10.9c-5.1,2.5-10.7,4.7-16.6,4
			c-5.1-0.5-9.4-3.4-13.6-6c-4-6.6-6.7-13.9-7.2-21.6c0.8-4,2.2-7.8,3.7-11.6c3.9-2.9,7.5-6.4,12.2-8c4.9-1.1,10-0.1,15-0.1
			c-1.5-3.4-2.9-7.1-5.8-9.6C216.6,80.2,213.2,79.4,210,78.5 M211.3,131.6c5.9,1.1,4.8-6.8,5.4-10.6
			C210.2,119,210.5,127.6,211.3,131.6z"/>
		<path class="st15" d="M41.9,152.5c4,1,7.2,3.6,9.9,6.6C48.1,157.7,43.4,156.7,41.9,152.5z"/>
	</g>
	<g>
		<path class="st16" d="M274,107.9c6.7-7.6,15.8-18.1,27.1-13.9c-6.6,0.9-12.7,3.8-17.3,8.5c-8.8,6.8-16.1,15.2-22.9,23.9
			c-1.7-2.4-3.5-4.7-4.9-7.3c-1.1-4.6,0.4-9.3,1.7-13.7c0.5,0.2,1.6,0.6,2.1,0.8c-0.2,0.8-0.6,2.4-0.8,3.1c-0.7,3.2-1.5,6.4-1,9.7
			c0.8,0.6,2.3,1.7,3.1,2.3C266.8,118.5,270.3,112.9,274,107.9z"/>
	</g>
	<g>
		<path class="st17" d="M250,94.9c1.2,2.7,3.4,4.7,5.1,7.1c2.1-1.2,4.2-2.4,6-4.1c-0.3,2.8-0.7,5.6-1.3,8.4
			c-0.5-0.2-1.6-0.6-2.1-0.8c-1.3,4.4-2.8,9.1-1.7,13.7c1.4,2.6,3.3,4.9,4.9,7.3c0,3.1,0,6.3,0.2,9.4c-1.3-3.8-1.6-8.7-5.5-10.8
			c-5.5-3.1-12-1.6-17.9-1c1.4-4.6,6.3-6.8,9-10.5c2.5-4.1,2-9,2.3-13.6C249.2,98.3,249.6,96.6,250,94.9z"/>
	</g>
	<g>
		<path class="st18" d="M283.7,102.6c4.7-4.8,10.7-7.6,17.3-8.5c5.1,6.2,1.8,15.2,2.6,22.5c-2.4-3.5-4.7-7.3-8.3-9.8
			C291.8,104.5,287.7,103.7,283.7,102.6z"/>
		<path class="st18" d="M305.8,227.6c-0.4-2-0.9-4-1.4-6c7.6,9.9,15.7,19.4,21.8,30.4c5.8,10.1,9.4,21.4,11.6,32.8
			c0.5,3.4,1.3,7.2-1.2,10c-1.9-0.3-3.7-0.8-5.5-1.3c-6-14.6-5.7-31.5-14.7-44.9C312.2,242,309,234.8,305.8,227.6z"/>
	</g>
	<g>
		<path class="st19" d="M283.7,102.6c4,1.2,8.1,2,11.7,4.1c3.5,2.5,5.8,6.3,8.3,9.8c0.7,4.7,1.6,9.5,1.4,14.3c-3.8,7.4-9,14-15.7,19
			c-5.1,0.5-10.5,1.7-15.3-0.3c-4.4-2.1-8.1-5.3-11.7-8.5c-0.5-1.7-0.9-3.4-1.3-5.2c-0.1-3.1-0.1-6.3-0.2-9.4
			C267.6,117.8,274.9,109.4,283.7,102.6 M269.9,128.5c-2.6,2.3-3.7,5.8-3.6,9.2c-0.3,4.4,4.4,6.3,7.6,8.1c1.4-3.7,2.4-7.7,2.7-11.7
			C277.4,130.5,273.3,127.6,269.9,128.5z"/>
	</g>
	<g>
		<path class="st20" d="M264.2,114.6c3.6-1.6,6.7-4.2,9.7-6.7c-3.7,5-7.1,10.6-12.9,13.5c-0.8-0.6-2.3-1.7-3.1-2.3
			c-0.5-3.3,0.2-6.5,1-9.7C260,111.7,261.1,115.1,264.2,114.6z"/>
	</g>
	<g>
		<path class="st21" d="M194.4,111.4c0.5,7.7,3.2,15,7.2,21.6c0.2,0.7,0.6,2,0.8,2.7c0.2,4.2-0.9,8.3-1.9,12.3
			c-3.3-8.9-5.7-18-9.7-26.6C192.4,118.3,193.7,114.9,194.4,111.4z"/>
	</g>
	<g>
		<path class="st22" d="M96.4,125c7.1-7.4,20.6-4.7,25,4.4c-3.9,3.9-9.8,4.7-14.5,7.5c-4,1.7-7.4,5.3-11.9,5.7
			c-4.3-2.4-0.7-8.1,3.1-8.3c3.3-0.3,6.5-0.3,9.8-0.2C103.8,132.1,95.9,131,96.4,125z"/>
		<path class="st22" d="M131.9,127c10.5-5,22.4-4.2,33.7-4.4c7.9,0.2,16-0.8,23.7,1.5c-9.5,0.8-19.1,0.9-28.7,0.6
			c-5.4,0-11-0.2-16.1,2c0.5,12.1,7.7,22.5,10.7,33.9c-2,2.2-5.6,4.7-8.6,2.8c-5.4-7.9-7.4-17.6-12.8-25.5
			c-7.3,1.4-13.8,5.4-20.5,8.4c-9.3,4.3-18.8,8.3-27.7,13.5c-7.7,4.5-16.1,7.9-23.3,13.3c-0.5,8.2,6.3,15.1,5.7,23.4
			c-1.8,0.8-3.7,1.4-5.6,1.8c-4-7.9-8.1-15.9-10.5-24.4c-0.8-2.9,2.3-4.2,4.1-5.7c9.4-6,19.4-11,28.5-17.4
			C100.4,142.8,116.1,134.9,131.9,127z"/>
		<path class="st22" d="M175.8,161.2c2.6-1,5.3-1.9,7.9-2.8c0.3,1,0.9,3,1.2,4c-1.8,0.1-3.7,0.3-5.5,0.5c1.1,5.2,2.6,11.4,7.8,14
			c1.4-0.2,2.6,0.2,3.7,1.1c0.7,2,1.7,4,2.2,6.1c-1.8,3.2-4.3,5.9-6.9,8.4c0.7-3.6,1.4-7.3,1.6-11
			C181,176.7,176.6,169.5,175.8,161.2z"/>
	</g>
	<g>
		<path class="st23" d="M211.3,131.6c-0.8-4-1.1-12.6,5.4-10.6C216,124.9,217.1,132.7,211.3,131.6z"/>
	</g>
	<g>
		<path class="st24" d="M237.6,124.1c5.9-0.6,12.5-2.1,17.9,1c3.9,2.1,4.2,7,5.5,10.8c0.4,1.7,0.8,3.4,1.3,5.2
			c1.2,4.2,3.1,8.2,4.8,12.2c0.3,1.7,0.5,3.5,0.8,5.2c-1.3,5.8-2.6,11.6-3.6,17.5c-1,3.8-2.1,7.7-3,11.6
			c-13.3-3.4-27.4-3.6-40.4-8.1c-0.9-4.4,0.4-8.8,1.2-13.1c1.6-8,2.7-16.1,3.7-24.3c2.1-2.3,4.2-4.5,6.1-6.9
			C234.5,131.8,236.1,127.9,237.6,124.1 M229.7,144.6l0.9,1c0,5.3-1.2,10.5-3.4,15.4c3.5,6,10.4,10.1,17.3,10.2
			c8.5,0.3,17.7-5.2,19.5-13.8c0.9-4.1-2.3-7.4-5.3-9.7l0.2-1.3c-4.6-0.1-9.2,1.2-13.8,0.8C240.9,143.2,235,141.5,229.7,144.6z"/>
		<path class="st24" d="M231.7,203.4c8.2,2.3,16.1,7.1,21.8,13.5c-1.7,4.9-4.4,9.4-7,13.9c-8.9,2-19.7-3.3-22.3-12.2
			C226.4,213.4,229,208.3,231.7,203.4z"/>
	</g>
	<g>
		<path class="st25" d="M144.5,126.7c5.1-2.2,10.7-1.9,16.1-2c9.6,0.2,19.2,0.2,28.7-0.6c2.8,3.2,3.7,7.4,5,11.4
			c3.8,13.4,8.3,26.7,12.7,39.9c1.9,5.9,4.5,11.7,4.8,18c-1.8,2.7-4.3,4.8-6.7,7c-1.1-0.1-3.3-0.3-4.4-0.4c-1.5-1.6-3.2-3.2-4.9-4.6
			c-1.4-0.3-2.9-0.3-4.3-0.5c1.6-3.4,3.3-7,1.7-10.8c-0.4-2.1-1.4-4.1-2.2-6.1c-1.9-5.3-3.9-10.5-6-15.6c-0.3-1-0.9-3-1.2-4
			c-0.3-0.9-0.9-2.7-1.2-3.5c-4.1,0-8.1,1.3-11.6,3.3c1.2,11.7,7.8,22,9.3,33.7c-3.7,3.8-8.8,5.4-13.5,7.5
			c-5.8-7.6-8.6-16.8-12.4-25.5c-1.5-4.6-7.2-4.9-10.3-8c-4.4-6.6-5.8-14.7-10.3-21.2c-4.3,0.4-8.2,2.2-12,4
			c-18.4,8.6-36.8,17.5-54.4,27.8c1.3,6.9,4.9,13.2,7.4,19.7c-1.7,2.8-3.3,5.6-4.8,8.5l-1.2-0.2c-5.4-0.7-9.3-4.9-10.8-9.9
			c-2.6-7.8-8.5-14.8-8.8-23.1c4.4-5.2,11-8,16.6-11.6c5.7-3,11-7.5,17.6-8.5l1.5-0.3c-9.1,6.5-19.1,11.4-28.5,17.4
			c-1.9,1.5-5,2.7-4.1,5.7c2.4,8.5,6.4,16.6,10.5,24.4c1.9-0.3,3.8-1,5.6-1.8c0.6-8.3-6.2-15.1-5.7-23.4c7.1-5.4,15.6-8.8,23.3-13.3
			c8.9-5.2,18.4-9.2,27.7-13.5c6.7-3,13.2-7,20.5-8.4c5.4,7.9,7.3,17.6,12.8,25.5c3,1.9,6.5-0.6,8.6-2.8
			C152.2,149.2,145,138.8,144.5,126.7 M154.5,165.4c1.9,6.5,5.1,12.4,7.5,18.6c1.5,3.4,2.5,7.2,5.4,9.8c-0.9-9.5-5.8-18.3-9.6-26.9
			C157,166.5,155.3,165.8,154.5,165.4z"/>
	</g>
	<g>
		<path class="st26" d="M269.9,128.5c3.3-0.8,7.4,2.1,6.7,5.7c-0.3,4-1.3,7.9-2.7,11.7c-3.2-1.8-8-3.8-7.6-8.1
			C266.2,134.3,267.4,130.8,269.9,128.5z"/>
	</g>
	<g>
		<path class="st27" d="M201.6,133.1c4.2,2.6,8.6,5.5,13.6,6c5.8,0.7,11.4-1.6,16.6-4c-1.9,2.4-4,4.7-6.1,6.9c-2,2.4-4.7,4.6-5,8
			c-2,11.8-3.9,23.7-6,35.5c-4.8-3.6-4.9-10.2-6.7-15.5c9-3.4,9.5-14.3,9.5-22.5c-3.2-0.9-6.6-1.2-9.7-2.4c-3.5-1.8-4.4-5.9-5.5-9.3
			C202.2,135.1,201.8,133.7,201.6,133.1z"/>
	</g>
	<g>
		<path class="st28" d="M202.4,135.8c1.1,3.4,2,7.5,5.5,9.3c3.1,1.2,6.5,1.5,9.7,2.4c0,8.2-0.5,19.1-9.5,22.5
			c-2.7-7.2-5.6-14.4-7.5-21.9C201.6,144.1,202.6,140,202.4,135.8z"/>
	</g>
	<g>
		<path class="st29" d="M262.3,141.1c3.6,3.2,7.3,6.4,11.7,8.5c4.9,2,10.3,0.8,15.3,0.3c-2.5,16.2-5.4,32.5-10.4,48.2
			c-6.5-1.3-13.1-2.4-19.6-3.5l1.2-0.8c3.3-2.2,5.7-5.6,8.5-8.4c3.3-1.4,6.9-1.8,10.3-3.1c3.9-6.7,5.4-14.7,5.8-22.4
			c-6.4-0.9-12.9-2.3-18-6.6C265.4,149.2,263.5,145.3,262.3,141.1z"/>
	</g>
	<g>
		<path class="st30" d="M52.5,143.2c2.4-1.4,6.1-1.1,6.6,2.2c0.9,4.2,2.6,10.2-1.8,13c-1.6,1.6-4,2.2-5.4,4
			c-4.2-1.3-8.5-3.1-11.8-6.2c-1.9-1.9-1.1-6.6,2.2-6.4c4.3,0.3,7.4,3.9,11,5.9C52.8,151.6,50.4,147.2,52.5,143.2 M55.5,146.8
			c-1.3,1.7-1.3,6,1,6.6C57.8,151.7,58,147.2,55.5,146.8 M41.9,152.5c1.5,4.2,6.2,5.2,9.9,6.6C49.1,156.1,45.8,153.5,41.9,152.5z"/>
		<path class="st30" d="M116.4,241.2c-1.5-4.2,1.6-8.2,4.9-10.5c1.7,2.4,3.5,4.6,5.5,6.7C123.8,239.6,120.3,242.6,116.4,241.2z"/>
	</g>
	<g>
		<path class="st31" d="M220.8,150c0.3-3.4,3-5.5,5-8c-1,8.1-2.1,16.2-3.7,24.3c-0.7,4.3-2,8.7-1.2,13.1c13,4.6,27.1,4.7,40.4,8.1
			c-0.3,2.1-0.5,4.1-0.8,6.2l-1.2,0.8c-14.8-3.1-29.9-5.3-44.5-9.1C216.9,173.6,218.7,161.8,220.8,150z"/>
	</g>
	<g>
		<path class="st32" d="M229.7,144.6c5.3-3.1,11.2-1.4,15.5,2.5c4.6,0.4,9.2-0.9,13.8-0.8l-0.2,1.3c-4.7,0.4-9.2,1.8-13.9,2.4
			c-4.6-2-9.1-4.3-14.2-4.4L229.7,144.6z"/>
	</g>
	<g>
		<path class="st33" d="M121.7,148.4c3.8-1.8,7.8-3.6,12-4c4.4,6.6,5.9,14.6,10.3,21.2c3.1,3.1,8.8,3.4,10.3,8
			c3.8,8.7,6.6,17.9,12.4,25.5c0.2,0.6,0.6,1.8,0.7,2.5c1.6,10.9,9.4,20.8,7.2,32.2c-17.4,6.9-35.5,12.2-53.3,18
			c2.7-3.5,5.2-7.2,7.2-11.2c3.7-1,7.6-1.3,11.3-2.3c1.8-3.8-0.1-7.7-1.8-11.1c0.8-3.2,1.7-6.5,2.8-9.6c2.4-0.9,5.1-1.6,6.9-3.7
			c-2.2-0.4-4.5-0.8-6.7-1.2c1-1,2.1-2,3.1-2.9c3.7-1.9,10.2-2.8,10.2-8.1c-0.9-8.3-5.1-15.9-7.8-23.7c-1.6-3.8-3.7-9.5-8.9-8.8
			c-7,1.1-13.8,4.1-19.3,8.6c-0.6,4.7,1.6,9.2,3.2,13.5c-7.2-0.7-14.3-1-21.5-1.6c-2.6-1.4-4.9-4.5-8.1-3.6
			c-6.1,1.4-11.2,5.2-16.1,8.8l-1.1,0.8c-2.5-6.5-6.1-12.8-7.4-19.7C84.9,166,103.3,157.1,121.7,148.4 M114.7,159.4
			c0.4,1.5,1,3,1.8,4.4c5.4,0.1,10.9-0.5,16.3-1.3c-0.1-0.7-0.2-2.1-0.3-2.8C127.4,156.4,119.4,155.2,114.7,159.4 M75.1,187
			c5.2-1,8.3-5.9,12-9.3c2.9-2.4-0.4-6.9-3.6-5.3C77.7,174.6,75.1,181.2,75.1,187z"/>
	</g>
	<g>
		<path class="st34" d="M238.9,151.7c2.7,1.9,5.5,3.9,9,3c4.6-0.4,9.1,0.6,13.3,2.6c-1.1,6.9-9.5,10.8-15.9,10.3
			c-1.4-2.3-2.8-4.6-4.5-6.6c-3.2-0.5-6.5-0.4-9.7-0.5c0-2.4,0.1-4.8,0.7-7.2C234.1,152.4,236.4,151.2,238.9,151.7z"/>
	</g>
	<g>
		<path class="st35" d="M267.1,153.3c5,4.4,11.6,5.7,18,6.6c-0.4,7.7-2,15.6-5.8,22.4c-3.4,1.3-7,1.7-10.3,3.1
			c-2.8,2.8-5.2,6.1-8.5,8.4c0.3-2.1,0.6-4.1,0.8-6.2c0.9-3.9,1.9-7.7,3-11.6c5.3-1.2,10.8-3.4,13.4-8.6c-2.6-3.7-6.3-6.2-9.8-8.9
			C267.6,156.7,267.4,155,267.1,153.3z"/>
	</g>
	<g>
		<path class="st36" d="M170.9,158.1c3.5-2,7.6-3.3,11.6-3.3c0.3,0.9,0.9,2.7,1.2,3.5c-2.6,1-5.3,1.8-7.9,2.8
			c0.8,8.3,5.2,15.5,12,20.2c-0.2,3.7-1,7.4-1.6,11c2.6-2.5,5.1-5.2,6.9-8.4c1.6,3.8-0.1,7.4-1.7,10.8c1.4,0.2,2.9,0.2,4.3,0.5
			c1.7,1.5,3.3,3,4.9,4.6c1.1,0.1,3.3,0.3,4.4,0.4c3,3.3,4.8,8.9,0.7,12.2c-7.3,6.7-15.9,11.7-24,17.4c-8.3-7.2-9.2-19-14.3-28.3
			c-0.2-0.6-0.6-1.9-0.7-2.5c4.7-2.1,9.8-3.7,13.5-7.5C178.7,180.1,172.1,169.7,170.9,158.1z"/>
	</g>
	<g>
		<path class="st37" d="M114.7,159.4c4.7-4.2,12.7-2.9,17.7,0.3c0.1,0.7,0.2,2.1,0.3,2.8c-5.4,0.8-10.8,1.4-16.3,1.3
			C115.7,162.4,115.1,160.9,114.7,159.4z"/>
	</g>
	<g>
		<path class="st38" d="M267.9,158.5c3.5,2.7,7.2,5.3,9.8,8.9c-2.7,5.1-8.1,7.4-13.4,8.6C265.2,170.1,266.5,164.3,267.9,158.5z"/>
	</g>
	<g>
		<path class="st39" d="M231.1,160.4c3.2,0.1,6.5,0,9.7,0.5c1.7,2.1,3.1,4.3,4.5,6.6C239.6,168.1,233.8,165.5,231.1,160.4z"/>
	</g>
	<g>
		<path class="st40" d="M179.4,162.8c1.8-0.2,3.6-0.4,5.5-0.5c2.2,5.2,4.1,10.4,6,15.6c-1.1-0.9-2.3-1.3-3.7-1.1
			C182.1,174.2,180.5,168.1,179.4,162.8z"/>
	</g>
	<g>
		<path class="st41" d="M40.7,164.8c1.7-1.4,5.3-1.1,6.1,1.2C46.2,169.1,39,168,40.7,164.8z"/>
	</g>
	<g>
		<path class="st42" d="M154.5,165.4c0.8,0.4,2.5,1.2,3.3,1.5c3.8,8.6,8.7,17.4,9.6,26.9c-2.8-2.6-3.9-6.4-5.4-9.8
			C159.6,177.8,156.4,171.8,154.5,165.4z"/>
	</g>
	<g>
		<path class="st43" d="M118.4,178c5.5-4.5,12.3-7.6,19.3-8.6c5.2-0.7,7.3,5,8.9,8.8c2.8,7.8,6.9,15.4,7.8,23.7
			c-0.1,5.3-6.5,6.1-10.2,8.1c-3.9,1.1-7.9,2.2-11.8,3.3c-5.1-6.4-7.1-14.6-10.8-21.7C120,187.2,117.8,182.8,118.4,178 M120.7,180.7
			c3,9.8,6.5,19.9,12,28.5c4.8,0.4,9.4-1.3,13.7-3.1c2.2-1.2,5.9-2.5,4.7-5.7c-1.3-6.1-3.8-11.7-6-17.5c-1.5-3.5-2.8-7.4-6.1-9.6
			C132.6,174.1,124.9,175.3,120.7,180.7z"/>
		<path class="st43" d="M117.4,231.2c5.5-5.3,13.7-4.6,20.6-3.8c1.7,3.4,3.7,7.3,1.8,11.1c-3.7,1-7.6,1.3-11.3,2.3
			c-4.5,0.9-9,3.5-13.6,2.1C113.8,238.8,114,234,117.4,231.2 M121.3,230.7c-3.3,2.3-6.4,6.3-4.9,10.5c3.9,1.3,7.4-1.6,10.4-3.8
			c4,0.8,8.2,0.2,11.9-1.3c0.2-2.1,0.6-4.7-1.7-5.8C132.2,227.3,126.2,228.9,121.3,230.7z"/>
	</g>
	<g>
		<path class="st44" d="M75.1,187c-0.1-5.8,2.6-12.3,8.3-14.6c3.3-1.6,6.5,2.9,3.6,5.3C83.4,181.1,80.3,186,75.1,187z"/>
	</g>
	<g>
		<path class="st45" d="M120.7,180.7c4.2-5.3,12-6.6,18.4-7.4c3.3,2.2,4.5,6.2,6.1,9.6c2.2,5.7,4.8,11.4,6,17.5
			c1.2,3.2-2.5,4.6-4.7,5.7c-4.3,1.9-9,3.6-13.7,3.1C127.2,200.5,123.6,190.5,120.7,180.7 M129.3,187.1c-0.2,4.7,1.9,13.9,8.3,11.6
			C138.3,193.4,136.5,184.6,129.3,187.1z"/>
		<path class="st45" d="M167.5,201.7c5.1,9.2,6,21.1,14.3,28.3c-2.3,1.4-4.6,2.8-7.1,3.9C176.8,222.4,169.1,212.6,167.5,201.7z"/>
		<path class="st45" d="M124.2,271.2c6.5,11.9,7.1,25.6,9.1,38.7c0.1,4.3,4.2,6.1,7.5,7.7c-2.9-0.4-5.9-0.8-8.8-1.4
			c-1.3-5.6-1.3-11.5-2.2-17.2C128.6,289.6,125.7,280.5,124.2,271.2z"/>
	</g>
	<g>
		<path class="st46" d="M129.3,187.1c7.2-2.6,9.1,6.3,8.3,11.6C131.1,201.1,129.1,191.8,129.3,187.1z"/>
	</g>
	<g>
		<path class="st47" d="M215.4,189.6c9.2,2.2,18.8,2.7,27.8,5.7c-0.1,2.7-0.2,5.5-0.3,8.2c-6.4-1.8-12.4-4.9-19-5.5
			c-5.5-1-10,3.4-15.3,4c0.6-2.9,3.6-4,5.5-5.8C214.7,194,215,191.7,215.4,189.6z"/>
	</g>
	<g>
		<path class="st48" d="M78.9,196.1c4.7-3,10-6.5,15.8-6.3c3.5,2.6,4.8,6.9,6.6,10.7c2.1,5.3,4.8,10.6,5.8,16.2
			c0.5,4.2-4.6,5-7.4,6.6c-2.9,0.8-6.4,3-9.2,1.2c-3.9-5.9-6.1-12.8-9.1-19.2C80.2,202.4,78.3,199.4,78.9,196.1 M90.1,202.2
			c0.7,4.1,2.3,8.1,4.9,11.4c1.9,0,3.4-0.7,4.6-2.1c-0.3-3.9-1.7-7.7-3.6-11C93.9,200.2,91.4,200.2,90.1,202.2z"/>
		<path class="st48" d="M190.7,240.7c7.9-3.3,16.5-6.9,20.5-15.1c-0.8,10.6,9.9,16.4,17.7,21.1c-0.5,1.4-1,2.8-1.7,4.1
			c-4.7-7.1-11.6-12.4-18.9-16.5c-6.9,1.8-12.6,6.4-17.1,11.8c-0.5-0.4-1.5-1.2-2.1-1.6C189.2,243,189.7,241.8,190.7,240.7z"/>
		<path class="st48" d="M199,288.9c2.8,9.9,3.3,20.3,5.5,30.3l0.3,1.3c-1.1,0-3.3-0.1-4.4-0.1C201.6,309.9,200.2,299.4,199,288.9z"
			/>
	</g>
	<g>
		<path class="st49" d="M100.1,190c7.2,0.6,14.3,0.9,21.5,1.6c3.7,7.2,5.6,15.3,10.8,21.7c2.7,1.7,5.5,3.2,8.4,4.5
			c-1.1,3.1-2,6.4-2.8,9.6c-7-0.7-15.1-1.4-20.6,3.8c-3.4,2.8-3.6,7.7-2.5,11.6c4.6,1.4,9.1-1.2,13.6-2.1c-2,4-4.5,7.6-7.2,11.2
			c-8.2,2.6-16,6.8-24.7,7.7c-2.1-0.7-2.9-3-4-4.7c-7.7-16.7-14.5-34-22.8-50.5c1.5-2.9,3.1-5.7,4.8-8.5l1.1-0.8
			c1.3,5,2.6,10.1,3.8,15.2c2.4,5.2,6.2,9.7,8.5,14.9c1.7,5.3,7.8,1.5,11.4,0.9c0.5,0.1,1.4,0.5,1.9,0.6c0.3,1,0.9,2.9,1.2,3.9
			c2.7-1.7,4.8-4.3,5.8-7.4c1.5-3.3,1.7-7.1,0.4-10.5C106.1,205,102.4,197.7,100.1,190z"/>
	</g>
	<g>
		<path class="st50" d="M243.2,195.3c2.6,0,5.3,0.2,7.7,1c-0.2,1.1-0.5,3.2-0.7,4.2c-0.4,2.5-0.6,5.1-0.7,7.7
			c-2.4-1.2-5.2-2.3-6.6-4.7C243,200.8,243.1,198.1,243.2,195.3z"/>
	</g>
	<g>
		<path class="st51" d="M250.3,200.6c0.2-1.1,0.5-3.2,0.7-4.2c6.2,1.1,12.4,2.2,18.5,4.1c0,0.8-0.1,2.4-0.1,3.1
			C263,202.5,256.6,201.5,250.3,200.6z"/>
	</g>
	<g>
		<path class="st52" d="M90.1,202.2c1.3-2,3.8-2,5.9-1.7c1.9,3.4,3.3,7.1,3.6,11c-1.2,1.4-2.8,2.1-4.6,2.1
			C92.4,210.3,90.8,206.3,90.1,202.2z"/>
	</g>
	<g>
		<path class="st53" d="M250.3,200.6c6.4,0.9,12.7,1.9,19.1,3c0.2,15.7-3.3,31.1-6.7,46.3c-5.6-3.5-10.9-7.6-15.9-11.9
			c3.1-7.2,8.6-13.4,10.4-21.1c-0.7-3.9-5.2-5.7-7.7-8.6C249.7,205.7,249.9,203.1,250.3,200.6z"/>
	</g>
	<g>
		<path class="st54" d="M269.4,200.4c2.1,0.1,4.7-0.3,6.1,1.7c0.6,1.6,1.3,3.2,2,4.8l0.5,1.2c-2-1.1-3.8-2.4-5.3-4.1
			c-0.7,6.2-1.9,12.8,0.2,18.9c11.1,23.3,22.4,48.2,21,74.7c-0.8,0-2.3,0-3.1,0c-0.1-10.5-0.2-21.3-4.1-31.2
			c-2.1,6.2-4.3,12.4-7.1,18.3c-0.8-3.2-1.6-6.4-1.9-9.6c0.7-0.1,2-0.2,2.7-0.3c2.1-4,3.2-8.5,4.1-12.9c1.1-5.6-2-10.8-4-15.9
			c-2.7-6.7-5.4-13.4-9.3-19.4c-2.6,8.6-4.1,17.6-5.7,26.5c-1.3-0.8-2.2-1.8-2.8-3.2c3.3-15.2,6.8-30.6,6.7-46.3
			C269.4,202.8,269.4,201.2,269.4,200.4z"/>
	</g>
	<g>
		<path class="st55" d="M275.5,202.1c7.7,0.1,15.3,1.8,22.5,4.1c2,5.2,4.2,10.3,6.4,15.5c0.5,2,1,4,1.4,6c-0.4,0.6-1.2,1.8-1.6,2.4
			c-3.6-7-6.1-14.7-11-21c-4.9-2.2-10.4-1.6-15.6-2.1C276.8,205.3,276.1,203.7,275.5,202.1z"/>
	</g>
	<g>
		<path class="st56" d="M272.7,204c1.5,1.7,3.4,3,5.3,4.1c3.1,6.3,6.5,12.4,9,19c8.7,20.5,20.2,40.9,20.4,63.8
			c-0.2,9.7-0.7,20.3-6.7,28.4c-2.9-1.6-6-3.2-7.9-6c-0.4-5.3,0.9-10.5,1.1-15.8c1.4-26.4-9.9-51.3-21-74.7
			C270.8,216.8,272,210.2,272.7,204z"/>
	</g>
	<g>
		<path class="st57" d="M277.5,206.9c5.2,0.5,10.7,0,15.6,2.1c4.9,6.3,7.4,13.9,11,21c4.8,15.1,12.5,29.3,15.3,45.1
			c1.6,7.9,2.2,15.9,2.6,23.9c-0.3,5.6,0.9,12.3-2.9,16.9c-5.8,2.4-12.2,3-18.4,3.4c6.1-8.1,6.5-18.7,6.7-28.4
			c-0.2-22.9-11.7-43.3-20.4-63.8c-2.5-6.6-5.8-12.7-9-19L277.5,206.9z"/>
	</g>
	<g>
		<path class="st58" d="M132.4,213.3c3.9-1.1,7.9-2.2,11.8-3.3c-1.1,0.9-2.1,1.9-3.1,2.9c2.2,0.4,4.5,0.8,6.7,1.2
			c-1.8,2-4.5,2.7-6.9,3.7C137.9,216.5,135.1,215,132.4,213.3z"/>
	</g>
	<g>
		<path class="st59" d="M196.4,223c4.3-4.1,9.4-7.7,15-9.7c4.5,3.3,2.9,10.8,6.5,15.1c4.2,3.4,10.2,4.1,13.8,8.2
			c-0.9,3.4-1.8,6.8-2.9,10.1c-7.9-4.8-18.5-10.5-17.7-21.1c-4,8.1-12.6,11.8-20.5,15.1C191.8,234.6,193.5,228.5,196.4,223z"/>
	</g>
	<g>
		<path class="st60" d="M221.3,225.3c0.9-2.3,1.9-4.5,2.9-6.8c2.6,9,13.5,14.2,22.3,12.2c-1.1,2-2.1,4.1-3.9,5.6
			c-3.8,0-7.2-2.2-10.7-3.7C228.1,230.6,223.7,229,221.3,225.3z"/>
	</g>
	<g>
		<path class="st61" d="M99.6,226.1c2.9-1,5.9-1.9,8.8-2.9c-1,3.1-3,5.7-5.8,7.4c-0.3-1-0.9-2.9-1.2-3.9
			C101,226.5,100,226.2,99.6,226.1z"/>
		<path class="st61" d="M94.5,290.3c9.3-1,14.8-9.5,20.3-16.1c3.2,4.6,6,9.6,9.4,14.1c-3.1,11.2-10.8,22.9-22.8,25.8
			c-14,4-28.7,5-43.2,5.3c-1.6-8.7-2.2-17.6-0.6-26.3C69.6,289.8,82.2,291.6,94.5,290.3z"/>
	</g>
	<g>
		<path class="st62" d="M44.9,242.8c1.9-6.9,6.2-13.5,12.5-17.2c1,2,1.9,4.1,3.1,6c4.6-1.2,9.1-0.1,12.3,3.6
			c5.5,4,2.8,11.3,1.3,16.7c-0.6,0.3-1.9,0.9-2.5,1.2c0-0.8,0-2.4,0-3.2c-0.2-3.8,0.5-9.3-4-11c-4.9-1.5-10.2-1.2-15.3-0.4
			c-0.3,2.6-0.4,5.2-0.4,7.8c0,2.7,0.1,5.5,0.1,8.2c-0.9-0.4-2.6-1.3-3.5-1.7C46.7,250,43.5,246.7,44.9,242.8z"/>
	</g>
	<g>
		<path class="st63" d="M271.1,226.5c3.9,6.1,6.6,12.8,9.3,19.4c-2.1,5.7-4.1,11.4-6.1,17.1c-3.2-3.1-6.3-6.4-8.9-10.1
			C267,244.1,268.5,235.2,271.1,226.5z"/>
	</g>
	<g>
		<path class="st64" d="M121.3,230.7c4.9-1.9,10.9-3.4,15.7-0.4c2.3,1.1,1.9,3.7,1.7,5.8c-3.7,1.5-7.9,2.1-11.9,1.3
			C124.8,235.3,123,233.1,121.3,230.7 M126.3,231.5c0.4,1.7,1,3.3,1.7,4.9c1.2,0.1,3.6,0.5,4.8,0.6c0-2.5-0.1-4.9-0.4-7.4
			C130.2,229.2,127.9,229.8,126.3,231.5z"/>
	</g>
	<g>
		<path class="st65" d="M177.1,236c4.2-3.3,8.6-6.5,13.6-8.3c-1,6.2-4.6,12-3.8,18.5c-1.3-3-2.6-6.1-4.5-8.7
			C180.7,236.9,178.9,236.5,177.1,236z"/>
	</g>
	<g>
		<path class="st66" d="M305.8,227.6c3.2,7.2,6.4,14.4,10.6,21c9,13.4,8.7,30.3,14.7,44.9c1.8,0.6,3.7,1,5.5,1.3
			c-4.8,1.5-9.5,3.5-14.5,4.1c-0.4-8-1-16-2.6-23.9c-2.8-15.7-10.5-29.9-15.3-45.1C304.5,229.4,305.4,228.2,305.8,227.6z"/>
	</g>
	<g>
		<path class="st67" d="M126.3,231.5c1.6-1.7,3.9-2.3,6.1-1.9c0.3,2.5,0.4,4.9,0.4,7.4c-1.2-0.1-3.6-0.5-4.8-0.6
			C127.3,234.8,126.8,233.2,126.3,231.5z"/>
	</g>
	<g>
		<path class="st68" d="M191.1,246.1c4.5-5.4,10.3-9.9,17.1-11.8c7.3,4.1,14.2,9.4,18.9,16.5c-5.6,4.9-12.3,8.4-18.4,12.6
			C202.1,258.6,196.5,252.3,191.1,246.1z"/>
	</g>
	<g>
		<path class="st69" d="M162.7,241.8c3.8-3.6,9.6-4.2,14.5-5.7c1.8,0.4,3.6,0.9,5.4,1.4c1.9,2.7,3.2,5.7,4.5,8.7
			c0.2,0.6,0.7,1.8,0.9,2.4c4.3,13.3,8.9,26.5,11.1,40.3c1.1,10.5,2.5,21,1.4,31.5c-19.8,3-40.1,0.7-59.7-2.9
			c-3.3-1.6-7.4-3.4-7.5-7.7c-2-13.1-2.6-26.8-9.1-38.7c-2.4-4.7-4.4-9.6-5.1-14.8c4.1-2.4,8.7-4.1,13.4-5c6.8,0.9,14,3.7,20.6,0.9
			C157.7,250.4,160,245.6,162.7,241.8z"/>
	</g>
	<g>
		<path class="st70" d="M231.8,236.7c1-0.1,3.1-0.2,4.2-0.3l-0.4,1.3c-1.4,4-2.6,8.2-3.8,12.3c-5.6,6.9-13.4,11.2-20.5,16.2
			c-0.8-0.4-2.4-1.3-3.2-1.7l0.6-1.1c6.1-4.2,12.8-7.7,18.4-12.6c0.7-1.3,1.3-2.7,1.7-4.1C230,243.4,230.9,240,231.8,236.7z"/>
		<path class="st70" d="M99.1,268.3c0.5-0.2,1.6-0.6,2.1-0.8c6.3,0.2,12.3,2.1,18.3,4.1c0.1-0.6,0.3-1.7,0.4-2.2
			c2.9,5.8,6,12.2,4.3,18.9c-3.4-4.5-6.2-9.4-9.4-14.1c-4.2-4.4-11.5-3-16.9-4.9L99.1,268.3z"/>
	</g>
	<g>
		<path class="st71" d="M52.4,238.6c5-0.8,10.3-1.1,15.3,0.4c4.5,1.7,3.8,7.1,4,11c-1.1,0-3.3,0.1-4.4,0.1c-0.2-2.7-0.4-5.4-1-8
			c-2.9-1.2-6.1-1.3-9.1-0.5c-0.4,2.3-0.8,4.6-1.1,7c-1.4-0.6-2.7-1.3-4-2C52,243.8,52,241.2,52.4,238.6z"/>
	</g>
	<g>
		<path class="st72" d="M231.8,250c1.1-4.1,2.3-8.2,3.8-12.3c10.8,2.4,18.6,10.6,27,17.2c7.7,6.2,10.9,16,12.6,25.4
			c2.2,12.3,4,24.6,5.9,36.9c0.3,3.7,1.5,7.7-0.3,11.2c-4.1,3.5-9.4,5.2-14.4,7.2c-2.2-3.9-3.9-8.2-4.3-12.7
			c-1.3-13.4-3.9-26.6-6.2-39.9c-1.1-5.8-2.6-11.9-6.8-16.3C243.6,260.8,237.2,255.9,231.8,250z"/>
	</g>
	<g>
		<path class="st73" d="M57.1,241.5c3-0.7,6.2-0.7,9.1,0.5c0.6,2.6,0.8,5.3,1,8c-3.8,0.1-7.8,0.3-11.2-1.6
			C56.3,246.1,56.6,243.8,57.1,241.5z"/>
	</g>
	<g>
		<path class="st74" d="M138.7,249.2c6.7-3.2,13.9-5.6,21.3-6.9c-3.5,3.2-6.7,7.4-11.7,8.2C145,251.5,141.8,249.9,138.7,249.2z"/>
	</g>
	<g>
		<path class="st75" d="M160,242.4c0.7-0.1,2-0.4,2.7-0.6c-2.6,3.9-5,8.6-9.6,10.4c-6.7,2.8-13.8,0.1-20.6-0.9
			c1.7-0.9,3.4-1.8,5.3-2.4l1,0.3c3.1,0.7,6.3,2.3,9.6,1.3C153.3,249.7,156.5,245.6,160,242.4z"/>
	</g>
	<g>
		<path class="st76" d="M188,248.6c7,3.8,11.3,10.7,17,16.1c6.8,7.5,15.4,13.8,19.7,23.2c2.7,7.7,3,16.2,2.1,24.2
			c-7,3.4-14.5,5.7-22.1,7.2c-2.2-10-2.7-20.4-5.5-30.3C196.9,275.1,192.3,261.8,188,248.6z"/>
	</g>
	<g>
		<path class="st77" d="M231.8,250c5.4,5.9,11.8,10.8,17.2,16.7c4.2,4.4,5.7,10.5,6.8,16.3c2.3,13.2,4.9,26.5,6.2,39.9
			c0.3,4.5,2.1,8.8,4.3,12.7c-5.9,2.1-12.3,0.2-18.3-0.4c-5.4-1.1-11.2-1-16.2-3.6c-2.7-13.8,0.7-28.2-2.4-42
			c-2.3-10.3-12.8-15-18.1-23.3C218.4,261.2,226.2,256.9,231.8,250z"/>
	</g>
	<g>
		<path class="st78" d="M54.9,251.8c4.5,0.2,9,0.3,13.5,1.1l0.2,1.4c-3,0.3-6.1,0.6-9.1,1.2c-1.6,9.2-0.9,18.6-2.1,27.8
			c-0.6-0.6-1.8-1.8-2.4-2.4C54.1,271.3,54.5,261.5,54.9,251.8z"/>
	</g>
	<g>
		<path class="st79" d="M59.5,255.5c3-0.6,6.1-0.9,9.1-1.2c0.5,9.8,1,19.8-0.3,29.6c-3.7,0.5-7.5,0.6-11.2,0.5l0.2-1.2
			C58.6,274.1,57.9,264.7,59.5,255.5z"/>
	</g>
	<g>
		<path class="st80" d="M102.9,261.9c4-2.4,8.5-3.9,13-4.9c1.8,4,3,8.2,4,12.4c-0.1,0.6-0.3,1.7-0.4,2.2c-5.9-2-12-3.9-18.3-4.1
			C101.7,265.6,102.3,263.7,102.9,261.9z"/>
	</g>
	<g>
		<path class="st81" d="M99.1,268.3c-1.8-2.3,1-7.2,3.8-6.4c-0.6,1.8-1.2,3.7-1.7,5.6C100.7,267.7,99.7,268.1,99.1,268.3z"/>
	</g>
	<g>
		<path class="st82" d="M87.5,278.7c4.4-2,7-6.1,10.3-9.4c5.5,1.9,12.8,0.6,16.9,4.9c-5.5,6.6-11,15.1-20.3,16.1
			c-12.3,1.3-24.9-0.5-36.9,2.7c-1.6,8.7-1,17.7,0.6,26.3c-1-0.1-3.1-0.4-4.1-0.6v-1.2c0.4-8.5,2-17.2-0.1-25.6
			c-3.2-3.8-7.3-6.7-10.8-10.2c3.4-1.4,7.4-1.7,10,1.3c4.4,4.4,11,3.5,16.6,3.1c1-1.5,2-2.9,3-4.3C77.6,280.5,82.9,281,87.5,278.7z"
			/>
	</g>
	<g>
		<path class="st83" d="M42.3,281l0.8,0.8c3.6,3.4,7.6,6.3,10.8,10.2c2.1,8.4,0.5,17.1,0.1,25.6c-5.3-2.6-12.3-6.7-11.7-13.5
			C42.3,296.4,42.7,288.7,42.3,281z"/>
	</g>
	<g>
		<path class="st84" d="M203.6,322.8c8.1-2,15.7-5.6,23.9-7.2c0.3,4.3,0.2,8.6,0.1,12.9c-6.9,2-13.9,3.9-20.8,5.8
			C205.7,330.5,204.6,326.7,203.6,322.8z"/>
	</g>
	<g>
		<path class="st85" d="M131.7,319.5c9.2,0.6,18.1,3.3,27.2,4c14.8,1.2,29.9,1.8,44.6-0.6c1,3.8,2.1,7.7,3.2,11.5
			c-4.7,2.1-9.9,1.5-14.9,1.2c-18.1-1.3-36.2-3.3-54.4-4.5c-2.7-0.4-5.8,0-8.1-1.6C130.1,326.1,130.7,322.7,131.7,319.5z"/>
	</g>
	<g>
		<path class="st86" d="M53.6,322.3c5-0.7,10.1-0.8,15.1-0.2c0,1.2,0,3.7,0,4.9C63.4,327.4,55.5,329,53.6,322.3z"/>
	</g>
</g>
</svg>
