<?xml version="1.0" encoding="utf-8"?>
<!-- Generator: Adobe Illustrator 23.0.0, SVG Export Plug-In . SVG Version: 6.00 Build 0)  -->
<svg version="1.1" id="Layer_1" xmlns="http://www.w3.org/2000/svg" xmlns:xlink="http://www.w3.org/1999/xlink" x="0px" y="0px"
	 viewBox="0 0 400 400" style="enable-background:new 0 0 400 400;" xml:space="preserve">
<style type="text/css">
	.st0{fill:#FBFAFA;}
	.st1{fill:#030202;}
	.st2{fill:#6D3818;}
	.st3{fill:#C76A56;}
	.st4{fill:#2D0F04;}
	.st5{fill:#401904;}
	.st6{fill:#FEBAAB;}
	.st7{fill:#3A1707;}
	.st8{fill:#431D08;}
	.st9{fill:#050508;}
	.st10{fill:#FFFEFE;}
	.st11{fill:#B4B1AF;}
	.st12{fill:#9F9B98;}
	.st13{fill:#032261;}
	.st14{fill:#613115;}
	.st15{fill:#032361;}
	.st16{fill:#1572AB;}
	.st17{fill:#C3D2DF;}
	.st18{fill:#FCFBFB;}
	.st19{fill:#0074B3;}
	.st20{fill:#F98C6E;}
	.st21{fill:#B95B45;}
	.st22{fill:#FCB9A9;}
	.st23{fill:#E37F67;}
	.st24{fill:#FBBAAC;}
	.st25{fill:#BD5A44;}
	.st26{fill:#E88870;}
	.st27{fill:#FDBAAB;}
	.st28{fill:#F78C71;}
	.st29{fill:#1C0703;}
	.st30{fill:#540B03;}
	.st31{fill:#958B85;}
	.st32{fill:#FEB9A9;}
	.st33{fill:#F98B6E;}
	.st34{fill:#9E130A;}
	.st35{fill:#FAD3C8;}
	.st36{fill:#296459;}
	.st37{fill:#01A793;}
	.st38{fill:#F6AC99;}
	.st39{fill:#1D7367;}
	.st40{fill:#00DAC4;}
	.st41{fill:#01D9C4;}
	.st42{fill:#109C8C;}
	.st43{fill:#00A794;}
	.st44{fill:#227065;}
	.st45{fill:#F88C70;}
	.st46{fill:#FFBAAB;}
	.st47{fill:#02467A;}
</style>
<g>
	<g>
		<path class="st0" d="M53.9,53.5h0.4c-0.1,0.1-0.3,0.3-0.4,0.4V53.5z"/>
		<path class="st0" d="M145.5,53.5h3.4c4.6,0.7,7.4,4.2,9.4,8.1c2.6,0.7,5.7,0.7,7.7,2.7c2.1,1.8,2.4,4.7,3.4,7.1
			c15.5-0.5,31.1-0.4,46.6-0.2c3.9,0.3,8-0.2,11.9,0.9c3.6,1.1,4.4,5,4.9,8.2c2.2,13.2,4.9,26.4,6.6,39.7c1.3,4.6-5.5,6.5-3.9,11
			c3.1,18.5,6.2,36.9,9.2,55.4c7.5-3.9,15.4-7.2,22-12.6c2.2-6,0.3-12.7,1-19c0.9-2.8,3.4-4.7,5.3-6.9c-7.5-2.7-17.5-7.4-17.2-16.8
			c9.1-1.2,15.9,7.8,17.8,15.6c3.4-0.2,6.8-0.1,10.3-0.1c3.4-6.5,7.8-15.6,16.6-14.5c2.5,7.8-5.9,11.8-11.3,15.2
			c2.8,4.1,3.9,8.9,4.9,13.7c7.7,0.2,15.5-0.1,23.2,0.3c4.2,0.1,7.8,3.7,7.9,7.9c1.1,11,1.9,22.1,1.9,33.2c0,6-5.8,9.7-10.6,12.1
			c-26.4,12.2-55.4,17.3-84.2,19.8c4.4,15.1,7.4,30.5,8.3,46.2c0.3,7.5,1.7,15,0.9,22.5c-2.5,3.3-6.6,4.6-10.3,5.9
			c-9.2,3.2-18.6,5.7-28,8.2c-18.7,4-37.5,8.8-56.7,9.4c-8,0.6-14.8-4.2-22.2-6.1c-10.2-1.1-20.3-3.9-29.7-8.2
			c-10.1-7-19.1-15.7-28.4-23.8c-6.1-5.7-13.1-13.2-11.2-22.3c2.1-9.3,8.9-16.4,14-24.1c7.2-11,15.5-21.3,24-31.3
			c-2.4-4.8-3.4-10-4.8-15.1c-2.1-2.3-5-4.2-5.4-7.6c-3.3-16.3-6.2-32.6-9.1-49c-1.1-6.3-2.8-12.5-2.1-18.9c0.4-4.8,3.6-8.8,6-12.8
			c5.5-9,11-18,16.5-27c2-3.7,5.9-5.8,10-6.2c7.5-0.8,15.1-0.9,22.6-1.4C130.8,64.9,135.9,55.6,145.5,53.5 M136.4,62.2
			c-3.8,3.8-5.4,9.2-8.9,13.2c-9.6,1.7-20.3-0.9-29.2,3.7c-8,11-14.3,23.3-21.7,34.8c-4.6,6.5-2.3,14.7-1,21.8
			c3.4,18.4,6.5,36.8,10.3,55c1.5,0.4,3,0.9,4.5,1.3c1,6.7,1.7,13.9,6.6,19c-13.6,12.8-23.3,29-34,44.1c-3,4.9-7,10.3-5.7,16.4
			c1.6,6.5,6.7,11.4,11.4,15.8c9,7.9,17.7,16.4,27.6,23c9.5,3.7,19.4,7,29.7,7.2c4.9,2.4,9.9,4.2,15,6.1c10.4,0.7,20.7-1.2,31-2.9
			c22-3.9,43.7-9,64.8-16.6c1.1-1.4,2.4-2.9,2-4.9c-0.8-22.7-3.3-45.5-10.2-67.3c29.5-2.6,59.5-7.2,86.6-19.9c3.9-2,8.8-4.7,8.9-9.7
			c0.1-11-1.1-22-1.9-33c0.1-2.9-2.4-5.6-5.4-5.4c-8.4-0.3-16.8-0.2-25.3-0.4c-0.8-4.1-1.1-8.4-3-12.1c-2.4-3.2-7-1.8-10.5-2.3
			c-3.7-0.7-5.6,3.3-8,5.3c0.1,5.7,0.5,11.5-0.1,17.2c-0.2,1.7-0.4,3.7-2.1,4.6c-8,5.4-16.8,9.8-25.6,13.8
			c-3.5-21.3-6.8-42.7-10.7-63.9c1.6-1.2,3.3-2.3,4.7-3.7c0.7-2.3-0.1-4.7-0.4-7.1c-2.2-12.3-4-24.8-6.3-37.1c-0.3-2-1.7-4.3-4-4.3
			c-19.9-1-39.8-0.7-59.8-0.2c-0.3-2.6,0.5-5.9-1.8-7.8c-2.4-1.8-5.5-1.3-8.3-1.6c-1.1-3-2-6.9-5.6-7.8
			C145,55.2,139.7,58.2,136.4,62.2 M258.3,133.4c1.5,5.5,7,8.2,11.7,10.7C267.1,139.5,263.8,134.7,258.3,133.4 M287.8,145
			c4.5-2.4,10.1-5,11.1-10.6C293.5,135.7,290.3,140.5,287.8,145z"/>
		<path class="st0" d="M274.6,122.1c0.5-3.4,5.3-4.2,6.7-1c3.2,6.7,0.8,14.4,0.4,21.5c-1.5,0-2.9,0.1-4.4,0.1
			C275.3,136,272.8,128.9,274.6,122.1 M277.4,121c-2.1,6.5,0.3,13,1.4,19.4C279.2,134.1,282.2,126.4,277.4,121z"/>
		<path class="st0" d="M113,168.5c0.1-0.6,0.4-1.8,0.5-2.4c2.5,8.5,3.1,17.4,5.8,25.8c0.8,1.9,1.6,4.8,4.2,4.9
			c7.3,0.9,14.7,0.5,22,1c-7.4,0.8-14.8,0.8-22.2,1.5c-6.8,0.8-12.3,5.2-17.7,9c-2.1,0.6-4.3,1.2-6.4,1.7c5.8-4.6,13.1-7,18.4-12.3
			C118,187.8,114.2,178.3,113,168.5z"/>
		<path class="st0" d="M112.2,267.1c-4.5-3.1-2.5-8.5,0.4-11.9C112.8,259.2,112.6,263.1,112.2,267.1z"/>
		<path class="st0" d="M124.6,311.5c1.8-1.8,3.7-3.6,5.4-5.6c-1,2.4-1.8,4.9-3.2,7.1c-2.1,2.3-5.3,1.8-7.9,1.3
			c0.9-0.2,2.7-0.5,3.6-0.7c-1.7-1.8-3.5-3.6-5.3-5.2C119.6,309.6,122.1,310.5,124.6,311.5z"/>
	</g>
	<g>
		<path class="st1" d="M136.4,62.2c3.3-4,8.6-7,13.9-5.5c3.6,0.9,4.5,4.8,5.6,7.8c2.8,0.3,5.9-0.2,8.3,1.6c2.3,2,1.5,5.2,1.8,7.8
			c19.9-0.4,39.8-0.8,59.8,0.2c2.3,0,3.7,2.3,4,4.3c2.3,12.3,4.1,24.7,6.3,37.1c0.3,2.3,1.1,4.7,0.4,7.1c-1.4,1.4-3.1,2.5-4.7,3.7
			c3.9,21.2,7.2,42.6,10.7,63.9c8.8-4,17.5-8.4,25.6-13.8c1.7-0.9,1.9-2.9,2.1-4.6c0.5-5.7,0.2-11.5,0.1-17.2c2.5-2,4.3-6,8-5.3
			c3.4,0.5,8.1-0.9,10.5,2.3c1.9,3.7,2.2,8.1,3,12.1c8.4,0.2,16.8,0.1,25.3,0.4c3-0.2,5.5,2.5,5.4,5.4c0.9,11,2.1,22,1.9,33
			c-0.1,5-5,7.7-8.9,9.7c-27.1,12.7-57.1,17.3-86.6,19.9c6.9,21.8,9.4,44.6,10.2,67.3c0.3,2-0.9,3.5-2,4.9c-0.7-8.5-0.9-17-2.1-25.5
			c-0.1-0.7-0.3-2.1-0.4-2.8c-1.8-15.7-4.4-31.4-9.4-46.4c-1.9-6.5-4.3-12.8-7.1-19c-0.7-1.4-1.3-2.9-2-4.3
			c-6.8,0.4-13.7,0.7-20.5,1.7c-0.7,0.1-1.9,0.3-2.6,0.4l-1.6,0.3c0.3-0.7,0.9-2.1,1.2-2.7c8.8-1.9,18-0.7,26.7-3
			c6.8-2.3,12.6-6.9,18.4-10.9c1.5-1.7,2-3.9,1.7-6.1c-3.7-19.7-6.6-39.6-10.3-59.3c-2.1-0.7-4.3-1.4-6.3-2.3
			c3.7-0.4,7.4-1,11.1-1.6c-0.1-0.9-0.2-2.7-0.2-3.7c-1.7-13.5-3.5-27.1-6.6-40.5c-4.5-1.5-9.2-1.4-13.9-1.4
			c-27,0-54.1-0.5-81.1,1.3c-9.1,0.5-18.3,0-27.4,1.4c-5.3,0.6-7.5,6.2-10.5,9.9c-5.1,7.4-9.7,15.2-14.3,22.9
			c-2.6,4.4-4.2,9.5-3.1,14.6c3.1,17.6,6.7,35.1,9.7,52.7c0.4,4.3,3.2,7.6,6.2,10.4c1.2,6.8,1.8,14.1,6.6,19.6
			c2.1-0.5,4.3-1.1,6.4-1.7c6-1.6,11.7,0.5,16.3,4.4c11.6-3.8,24.1-4.4,36.2-3.9c0.3,0.6,1.1,1.9,1.4,2.5H158
			c-8.9,0-17.8,0.7-26.7,1.3c-0.5,0.1-1.5,0.2-2,0.2c-2,0.7-3.9,1.4-5.8,2.2c2.6,2.2,5.4,4.4,8.2,6.4c0.5,1.9,1.1,3.8,1.6,5.7
			c-5.1,7.7-11.5,14.4-16.5,22.2c-2.8,6-1.4,13.1-1.8,19.5c7.3,4.4,15.3,7.5,22.6,12c4.3,2.4,2.5,7.8,1.5,11.5
			c-0.3,0.7-0.9,2.1-1.2,2.8c-3.6,7.6-6.7,15.5-11.6,22.4c-10.3-0.2-20.2-3.5-29.7-7.2c-10-6.7-18.7-15.1-27.6-23
			c-4.7-4.5-9.9-9.3-11.4-15.8c-1.2-6.1,2.7-11.5,5.7-16.4c10.7-15.2,20.4-31.3,34-44.1c-4.9-5.1-5.7-12.3-6.6-19
			c-1.5-0.4-3-0.9-4.5-1.3c-3.8-18.3-6.9-36.7-10.3-55c-1.3-7.2-3.6-15.3,1-21.8c7.5-11.4,13.7-23.8,21.7-34.8
			c8.9-4.6,19.6-2,29.2-3.7C131,71.5,132.6,66.1,136.4,62.2 M139.8,64.3c-1.4,3-4.1,7.4-1.8,10.4c8.1,1.9,16.6-0.8,24.9-0.3
			c0-2.4-0.1-4.7-0.3-7.1c-4.1,0.8-7.8,2.6-11.1,5.2c1.8-3.5,4.3-8.5,0.6-11.7C148.3,56.4,141.7,59.8,139.8,64.3 M277,151.8
			c-0.4,0.4-1.3,1.1-1.7,1.4c-4,5.3-1.4,12.3-1.7,18.4c2.3-2.2,4.9-4.3,6.5-7.1c2.9-0.5,5.9-0.9,8.9-1.2c-0.5-3.4-0.5-6.9-2-10
			C284.4,150.6,280.2,152.1,277,151.8 M276.1,173.8c-13.7,12.4-31.7,18.2-47.5,27.2c-0.8,1-1.6,2-2.3,3.1c-2.5,0.5-5,1-7.4,1.6
			c2.5,6.4,4.9,12.7,7.6,19.1c-0.1,0.5-0.2,1.4-0.3,1.8h0.5c0.3,0.7,1,2.2,1.4,2.9c4.4,0.2,8.7-0.7,13-1.3c3.6,0.8,6.9-1,10.1-2.3
			c16.7-0.7,32.7-6.6,48.4-12c6.4-2.4,13.3-4.2,18.6-8.9c0.6,0.1,1.7,0.2,2.2,0.2c1-9-0.7-18-1-27c-0.5-3.6,0.2-7.6-1.9-10.8
			c-10.3-0.7-20.6-0.4-30.9-0.7C281.8,166,279.2,170.9,276.1,173.8 M98,213.3c-5.1,4.1-8.7,9.7-12.2,15.1c-0.4,0.6-1.1,1.8-1.4,2.4
			c-1.7,0.1-2.3,2.1-3.3,3.1c-5.7,7.9-11.2,15.9-16.6,23.9c-3,4.5-6.3,10.2-3.5,15.6c4.9,8.8,13.4,14.7,20.6,21.4
			c6.8,5.4,12.8,12.5,21.3,15c5.3,1.7,10.6,3.4,16.1,4.4c2.7,0.4,5.9,1,7.9-1.3c1.4-2.2,2.2-4.7,3.2-7.1c2.7-4.7,4.5-10,6.6-15
			c1.1-2.6,2.3-6.7-0.9-8.5c-7.8-4.8-16.8-7.7-24.2-13.4c-2.8-2.3-5.2-6-3.8-9.7c2.1-4.5,5.2-8.3,7.7-12.5l0.7,0.7
			c0.2-0.7,0.7-2.1,1-2.8c4.7-5.8,9-11.9,13.6-17.7c-1.9-3.8-5.3-6.5-8.1-9.5c-3.3-3.1-6.1-7.2-10.9-8
			C107.1,210.7,102.2,211.1,98,213.3 M112.2,267.1c0.4-4,0.6-7.9,0.4-11.9C109.7,258.6,107.7,264,112.2,267.1z"/>
		<path class="st1" d="M186.4,118.6c-0.6-2.2,1.6-4.2,3.7-4c6.2-0.6,12.4-0.8,18.7-1c3.3-0.3,6.5,1.9,7.2,5.1
			c2.4,8.9,3.4,18.1,5.8,27.1c-0.7,0-2,0-2.7,0c-6.8,0-13.6,0.4-20.4,0.9c-2.4,0-4.8-0.1-7.2-0.2C190.3,137,187.7,127.9,186.4,118.6
			 M196.2,117.3c-2.2,0-4.5,0-6.7,0c0.6,8.6,2.6,17,4.6,25.4c0.8,0.6,2.4,1.7,3.2,2.2l-0.2-1.6c3.9-0.1,7.8-0.1,11.6,0
			c3.2,0,6.5,0,9.7,0c-1.6-7.9-2.7-15.9-5-23.7C209.8,113.7,201.7,116.7,196.2,117.3z"/>
		<path class="st1" d="M277.4,121c4.7,5.3,1.8,13.1,1.4,19.4C277.8,134,275.3,127.5,277.4,121z"/>
		<path class="st1" d="M258.3,133.4c5.5,1.3,8.8,6.2,11.7,10.7C265.3,141.6,259.8,138.9,258.3,133.4z"/>
		<path class="st1" d="M287.8,145c2.6-4.5,5.7-9.3,11.1-10.6C297.8,140,292.3,142.6,287.8,145z"/>
	</g>
	<g>
		<path class="st2" d="M139.8,64.3c2-4.5,8.6-8,12.4-3.6c3.7,3.2,1.2,8.2-0.6,11.7c3.2-2.6,7-4.4,11.1-5.2c0.1,2.4,0.2,4.7,0.3,7.1
			c-8.3-0.4-16.7,2.2-24.9,0.3C135.6,71.8,138.4,67.3,139.8,64.3z"/>
		<path class="st2" d="M140.7,80.2c28.7-2.3,57.5-0.7,86.3-1.6c3,13.3,4.9,26.9,6.6,40.5c-3.3,0.5-6.6,1-9.9,1.5
			c-2.1-10.8-3.5-21.6-6.1-32.2c-22.7-0.1-45.4,1.8-68.2,1.8c-11.2,0.3-22.3,1.2-33.5,1.3c0.4,11.5,2.6,22.8,3.3,34.2l-1.4,0.4
			c-4.1,0.1-8.3,0.1-12.3-1.1c-3.8-9.2-4.3-19.5-6.3-29.2c0.1-4,0.4-8,0.7-12C112.8,78,127.1,81.3,140.7,80.2z"/>
	</g>
	<g>
		<path class="st3" d="M132,78.5c27-1.9,54-1.4,81.1-1.3c4.7,0,9.4,0,13.9,1.4c-28.7,0.9-57.6-0.8-86.3,1.6
			c-13.6,1.1-27.9-2.1-40.8,3.5c-0.3,4-0.6,8-0.7,12c-0.9-2.4-1.9-4.8-3.1-7.1c-0.5,0.3-1.5,1-2,1.3c3-3.7,5.2-9.3,10.5-9.9
			C113.7,78.5,122.9,79,132,78.5z"/>
		<path class="st3" d="M173.9,192.2c7.6,1.8,15.3,0.7,21.8-3.6c-0.1,0.5-0.2,1.6-0.2,2.1c-0.8,1-1.7,2-2.6,3c11-1.2,22.1-1.9,33.1-3
			c3.9-0.5,7.8,0,11.6,1.1c-5.9,4-11.6,8.6-18.4,10.9c-8.7,2.3-17.9,1.1-26.7,3c-0.3,0.7-0.9,2.1-1.2,2.7l-1.1,0.6
			c-9.3,0.8-18.8,0.5-27.9,3.1c-0.7-0.2-2.1-0.7-2.7-0.9c-0.4-0.6-1.1-1.9-1.4-2.5c-12.1-0.4-24.6,0.1-36.2,3.9
			c-4.5-3.9-10.3-6-16.3-4.4c5.4-3.8,10.9-8.3,17.7-9c7.4-0.7,14.8-0.8,22.2-1.5c10.4-0.6,20.8-1.3,31.1-2.4
			C175.7,194.3,174.8,193.3,173.9,192.2z"/>
		<path class="st3" d="M282.2,205.9c7.3-2.1,15-1.8,22.5-2.1c4.5,0.3,9.1,0.8,13.6,1.2c-5.2,4.7-12.2,6.5-18.6,8.9
			c-15.7,5.4-31.7,11.3-48.4,12c-5.2-0.6-10.3-1.3-15.5-1.7C251.7,219.4,267.3,213.3,282.2,205.9z"/>
	</g>
	<g>
		<path class="st4" d="M149.3,90.1c22.7-0.1,45.4-1.9,68.2-1.8c2.6,10.6,4.1,21.5,6.1,32.2c3.3-0.5,6.6-0.9,9.9-1.5
			c0.1,0.9,0.2,2.7,0.2,3.7c-3.7,0.5-7.4,1.1-11.1,1.6c-2.1-1-2.4-3.4-2.9-5.4c-1.7-8.6-2.8-17.4-4.5-26c-32.2,1-64.4,2.5-96.6,3.2
			c0.7,9.9,3.1,19.7,3.3,29.7c-0.3,5.1-6.8,4.6-10.4,5.7c0.9,7.8,2.8,15.5,3.4,23.3c0.6,3-2.8,4-4.6,5.4c-2.3,1.1-4.6,2-7,2.9
			c-2.2-9.4-3.4-19-5.3-28.4c-1.1,0.5-3.2,1.4-4.3,1.9c1.4-2.4,3.7-4.1,5.9-5.7c2.8,8.4,3.3,17.4,5.9,25.9c1.6,0.3,3.3,0.4,5,0.5
			c0.4-0.6,1.2-1.8,1.5-2.4c-0.6-8.4-2.4-16.7-3.5-25c3.1-1.3,6.1-2.6,9.3-3.7l1.4-0.4c-0.8-11.4-2.9-22.7-3.3-34.2
			C127,91.2,138.1,90.4,149.3,90.1z"/>
	</g>
	<g>
		<path class="st5" d="M79.8,112.7c4.6-7.8,9.1-15.5,14.3-22.9c0.5-0.3,1.5-1,2-1.3c1.2,2.3,2.2,4.7,3.1,7.1c2,9.7,2.4,20,6.3,29.2
			c4,1.2,8.2,1.1,12.3,1.1c-3.2,1.1-6.2,2.4-9.3,3.7c-0.7-0.1-2.1-0.3-2.8-0.4c1.3,9.3,2.8,18.7,4.8,27.9c-1.7-0.1-3.3-0.1-5-0.5
			c-2.7-8.5-3.2-17.5-5.9-25.9c-2.2,1.6-4.5,3.3-5.9,5.7c-1,1.7-1.9,3.4-2.9,5.2c1.5-0.3,3-0.5,4.5-0.8c1.2,6.2,2.4,12.4,2.4,18.7
			c-0.1,3.2,1.7,6.1,3.1,8.9c-1.4-1.4-2.9-2.7-4.3-4.1c0.6-7.8-0.1-15.7-3.4-22.9c-1,2.4-2.7,4.9-2.1,7.7c1.1,9,2.8,17.8,4.8,26.7
			c2.5-1.1,5-2.3,7.5-3.3c-2.2,1.9-4.5,3.7-6.8,5.5c0.4,2.8,0.8,5.7,1.1,8.5c-1.6,1.4-3.3,2.8-4.9,4.1c-3.1-2.8-5.8-6.1-6.2-10.4
			c-3-17.6-6.6-35.1-9.7-52.7C75.7,122.3,77.2,117.1,79.8,112.7z"/>
	</g>
	<g>
		<path class="st6" d="M118.6,96c32.2-0.7,64.4-2.2,96.6-3.2c1.7,8.6,2.9,17.4,4.5,26c0.5,2,0.8,4.5,2.9,5.4
			c2.1,0.9,4.2,1.5,6.3,2.3c3.7,19.7,6.6,39.6,10.3,59.3c-5,2.6-10.5,4.1-16.1,4.2c-9.2,0.3-18.5,2.2-27.7,0.7
			c0.1-0.5,0.2-1.6,0.2-2.1c-6.5,4.2-14.3,5.4-21.8,3.6c0.9,1,1.8,2,2.7,3.1c-10.3,1.1-20.7,1.8-31.1,2.4c-7.3-0.4-14.7-0.1-22-1
			c-2.6-0.1-3.4-3-4.2-4.9c-2.7-8.4-3.3-17.3-5.8-25.8c-0.1,0.6-0.4,1.8-0.5,2.4c-0.9-2.9-1.8-5.7-2.8-8.5c1.9-1.4,5.2-2.4,4.6-5.4
			c-0.6-7.8-2.5-15.5-3.4-23.3c3.6-1,10.1-0.5,10.4-5.7C121.7,115.7,119.3,105.9,118.6,96 M189.2,105.7c7.7-0.2,14.5,3.1,21.4,6.1
			c2.4-9.6-9.4-15.9-17.6-14C189.4,98.7,189.8,103,189.2,105.7 M129.3,112.9c5.3,0.4,9.2-3.9,14.3-4.5c2.6-0.4,5.3-0.7,7.9-1.1
			c-0.9-2.6-0.2-7.1-3.8-7.7C139.3,97.5,129.1,103.7,129.3,112.9 M186.4,118.6c1.3,9.3,3.9,18.4,5.1,27.8c1.1,3.3,0.9,8.8,5.7,8.7
			c7,0.5,14.2,0.5,21.2-0.7c4-0.9,3.3-5.6,3.4-8.6c-2.4-8.9-3.4-18.1-5.8-27.1c-0.7-3.2-4-5.4-7.2-5.1c-6.2,0.2-12.5,0.4-18.7,1
			C188,114.4,185.8,116.4,186.4,118.6 M128.2,116.4c-2.5,0.1-3.3,2.9-2.9,5c1.2,9.5,3.1,19,4.3,28.5h0.9c0.1,2.2,0.1,4.4,0.2,6.6
			c9,0.6,18.2,0.6,27.2-0.6c3.5-0.2,3.3-4.4,4-6.9c-1.9-9.4-2.9-18.9-4.6-28.3c-0.3-3.1-3-5.9-6.2-5.5
			C143.3,115.3,135.7,115.8,128.2,116.4 M203.9,158.6c-18.7,9.7-41.4,8.1-60.2,0c-2.1,2.3-4.2,4.6-6.3,7c2.4-0.1,5.4-1.1,6.9,1.4
			c9.4,10.8,22.2,19.9,36.9,20.6c6.9,0.7,13.7-2.3,18.1-7.6c0.2-0.1,0.7-0.2,1-0.3c0.1-0.3,0.2-0.8,0.3-1
			c6.5-5.1,6.6-14.5,12.8-19.6C210.4,157.4,206.9,156.5,203.9,158.6z"/>
	</g>
	<g>
		<path class="st7" d="M189.2,105.7c0.6-2.7,0.2-7,3.8-7.8c8.2-1.9,20,4.4,17.6,14C203.7,108.9,196.9,105.5,189.2,105.7z"/>
	</g>
	<g>
		<path class="st8" d="M129.3,112.9c-0.2-9.2,10-15.4,18.4-13.3c3.6,0.6,2.9,5,3.8,7.7c-2.6,0.4-5.3,0.7-7.9,1.1
			C138.5,108.9,134.6,113.2,129.3,112.9z"/>
	</g>
	<g>
		<path class="st9" d="M128.2,116.4c7.6-0.6,15.1-1.1,22.7-1.2c3.2-0.4,5.9,2.4,6.2,5.5c1.7,9.4,2.7,19,4.6,28.3l-1.5,0.1
			c-7.8-0.1-15.5,0.1-23.2,0.8c-1.1,0-3.2,0.1-4.3,0.2c-0.6,0-1.7,0-2.3,0h-0.9c-1.2-9.5-3.1-19-4.3-28.5
			C124.8,119.3,125.7,116.5,128.2,116.4 M127.7,120.4c1,9,2.9,17.9,4.5,26.8c1.7,0.1,3.4,0.1,5.2-0.1l0.1-0.8
			c3.8-0.4,7.6-0.5,11.4-0.4c3.1,0,6.3-0.1,9.4-0.2c-1.3-7.9-2.4-15.8-3.9-23.6c-0.3-2.4-2.6-4.2-5-4.1c-4.8-0.1-9.6,0.3-14.4,0.5
			C132.5,118.8,129.2,117.7,127.7,120.4z"/>
	</g>
	<g>
		<path class="st10" d="M196.2,117.3c5.5-0.6,13.7-3.6,17.2,2.3c2.3,7.7,3.5,15.8,5,23.7c-3.2,0-6.5,0-9.7,0
			c-0.9-4.8-1.1-9.9-3-14.5c-2.2-3.6-7.2-1.7-10.3-0.4c-0.7,0.3-2.2,1-2.9,1.3c0.1-3.7,0.1-7.5,0.1-11.2
			C193.4,118.1,195.2,117.6,196.2,117.3z"/>
		<path class="st10" d="M135,118.5c4.8-0.2,9.6-0.6,14.4-0.5c2.4-0.1,4.7,1.7,5,4.1c1.6,7.8,2.7,15.7,3.9,23.6
			c-3.1,0.1-6.3,0.2-9.4,0.2c-1.1-5.4-0.7-11.5-4.2-16.1c-3-0.7-6.5-0.9-8.9,1.3c-1.1,3.6,0.3,7.3,0.8,10.8
			c-0.2,0.9-0.5,2.8-0.7,3.8c-0.4,0-1.2,0-1.6,0c-2.9-6.7-3.2-14.2-3.9-21.4C129.5,121.2,133,120,135,118.5z"/>
		<path class="st10" d="M223.2,190c5.6-0.1,11.1-1.6,16.1-4.2c0.3,2.2-0.2,4.4-1.7,6.1c-3.8-1.1-7.7-1.6-11.6-1.1
			c-11,1.1-22.1,1.8-33.1,3c0.9-1,1.7-2,2.6-3C204.7,192.2,213.9,190.4,223.2,190z"/>
		<path class="st10" d="M195.5,208c6.8-1,13.6-1.2,20.5-1.7c0.7,1.4,1.3,2.9,2,4.3C211.9,205,202.9,208.3,195.5,208z"/>
		<path class="st10" d="M111.8,209.6c4.7,0.9,7.6,4.9,10.9,8c2.9,3,6.3,5.7,8.1,9.5c-5.5-5.2-10.5-10.9-16.2-15.8
			c-5.3,5.4-10.3,11.2-13.9,17.9c-1-0.3-2.1-0.5-3.1-0.7C103.3,223.1,109,217.1,111.8,209.6z"/>
		<path class="st10" d="M129.2,212.9c0.5-0.1,1.5-0.2,2-0.2c0.5,4.1,1.2,8.2,2.2,12.3c4.4,17.3,8.3,34.9,9.4,52.8
			c0.2,5.3,1.1,10.5,3.1,15.4c-1.1,0.1-2.2,0.1-3.3,0.1c-1.1-22.2-4.5-44.3-9.4-66c-0.5-1.9-1.1-3.8-1.6-5.7
			C130.8,218.7,130.1,215.8,129.2,212.9z"/>
		<path class="st10" d="M225.1,229.7c5,15,7.6,30.7,9.4,46.4c-0.5,0.1-1.5,0.3-2,0.4C232.8,260.5,227.8,245.2,225.1,229.7z"/>
	</g>
	<g>
		<path class="st11" d="M189.4,117.3c2.2,0,4.5,0,6.7,0c-0.9,0.3-2.7,0.8-3.6,1.1c0,3.7,0,7.5-0.1,11.2c0.7-0.3,2.2-1,2.9-1.3
			c0.3,5,1.1,10,1.7,15l0.2,1.6c-0.8-0.5-2.4-1.6-3.2-2.2C192,134.4,190,125.9,189.4,117.3z"/>
	</g>
	<g>
		<path class="st12" d="M127.7,120.4c1.5-2.7,4.8-1.6,7.2-1.9c-2,1.5-5.5,2.7-4.6,5.8c0.7,7.2,1,14.7,3.9,21.4c0.4,0,1.2,0,1.6,0
			c0.2-1,0.5-2.8,0.7-3.8c0.3,1.5,0.6,3,0.8,4.5l-0.1,0.8c-1.7,0.2-3.4,0.2-5.2,0.1C130.6,138.3,128.8,129.4,127.7,120.4z"/>
	</g>
	<g>
		<path class="st13" d="M195.4,128.4c3.1-1.2,8.1-3.2,10.3,0.4c2,4.6,2.2,9.7,3,14.5c-3.9-0.1-7.8-0.1-11.6,0
			C196.4,138.3,195.6,133.4,195.4,128.4 M198.4,130.1c0.1,2.1,0.3,4.1,0.5,6.2c2-0.7,4.4-0.9,5.5-3c0.4-2.6-0.6-3.6-3-3
			C200.6,130.2,199.1,130.1,198.4,130.1z"/>
		<path class="st13" d="M146,293.2c28.8-5.8,57.6-11.4,86.5-16.8c0.5-0.1,1.5-0.3,2-0.4c0.1,0.7,0.3,2.1,0.4,2.8
			c-29.3,5.9-58.6,11.4-88,16.6c-3,0-6.1-0.1-9.1-0.2c0.3-0.7,0.9-2.1,1.2-2.8c0.9,0.2,2.8,0.6,3.7,0.8
			C143.8,293.3,144.9,293.3,146,293.2z"/>
	</g>
	<g>
		<path class="st14" d="M105.7,129.2c0.7,0.1,2.1,0.3,2.8,0.4c1.2,8.3,3,16.6,3.5,25c-0.4,0.6-1.1,1.8-1.5,2.4
			C108.5,147.8,107,138.5,105.7,129.2z"/>
	</g>
	<g>
		<path class="st15" d="M135.8,131c2.4-2.1,5.9-2,8.9-1.3c3.5,4.6,3.1,10.7,4.2,16.1c-3.8,0-7.6,0.1-11.4,0.4
			c-0.2-1.5-0.5-3-0.8-4.5C136.1,138.3,134.8,134.6,135.8,131 M140,133.7c-0.4-0.3-1.1-1-1.5-1.3c0.2,2.5,0.4,5,0.7,7.5
			c2.1-0.7,4.2-1.3,6.3-2c-0.4-0.3-1.3-0.9-1.7-1.2C146.8,134.3,141.1,129.7,140,133.7z"/>
	</g>
	<g>
		<path class="st16" d="M198.4,130.1c0.7,0,2.2,0.2,3,0.2c-0.2,2.2,0.8,3.2,3,3c-1.1,2.1-3.5,2.3-5.5,3
			C198.7,134.2,198.5,132.2,198.4,130.1z"/>
	</g>
	<g>
		<path class="st17" d="M201.4,130.3c2.4-0.5,3.4,0.4,3,3C202.1,133.5,201.2,132.5,201.4,130.3z"/>
	</g>
	<g>
		<path class="st18" d="M140,133.7c1.1-4.1,6.8,0.5,3.8,3C142.4,135.9,141.2,134.8,140,133.7z"/>
		<path class="st18" d="M167.1,167.1c11.5,2.6,22.8-0.8,34-3.4c-3.4,4-7.7,7.5-13.2,7.9c-9.3,1.1-20,2.3-28-3.6
			C162.3,167.6,164.7,167.3,167.1,167.1z"/>
	</g>
	<g>
		<path class="st19" d="M138.5,132.4c0.4,0.3,1.1,1,1.5,1.3c1.2,1.1,2.4,2.1,3.8,3c0.4,0.3,1.3,0.9,1.7,1.2c-2.1,0.7-4.2,1.3-6.3,2
			C138.9,137.4,138.7,134.9,138.5,132.4z"/>
		<path class="st19" d="M146.8,295.5c29.4-5.2,58.7-10.7,88-16.6c1.2,8.4,1.4,17,2.1,25.5c-21,7.5-42.8,12.6-64.8,16.6
			c-10.3,1.6-20.6,3.6-31,2.9c1-9.1,1-18.3,0.7-27.4C143.5,296.1,145.2,295.8,146.8,295.5z"/>
	</g>
	<g>
		<path class="st20" d="M93.6,136.4c1.1-0.5,3.2-1.4,4.3-1.9c1.9,9.4,3.1,19.1,5.3,28.4c2.4-0.9,4.7-1.8,7-2.9
			c1,2.8,1.9,5.6,2.8,8.5c1.3,9.8,5,19.3,4.6,29.2c-5.3,5.2-12.6,7.7-18.4,12.3c-4.8-5.5-5.4-12.8-6.6-19.6c1.6-1.4,3.3-2.8,4.9-4.1
			c-0.3-2.8-0.7-5.7-1.1-8.5c2.3-1.8,4.6-3.6,6.8-5.5c-2.5,1.1-5,2.2-7.5,3.3c-2-8.8-3.6-17.7-4.8-26.7c-0.6-2.8,1-5.2,2.1-7.7
			c3.4,7.2,4,15.1,3.4,22.9c1.4,1.3,2.9,2.7,4.3,4.1c-1.4-2.8-3.2-5.6-3.1-8.9c0-6.3-1.2-12.5-2.4-18.7c-1.5,0.3-3,0.5-4.5,0.8
			C91.7,139.8,92.6,138.1,93.6,136.4z"/>
	</g>
	<g>
		<path class="st21" d="M191.5,146.4c2.4,0.1,4.8,0.2,7.2,0.2l-1.5,0.4c-0.8,0.2-2.5,0.7-3.3,0.9c1.4,1.5,2.8,3.1,4.5,4.3
			c3.9,1.2,8.1,0.4,12.1,0.2c2.7-0.2,5.5-0.4,8.2-0.7c0.2-2,0.3-4,0.5-6c0.7,0,2,0,2.7,0c-0.1,3.1,0.6,7.8-3.4,8.6
			c-7,1.2-14.1,1.2-21.2,0.7C192.5,155.1,192.6,149.6,191.5,146.4z"/>
	</g>
	<g>
		<path class="st22" d="M198.8,146.6c6.8-0.5,13.6-0.9,20.4-0.9c-0.1,2-0.3,4-0.5,6c-2.7,0.2-5.5,0.5-8.2,0.7
			c-3.3-0.1-6.6-0.3-9.8-0.5c-1.1-1.6-2.2-3.3-3.4-4.9L198.8,146.6z"/>
	</g>
	<g>
		<path class="st23" d="M193.9,147.8c0.8-0.2,2.5-0.7,3.3-0.9c1.2,1.6,2.3,3.3,3.4,4.9c3.3,0.2,6.6,0.4,9.8,0.5
			c-4,0.2-8.2,1-12.1-0.2C196.7,150.9,195.3,149.3,193.9,147.8z"/>
	</g>
	<g>
		<path class="st24" d="M137,149.8c7.7-0.7,15.5-0.9,23.2-0.8c-0.5,1-1.4,3.1-1.9,4.1c-2.4,0.3-4.7,0.5-7.1,0.7
			C146.1,154.2,140.2,154.6,137,149.8z"/>
	</g>
	<g>
		<path class="st25" d="M160.2,149l1.5-0.1c-0.6,2.5-0.4,6.7-4,6.9c-9,1.2-18.1,1.3-27.2,0.6c-0.1-2.2-0.1-4.4-0.2-6.6
			c0.6,0,1.7,0,2.3,0c0.5,1.1,1.4,3.2,1.9,4.2c5.5,0.2,11,0.1,16.5-0.3c2.4-0.2,4.7-0.4,7.1-0.7C158.8,152.1,159.7,150.1,160.2,149z
			"/>
	</g>
	<g>
		<path class="st26" d="M132.7,149.9c1.1,0,3.2-0.1,4.3-0.2c3.2,4.9,9.1,4.4,14.2,4.1c-5.5,0.5-11,0.5-16.5,0.3
			C134.2,153.1,133.2,151,132.7,149.9z"/>
	</g>
	<g>
		<path class="st27" d="M277,151.8c3.2,0.3,7.4-1.2,9.9,1.5c1.5,3.1,1.5,6.7,2,10c-3,0.3-5.9,0.6-8.9,1.2c-0.7-4.1-2.5-7.8-4.7-11.3
			C275.7,152.9,276.6,152.2,277,151.8z"/>
	</g>
	<g>
		<path class="st28" d="M273.6,171.6c0.3-6.1-2.3-13.1,1.7-18.4c2.2,3.4,4,7.2,4.7,11.3C278.4,167.3,275.9,169.4,273.6,171.6z"/>
	</g>
	<g>
		<path class="st29" d="M203.9,158.6c3.1-2.1,6.5-1.2,9.5,0.4c-6.1,5.1-6.3,14.5-12.8,19.6c1.4-7,5.2-13.1,8.1-19.6
			c-2.2,1.3-4.4,2.6-6.6,3.8l-1,0.6c-11.1,2.7-22.5,6-34,3.4c-6.1-1.1-12.2-2.7-18.3-3.5c5.1,6.9,13.8,9.4,22,10.4
			c4.9,0.6,9.8,1.1,14.6,1.5c0,0.7,0,2.2,0,2.9c-0.9,0.3-1.9,0.5-2.8,0.8c-6.8-2-14-3-21-1.4c6.3,5.4,14.6,7.6,22.8,7.4
			c5.1-1.6,10-3.7,15.1-5.1c-4.4,5.2-11.3,8.2-18.1,7.6c-14.7-0.8-27.6-9.8-36.9-20.6c-1.5-2.5-4.6-1.5-6.9-1.4c2-2.4,4.1-4.7,6.3-7
			C162.5,166.8,185.2,168.3,203.9,158.6z"/>
	</g>
	<g>
		<path class="st30" d="M202.1,163c2.2-1.3,4.4-2.6,6.6-3.8c-2.9,6.4-6.6,12.6-8.1,19.6c-0.1,0.2-0.2,0.8-0.3,1
			c-0.2,0.1-0.7,0.2-1,0.3c-5.2,1.4-10.1,3.5-15.1,5.1c0.1-0.7,0.3-2.1,0.4-2.8c-0.7-1.1-1.5-2.1-2.2-3.2c0.9-0.2,1.9-0.5,2.8-0.8
			c0-0.7,0-2.2,0-2.9c-4.9-0.4-9.8-0.9-14.6-1.5c9.1,0.5,18.9,0.4,27.2-3.9C200.6,168.8,201,165.5,202.1,163z"/>
	</g>
	<g>
		<path class="st31" d="M148.8,163.6c6.2,0.8,12.2,2.4,18.3,3.5c-2.4,0.2-4.8,0.5-7.2,0.9c8,5.9,18.7,4.6,28,3.6
			c5.5-0.4,9.8-3.9,13.2-7.9l1-0.6c-1.1,2.4-1.5,5.7-4.2,7c-8.3,4.3-18,4.5-27.2,3.9C162.5,173,153.9,170.5,148.8,163.6z"/>
	</g>
	<g>
		<path class="st32" d="M276.1,173.8c3.1-2.9,5.7-7.8,10.6-7.1c10.3,0.3,20.6,0,30.9,0.7c2.1,3.2,1.4,7.2,1.9,10.8c0.3,9,2,18,1,27
			c-0.6-0.1-1.7-0.2-2.2-0.2c-4.5-0.5-9.1-0.9-13.6-1.2c-6.5-0.9-13-1.6-19.5-2c-0.8-3.3-1.5-6.6-2.4-9.8c-0.2,1.3-0.7,3.9-0.9,5.2
			c-0.6-7.6-1.5-15.1-2.4-22.6C278.4,174.3,277.2,174,276.1,173.8z"/>
	</g>
	<g>
		<path class="st33" d="M228.6,201c15.8-9.1,33.7-14.8,47.5-27.2c1.1,0.2,2.3,0.5,3.4,0.7c0.8,7.5,1.8,15.1,2.4,22.6
			c0.1,2.9,0.2,5.8,0.3,8.8c-14.9,7.4-30.5,13.5-46.4,18.3c-2-0.1-4-0.1-5.9-0.2C229.5,216.4,229.2,208.7,228.6,201z"/>
	</g>
	<g>
		<path class="st34" d="M161.5,177.8c7-1.6,14.2-0.6,21,1.4c0.7,1.1,1.5,2.1,2.2,3.2c-0.1,0.7-0.3,2.1-0.4,2.8
			C176,185.3,167.8,183.2,161.5,177.8z"/>
	</g>
	<g>
		<path class="st35" d="M282.7,191.9c0.8,3.3,1.6,6.6,2.4,9.8c6.5,0.4,13.1,1.1,19.5,2c-7.5,0.3-15.2,0.1-22.5,2.1
			c-0.1-2.9-0.2-5.9-0.3-8.8C282.1,195.8,282.5,193.2,282.7,191.9z"/>
	</g>
	<g>
		<path class="st36" d="M226.3,204.1c0.7-1.1,1.5-2.1,2.3-3.1c0.5,7.7,0.9,15.3,1.2,23c2,0.1,3.9,0.1,5.9,0.2
			c5.2,0.4,10.3,1.1,15.5,1.7c-3.2,1.3-6.6,3.1-10.1,2.3c-4.8-0.8-9.6-1.4-14.4-1.6h-0.5c0.1-0.5,0.2-1.4,0.3-1.8
			C227.7,217.9,226.6,211,226.3,204.1z"/>
	</g>
	<g>
		<path class="st37" d="M218.9,205.7c2.5-0.6,4.9-1.1,7.4-1.6c0.3,6.9,1.3,13.8,0.1,20.7C223.9,218.5,221.4,212.1,218.9,205.7z"/>
		<path class="st37" d="M98,213.3c4.3-2.3,9.2-2.6,13.8-3.7c-2.7,7.5-8.5,13.5-14.2,18.9c-4-0.3-7.9-0.3-11.9-0.1
			C89.3,223.1,92.9,217.4,98,213.3z"/>
	</g>
	<g>
		<path class="st38" d="M162.3,212.2c9.1-2.5,18.6-2.2,27.9-3.1C182.2,215.2,171.5,215.4,162.3,212.2z"/>
	</g>
	<g>
		<path class="st39" d="M190.2,209.2l1.1-0.6l1.6-0.3c-4.8,7.6-14.7,8.8-22.9,8.1c-4.5-0.2-8.5-2.4-12-5.1h1.6
			c0.7,0.2,2.1,0.7,2.7,0.9C171.5,215.4,182.2,215.2,190.2,209.2z"/>
	</g>
	<g>
		<path class="st40" d="M192.9,208.4c0.7-0.1,1.9-0.3,2.6-0.4c7.4,0.3,16.4-3,22.5,2.7c2.8,6.1,5.3,12.5,7.1,19
			c2.7,15.5,7.8,30.8,7.4,46.8c-28.9,5.4-57.7,11-86.5,16.8c-2-4.9-2.9-10.1-3.1-15.4c-1.1-17.9-5-35.5-9.4-52.8
			c-1-4-1.8-8.1-2.2-12.3c8.9-0.6,17.8-1.4,26.7-1.3c3.5,2.6,7.6,4.8,12,5.1C178.2,217.2,188.1,215.9,192.9,208.4z"/>
	</g>
	<g>
		<path class="st41" d="M100.7,229.3c3.6-6.7,8.6-12.5,13.9-17.9c5.8,4.9,10.8,10.6,16.2,15.8c-4.6,5.8-8.9,11.9-13.6,17.7
			C111.5,239.9,106.2,234.4,100.7,229.3z"/>
		<path class="st41" d="M226.7,226.6c4.8,0.2,9.6,0.8,14.4,1.6c-4.3,0.7-8.6,1.5-13,1.3C227.8,228.8,227.1,227.4,226.7,226.6z"/>
	</g>
	<g>
		<path class="st42" d="M123.4,215.1c1.9-0.8,3.9-1.6,5.8-2.2c0.8,2.9,1.6,5.7,2.4,8.6C128.7,219.6,126,217.4,123.4,215.1z"/>
	</g>
	<g>
		<path class="st43" d="M116.7,249.4c5-7.7,11.5-14.4,16.5-22.2c5,21.7,8.3,43.8,9.4,66c-0.9-0.2-2.8-0.6-3.7-0.8
			c1.1-3.7,2.9-9.1-1.5-11.5c-7.3-4.5-15.3-7.6-22.6-12C115.3,262.5,113.9,255.5,116.7,249.4z"/>
	</g>
	<g>
		<path class="st44" d="M84.3,230.8c0.3-0.6,1.1-1.8,1.4-2.4c4-0.2,7.9-0.2,11.9,0.1c1,0.2,2.1,0.4,3.1,0.7
			c5.5,5.2,10.8,10.6,16.5,15.6c-0.2,0.7-0.7,2.1-1,2.8l-0.7-0.7c-6.4-5.6-11.7-12.8-19.3-16.8C92.2,230.3,88.2,230.5,84.3,230.8z"
			/>
	</g>
	<g>
		<path class="st45" d="M84.3,230.8c4-0.3,7.9-0.5,11.9-0.7c-4.1,8.2-9.3,15.8-14.5,23.4c-3.7,5.6-8.2,12.3-5.6,19.3
			c3,6.7,9.6,10.8,15.2,15.3c9,6.4,16.6,14.5,25.9,20.4c1.9,1.6,3.6,3.4,5.3,5.2c-0.9,0.2-2.7,0.6-3.6,0.7
			c-5.5-0.9-10.9-2.6-16.1-4.4c-8.6-2.6-14.5-9.7-21.3-15c-7.2-6.7-15.7-12.6-20.6-21.4c-2.8-5.4,0.4-11.2,3.5-15.6
			c5.5-8,10.9-16.1,16.6-23.9C82,232.9,82.6,231,84.3,230.8z"/>
	</g>
	<g>
		<path class="st46" d="M96.2,230.1c7.7,4,12.9,11.2,19.3,16.8c-2.5,4.2-5.6,8-7.7,12.5c-1.4,3.7,0.9,7.5,3.8,9.7
			c7.4,5.6,16.4,8.5,24.2,13.4c3.2,1.7,1.9,5.8,0.9,8.5c-2.1,5-4,10.2-6.6,15c-1.8,1.9-3.6,3.7-5.4,5.6c-2.5-1-5-1.9-7.4-3
			c-9.3-5.9-16.9-14.1-25.9-20.4c-5.6-4.5-12.2-8.6-15.2-15.3c-2.6-7,1.9-13.7,5.6-19.3C86.9,245.9,92.1,238.3,96.2,230.1z"/>
	</g>
	<g>
		<path class="st47" d="M137.7,295.3c3,0.1,6.1,0.2,9.1,0.2c-1.6,0.3-3.3,0.6-4.9,0.9c0.3,9.1,0.2,18.3-0.7,27.4
			c-5-1.9-10.1-3.8-15-6.1C131,310.7,134.1,302.9,137.7,295.3z"/>
	</g>
</g>
</svg>
